<svg xmlns="http://www.w3.org/2000/svg" viewBox="0 0 439.5 426.97"><defs><style>.cls-1,.cls-2,.cls-3{fill:#b3262a;}.cls-1{fill-opacity:0.81;}.cls-2{fill-opacity:0.61;}.cls-3{fill-opacity:0.95;}</style></defs><g id="Layer_2" data-name="Layer 2"><g id="lines"><path class="cls-1" d="M430.8,112c7.56.3,12.68-11.54,4.6-16.47q-6.88-4.22-13.93-8.13c-11.82-12.74-24.59-24.5-37.26-36.34-18-16.8-35.46-34.59-54.67-49.9-3.13-2.5-6.23-.64-7.5,2.3L226.29,21.73l-49,9.34c-8.14,1.55-16.3,3.28-24.49,4.69a209.71,209.71,0,0,0-25.77,3,4.88,4.88,0,0,0-4,4.32c-4.63,1.21-7.08,8-2,10.77,17.29,9.56,36.72,10.17,55.39,14.48a4.79,4.79,0,0,0,.89.77l5,3.4a4,4,0,0,0,3.46.45c.85.3,1.7.57,2.56.82a4,4,0,0,0,.78.13,6.33,6.33,0,0,0,.56.47c4.94,3.49,10.43,5.21,16.11,6.25l.35.13c11.09,6.52,22,13.39,34.92,14.29-2.2,2.61-2.37,7,1.22,8.9C263,114.83,283.7,125.73,305,135.41c17.56,8,36.19,17,55.59,18.39a7.82,7.82,0,0,0,7.8,5.85,7.71,7.71,0,0,0,5.92-2.49c10.11,5.5,22,8,31.84,14.56,4,2.66,8.09-1,8.55-5.07a40.25,40.25,0,0,0,.21-5.89,6.38,6.38,0,0,0,.63-2.18c.27-2.34.63-4.66,1-7a8.16,8.16,0,0,0,8.37-4.24,154.49,154.49,0,0,0,8.77-22.77,8,8,0,0,0-4.87-10.15,5.59,5.59,0,0,0-.5-1.44c.07-.35.13-.72.19-1.08A4.83,4.83,0,0,0,430.8,112Z"/><path class="cls-1" d="M206.76,358a7.38,7.38,0,0,0-4.91-5.92,96.86,96.86,0,0,0-4.12-21,5.53,5.53,0,0,0,1.44-5.54c-3.07-12.11-8.62-23.49-13.49-34.91-4.76-11.15-9.13-22.64-14.54-33.5a6.66,6.66,0,0,0-.06-1,242.15,242.15,0,0,0-10-39.77q-1.4-5.7-3.08-11.34a5.63,5.63,0,0,0-.27-3c-3.91-11.08-7.55-22.33-12.25-33.09a5.68,5.68,0,0,0,.66-4.35c-1.38-5.59-3-11.1-4.85-16.52a5.26,5.26,0,0,0,2-6,87.19,87.19,0,0,0-4.84-11.55L128.1,105.92a6.65,6.65,0,0,0-.44-3.87,103.61,103.61,0,0,0-6.82-13.41c-.14-.23-.29-.44-.44-.64-.57-1.29-1.11-2.6-1.64-3.91-1-2.89-2-5.78-3.11-8.64A5.9,5.9,0,0,0,111,71.56c-.08-.24-.15-.48-.23-.72a5.81,5.81,0,0,0-2.42-3.25,5.51,5.51,0,0,0-1.6-2.4q0-3.45-.13-6.9c-.17-7-9.91-7.52-11.21-1.55a5.77,5.77,0,0,0-7.85,5.37,109.6,109.6,0,0,1-6.14,34.43,6.09,6.09,0,0,0-.31,1.37c-3-1.14-6.81-.15-7.37,3.75-.37,2.67-.74,5.33-1.09,8a4.9,4.9,0,0,0-1.9,3.2q-1.53,8.46-3.33,16.86-2,6.53-4,13a5.69,5.69,0,0,0-4.29,3.87l-1,2.88c-2.65,0-5.25,1.85-5.52,5.65-.32,4.56-.74,9.11-1.22,13.64q-11.8,33.8-23.56,67.59c-5.62,16.19-10.95,32.46-15.2,49-.94,1.8-1.9,3.58-2.9,5.35C3.9,301-3,311.84,1.39,324.16c.08.23.17.45.27.67a5,5,0,0,0,1.07,6.53,125.09,125.09,0,0,0,24.44,15.43c3.59,3.77,7.23,7.5,11,11.07a123.38,123.38,0,0,0,16.3,12.87A5.28,5.28,0,0,0,57,377.15l26.85,16.28q4.19,3.3,8.1,7a5.72,5.72,0,0,0,1.4,4.67A28.83,28.83,0,0,0,104,412.43a6,6,0,0,0,2.77,1l.11,0c-.74,4.9,5.7,8.74,9.74,4.9l1.35-1.28a5,5,0,0,0,3.39-1.68l1-1.23c1.3,3.08,5,5,8.06,2.89a19,19,0,0,0,5-4.87,66,66,0,0,0,20.58-11,57.68,57.68,0,0,0,6.11-1.9,8.52,8.52,0,0,0,2.69-.52,104.37,104.37,0,0,0,15.63-6.56,36.64,36.64,0,0,0,5.51-4.11,69.86,69.86,0,0,0,6.84-2,14.11,14.11,0,0,0,2.63-1,4.79,4.79,0,0,0,2.26-2.28c.2-.19.39-.38.58-.59h0c4.09-.33,7.8-.32,10.12-5.43C210.88,371.12,208,363.76,206.76,358Z"/><path class="cls-2" d="M405.7,177.75a107.55,107.55,0,0,1-31.7-14,7.46,7.46,0,0,0-5.88-1.21c-.74-.45-1.46-.9-2.2-1.34a8.06,8.06,0,0,0-9.27.8q-7-4.23-14.19-8.27a9.29,9.29,0,0,0-2.27-.91l-12.54-7.35q-13.29-8.23-26.95-15.82a7.91,7.91,0,0,0-7.37-.41c-19.6-12.36-39.71-23.71-61.6-31.64a7,7,0,0,0-7,1.22q-20.12-10-40.45-19.48a9.81,9.81,0,0,0-6.79-.71Q165.95,72,154.65,65c-3.41-2.13-6.63-1.58-9,.29A87.62,87.62,0,0,1,136,58.86a51.16,51.16,0,0,0-11.15-13.11c-7.27-5.94-18.29,1.31-13.37,10.67a45.61,45.61,0,0,0,11.29,13.76c6,10.26,9.41,22.81,13.2,33.57,1.24,3.54,2.45,7.09,3.66,10.65a9,9,0,0,0-3.61,9.16c4.47,24.66,11.61,49.49,27.64,68.73q5.26,18.61,10.27,37.31c3,16.36,7.88,32.44,12.76,48.29a8.2,8.2,0,0,0,6.63,6.05q9.36,40.08,18.21,80.29c1.92,8.74,12.61,7.63,15.78,1.31a10.33,10.33,0,0,0,2.27-.12,209.84,209.84,0,0,0,36.86-9.58c11.66-4.09,24.41-2.78,35.8-7.69,3.67-1.58,7.21-5.86,6.34-10.15A109.29,109.29,0,0,0,327,332.92c7.58-2.91,15.08-6.88,22.91-9.39a8.58,8.58,0,0,0,7-.25l4.35-2a36.62,36.62,0,0,1,3.71-1.21,8.36,8.36,0,0,0,5.73-6.21,8,8,0,0,0,3.75-5l4.11-15.46a10.53,10.53,0,0,0,.84-2.07c.55-1.93,1.1-3.87,1.66-5.8a7.9,7.9,0,0,0,3.35-5.14q4.23-18.67,8.45-37.33a155,155,0,0,0,6.3-27.71l.18-.59a7.79,7.79,0,0,0,.08-4.43.25.25,0,0,1,0-.08q1.69-3.57,3.51-7.1l.43-.48a8.43,8.43,0,0,0,2.12-7.88l.26-.06C414.06,193,413.57,179.79,405.7,177.75Z"/><path class="cls-3" d="M360.25,327.24c-1.17.47-2.33,1-3.49,1.45a8.68,8.68,0,0,0-1.71.27c-14.57,4-28.74,9.3-42.94,14.49q-3.74,1.37-7.47,2.65a5,5,0,0,0-2.19.49l-2.18,1-5.1,1.69a4.44,4.44,0,0,0-3.83.07l-4.24,2c-1.5.67-3,1.3-4.53,1.91q-6.44,2-12.92,3.82a104.06,104.06,0,0,0-9.9,3.41c-.47.11-.93.23-1.4.33a3.89,3.89,0,0,0-2,1.1,131,131,0,0,0-17.44,9.4l-1.72.62a8.35,8.35,0,0,0-2.24.48c-17.53,6.18-35.28,11.92-52.63,18.65-14.71,5.7-27.88,16.47-43.67,18.75-3.18.46-5.37,3.55-6,6.79l-3,1.06c-5.51,1.92-3.15,11,2.42,9.06l3.9-1.36a10.18,10.18,0,0,0,7.27,1.43c16-2.31,28.84-13,43.67-18.75,1.79-.69,3.59-1.37,5.38-2a7.47,7.47,0,0,0,4.54-.33c7.09-2.62,13.85-3.49,21.27-4.29a37.73,37.73,0,0,0,15.8-5.65c16.56-4.57,33.84-5.82,50.82-8.47,9.95-1.55,21-3.58,31.44-7.14a5.58,5.58,0,0,0,5-.5,6.15,6.15,0,0,0,2.12-2.24c.77-.33,1.53-.67,2.29-1,.34.21.68.42,1,.6,1.14,1.72,3.16,2.64,5.26,1.28.37,0,.74,0,1.13,0a13.91,13.91,0,0,0,7.81-3.33,4.87,4.87,0,0,0,2.54-2.3c1.18-1.17,2.28-2.42,3.33-3.62a122.58,122.58,0,0,0,18-27.08,9.61,9.61,0,0,0,.46-7.3C367.67,331.47,364.23,325.64,360.25,327.24Z"/></g></g></svg>