<svg xmlns="http://www.w3.org/2000/svg" xmlns:xlink="http://www.w3.org/1999/xlink" viewBox="0 0 386.96 363.69"><defs><style>.cls-1,.cls-7{fill:none;}.cls-2,.cls-3,.cls-4{fill:#b3262a;}.cls-2{fill-opacity:0.81;}.cls-3{fill-opacity:0.61;}.cls-4{fill-opacity:0.95;}.cls-5{isolation:isolate;}.cls-6{clip-path:url(#clip-path);}.cls-7{stroke:#000;stroke-miterlimit:10;stroke-width:0.25px;}.cls-8{clip-path:url(#clip-path-3);}.cls-9{clip-path:url(#clip-path-4);}.cls-10{clip-path:url(#clip-path-5);}.cls-11{clip-path:url(#clip-path-6);}.cls-12{clip-path:url(#clip-path-7);}.cls-13{clip-path:url(#clip-path-8);}.cls-14{clip-path:url(#clip-path-9);}.cls-15{clip-path:url(#clip-path-10);}.cls-16{clip-path:url(#clip-path-11);}.cls-17{clip-path:url(#clip-path-12);}.cls-18{clip-path:url(#clip-path-13);}.cls-19{clip-path:url(#clip-path-14);}.cls-20{clip-path:url(#clip-path-15);}.cls-21{clip-path:url(#clip-path-16);}.cls-22{clip-path:url(#clip-path-17);}.cls-23{clip-path:url(#clip-path-18);}.cls-24{clip-path:url(#clip-path-19);}.cls-25{clip-path:url(#clip-path-20);}.cls-26{clip-path:url(#clip-path-21);}.cls-27{clip-path:url(#clip-path-22);}.cls-28{clip-path:url(#clip-path-23);}.cls-29{clip-path:url(#clip-path-24);}.cls-30{clip-path:url(#clip-path-25);}.cls-31{clip-path:url(#clip-path-26);}.cls-32{clip-path:url(#clip-path-27);}.cls-33{clip-path:url(#clip-path-28);}.cls-34{clip-path:url(#clip-path-29);}.cls-35{clip-path:url(#clip-path-30);}.cls-36{clip-path:url(#clip-path-31);}.cls-37{clip-path:url(#clip-path-32);}.cls-38{clip-path:url(#clip-path-33);}.cls-39{clip-path:url(#clip-path-34);}.cls-40{clip-path:url(#clip-path-35);}.cls-41{clip-path:url(#clip-path-36);}.cls-42{clip-path:url(#clip-path-37);}.cls-43{clip-path:url(#clip-path-38);}.cls-44{clip-path:url(#clip-path-39);}.cls-45{clip-path:url(#clip-path-40);}.cls-46{clip-path:url(#clip-path-41);}.cls-47{clip-path:url(#clip-path-42);}.cls-48{clip-path:url(#clip-path-43);}.cls-49{clip-path:url(#clip-path-44);}.cls-50{clip-path:url(#clip-path-45);}.cls-51{clip-path:url(#clip-path-46);}.cls-52{clip-path:url(#clip-path-47);}.cls-53{clip-path:url(#clip-path-48);}.cls-54{clip-path:url(#clip-path-49);}.cls-55{clip-path:url(#clip-path-50);}.cls-56{clip-path:url(#clip-path-51);}.cls-57{clip-path:url(#clip-path-52);}</style><clipPath id="clip-path"><path class="cls-1" d="M269.89,177.34c11.52,14.32,24.11,35.22,15.3,53.75-3.57,7.5-10.53,16.76-18.38,20a25,25,0,0,1-9.61,1.77,39.13,39.13,0,0,1-20-5.88c-17.24-10.9-30.44-29.44-35.54-49-2.58-9.92-4.89-21.46-4.37-31.76s6.61-16.86,14.29-22.92a4,4,0,0,1,3.09-1.34,5.22,5.22,0,0,1,.67,0C237,144.62,256.54,160.72,269.89,177.34Zm-2.19,60.89c5.57-5.81,10.86-12.76,10.57-21.2-.29-8.28-4.76-16.48-9-23.4a97.45,97.45,0,0,0-13.77-17.44c-10.4-10.56-24-21.77-39.16-24a30.3,30.3,0,0,0-7,7.26c-2.61,4.21-2.21,9.14-1.74,13.86a127.33,127.33,0,0,0,5.44,27.9,63.87,63.87,0,0,0,12.34,21.54c5.37,6.24,11.78,13.2,19.18,17a26.29,26.29,0,0,0,11.79,3.07,15.33,15.33,0,0,0,11.4-4.57"/></clipPath><clipPath id="clip-path-3"><path class="cls-1" d="M269.89,177.34l3.11-2.51c11.94,14.82,25.58,37.16,15.81,58-3.85,8.08-11.39,18.19-20.46,22a28.76,28.76,0,0,1-11.15,2.08A43.16,43.16,0,0,1,235,250.4C216.9,239,203.09,219.55,197.74,199c-2.64-10.14-5-22.09-4.5-33,.63-11.9,7.59-19.38,15.8-25.87l2.49,3.15c-7.68,6.06-13.77,12.68-14.29,22.92S199,188.07,201.61,198c5.1,19.59,18.3,38.13,35.54,49a39.13,39.13,0,0,0,20,5.88,25,25,0,0,0,9.61-1.77c7.85-3.28,14.81-12.54,18.38-20C294,212.56,281.41,191.66,269.89,177.34Z"/></clipPath><clipPath id="clip-path-4"><path class="cls-1" d="M211.53,143.31,209,140.16a7.52,7.52,0,0,1,5.58-2.19,2.22,2.22,0,0,1,1.15.07c23.1,2.8,43.47,19.64,57.23,36.79l-3.11,2.51C256.54,160.72,237,144.62,215.29,142a5.22,5.22,0,0,0-.67,0A4,4,0,0,0,211.53,143.31Z"/></clipPath><clipPath id="clip-path-5"><path class="cls-1" d="M273,174.87l0,0h0Z"/></clipPath><clipPath id="clip-path-6"><path class="cls-1" d="M273,174.87C285,189.69,298.57,212,288.81,232.81h0C298.57,212,285,189.69,273,174.87Z"/></clipPath><clipPath id="clip-path-7"><path class="cls-1" d="M288.8,232.84v0h0Z"/></clipPath><clipPath id="clip-path-8"><path class="cls-1" d="M288.8,232.84c-3.85,8.07-11.39,18.16-20.45,22h0c9.06-3.82,16.6-13.91,20.45-22Z"/></clipPath><clipPath id="clip-path-9"><polygon class="cls-1" points="268.34 254.82 268.35 254.82 268.35 254.82 268.34 254.82"/></clipPath><clipPath id="clip-path-10"><path class="cls-1" d="M268.34,254.82a28.71,28.71,0,0,1-11.14,2.08h0a28.71,28.71,0,0,0,11.14-2.08Z"/></clipPath><clipPath id="clip-path-11"><path class="cls-1" d="M257.17,256.9h0Z"/></clipPath><clipPath id="clip-path-12"><path class="cls-1" d="M257.17,256.9A43.11,43.11,0,0,1,235,250.4h0a43.11,43.11,0,0,0,22.15,6.5Z"/></clipPath><clipPath id="clip-path-13"><path class="cls-1" d="M235,250.37l.06,0h0Z"/></clipPath><clipPath id="clip-path-14"><path class="cls-1" d="M235,250.37c-18.09-11.46-31.87-30.84-37.22-51.37h0c5.35,20.53,19.13,39.91,37.22,51.37Z"/></clipPath><clipPath id="clip-path-15"><path class="cls-1" d="M197.73,199v0h0Z"/></clipPath><clipPath id="clip-path-16"><path class="cls-1" d="M197.73,199c-2.63-10.13-5-22.07-4.49-32.94h0c-.54,10.87,1.86,22.81,4.49,32.94Z"/></clipPath><clipPath id="clip-path-17"><path class="cls-1" d="M193.24,166v0h0v0Z"/></clipPath><clipPath id="clip-path-18"><path class="cls-1" d="M193.24,166c.64-11.88,7.6-19.35,15.8-25.83h0c-8.2,6.48-15.16,14-15.8,25.83Z"/></clipPath><clipPath id="clip-path-19"><polygon class="cls-1" points="209.05 140.16 209.04 140.16 209.04 140.16 209.05 140.16"/></clipPath><clipPath id="clip-path-20"><path class="cls-1" d="M209.05,140.16a7.47,7.47,0,0,1,5.57-2.19h0a7.47,7.47,0,0,0-5.57,2.19Z"/></clipPath><clipPath id="clip-path-21"><polygon class="cls-1" points="214.62 137.97 214.62 137.97 214.62 137.97 214.62 137.97"/></clipPath><clipPath id="clip-path-22"><path class="cls-1" d="M214.62,138a2.22,2.22,0,0,1,1.15.07h0a2.22,2.22,0,0,0-1.15-.07Z"/></clipPath><clipPath id="clip-path-23"><path class="cls-1" d="M215.84,138.05h0Z"/></clipPath><clipPath id="clip-path-24"><path class="cls-1" d="M215.84,138.05c23.07,2.83,43.41,19.65,57.16,36.78h0c-13.75-17.13-34.09-34-57.16-36.78Z"/></clipPath><clipPath id="clip-path-25"><path class="cls-1" d="M273,174.83c11.94,14.82,25.58,37.16,15.81,58-3.85,8.08-11.39,18.19-20.46,22a28.76,28.76,0,0,1-11.15,2.08A43.16,43.16,0,0,1,235,250.4C216.9,239,203.09,219.55,197.74,199c-2.64-10.14-5-22.09-4.5-33,.63-11.9,7.59-19.38,15.8-25.87l2.49,3.15c-7.68,6.06-13.77,12.68-14.29,22.92S199,188.07,201.61,198c5.1,19.59,18.3,38.13,35.54,49a39.13,39.13,0,0,0,20,5.88,25,25,0,0,0,9.61-1.77c7.85-3.28,14.81-12.54,18.38-20,8.81-18.53-3.78-39.43-15.3-53.75Z"/></clipPath><clipPath id="clip-path-26"><path class="cls-1" d="M209,140.16a7.52,7.52,0,0,1,5.58-2.19,2.22,2.22,0,0,1,1.15.07c23.1,2.8,43.47,19.64,57.23,36.79l-3.11,2.51C256.54,160.72,237,144.62,215.29,142a5.22,5.22,0,0,0-.67,0,4,4,0,0,0-3.09,1.34Z"/></clipPath><clipPath id="clip-path-27"><path class="cls-1" d="M267.7,238.23l-2.88-2.77c5.18-5.42,9.73-11.49,9.46-18.29-.24-7.2-4.33-14.78-8.42-21.45A93.71,93.71,0,0,0,252.64,179c-10.09-10.25-23-20.84-35.17-22.61l-1.14-4.22c15.13,2.25,28.76,13.46,39.16,24a97.45,97.45,0,0,1,13.77,17.44c4.25,6.92,8.72,15.12,9,23.4C278.56,225.47,273.27,232.42,267.7,238.23Z"/></clipPath><clipPath id="clip-path-28"><path class="cls-1" d="M216.33,152.17l1.14,4.22a22.3,22.3,0,0,0-4.78,5.16c-1.87,2.94-1.59,6.93-1.16,11.35a123.91,123.91,0,0,0,5.25,27,59.94,59.94,0,0,0,11.58,20.2c5.23,6.08,11.3,12.63,18,16.06a22.39,22.39,0,0,0,10,2.62,11.42,11.42,0,0,0,8.52-3.34l2.88,2.77a15.33,15.33,0,0,1-11.4,4.57,26.29,26.29,0,0,1-11.79-3.07c-7.4-3.8-13.81-10.76-19.18-17A63.87,63.87,0,0,1,213,201.19a127.33,127.33,0,0,1-5.44-27.9c-.47-4.72-.87-9.65,1.74-13.86A30.3,30.3,0,0,1,216.33,152.17Z"/></clipPath><clipPath id="clip-path-29"><path class="cls-1" d="M264.83,235.44v0h0Z"/></clipPath><clipPath id="clip-path-30"><path class="cls-1" d="M264.83,235.44c5.18-5.41,9.72-11.48,9.45-18.27h0c.27,6.79-4.27,12.86-9.45,18.27Z"/></clipPath><clipPath id="clip-path-31"><path class="cls-1" d="M274.28,217.15v0h0Z"/></clipPath><clipPath id="clip-path-32"><path class="cls-1" d="M274.28,217.15c-.25-7.19-4.34-14.77-8.42-21.43h0c4.08,6.66,8.17,14.24,8.42,21.43Z"/></clipPath><clipPath id="clip-path-33"><path class="cls-1" d="M265.84,195.7l0,0h0Z"/></clipPath><clipPath id="clip-path-34"><path class="cls-1" d="M265.84,195.7a93.82,93.82,0,0,0-13.2-16.7h0a93.82,93.82,0,0,1,13.2,16.7Z"/></clipPath><clipPath id="clip-path-35"><path class="cls-1" d="M252.61,179l0,0h0Z"/></clipPath><clipPath id="clip-path-36"><path class="cls-1" d="M252.61,179c-10.09-10.24-23-20.81-35.14-22.58h0c12.11,1.77,25.05,12.34,35.14,22.58Z"/></clipPath><clipPath id="clip-path-37"><polygon class="cls-1" points="217.46 156.39 217.47 156.38 217.47 156.38 217.46 156.39"/></clipPath><clipPath id="clip-path-38"><path class="cls-1" d="M217.46,156.39a22.29,22.29,0,0,0-4.77,5.16h0a22.29,22.29,0,0,1,4.77-5.16Z"/></clipPath><clipPath id="clip-path-39"><polygon class="cls-1" points="212.68 161.55 212.69 161.54 212.69 161.54 212.68 161.55"/></clipPath><clipPath id="clip-path-40"><path class="cls-1" d="M212.68,161.55c-1.86,2.94-1.58,6.94-1.15,11.35h0c-.43-4.41-.71-8.41,1.15-11.35Z"/></clipPath><clipPath id="clip-path-41"><path class="cls-1" d="M211.54,172.93v0h0Z"/></clipPath><clipPath id="clip-path-42"><path class="cls-1" d="M211.54,172.93a123,123,0,0,0,5.24,27h0a123,123,0,0,1-5.24-27Z"/></clipPath><clipPath id="clip-path-43"><path class="cls-1" d="M216.79,199.94v0h0Z"/></clipPath><clipPath id="clip-path-44"><path class="cls-1" d="M216.79,199.94a59.83,59.83,0,0,0,11.57,20.18h0a59.83,59.83,0,0,1-11.57-20.18Z"/></clipPath><clipPath id="clip-path-45"><path class="cls-1" d="M228.37,220.14v0h0Z"/></clipPath><clipPath id="clip-path-46"><path class="cls-1" d="M228.37,220.14c5.24,6.07,11.29,12.62,18,16h0c-6.68-3.42-12.73-10-18-16Z"/></clipPath><clipPath id="clip-path-47"><polygon class="cls-1" points="246.35 236.18 246.34 236.18 246.34 236.18 246.35 236.18"/></clipPath><clipPath id="clip-path-48"><path class="cls-1" d="M246.35,236.18a22.38,22.38,0,0,0,10,2.62h0a22.38,22.38,0,0,1-10-2.62Z"/></clipPath><clipPath id="clip-path-49"><polygon class="cls-1" points="256.31 238.8 256.3 238.8 256.3 238.8 256.31 238.8"/></clipPath><clipPath id="clip-path-50"><path class="cls-1" d="M256.31,238.8a11.4,11.4,0,0,0,8.51-3.34h0a11.4,11.4,0,0,1-8.51,3.34Z"/></clipPath><clipPath id="clip-path-51"><path class="cls-1" d="M264.82,235.46c5.18-5.42,9.73-11.49,9.46-18.29-.24-7.2-4.33-14.78-8.42-21.45A93.71,93.71,0,0,0,252.64,179c-10.09-10.25-23-20.84-35.17-22.61l-1.14-4.22c15.13,2.25,28.76,13.46,39.16,24a97.45,97.45,0,0,1,13.77,17.44c4.25,6.92,8.72,15.12,9,23.4.29,8.44-5,15.39-10.57,21.2Z"/></clipPath><clipPath id="clip-path-52"><path class="cls-1" d="M217.47,156.39a22.3,22.3,0,0,0-4.78,5.16c-1.87,2.94-1.59,6.93-1.16,11.35a123.91,123.91,0,0,0,5.25,27,59.94,59.94,0,0,0,11.58,20.2c5.23,6.08,11.3,12.63,18,16.06a22.39,22.39,0,0,0,10,2.62,11.42,11.42,0,0,0,8.52-3.34l2.88,2.77a15.33,15.33,0,0,1-11.4,4.57,26.29,26.29,0,0,1-11.79-3.07c-7.4-3.8-13.81-10.76-19.18-17A63.87,63.87,0,0,1,213,201.19a127.33,127.33,0,0,1-5.44-27.9c-.47-4.72-.87-9.65,1.74-13.86a30.3,30.3,0,0,1,7-7.26Z"/></clipPath></defs><g id="Layer_2" data-name="Layer 2"><g id="lines"><path class="cls-2" d="M379.29,95.41c6.67.26,11.17-9.83,4.06-14-4-2.4-8.14-4.69-12.27-6.93-10.4-10.84-21.65-20.87-32.8-30.95C322.44,29.19,307.05,14,290.14,1c-2.76-2.13-5.48-.55-6.6,2l-84.3,15.55-43.12,8c-7.17,1.32-14.35,2.8-21.56,4A188.89,188.89,0,0,0,111.87,33a4.19,4.19,0,0,0-3.5,3.67c-4.08,1-6.24,6.79-1.76,9.18,15.23,8.14,32.33,8.66,48.77,12.34a5.07,5.07,0,0,0,.78.65l4.37,2.89a3.68,3.68,0,0,0,3.05.39c.74.25,1.49.49,2.25.69a3.22,3.22,0,0,0,.69.12,4.87,4.87,0,0,0,.5.4,35.3,35.3,0,0,0,14.17,5.32l.31.11c9.77,5.56,19.37,11.41,30.75,12.17-1.94,2.23-2.08,6,1.08,7.58,18.22,9.28,36.46,18.57,55.18,26.81,15.46,6.8,31.86,14.44,48.94,15.67a6.85,6.85,0,0,0,6.87,5,6.94,6.94,0,0,0,5.22-2.13c8.89,4.69,19.34,6.79,28,12.41,3.5,2.26,7.12-.83,7.52-4.32a31.32,31.32,0,0,0,.19-5,5.46,5.46,0,0,0,.56-1.86c.23-2,.55-4,.91-5.94,2.89.31,6-.92,7.36-3.61a129.13,129.13,0,0,0,7.72-19.4,6.76,6.76,0,0,0-4.28-8.64,5.31,5.31,0,0,0-.44-1.23c.06-.3.11-.61.16-.92A4.31,4.31,0,0,0,379.29,95.41Z"/><path class="cls-2" d="M182,304.92a6.36,6.36,0,0,0-4.32-5.05,80.45,80.45,0,0,0-3.63-17.9,4.57,4.57,0,0,0,1.27-4.71c-2.7-10.32-7.59-20-11.88-29.74-4.19-9.5-8-19.28-12.8-28.53a4.93,4.93,0,0,0-.06-.85,201.1,201.1,0,0,0-8.78-33.87q-1.25-4.86-2.72-9.66a4.56,4.56,0,0,0-.24-2.56c-3.44-9.45-6.64-19-10.79-28.19a4.68,4.68,0,0,0,.59-3.7q-1.83-7.16-4.27-14.08a4.4,4.4,0,0,0,1.72-5.11,74.68,74.68,0,0,0-4.26-9.84q-4.55-10.45-9.08-20.91a5.51,5.51,0,0,0-.39-3.29,86.42,86.42,0,0,0-6-11.43c-.12-.19-.25-.37-.38-.55-.5-1.1-1-2.21-1.45-3.32q-1.31-3.7-2.74-7.36A5.17,5.17,0,0,0,97.72,61c-.07-.2-.14-.41-.2-.61a5,5,0,0,0-2.13-2.77,4.81,4.81,0,0,0-1.41-2c0-2-.07-3.91-.12-5.87-.14-5.94-8.73-6.4-9.87-1.32a5.06,5.06,0,0,0-6.9,4.57,90.87,90.87,0,0,1-5.41,29.33,5,5,0,0,0-.28,1.17c-2.65-1-6-.13-6.48,3.2q-.49,3.39-1,6.8a4.19,4.19,0,0,0-1.67,2.73q-1.35,7.2-2.93,14.36L55.8,121.6A4.93,4.93,0,0,0,52,124.9c-.3.81-.59,1.63-.89,2.45a4.82,4.82,0,0,0-4.86,4.81c-.29,3.89-.66,7.76-1.08,11.62Q34.8,172.57,24.45,201.35C19.51,215.14,14.81,229,11.07,243.1q-1.25,2.29-2.55,4.56c-5.09,8.75-11.16,18-7.3,28.46q.11.28.24.57a4.14,4.14,0,0,0,.94,5.56,110.85,110.85,0,0,0,21.52,13.14c3.16,3.21,6.36,6.39,9.67,9.43a107.22,107.22,0,0,0,14.35,11,4.44,4.44,0,0,0,2.25,5.47l23.65,13.87Q77.52,337.93,81,341a4.79,4.79,0,0,0,1.24,4,25.58,25.58,0,0,0,9.37,6.29,5.54,5.54,0,0,0,2.43.83l.1,0c-.65,4.18,5,7.44,8.58,4.18l1.18-1.09a4.48,4.48,0,0,0,3-1.44c.29-.35.57-.7.86-1,1.14,2.61,4.41,4.22,7.1,2.45a16.47,16.47,0,0,0,4.36-4.14,58.88,58.88,0,0,0,18.12-9.37,51.33,51.33,0,0,0,5.38-1.61,7.9,7.9,0,0,0,2.37-.45,91.18,91.18,0,0,0,13.76-5.59,31.9,31.9,0,0,0,4.85-3.49c2-.46,4-1,6-1.67A12.4,12.4,0,0,0,172,328a4.17,4.17,0,0,0,2-1.94l.5-.5h0c3.6-.29,6.86-.28,8.9-4.63C185.67,316.12,183.1,309.85,182,304.92Z"/><path class="cls-3" d="M357.2,151.4a96.14,96.14,0,0,1-27.92-11.89,6.82,6.82,0,0,0-5.17-1c-.65-.38-1.29-.77-1.94-1.14A7.26,7.26,0,0,0,314,138q-6.21-3.61-12.5-7.05a8.56,8.56,0,0,0-2-.77l-11-6.27q-11.7-7-23.73-13.47a7.16,7.16,0,0,0-6.49-.35C241,99.59,223.3,89.92,204,83.17a6.29,6.29,0,0,0-6.2,1q-17.72-8.5-35.61-16.6a9,9,0,0,0-6-.6q-10.12-5.66-20.07-11.64a6.65,6.65,0,0,0-7.88.25,79,79,0,0,1-8.57-5.48A43.92,43.92,0,0,0,109.9,39c-6.4-5.06-16.11,1.12-11.78,9.09a39.39,39.39,0,0,0,9.95,11.72c5.33,8.74,8.29,19.42,11.62,28.59q1.64,4.53,3.22,9.07a7.55,7.55,0,0,0-3.18,7.81c3.94,21,10.22,42.16,24.34,58.54q4.63,15.86,9,31.78c2.69,13.93,6.93,27.63,11.24,41.13a7.14,7.14,0,0,0,5.83,5.16q8.23,34.14,16,68.38c1.69,7.45,11.1,6.51,13.89,1.12a9.16,9.16,0,0,0,2-.1,190.57,190.57,0,0,0,32.45-8.16c10.27-3.48,21.49-2.37,31.52-6.55,3.23-1.34,6.35-5,5.58-8.64a99.44,99.44,0,0,0,16.21-4.34c6.67-2.48,13.28-5.85,20.17-8a7.78,7.78,0,0,0,6.18-.22l3.82-1.73c1.06-.38,2.13-.72,3.27-1a7.23,7.23,0,0,0,5.05-5.29,6.89,6.89,0,0,0,3.3-4.23q1.8-6.58,3.62-13.18a8.53,8.53,0,0,0,.73-1.76c.49-1.65,1-3.29,1.46-4.94a6.72,6.72,0,0,0,3-4.38l7.44-31.8a127.61,127.61,0,0,0,5.54-23.6c0-.17.11-.33.16-.5a6.48,6.48,0,0,0,.07-3.77s0,0,0-.08c1-2,2-4,3.09-6l.38-.41a7,7,0,0,0,1.87-6.71l.23,0C364.56,164.4,364.13,153.14,357.2,151.4Z"/><path class="cls-4" d="M317.18,278.74c-1,.4-2.05.81-3.07,1.23a8.3,8.3,0,0,0-1.51.24c-12.83,3.41-25.3,7.91-37.8,12.34-2.19.77-4.39,1.52-6.58,2.26a4.51,4.51,0,0,0-1.93.41l-1.92.86c-1.5.49-3,1-4.49,1.44a4,4,0,0,0-3.37.06c-1.24.57-2.49,1.11-3.74,1.67s-2.64,1.11-4,1.63q-5.67,1.67-11.38,3.25A91.69,91.69,0,0,0,228.7,307l-1.24.28a3.43,3.43,0,0,0-1.74.94,116.67,116.67,0,0,0-15.36,8l-1.51.53a7.75,7.75,0,0,0-2,.4c-15.43,5.27-31.07,10.16-46.34,15.89-12.95,4.86-24.55,14-38.45,16-2.8.4-4.73,3-5.29,5.79l-2.68.9c-4.86,1.64-2.78,9.37,2.12,7.72l3.44-1.16a9.25,9.25,0,0,0,6.4,1.22c14.1-2,25.4-11.1,38.45-16,1.57-.59,3.16-1.17,4.74-1.74a6.85,6.85,0,0,0,4-.28c6.23-2.23,12.19-3,18.72-3.66a33.8,33.8,0,0,0,13.91-4.81c14.58-3.89,29.79-5,44.74-7.21a170.59,170.59,0,0,0,27.69-6.08,5.09,5.09,0,0,0,4.42-.43,5.48,5.48,0,0,0,1.86-1.91c.68-.28,1.35-.57,2-.87a10.1,10.1,0,0,0,.91.51,3.25,3.25,0,0,0,4.63,1.09c.33,0,.65,0,1,0a12.41,12.41,0,0,0,6.88-2.84,4.24,4.24,0,0,0,2.24-1.95c1-1,2-2.06,2.93-3.08a104.78,104.78,0,0,0,15.86-23.07,7.94,7.94,0,0,0,.41-6.22C323.71,282.35,320.69,277.38,317.18,278.74Z"/><g class="cls-5"><g class="cls-5"><g class="cls-6"><path class="cls-7" d="M269.89,177.34c11.52,14.32,24.11,35.22,15.3,53.75-3.57,7.5-10.53,16.76-18.38,20a25,25,0,0,1-9.61,1.77,39.13,39.13,0,0,1-20-5.88c-17.24-10.9-30.44-29.44-35.54-49-2.58-9.92-4.89-21.46-4.37-31.76s6.61-16.86,14.29-22.92a4,4,0,0,1,3.09-1.34,5.22,5.22,0,0,1,.67,0C237,144.62,256.54,160.72,269.89,177.34Zm-2.19,60.89c5.57-5.81,10.86-12.76,10.57-21.2-.29-8.28-4.76-16.48-9-23.4a97.45,97.45,0,0,0-13.77-17.44c-10.4-10.56-24-21.77-39.16-24a30.3,30.3,0,0,0-7,7.26c-2.61,4.21-2.21,9.14-1.74,13.86a127.33,127.33,0,0,0,5.44,27.9,63.87,63.87,0,0,0,12.34,21.54c5.37,6.24,11.78,13.2,19.18,17a26.29,26.29,0,0,0,11.79,3.07,15.33,15.33,0,0,0,11.4-4.57"/></g></g><g class="cls-5"><g class="cls-6"><path class="cls-7" d="M269.89,177.34c11.52,14.32,24.11,35.22,15.3,53.75-3.57,7.5-10.53,16.76-18.38,20a25,25,0,0,1-9.61,1.77,39.13,39.13,0,0,1-20-5.88c-17.24-10.9-30.44-29.44-35.54-49-2.58-9.92-4.89-21.46-4.37-31.76s6.61-16.86,14.29-22.92a4,4,0,0,1,3.09-1.34,5.22,5.22,0,0,1,.67,0C237,144.62,256.54,160.72,269.89,177.34Zm-2.19,60.89c5.57-5.81,10.86-12.76,10.57-21.2-.29-8.28-4.76-16.48-9-23.4a97.45,97.45,0,0,0-13.77-17.44c-10.4-10.56-24-21.77-39.16-24a30.3,30.3,0,0,0-7,7.26c-2.61,4.21-2.21,9.14-1.74,13.86a127.33,127.33,0,0,0,5.44,27.9,63.87,63.87,0,0,0,12.34,21.54c5.37,6.24,11.78,13.2,19.18,17a26.29,26.29,0,0,0,11.79,3.07,15.33,15.33,0,0,0,11.4-4.57"/></g></g><g class="cls-5"><g class="cls-8"><g class="cls-5"><path class="cls-7" d="M269.89,177.34l3.11-2.51c11.94,14.82,25.58,37.16,15.81,58l-3.62-1.72C294,212.56,281.41,191.66,269.89,177.34Z"/><path class="cls-7" d="M271.46,176.07c11.73,14.58,24.85,36.2,15.56,55.89"/><path class="cls-7" d="M272.58,175.17c11.87,14.75,25.37,36.9,15.73,57.41"/><path class="cls-7" d="M280.93,193.52l3.65-1.7"/><path class="cls-7" d="M287.7,212.1l4-.28"/><path class="cls-7" d="M285.19,231.09l3.62,1.72c-3.85,8.08-11.39,18.19-20.46,22l-1.54-3.69C274.66,247.85,281.62,238.59,285.19,231.09Z"/><path class="cls-7" d="M287,232c-3.71,7.79-11,17.48-19.43,21"/><path class="cls-7" d="M288.31,232.58c-3.8,8-11.26,18-20.17,21.73"/><path class="cls-7" d="M280.59,238.89l3.22,2.37"/><path class="cls-7" d="M274.27,246.14l2.56,3.07"/><path class="cls-7" d="M266.81,251.13l1.54,3.69a28.76,28.76,0,0,1-11.15,2.08v-4A25,25,0,0,0,266.81,251.13Z"/><path class="cls-7" d="M267.59,253a27,27,0,0,1-10.39,1.93"/><path class="cls-7" d="M268.14,254.31a28.4,28.4,0,0,1-10.94,2.05"/><path class="cls-7" d="M263.75,252.14l1,3.87"/><path class="cls-7" d="M260.53,252.72l.49,4"/><path class="cls-7" d="M257.2,252.9v4A43.16,43.16,0,0,1,235,250.4l2.13-3.38A39.13,39.13,0,0,0,257.2,252.9Z"/><path class="cls-7" d="M257.2,254.92a41.29,41.29,0,0,1-21.13-6.19"/><path class="cls-7" d="M257.2,256.36a42.61,42.61,0,0,1-21.89-6.42"/><path class="cls-7" d="M250.07,252.15l-.77,3.92"/><path class="cls-7" d="M243.22,250.09l-1.5,3.71"/><path class="cls-7" d="M237.15,247,235,250.4C216.9,239,203.09,219.55,197.74,199l3.87-1C206.71,217.58,219.91,236.12,237.15,247Z"/><path class="cls-7" d="M236.07,248.73c-17.68-11.18-31.18-30.16-36.41-50.23"/><path class="cls-7" d="M235.31,249.94c-18-11.38-31.72-30.66-37-51.08"/><path class="cls-7" d="M221.41,233.82l-2.92,2.73"/><path class="cls-7" d="M209.26,217l-3.5,1.92"/><path class="cls-7" d="M201.61,198l-3.87,1c-2.64-10.14-5-22.09-4.5-33l4,.2C196.72,176.53,199,188.07,201.61,198Z"/><path class="cls-7" d="M199.66,198.5c-2.61-10-5-21.78-4.44-32.37"/><path class="cls-7" d="M198.27,198.86c-2.63-10.11-5-22-4.48-32.81"/><path class="cls-7" d="M199.21,187.64l-3.93.72"/><path class="cls-7" d="M197.57,176.84l-4,.32"/><path class="cls-7" d="M197.24,166.23l-4-.2c.63-11.9,7.59-19.38,15.8-25.87l2.49,3.15C203.85,149.37,197.76,156,197.24,166.23Z"/><path class="cls-7" d="M195.22,166.13c.58-11.08,7.11-18.13,15.05-24.41"/><path class="cls-7" d="M193.79,166.05c.61-11.67,7.45-19,15.59-25.46"/><path class="cls-7" d="M199.47,157.08l-3.68-1.61"/><path class="cls-7" d="M204.53,149.67l-3.1-2.57"/></g><path class="cls-7" d="M269.89,177.34l3.11-2.51c11.94,14.82,25.58,37.16,15.81,58-3.85,8.08-11.39,18.19-20.46,22a28.76,28.76,0,0,1-11.15,2.08A43.16,43.16,0,0,1,235,250.4C216.9,239,203.09,219.55,197.74,199c-2.64-10.14-5-22.09-4.5-33,.63-11.9,7.59-19.38,15.8-25.87l2.49,3.15c-7.68,6.06-13.77,12.68-14.29,22.92S199,188.07,201.61,198c5.1,19.59,18.3,38.13,35.54,49a39.13,39.13,0,0,0,20,5.88,25,25,0,0,0,9.61-1.77c7.85-3.28,14.81-12.54,18.38-20C294,212.56,281.41,191.66,269.89,177.34Z"/></g></g><g class="cls-5"><g class="cls-9"><g class="cls-5"><path class="cls-7" d="M211.53,143.31,209,140.16a7.52,7.52,0,0,1,5.58-2.19v4A4,4,0,0,0,211.53,143.31Z"/><path class="cls-7" d="M210.27,141.72a5.81,5.81,0,0,1,4.35-1.77"/><path class="cls-7" d="M209.38,140.59a7,7,0,0,1,5.24-2.07"/><path class="cls-7" d="M212.38,142.59l-2-3.52"/><path class="cls-7" d="M213.41,142.13l-1.12-3.86"/><path class="cls-7" d="M214.62,142v-4a2.22,2.22,0,0,1,1.15.07l-.48,4A5.22,5.22,0,0,0,214.62,142Z"/><path class="cls-7" d="M214.62,140a2.44,2.44,0,0,1,.91.06"/><path class="cls-7" d="M214.62,138.52a2.28,2.28,0,0,1,1.08.06"/><path class="cls-7" d="M214.84,142l.12-4"/><path class="cls-7" d="M215.06,142l.25-4.06"/><path class="cls-7" d="M215.29,142l.48-4c23.1,2.8,43.47,19.64,57.23,36.79l-3.11,2.51C256.54,160.72,237,144.62,215.29,142Z"/><path class="cls-7" d="M215.53,140c22.41,2.7,42.37,19.18,55.93,36.06"/><path class="cls-7" d="M215.7,138.58c22.92,2.78,43.17,19.52,56.88,36.59"/><path class="cls-7" d="M236.13,148.64l1.69-3.63"/><path class="cls-7" d="M254.62,161.37l2.56-3.08"/></g><path class="cls-7" d="M211.53,143.31,209,140.16a7.52,7.52,0,0,1,5.58-2.19,2.22,2.22,0,0,1,1.15.07c23.1,2.8,43.47,19.64,57.23,36.79l-3.11,2.51C256.54,160.72,237,144.62,215.29,142a5.22,5.22,0,0,0-.67,0A4,4,0,0,0,211.53,143.31Z"/></g></g><g class="cls-5"><g class="cls-10"><g class="cls-5"><path class="cls-7" d="M273,174.83h0c11.94,14.82,25.58,37.16,15.81,58h0C298.58,212,284.94,189.65,273,174.83Z"/></g><path class="cls-7" d="M273,174.87l0,0h0Z"/></g></g><g class="cls-5"><g class="cls-11"><g class="cls-5"><path class="cls-7" d="M273,174.83h0c11.94,14.82,25.58,37.16,15.81,58h0C298.58,212,284.94,189.65,273,174.83Z"/><line class="cls-7" x1="284.58" y1="191.82" x2="284.58" y2="191.82"/><line class="cls-7" x1="291.7" y1="211.82" x2="291.7" y2="211.82"/></g><path class="cls-7" d="M273,174.87C285,189.69,298.57,212,288.81,232.81h0C298.57,212,285,189.69,273,174.87Z"/></g></g><g class="cls-5"><g class="cls-12"><g class="cls-5"><path class="cls-7" d="M288.81,232.81h0c-3.85,8.08-11.39,18.19-20.46,22h0C277.42,251,285,240.89,288.81,232.81Z"/></g><path class="cls-7" d="M288.8,232.84v0h0Z"/></g></g><g class="cls-5"><g class="cls-13"><g class="cls-5"><path class="cls-7" d="M288.81,232.81h0c-3.85,8.08-11.39,18.19-20.46,22h0C277.42,251,285,240.89,288.81,232.81Z"/><line class="cls-7" x1="283.81" y1="241.26" x2="283.81" y2="241.26"/><line class="cls-7" x1="276.83" y1="249.21" x2="276.83" y2="249.21"/></g><path class="cls-7" d="M288.8,232.84c-3.85,8.07-11.39,18.16-20.45,22h0c9.06-3.82,16.6-13.91,20.45-22Z"/></g></g><g class="cls-5"><g class="cls-14"><g class="cls-5"><path class="cls-7" d="M268.35,254.82h0a28.76,28.76,0,0,1-11.15,2.08h0A28.76,28.76,0,0,0,268.35,254.82Z"/></g><polygon class="cls-7" points="268.34 254.82 268.35 254.82 268.35 254.82 268.34 254.82"/></g></g><g class="cls-5"><g class="cls-15"><g class="cls-5"><path class="cls-7" d="M268.35,254.82h0a28.76,28.76,0,0,1-11.15,2.08h0A28.76,28.76,0,0,0,268.35,254.82Z"/><line class="cls-7" x1="264.75" y1="256.01" x2="264.75" y2="256.01"/><line class="cls-7" x1="261.02" y1="256.69" x2="261.02" y2="256.69"/></g><path class="cls-7" d="M268.34,254.82a28.71,28.71,0,0,1-11.14,2.08h0a28.71,28.71,0,0,0,11.14-2.08Z"/></g></g><g class="cls-5"><g class="cls-16"><g class="cls-5"><path class="cls-7" d="M257.2,256.9h0A43.16,43.16,0,0,1,235,250.4h0A43.16,43.16,0,0,0,257.2,256.9Z"/></g><path class="cls-7" d="M257.17,256.9h0Z"/></g></g><g class="cls-5"><g class="cls-17"><g class="cls-5"><path class="cls-7" d="M257.2,256.9h0A43.16,43.16,0,0,1,235,250.4h0A43.16,43.16,0,0,0,257.2,256.9Z"/><line class="cls-7" x1="249.3" y1="256.07" x2="249.3" y2="256.07"/><line class="cls-7" x1="241.72" y1="253.8" x2="241.72" y2="253.8"/></g><path class="cls-7" d="M257.17,256.9A43.11,43.11,0,0,1,235,250.4h0a43.11,43.11,0,0,0,22.15,6.5Z"/></g></g><g class="cls-5"><g class="cls-18"><g class="cls-5"><path class="cls-7" d="M235,250.4h0C216.9,239,203.09,219.55,197.74,199h0C203.09,219.55,216.9,239,235,250.4Z"/></g><path class="cls-7" d="M235,250.37l.06,0h0Z"/></g></g><g class="cls-5"><g class="cls-19"><g class="cls-5"><path class="cls-7" d="M235,250.4h0C216.9,239,203.09,219.55,197.74,199h0C203.09,219.55,216.9,239,235,250.4Z"/><line class="cls-7" x1="218.49" y1="236.55" x2="218.49" y2="236.55"/><line class="cls-7" x1="205.76" y1="218.91" x2="205.76" y2="218.91"/></g><path class="cls-7" d="M235,250.37c-18.09-11.46-31.87-30.84-37.22-51.37h0c5.35,20.53,19.13,39.91,37.22,51.37Z"/></g></g><g class="cls-5"><g class="cls-20"><g class="cls-5"><path class="cls-7" d="M197.74,199h0c-2.64-10.14-5-22.09-4.5-33h0C192.7,176.91,195.1,188.86,197.74,199Z"/></g><path class="cls-7" d="M197.73,199v0h0Z"/></g></g><g class="cls-5"><g class="cls-21"><g class="cls-5"><path class="cls-7" d="M197.74,199h0c-2.64-10.14-5-22.09-4.5-33h0C192.7,176.91,195.1,188.86,197.74,199Z"/><line class="cls-7" x1="195.28" y1="188.36" x2="195.28" y2="188.36"/><line class="cls-7" x1="193.58" y1="177.16" x2="193.58" y2="177.16"/></g><path class="cls-7" d="M197.73,199c-2.63-10.13-5-22.07-4.49-32.94h0c-.54,10.87,1.86,22.81,4.49,32.94Z"/></g></g><g class="cls-5"><g class="cls-22"><g class="cls-5"><path class="cls-7" d="M193.24,166h0c.63-11.9,7.59-19.38,15.8-25.87h0C200.83,146.65,193.87,154.13,193.24,166Z"/></g><path class="cls-7" d="M193.24,166v0h0v0Z"/></g></g><g class="cls-5"><g class="cls-23"><g class="cls-5"><path class="cls-7" d="M193.24,166h0c.63-11.9,7.59-19.38,15.8-25.87h0C200.83,146.65,193.87,154.13,193.24,166Z"/><line class="cls-7" x1="195.79" y1="155.47" x2="195.79" y2="155.47"/><line class="cls-7" x1="201.43" y1="147.1" x2="201.43" y2="147.1"/></g><path class="cls-7" d="M193.24,166c.64-11.88,7.6-19.35,15.8-25.83h0c-8.2,6.48-15.16,14-15.8,25.83Z"/></g></g><g class="cls-5"><g class="cls-24"><g class="cls-5"><path class="cls-7" d="M209,140.16h0a7.52,7.52,0,0,1,5.58-2.19h0A7.52,7.52,0,0,0,209,140.16Z"/></g><polygon class="cls-7" points="209.05 140.16 209.04 140.16 209.04 140.16 209.05 140.16"/></g></g><g class="cls-5"><g class="cls-25"><g class="cls-5"><path class="cls-7" d="M209,140.16h0a7.52,7.52,0,0,1,5.58-2.19h0A7.52,7.52,0,0,0,209,140.16Z"/><line class="cls-7" x1="210.39" y1="139.07" x2="210.39" y2="139.07"/><line class="cls-7" x1="212.29" y1="138.27" x2="212.29" y2="138.27"/></g><path class="cls-7" d="M209.05,140.16a7.47,7.47,0,0,1,5.57-2.19h0a7.47,7.47,0,0,0-5.57,2.19Z"/></g></g><g class="cls-5"><g class="cls-26"><g class="cls-5"><path class="cls-7" d="M214.62,138h0a2.22,2.22,0,0,1,1.15.07h0A2.22,2.22,0,0,0,214.62,138Z"/></g><polygon class="cls-7" points="214.62 137.97 214.62 137.97 214.62 137.97 214.62 137.97"/></g></g><g class="cls-5"><g class="cls-27"><g class="cls-5"><path class="cls-7" d="M214.62,138h0a2.22,2.22,0,0,1,1.15.07h0A2.22,2.22,0,0,0,214.62,138Z"/><line class="cls-7" x1="214.96" y1="137.94" x2="214.96" y2="137.94"/><line class="cls-7" x1="215.31" y1="137.93" x2="215.31" y2="137.93"/></g><path class="cls-7" d="M214.62,138a2.22,2.22,0,0,1,1.15.07h0a2.22,2.22,0,0,0-1.15-.07Z"/></g></g><g class="cls-5"><g class="cls-28"><g class="cls-5"><path class="cls-7" d="M215.77,138h0c23.1,2.8,43.47,19.64,57.23,36.79h0C259.24,157.68,238.87,140.84,215.77,138Z"/></g><path class="cls-7" d="M215.84,138.05h0Z"/></g></g><g class="cls-5"><g class="cls-29"><g class="cls-5"><path class="cls-7" d="M215.77,138h0c23.1,2.8,43.47,19.64,57.23,36.79h0C259.24,157.68,238.87,140.84,215.77,138Z"/><line class="cls-7" x1="237.82" y1="145.01" x2="237.82" y2="145.01"/><line class="cls-7" x1="257.18" y1="158.29" x2="257.18" y2="158.29"/></g><path class="cls-7" d="M215.84,138.05c23.07,2.83,43.41,19.65,57.16,36.78h0c-13.75-17.13-34.09-34-57.16-36.78Z"/></g></g><g class="cls-5"><g class="cls-30"><g class="cls-5"><path class="cls-7" d="M273,174.83l-3.11,2.51c11.52,14.32,24.11,35.22,15.3,53.75l3.62,1.72C298.58,212,284.94,189.65,273,174.83Z"/><path class="cls-7" d="M272.58,175.17c11.87,14.75,25.37,36.9,15.73,57.41"/><path class="cls-7" d="M271.46,176.07c11.73,14.58,24.85,36.2,15.56,55.89"/><path class="cls-7" d="M284.58,191.82l-3.65,1.7"/><path class="cls-7" d="M291.7,211.82l-4,.28"/><path class="cls-7" d="M288.81,232.81l-3.62-1.72c-3.57,7.5-10.53,16.76-18.38,20l1.54,3.69C277.42,251,285,240.89,288.81,232.81Z"/><path class="cls-7" d="M288.31,232.58c-3.8,8-11.26,18-20.17,21.73"/><path class="cls-7" d="M287,232c-3.71,7.79-11,17.48-19.43,21"/><path class="cls-7" d="M283.81,241.26l-3.22-2.37"/><path class="cls-7" d="M276.83,249.21l-2.56-3.07"/><path class="cls-7" d="M268.35,254.82l-1.54-3.69a25,25,0,0,1-9.61,1.77v4A28.76,28.76,0,0,0,268.35,254.82Z"/><path class="cls-7" d="M268.14,254.31a28.4,28.4,0,0,1-10.94,2.05"/><path class="cls-7" d="M267.59,253a27,27,0,0,1-10.39,1.93"/><path class="cls-7" d="M264.75,256l-1-3.87"/><path class="cls-7" d="M261,256.69l-.49-4"/><path class="cls-7" d="M257.2,256.9v-4a39.13,39.13,0,0,1-20-5.88L235,250.4A43.16,43.16,0,0,0,257.2,256.9Z"/><path class="cls-7" d="M257.2,256.36a42.61,42.61,0,0,1-21.89-6.42"/><path class="cls-7" d="M257.2,254.92a41.29,41.29,0,0,1-21.13-6.19"/><path class="cls-7" d="M249.3,256.07l.77-3.92"/><path class="cls-7" d="M241.72,253.8l1.5-3.71"/><path class="cls-7" d="M235,250.4l2.13-3.38c-17.24-10.9-30.44-29.44-35.54-49l-3.87,1C203.09,219.55,216.9,239,235,250.4Z"/><path class="cls-7" d="M235.31,249.94c-18-11.38-31.72-30.66-37-51.08"/><path class="cls-7" d="M236.07,248.73c-17.68-11.18-31.18-30.16-36.41-50.23"/><path class="cls-7" d="M218.49,236.55l2.92-2.73"/><path class="cls-7" d="M205.76,218.91l3.5-1.92"/><path class="cls-7" d="M197.74,199l3.87-1c-2.58-9.92-4.89-21.46-4.37-31.76l-4-.2C192.7,176.91,195.1,188.86,197.74,199Z"/><path class="cls-7" d="M198.27,198.86c-2.63-10.11-5-22-4.48-32.81"/><path class="cls-7" d="M199.66,198.5c-2.61-10-5-21.78-4.44-32.37"/><path class="cls-7" d="M195.28,188.36l3.93-.72"/><path class="cls-7" d="M193.58,177.16l4-.32"/><path class="cls-7" d="M193.24,166l4,.2c.52-10.24,6.61-16.86,14.29-22.92L209,140.16C200.83,146.65,193.87,154.13,193.24,166Z"/><path class="cls-7" d="M193.79,166.05c.61-11.67,7.45-19,15.59-25.46"/><path class="cls-7" d="M195.22,166.13c.58-11.08,7.11-18.13,15.05-24.41"/><path class="cls-7" d="M195.79,155.47l3.68,1.61"/><path class="cls-7" d="M201.43,147.1l3.1,2.57"/></g><path class="cls-7" d="M273,174.83c11.94,14.82,25.58,37.16,15.81,58-3.85,8.08-11.39,18.19-20.46,22a28.76,28.76,0,0,1-11.15,2.08A43.16,43.16,0,0,1,235,250.4C216.9,239,203.09,219.55,197.74,199c-2.64-10.14-5-22.09-4.5-33,.63-11.9,7.59-19.38,15.8-25.87l2.49,3.15c-7.68,6.06-13.77,12.68-14.29,22.92S199,188.07,201.61,198c5.1,19.59,18.3,38.13,35.54,49a39.13,39.13,0,0,0,20,5.88,25,25,0,0,0,9.61-1.77c7.85-3.28,14.81-12.54,18.38-20,8.81-18.53-3.78-39.43-15.3-53.75Z"/></g></g><g class="cls-5"><g class="cls-31"><g class="cls-5"><path class="cls-7" d="M209,140.16l2.49,3.15a4,4,0,0,1,3.09-1.34v-4A7.52,7.52,0,0,0,209,140.16Z"/><path class="cls-7" d="M209.38,140.59a7,7,0,0,1,5.24-2.07"/><path class="cls-7" d="M210.27,141.72a5.81,5.81,0,0,1,4.35-1.77"/><path class="cls-7" d="M210.39,139.07l2,3.52"/><path class="cls-7" d="M212.29,138.27l1.12,3.86"/><path class="cls-7" d="M214.62,138v4a5.22,5.22,0,0,1,.67,0l.48-4A2.22,2.22,0,0,0,214.62,138Z"/><path class="cls-7" d="M214.62,138.52a2.28,2.28,0,0,1,1.08.06"/><path class="cls-7" d="M214.62,140a2.44,2.44,0,0,1,.91.06"/><path class="cls-7" d="M215,137.94l-.12,4"/><path class="cls-7" d="M215.31,137.93l-.25,4.06"/><path class="cls-7" d="M215.77,138l-.48,4c21.71,2.61,41.25,18.71,54.6,35.33l3.11-2.51C259.24,157.68,238.87,140.84,215.77,138Z"/><path class="cls-7" d="M215.7,138.58c22.92,2.78,43.17,19.52,56.88,36.59"/><path class="cls-7" d="M215.53,140c22.41,2.7,42.37,19.18,55.93,36.06"/><path class="cls-7" d="M237.82,145l-1.69,3.63"/><path class="cls-7" d="M257.18,158.29l-2.56,3.08"/></g><path class="cls-7" d="M209,140.16a7.52,7.52,0,0,1,5.58-2.19,2.22,2.22,0,0,1,1.15.07c23.1,2.8,43.47,19.64,57.23,36.79l-3.11,2.51C256.54,160.72,237,144.62,215.29,142a5.22,5.22,0,0,0-.67,0,4,4,0,0,0-3.09,1.34Z"/></g></g><g class="cls-5"><g class="cls-32"><g class="cls-5"><path class="cls-7" d="M267.7,238.23l-2.88-2.77c5.18-5.42,9.73-11.49,9.46-18.29l4-.14C278.56,225.47,273.27,232.42,267.7,238.23Z"/><path class="cls-7" d="M266.24,236.83c5.38-5.61,10.29-12.12,10-19.72"/><path class="cls-7" d="M265.21,235.84c5.24-5.48,9.88-11.67,9.61-18.68"/><path class="cls-7" d="M273,232l-3.35-2.21"/><path class="cls-7" d="M276.9,225l-3.8-1.26"/><path class="cls-7" d="M278.27,217l-4,.14c-.24-7.2-4.33-14.78-8.42-21.45l3.4-2.09C273.51,200.55,278,208.75,278.27,217Z"/><path class="cls-7" d="M276.26,217.11c-.27-7.75-4.55-15.63-8.72-22.43"/><path class="cls-7" d="M274.82,217.16c-.24-7.36-4.39-15-8.5-21.73"/><path class="cls-7" d="M276.75,208.82l-3.85,1.07"/><path class="cls-7" d="M273.42,200.93l-3.62,1.71"/><path class="cls-7" d="M269.26,193.63l-3.4,2.09A93.71,93.71,0,0,0,252.64,179l2.85-2.81A97.45,97.45,0,0,1,269.26,193.63Z"/><path class="cls-7" d="M267.54,194.68a96,96,0,0,0-13.48-17.07"/><path class="cls-7" d="M266.32,195.43A94.71,94.71,0,0,0,253,178.62"/><path class="cls-7" d="M265.12,187.46l-3.23,2.36"/><path class="cls-7" d="M260.52,181.66l-3,2.59"/><path class="cls-7" d="M255.49,176.19,252.64,179c-10.09-10.25-23-20.84-35.17-22.61l-1.14-4.22C231.46,154.42,245.09,165.63,255.49,176.19Z"/><path class="cls-7" d="M254.06,177.61c-10.25-10.41-23.55-21.3-37.16-23.31"/><path class="cls-7" d="M253,178.62c-10.14-10.29-23.18-21-35.72-22.81"/><path class="cls-7" d="M244.08,165.77,241.73,169"/><path class="cls-7" d="M230.89,157.05l-1.16,3.71"/></g><path class="cls-7" d="M267.7,238.23l-2.88-2.77c5.18-5.42,9.73-11.49,9.46-18.29-.24-7.2-4.33-14.78-8.42-21.45A93.71,93.71,0,0,0,252.64,179c-10.09-10.25-23-20.84-35.17-22.61l-1.14-4.22c15.13,2.25,28.76,13.46,39.16,24a97.45,97.45,0,0,1,13.77,17.44c4.25,6.92,8.72,15.12,9,23.4C278.56,225.47,273.27,232.42,267.7,238.23Z"/></g></g><g class="cls-5"><g class="cls-33"><g class="cls-5"><path class="cls-7" d="M216.33,152.17l1.14,4.22a22.3,22.3,0,0,0-4.78,5.16l-3.4-2.12A30.3,30.3,0,0,1,216.33,152.17Z"/><path class="cls-7" d="M216.9,154.3a26.26,26.26,0,0,0-5.9,6.2"/><path class="cls-7" d="M217.31,155.81a23.5,23.5,0,0,0-5.09,5.45"/><path class="cls-7" d="M213.72,154.36l2.33,3.26"/><path class="cls-7" d="M211.31,156.76l3,2.64"/><path class="cls-7" d="M209.29,159.43l3.4,2.12c-1.87,2.94-1.59,6.93-1.16,11.35l-4,.39C207.08,168.57,206.68,163.64,209.29,159.43Z"/><path class="cls-7" d="M211,160.5c-2.23,3.57-1.89,8-1.44,12.6"/><path class="cls-7" d="M212.22,161.26c-2,3.11-1.67,7.23-1.23,11.7"/><path class="cls-7" d="M207.57,163.85l3.89,1"/><path class="cls-7" d="M207.21,168.54l4,.11"/><path class="cls-7" d="M207.55,173.29l4-.39a123.91,123.91,0,0,0,5.25,27L213,201.19A127.33,127.33,0,0,1,207.55,173.29Z"/><path class="cls-7" d="M209.56,173.1a125.93,125.93,0,0,0,5.34,27.45"/><path class="cls-7" d="M211,173a124.08,124.08,0,0,0,5.27,27.13"/><path class="cls-7" d="M208.71,182.71l3.95-.63"/><path class="cls-7" d="M210.45,192.05l3.89-.92"/><path class="cls-7" d="M213,201.19l3.79-1.27a59.94,59.94,0,0,0,11.58,20.2l-3,2.61A63.87,63.87,0,0,1,213,201.19Z"/><path class="cls-7" d="M214.9,200.55a61.91,61.91,0,0,0,12,20.86"/><path class="cls-7" d="M216.26,200.09a60.68,60.68,0,0,0,11.68,20.39"/><path class="cls-7" d="M216.15,208.9l3.6-1.76"/><path class="cls-7" d="M220.28,216.09l3.34-2.21"/><path class="cls-7" d="M225.33,222.73l3-2.61c5.23,6.08,11.3,12.63,18,16.06l-1.83,3.55C237.11,235.93,230.7,229,225.33,222.73Z"/><path class="cls-7" d="M226.86,221.41c5.3,6.16,11.53,12.91,18.57,16.53"/><path class="cls-7" d="M227.94,220.48c5.26,6.1,11.37,12.71,18.15,16.18"/><path class="cls-7" d="M231,229.07l2.82-2.85"/><path class="cls-7" d="M237.44,235l2.43-3.18"/><path class="cls-7" d="M244.51,239.73l1.83-3.55a22.39,22.39,0,0,0,10,2.62v4A26.29,26.29,0,0,1,244.51,239.73Z"/><path class="cls-7" d="M245.43,237.94a24.34,24.34,0,0,0,10.87,2.84"/><path class="cls-7" d="M246.09,236.66a22.76,22.76,0,0,0,10.21,2.68"/><path class="cls-7" d="M248.28,241.36l1.3-3.79"/><path class="cls-7" d="M252.26,242.42l.69-3.94"/><path class="cls-7" d="M256.3,242.8v-4a11.42,11.42,0,0,0,8.52-3.34l2.88,2.77A15.33,15.33,0,0,1,256.3,242.8Z"/><path class="cls-7" d="M256.3,240.78a13.34,13.34,0,0,0,9.94-3.95"/><path class="cls-7" d="M256.3,239.34a11.92,11.92,0,0,0,8.91-3.5"/><path class="cls-7" d="M260.44,242.33l-1-3.88"/><path class="cls-7" d="M264.29,240.86l-2-3.49"/></g><path class="cls-7" d="M216.33,152.17l1.14,4.22a22.3,22.3,0,0,0-4.78,5.16c-1.87,2.94-1.59,6.93-1.16,11.35a123.91,123.91,0,0,0,5.25,27,59.94,59.94,0,0,0,11.58,20.2c5.23,6.08,11.3,12.63,18,16.06a22.39,22.39,0,0,0,10,2.62,11.42,11.42,0,0,0,8.52-3.34l2.88,2.77a15.33,15.33,0,0,1-11.4,4.57,26.29,26.29,0,0,1-11.79-3.07c-7.4-3.8-13.81-10.76-19.18-17A63.87,63.87,0,0,1,213,201.19a127.33,127.33,0,0,1-5.44-27.9c-.47-4.72-.87-9.65,1.74-13.86A30.3,30.3,0,0,1,216.33,152.17Z"/></g></g><g class="cls-5"><g class="cls-34"><g class="cls-5"><path class="cls-7" d="M264.82,235.46h0c5.18-5.42,9.73-11.49,9.46-18.29h0C274.55,224,270,230,264.82,235.46Z"/></g><path class="cls-7" d="M264.83,235.44v0h0Z"/></g></g><g class="cls-5"><g class="cls-35"><g class="cls-5"><path class="cls-7" d="M264.82,235.46h0c5.18-5.42,9.73-11.49,9.46-18.29h0C274.55,224,270,230,264.82,235.46Z"/><line class="cls-7" x1="269.63" y1="229.82" x2="269.63" y2="229.82"/><line class="cls-7" x1="273.1" y1="223.73" x2="273.1" y2="223.73"/></g><path class="cls-7" d="M264.83,235.44c5.18-5.41,9.72-11.48,9.45-18.27h0c.27,6.79-4.27,12.86-9.45,18.27Z"/></g></g><g class="cls-5"><g class="cls-36"><g class="cls-5"><path class="cls-7" d="M274.28,217.17h0c-.24-7.2-4.33-14.78-8.42-21.45h0C270,202.39,274,210,274.28,217.17Z"/></g><path class="cls-7" d="M274.28,217.15v0h0Z"/></g></g><g class="cls-5"><g class="cls-37"><g class="cls-5"><path class="cls-7" d="M274.28,217.17h0c-.24-7.2-4.33-14.78-8.42-21.45h0C270,202.39,274,210,274.28,217.17Z"/><line class="cls-7" x1="272.9" y1="209.89" x2="272.9" y2="209.89"/><line class="cls-7" x1="269.8" y1="202.64" x2="269.8" y2="202.64"/></g><path class="cls-7" d="M274.28,217.15c-.25-7.19-4.34-14.77-8.42-21.43h0c4.08,6.66,8.17,14.24,8.42,21.43Z"/></g></g><g class="cls-5"><g class="cls-38"><g class="cls-5"><path class="cls-7" d="M265.86,195.72h0A93.71,93.71,0,0,0,252.64,179h0A93.71,93.71,0,0,1,265.86,195.72Z"/></g><path class="cls-7" d="M265.84,195.7l0,0h0Z"/></g></g><g class="cls-5"><g class="cls-39"><g class="cls-5"><path class="cls-7" d="M265.86,195.72h0A93.71,93.71,0,0,0,252.64,179h0A93.71,93.71,0,0,1,265.86,195.72Z"/><line class="cls-7" x1="261.89" y1="189.82" x2="261.89" y2="189.82"/><line class="cls-7" x1="257.47" y1="184.25" x2="257.47" y2="184.25"/></g><path class="cls-7" d="M265.84,195.7a93.82,93.82,0,0,0-13.2-16.7h0a93.82,93.82,0,0,1,13.2,16.7Z"/></g></g><g class="cls-5"><g class="cls-40"><g class="cls-5"><path class="cls-7" d="M252.64,179h0c-10.09-10.25-23-20.84-35.17-22.61h0C229.59,158.16,242.55,168.75,252.64,179Z"/></g><path class="cls-7" d="M252.61,179l0,0h0Z"/></g></g><g class="cls-5"><g class="cls-41"><g class="cls-5"><path class="cls-7" d="M252.64,179h0c-10.09-10.25-23-20.84-35.17-22.61h0C229.59,158.16,242.55,168.75,252.64,179Z"/><line class="cls-7" x1="241.73" y1="168.98" x2="241.73" y2="168.98"/><line class="cls-7" x1="229.73" y1="160.76" x2="229.73" y2="160.76"/></g><path class="cls-7" d="M252.61,179c-10.09-10.24-23-20.81-35.14-22.58h0c12.11,1.77,25.05,12.34,35.14,22.58Z"/></g></g><g class="cls-5"><g class="cls-42"><g class="cls-5"><path class="cls-7" d="M217.47,156.39h0a22.3,22.3,0,0,0-4.78,5.16h0A22.3,22.3,0,0,1,217.47,156.39Z"/></g><polygon class="cls-7" points="217.46 156.39 217.47 156.38 217.47 156.38 217.46 156.39"/></g></g><g class="cls-5"><g class="cls-43"><g class="cls-5"><path class="cls-7" d="M217.47,156.39h0a22.3,22.3,0,0,0-4.78,5.16h0A22.3,22.3,0,0,1,217.47,156.39Z"/><line class="cls-7" x1="216.05" y1="157.62" x2="216.05" y2="157.62"/><line class="cls-7" x1="214.3" y1="159.4" x2="214.3" y2="159.4"/></g><path class="cls-7" d="M217.46,156.39a22.29,22.29,0,0,0-4.77,5.16h0a22.29,22.29,0,0,1,4.77-5.16Z"/></g></g><g class="cls-5"><g class="cls-44"><g class="cls-5"><path class="cls-7" d="M212.69,161.55h0c-1.87,2.94-1.59,6.93-1.16,11.35h0C211.1,168.48,210.82,164.49,212.69,161.55Z"/></g><polygon class="cls-7" points="212.68 161.55 212.69 161.54 212.69 161.54 212.68 161.55"/></g></g><g class="cls-5"><g class="cls-45"><g class="cls-5"><path class="cls-7" d="M212.69,161.55h0c-1.87,2.94-1.59,6.93-1.16,11.35h0C211.1,168.48,210.82,164.49,212.69,161.55Z"/><line class="cls-7" x1="211.46" y1="164.81" x2="211.46" y2="164.81"/><line class="cls-7" x1="211.22" y1="168.65" x2="211.22" y2="168.65"/></g><path class="cls-7" d="M212.68,161.55c-1.86,2.94-1.58,6.94-1.15,11.35h0c-.43-4.41-.71-8.41,1.15-11.35Z"/></g></g><g class="cls-5"><g class="cls-46"><g class="cls-5"><path class="cls-7" d="M211.53,172.9h0a123.91,123.91,0,0,0,5.25,27h0A123.91,123.91,0,0,1,211.53,172.9Z"/></g><path class="cls-7" d="M211.54,172.93v0h0Z"/></g></g><g class="cls-5"><g class="cls-47"><g class="cls-5"><path class="cls-7" d="M211.53,172.9h0a123.91,123.91,0,0,0,5.25,27h0A123.91,123.91,0,0,1,211.53,172.9Z"/><line class="cls-7" x1="212.66" y1="182.08" x2="212.66" y2="182.08"/><line class="cls-7" x1="214.34" y1="191.13" x2="214.34" y2="191.13"/></g><path class="cls-7" d="M211.54,172.93a123,123,0,0,0,5.24,27h0a123,123,0,0,1-5.24-27Z"/></g></g><g class="cls-5"><g class="cls-48"><g class="cls-5"><path class="cls-7" d="M216.78,199.92h0a59.94,59.94,0,0,0,11.58,20.2h0A59.94,59.94,0,0,1,216.78,199.92Z"/></g><path class="cls-7" d="M216.79,199.94v0h0Z"/></g></g><g class="cls-5"><g class="cls-49"><g class="cls-5"><path class="cls-7" d="M216.78,199.92h0a59.94,59.94,0,0,0,11.58,20.2h0A59.94,59.94,0,0,1,216.78,199.92Z"/><line class="cls-7" x1="219.75" y1="207.14" x2="219.75" y2="207.14"/><line class="cls-7" x1="223.62" y1="213.88" x2="223.62" y2="213.88"/></g><path class="cls-7" d="M216.79,199.94a59.83,59.83,0,0,0,11.57,20.18h0a59.83,59.83,0,0,1-11.57-20.18Z"/></g></g><g class="cls-5"><g class="cls-50"><g class="cls-5"><path class="cls-7" d="M228.36,220.12h0c5.23,6.08,11.3,12.63,18,16.06h0C239.66,232.75,233.59,226.2,228.36,220.12Z"/></g><path class="cls-7" d="M228.37,220.14v0h0Z"/></g></g><g class="cls-5"><g class="cls-51"><g class="cls-5"><path class="cls-7" d="M228.36,220.12h0c5.23,6.08,11.3,12.63,18,16.06h0C239.66,232.75,233.59,226.2,228.36,220.12Z"/><line class="cls-7" x1="233.86" y1="226.22" x2="233.86" y2="226.22"/><line class="cls-7" x1="239.87" y1="231.84" x2="239.87" y2="231.84"/></g><path class="cls-7" d="M228.37,220.14c5.24,6.07,11.29,12.62,18,16h0c-6.68-3.42-12.73-10-18-16Z"/></g></g><g class="cls-5"><g class="cls-52"><g class="cls-5"><path class="cls-7" d="M246.34,236.18h0a22.39,22.39,0,0,0,10,2.62h0A22.39,22.39,0,0,1,246.34,236.18Z"/></g><polygon class="cls-7" points="246.35 236.18 246.34 236.18 246.34 236.18 246.35 236.18"/></g></g><g class="cls-5"><g class="cls-53"><g class="cls-5"><path class="cls-7" d="M246.34,236.18h0a22.39,22.39,0,0,0,10,2.62h0A22.39,22.39,0,0,1,246.34,236.18Z"/><line class="cls-7" x1="249.58" y1="237.57" x2="249.58" y2="237.57"/><line class="cls-7" x1="252.95" y1="238.48" x2="252.95" y2="238.48"/></g><path class="cls-7" d="M246.35,236.18a22.38,22.38,0,0,0,10,2.62h0a22.38,22.38,0,0,1-10-2.62Z"/></g></g><g class="cls-5"><g class="cls-54"><g class="cls-5"><path class="cls-7" d="M256.3,238.8h0a11.42,11.42,0,0,0,8.52-3.34h0A11.42,11.42,0,0,1,256.3,238.8Z"/></g><polygon class="cls-7" points="256.31 238.8 256.3 238.8 256.3 238.8 256.31 238.8"/></g></g><g class="cls-5"><g class="cls-55"><g class="cls-5"><path class="cls-7" d="M256.3,238.8h0a11.42,11.42,0,0,0,8.52-3.34h0A11.42,11.42,0,0,1,256.3,238.8Z"/><line class="cls-7" x1="259.46" y1="238.45" x2="259.46" y2="238.45"/><line class="cls-7" x1="262.33" y1="237.37" x2="262.33" y2="237.37"/></g><path class="cls-7" d="M256.31,238.8a11.4,11.4,0,0,0,8.51-3.34h0a11.4,11.4,0,0,1-8.51,3.34Z"/></g></g><g class="cls-5"><g class="cls-56"><g class="cls-5"><path class="cls-7" d="M264.82,235.46l2.88,2.77c5.57-5.81,10.86-12.76,10.57-21.2l-4,.14C274.55,224,270,230,264.82,235.46Z"/><path class="cls-7" d="M265.21,235.84c5.24-5.48,9.88-11.67,9.61-18.68"/><path class="cls-7" d="M266.24,236.83c5.38-5.61,10.29-12.12,10-19.72"/><path class="cls-7" d="M269.63,229.82,273,232"/><path class="cls-7" d="M273.1,223.73l3.8,1.26"/><path class="cls-7" d="M274.28,217.17l4-.14c-.29-8.28-4.76-16.48-9-23.4l-3.4,2.09C270,202.39,274,210,274.28,217.17Z"/><path class="cls-7" d="M274.82,217.16c-.24-7.36-4.39-15-8.5-21.73"/><path class="cls-7" d="M276.26,217.11c-.27-7.75-4.55-15.63-8.72-22.43"/><path class="cls-7" d="M272.9,209.89l3.85-1.07"/><path class="cls-7" d="M269.8,202.64l3.62-1.71"/><path class="cls-7" d="M265.86,195.72l3.4-2.09a97.45,97.45,0,0,0-13.77-17.44L252.64,179A93.71,93.71,0,0,1,265.86,195.72Z"/><path class="cls-7" d="M266.32,195.43A94.71,94.71,0,0,0,253,178.62"/><path class="cls-7" d="M267.54,194.68a96,96,0,0,0-13.48-17.07"/><path class="cls-7" d="M261.89,189.82l3.23-2.36"/><path class="cls-7" d="M257.47,184.25l3-2.59"/><path class="cls-7" d="M252.64,179l2.85-2.81c-10.4-10.56-24-21.77-39.16-24l1.14,4.22C229.59,158.16,242.55,168.75,252.64,179Z"/><path class="cls-7" d="M253,178.62c-10.14-10.29-23.18-21-35.72-22.81"/><path class="cls-7" d="M254.06,177.61c-10.25-10.41-23.55-21.3-37.16-23.31"/><path class="cls-7" d="M241.73,169l2.35-3.21"/><path class="cls-7" d="M229.73,160.76l1.16-3.71"/></g><path class="cls-7" d="M264.82,235.46c5.18-5.42,9.73-11.49,9.46-18.29-.24-7.2-4.33-14.78-8.42-21.45A93.71,93.71,0,0,0,252.64,179c-10.09-10.25-23-20.84-35.17-22.61l-1.14-4.22c15.13,2.25,28.76,13.46,39.16,24a97.45,97.45,0,0,1,13.77,17.44c4.25,6.92,8.72,15.12,9,23.4.29,8.44-5,15.39-10.57,21.2Z"/></g></g><g class="cls-5"><g class="cls-57"><g class="cls-5"><path class="cls-7" d="M217.47,156.39l-1.14-4.22a30.3,30.3,0,0,0-7,7.26l3.4,2.12A22.3,22.3,0,0,1,217.47,156.39Z"/><path class="cls-7" d="M217.31,155.81a23.5,23.5,0,0,0-5.09,5.45"/><path class="cls-7" d="M216.9,154.3a26.26,26.26,0,0,0-5.9,6.2"/><path class="cls-7" d="M216.05,157.62l-2.33-3.26"/><path class="cls-7" d="M214.3,159.4l-3-2.64"/><path class="cls-7" d="M212.69,161.55l-3.4-2.12c-2.61,4.21-2.21,9.14-1.74,13.86l4-.39C211.1,168.48,210.82,164.49,212.69,161.55Z"/><path class="cls-7" d="M212.22,161.26c-2,3.11-1.67,7.23-1.23,11.7"/><path class="cls-7" d="M211,160.5c-2.23,3.57-1.89,8-1.44,12.6"/><path class="cls-7" d="M211.46,164.81l-3.89-1"/><path class="cls-7" d="M211.22,168.65l-4-.11"/><path class="cls-7" d="M211.53,172.9l-4,.39a127.33,127.33,0,0,0,5.44,27.9l3.79-1.27A123.91,123.91,0,0,1,211.53,172.9Z"/><path class="cls-7" d="M211,173a124.08,124.08,0,0,0,5.27,27.13"/><path class="cls-7" d="M209.56,173.1a125.93,125.93,0,0,0,5.34,27.45"/><path class="cls-7" d="M212.66,182.08l-3.95.63"/><path class="cls-7" d="M214.34,191.13l-3.89.92"/><path class="cls-7" d="M216.78,199.92,213,201.19a63.87,63.87,0,0,0,12.34,21.54l3-2.61A59.94,59.94,0,0,1,216.78,199.92Z"/><path class="cls-7" d="M216.26,200.09a60.68,60.68,0,0,0,11.68,20.39"/><path class="cls-7" d="M214.9,200.55a61.91,61.91,0,0,0,12,20.86"/><path class="cls-7" d="M219.75,207.14l-3.6,1.76"/><path class="cls-7" d="M223.62,213.88l-3.34,2.21"/><path class="cls-7" d="M228.36,220.12l-3,2.61c5.37,6.24,11.78,13.2,19.18,17l1.83-3.55C239.66,232.75,233.59,226.2,228.36,220.12Z"/><path class="cls-7" d="M227.94,220.48c5.26,6.1,11.37,12.71,18.15,16.18"/><path class="cls-7" d="M226.86,221.41c5.3,6.16,11.53,12.91,18.57,16.53"/><path class="cls-7" d="M233.86,226.22,231,229.07"/><path class="cls-7" d="M239.87,231.84,237.44,235"/><path class="cls-7" d="M246.34,236.18l-1.83,3.55a26.29,26.29,0,0,0,11.79,3.07v-4A22.39,22.39,0,0,1,246.34,236.18Z"/><path class="cls-7" d="M246.09,236.66a22.76,22.76,0,0,0,10.21,2.68"/><path class="cls-7" d="M245.43,237.94a24.34,24.34,0,0,0,10.87,2.84"/><path class="cls-7" d="M249.58,237.57l-1.3,3.79"/><path class="cls-7" d="M253,238.48l-.69,3.94"/><path class="cls-7" d="M256.3,238.8v4a15.33,15.33,0,0,0,11.4-4.57l-2.88-2.77A11.42,11.42,0,0,1,256.3,238.8Z"/><path class="cls-7" d="M256.3,239.34a11.92,11.92,0,0,0,8.91-3.5"/><path class="cls-7" d="M256.3,240.78a13.34,13.34,0,0,0,9.94-3.95"/><path class="cls-7" d="M259.46,238.45l1,3.88"/><path class="cls-7" d="M262.33,237.37l2,3.49"/></g><path class="cls-7" d="M217.47,156.39a22.3,22.3,0,0,0-4.78,5.16c-1.87,2.94-1.59,6.93-1.16,11.35a123.91,123.91,0,0,0,5.25,27,59.94,59.94,0,0,0,11.58,20.2c5.23,6.08,11.3,12.63,18,16.06a22.39,22.39,0,0,0,10,2.62,11.42,11.42,0,0,0,8.52-3.34l2.88,2.77a15.33,15.33,0,0,1-11.4,4.57,26.29,26.29,0,0,1-11.79-3.07c-7.4-3.8-13.81-10.76-19.18-17A63.87,63.87,0,0,1,213,201.19a127.33,127.33,0,0,1-5.44-27.9c-.47-4.72-.87-9.65,1.74-13.86a30.3,30.3,0,0,1,7-7.26Z"/></g></g></g></g></g></svg>