<svg xmlns="http://www.w3.org/2000/svg" viewBox="0 0 436.08 418.09"><defs><style>.cls-1,.cls-2,.cls-3,.cls-4{fill:#5aadc5;}.cls-1{fill-opacity:0.51;}.cls-2{fill-opacity:0.81;}.cls-3{fill-opacity:0.9;}.cls-4{fill-opacity:0.96;}</style></defs><g id="Layer_2" data-name="Layer 2"><g id="lines"><path class="cls-1" d="M321.36,232.73q-5.7-42.67-8.15-85.68c-.78-13.84-.63-27.78-1.68-41.59a43.38,43.38,0,0,0-.79-5.65,1.25,1.25,0,0,0,.28-.62c.22-1.87-.59-3.82-1.07-5.6-.37-1.42-.75-2.85-1.13-4.27a5.09,5.09,0,0,0-.34-4.54,4.32,4.32,0,0,0-.55-2.12c-.75-1.18-2.21-1.25-3.49-1.49q-5-.92-10-1.76c-3.34-.55-6.9-.81-10.09-2a.87.87,0,0,0-1.17.52c-2.94-1.33-5.83-2.7-8.63-3.75-10.54-3.93-21.86-5.39-32.83-7.72a452.81,452.81,0,0,1-64.53-18.94,4.55,4.55,0,0,0-6,2.72,20.27,20.27,0,0,0-5-.83l-5.85-1.61A1,1,0,0,0,159.09,49c-.33-.07-.66-.12-1-.16h0l-.28,0a1,1,0,0,0-.31,2l.05.14c-5.5,2.29-9.61,7.73-7.43,13.79q-2.73,4.91-5.47,9.81a7.21,7.21,0,0,0-.33.69,4.92,4.92,0,0,0-.93,1.2Q131,98.27,119,120.34a4.56,4.56,0,0,0-1.1,1.5c-.59,1.24-1.17,2.49-1.75,3.73q-13.43,24.84-26.37,49.94a5,5,0,0,0,.71,5.79c-.23.36-.45.73-.67,1.08a4.83,4.83,0,0,0-.41.82,4,4,0,0,0-1.16,4.85,123.15,123.15,0,0,0,22.56,37.08,4.5,4.5,0,0,0,6.45.61c3.13,4.27,7.42,7.72,10.59,12a1,1,0,0,0,1,.44q1.43,1.58,2.94,3.09Q141,259,150.46,276.52c2,3.68,6.94,3,9.09,0a9.16,9.16,0,0,0,1-1.87q4.13,3.78,8.44,7.37c2.85,3.64,6.1,7.32,10.34,8.11l.31.23c1.26.93,2.14,1.45,3.68.77,1.36-.61,2.7-1.28,4-1.93l.35,0c3.13,0,6-2.09,8.61-3.56l12.15-6.84a4.67,4.67,0,0,0,2.61-3.88,14.22,14.22,0,0,0,1.32-1,11.13,11.13,0,0,1,2.52-1.58,30.66,30.66,0,0,1,5.79-1.82.94.94,0,0,0,.73-1.07q10.71-3.84,21.29-8c11.62-4.58,23.09-9.46,34.49-14.54,3.84-1.72,7.82-3.49,11.89-5,5.06-.39,10.07-1.44,15.06-2.29a59.45,59.45,0,0,0,9.41-2c.36,0,.72,0,1.08.1C317.62,238.08,321.86,236.45,321.36,232.73Zm-11.42-5.4a4.35,4.35,0,0,0,0-1c-.24-2.08-.47-4.15-.71-6.23q.45,3.63.91,7.24Z"/><path class="cls-2" d="M388.22,302.67c-1.6-3.28-4.62-4.71-8-5.83-1.16-.39-2.29-.72-3.42-1a187.31,187.31,0,0,0-31.06-28.12,6.82,6.82,0,0,0-.67-1.39A46.92,46.92,0,0,0,335,255.55c-.16-.18-.32-.37-.5-.54-4.43-4.38-13.4-12.37-20.34-8.84-1.32.2-2.64.51-3.88.73l-9.85,1.76a5.08,5.08,0,0,0-1.88.13c-.78.19-1.55.4-2.32.61-5.48.2-11,1-16.52,1s-10.71.11-16,1.71c-4.32,1.32-8.53,3.11-12.73,4.76-14,5.51-29.58,11.17-37.56,23.89-6.6,3.89-13.17,7.83-19.73,11.74q-4.8,2.87-9.56,5.75a20.08,20.08,0,0,0-1.86-1.4,8.2,8.2,0,0,0-6.08-.78,8.06,8.06,0,0,0-4.72,3.55,7.67,7.67,0,0,0-.8,6,8.3,8.3,0,0,0,2.43,3.7c-1.92,7.76-3.5,15.65-4.9,23.53a5,5,0,0,0-.59,3.28l0,.2c-3.58,20.73-5,41.68-.53,62.38a5.26,5.26,0,0,0,5.08,3.78l.74,0a4.44,4.44,0,0,0,2,1L200,408.66c3.78,1.68,7.19,3.81,11,5.83,11,5.85,25.11,3.06,37,2,10.31-.92,20.71-2,31-3.67a7.27,7.27,0,0,0,7.22,1.67c.42-.12.85-.22,1.27-.31l.59.22a5.77,5.77,0,0,0,2.55.38c4.58.52,8.8-1,12.78-3.37l1.06-.37a37.32,37.32,0,0,0,14.12-10.19c8.41-9.41,15.55-20.14,21.86-31l.06-.12a9.35,9.35,0,0,0,3.65-3.05c2.85-3.86,4.84-6.42,7.74-9.9a8.88,8.88,0,0,0,2.07-7.43l2.16-2.66a8.31,8.31,0,0,0,2.31-5.46,5.73,5.73,0,0,0-.06-.81q5-5.28,10.36-10.16c5.15-4.65,9.93-9.57,11.57-16.08a7.65,7.65,0,0,0,5.09-.95C389.23,310.82,390.13,306.58,388.22,302.67Z"/><path class="cls-2" d="M432.21,175.32a10.64,10.64,0,0,1-5.95-3.3,17.84,17.84,0,0,0-2.89-6,5.59,5.59,0,0,0-3.92-2.3c-1.35-1.45-2.68-2.89-4-4.34-4.53-13-12.51-24.73-19.57-36.62a321.11,321.11,0,0,1-25.32-53.32c-.9-2.47-3.62-4.59-6.47-3.6q-2.62.92-5.2,1.91A4.79,4.79,0,0,0,354,66.65,61.23,61.23,0,0,0,342.75,71a4.25,4.25,0,0,0-5.27-1.61,30.91,30.91,0,0,0-15.2,12.69l-.65.29c-3.7-2.31-8.67,1.63-7.7,5.91,1.78,7.83.91,15.78,1,23.73a65.87,65.87,0,0,0,3.67,20.73c0,6.86,0,13.73-.13,20.59-.19,9.8-1.21,19.63.39,29.36a91.09,91.09,0,0,0,5.37,38.76,114.27,114.27,0,0,1,0,19.75c-.47,4.15,4,7.72,7.89,7.72a7.91,7.91,0,0,0,2.86-.52l17.76,16.65a4,4,0,0,0,1.55,3.27l11.55,9a4.87,4.87,0,0,0,.47.32c1.74,2.59,4.27,4.56,6.55,6.73a69.77,69.77,0,0,1,6.67,7.19c2.13,2.69,5.59,4.37,8.81,3.63.32.14.63.3,1,.43,4.17,1.6,7-2.93,6.47-6.33a117.26,117.26,0,0,1-1.22-11.81,8,8,0,0,0,.73-1.66,28.07,28.07,0,0,0,.76-3.48,8.11,8.11,0,0,0,4-5.89c.33-2.4-.51-4.64-1.19-6.91-.08-.27-.19-.51-.29-.76q3-10.32,6-20.64,6.39-14.07,11.36-28.67a4.62,4.62,0,0,0,4.24-3.67,42.14,42.14,0,0,1,1.75-4.92,10.78,10.78,0,0,0,1.69-2.81c.86-2.13,2.38-3.9,3.28-6a46.82,46.82,0,0,1,7.67-8.17C437.49,181.44,435.92,176.12,432.21,175.32Z"/><path class="cls-3" d="M163.24,290.82c-.21-.25-.4-.5-.61-.74a4.92,4.92,0,0,0-1.4-3.59,88.43,88.43,0,0,0-11.74-10.32l-1.11-1.08a6.14,6.14,0,0,0-1.78-1.2,5,5,0,0,0-1.08-1.48q-3.5-3.36-7.09-6.62a5.57,5.57,0,0,0-1-1.48L125.05,251a2.54,2.54,0,0,0-.16-.28,4.43,4.43,0,0,0-.74-1.38q-2.46-3.15-4.9-6.31a5.73,5.73,0,0,0-1.3-1.22,191.24,191.24,0,0,0-18.43-24.3,4.42,4.42,0,0,0-3.18-1.55Q87.48,204,79.55,191.42c-3-4.78-10-1.8-9.9,2.68a15.59,15.59,0,0,0-12.12,5.17,4.73,4.73,0,0,0-2.93,1q-2.72,1.92-5.48,3.78h0c-1-3.58-5.24-6.19-8.47-2.54A107.44,107.44,0,0,1,29.1,212.68c-1.18-3.3-6-5.52-8.77-2.25a148,148,0,0,1-18.8,18.32A5.09,5.09,0,0,0,.7,235c4,6.37,9.68,11.66,15.2,16.9q4.67,6.63,9.31,13.27a37.89,37.89,0,0,0,6.95,9.78A4.69,4.69,0,0,0,33.67,276a68.87,68.87,0,0,0,14.25,38.87,5.39,5.39,0,0,0,3.28,2.06l.32.55a4.76,4.76,0,0,0-.56,3.63q2.31,9.56,4.63,19.1a4.46,4.46,0,0,0,1.13,2.06c.54,1.51,1.13,3,1.74,4.5a4,4,0,0,0,0,3.2c.45,1.14.91,2.28,1.37,3.42a5.6,5.6,0,0,0,1.34,5.09,5.39,5.39,0,0,0,4.4,1.82h0l2.29.89a5.06,5.06,0,0,0,.66,6,48.43,48.43,0,0,0,7.59,6.95,1.51,1.51,0,0,1,1.7-.14A32.86,32.86,0,0,1,81,376a14,14,0,0,0,3.38,1.54c2.41.78,4.91,1.33,7.38,1.91,4.68,1.09,9.48,2.15,13.67,4.56a1.47,1.47,0,0,1,.44,2.2l.32.07c8.07,1.57,16.27,2.36,24.4,3.5,9,1.26,17.45,3.72,26.24,5.92,5.47,1.37,8.24-4.76,5.12-8.6a18.15,18.15,0,0,1-2.22-3.49,4.77,4.77,0,0,0,1.09-3.29,36,36,0,0,0-.75-6.55,25.1,25.1,0,0,0-1.26-7.21l-.05-.41c0-.47,0-.93,0-1.4a5.07,5.07,0,0,0,2.87-4.34q.36-11.08-.29-22.14a5.21,5.21,0,0,0,.76-1.57,59.07,59.07,0,0,0,2.17-13.2,4,4,0,0,0,2.43-3.21,158.19,158.19,0,0,0,1.84-24.3C168.57,293.24,165.9,291,163.24,290.82ZM112.5,377c-2.41-.41-4.81-.88-7.19-1.43a6,6,0,0,0,1.38-.82c2.16.76,4.33,1.48,6.54,2.13a5.33,5.33,0,0,0,2.83.13c.32.25.65.47,1,.69C115.53,377.48,114,377.26,112.5,377Z"/><path class="cls-3" d="M147.59,43.83c-1.4-5.38-5.91-9-9.56-12.93a46.72,46.72,0,0,1-10.11-17.31,5.34,5.34,0,0,0-10.15,0C115.32,21,110.36,27,105.12,32.74,99.44,39,93.65,45.06,87.92,51.22L53.84,87.8a5,5,0,0,0-2.31,1.3q-1.72,1.68-3.39,3.41l-5.2,3.33a5.23,5.23,0,0,0-2.32,5.06q-5,6-9.38,12.47a4.45,4.45,0,0,0,.18,5.36,21.16,21.16,0,0,0-1.83,5.55,5.26,5.26,0,0,0,.94,4.3q-2.61,5.47-5,11.07a4.45,4.45,0,0,0-.34,2.52c-.56,1.06-1.1,2.14-1.61,3.23a5.17,5.17,0,0,0,1.8,6.76q-.87,2.75-1.49,5.53a5,5,0,0,0-4.27,3.55,93.89,93.89,0,0,0-2.41,10.64,13.91,13.91,0,0,0-2.35,8.57,4.86,4.86,0,0,0,.87,2.52A4.88,4.88,0,0,0,15,185.9c0,.4,0,.78,0,1.16a4.67,4.67,0,0,0-2.84,4.49c0,1.07,0,2.13,0,3.2,0,.22-.07.43-.12.65a5.1,5.1,0,0,0-2.16,5.54,5.18,5.18,0,0,0,5,6.64,9.09,9.09,0,0,0,1.41-.1,5.72,5.72,0,0,0,.66.19l.51.1a5.8,5.8,0,0,0,3.06-.15c9.32-1.28,16.87-6.11,24.26-11.81,2-1.51,3.94-3.08,6-4.6A21.16,21.16,0,0,0,55.72,190l.57-.23,3.1-.65a70.94,70.94,0,0,0,8.73-1.45,5.28,5.28,0,0,0,1.06-.37,6.41,6.41,0,0,0,5.55.21C81,184.77,84.37,179,86.4,172.82c1.33-4,1.85-8.48,3.34-12.43A4.49,4.49,0,0,0,95.13,158l39.24-85.49c2.34-3.92,4.72-7.83,7.19-11.68C144.87,55.64,149.28,50.34,147.59,43.83Zm-12.86,8.35c-.2-.3-.42-.61-.61-.92a5.65,5.65,0,0,0,1.65-.56C135.43,51.2,135.08,51.7,134.73,52.18Z"/><path class="cls-3" d="M356.5,54.11c-18.64-9.82-37.09-20.58-56.45-29-17.55-7.66-36.11-12.63-55-16.13a547.22,547.22,0,0,0-59.45-7.55C175.63.67,165.55.06,155.51,0c-8.08,0-16.16,1.12-22.07,7a5.14,5.14,0,0,0,0,7.28l19.83,19.45.28.25a4.7,4.7,0,0,0,5,4.55,49.05,49.05,0,0,1,7,.47A4.26,4.26,0,0,0,168,41.69a11.92,11.92,0,0,0,10.12.45,5.27,5.27,0,0,0,.56-.19c2,.58,4,1.19,6,1.8l26.09,7.85c16.62,5,33.2,10.26,50,14.56,14.79,3.77,30,6.85,45.29,7.82a19.55,19.55,0,0,0,9.37,2,14.79,14.79,0,0,0,8.12-2.87,43.17,43.17,0,0,0,9.05-3.17c6-2.89,12.73-8.34,19.82-6.41C358.11,65.07,361.83,56.92,356.5,54.11Z"/><path class="cls-4" d="M167.34,292.3a47.07,47.07,0,0,0-7.41-6.9l0,0h0l-.21-.16a1.09,1.09,0,0,0-.15-.08q-2.1-2-4.25-3.95c-1.85-1.76-3.71-3.52-5.61-5.23a1,1,0,0,0-.78-.26,55.52,55.52,0,0,0-5.1-3.91,109.19,109.19,0,0,1-9.09-13,4.07,4.07,0,0,0-.89-4.06,227.09,227.09,0,0,1-17.32-21.42,4.14,4.14,0,0,0-1.76-4.39c-.62-.43-1.19-.9-1.77-1.36a11.3,11.3,0,0,1-1.6-1.78c-.29-.44-.58-.87-.86-1.31a4,4,0,0,0-2.84-1.89c-3.48-3.82-6.5-8.08-9.77-12.06a131.76,131.76,0,0,0-18.58-18.38A4.59,4.59,0,0,0,72,194.62a1,1,0,0,0-.28,0c-1.18.44-2.34.92-3.49,1.42l-4.07.76a.88.88,0,0,0-.71,1.18l-.61.25h0l-.25.1a1,1,0,0,0-.26.17l-.53.06a65.56,65.56,0,0,0-25.45,10,3.65,3.65,0,0,0-.48.38l-.14.05a1,1,0,0,0-.71,0l-.15.05a1.34,1.34,0,0,0-.22-.38.94.94,0,0,0-1.21-.59,25.94,25.94,0,0,0-7.35,3.85,1.37,1.37,0,0,0-.32.37A46,46,0,0,0,6.34,224.8a4.34,4.34,0,0,0-.86,1.38c-1.76.9-3,2.87-2.26,4.77a30.68,30.68,0,0,0,14.54,16.19,4.48,4.48,0,0,0,.9.34A57.8,57.8,0,0,0,22.57,255q4.55,8.84,9.4,17.51,4.66,11.43,9.35,22.86c3.6,8.8,8.59,18.44,5.76,28.08A4.2,4.2,0,0,0,49,328.12a9.69,9.69,0,0,1,3.52,4.32,3.49,3.49,0,0,0,1.7,1.73c.07.3.13.6.19.9a1,1,0,0,0-1.7,1,81.18,81.18,0,0,0,2.75,9c0,1.53.13,3.08.29,4.63a4.3,4.3,0,0,0,1.3,2.69,8.17,8.17,0,0,0,.36,1.86l-.62-.23a1,1,0,0,0-.81,1.88c1,.5,1.89,1,2.85,1.45a3.86,3.86,0,0,0,5.06,2.41c1.19.54,2.38,1.08,3.59,1.59s2.71,1.17,4.09,1.7a54,54,0,0,0,13.18,7.13c1.16.43,1.75-1.27.81-1.88s-2-1.22-3-1.84l2.54,1,.89.43,3.71,2.12a1,1,0,0,0,1.19-.12c.83.39,1.66.78,2.49,1.15.57.38,1.14.76,1.7,1.17a3.43,3.43,0,0,0,2.37.65,3.45,3.45,0,0,0,1.64,1.67A58.89,58.89,0,0,0,111.77,379c.24.17.48.33.72.52a4.42,4.42,0,0,0,5.16.39l.59.24a3.35,3.35,0,0,0,2.29.06,3.56,3.56,0,0,0,2.43-.1,4.25,4.25,0,0,0,2.24,6.41l17,5.51a3.73,3.73,0,0,0,2.26.06q4.05,2.5,8.18,4.87a3.38,3.38,0,0,0,.91.51c1.09.62,2.19,1.22,3.3,1.81,4.13,2.21,8.59-3.11,5.1-6.46-.65-.63-1.31-1.23-2-1.82a4.92,4.92,0,0,0,0-4C161.36,361.31,169,336,166.33,310a4.12,4.12,0,0,0-1.09-2.47q1.56-5.57,3.43-11.05A3.45,3.45,0,0,0,167.34,292.3Z"/><path class="cls-4" d="M135.27,29.05c-.5-.62-1-1.23-1.52-1.84-.26-.3-.49-.62-.73-.93,0,0,0-.07,0-.11-1.07-2.67-3-4.78-4.75-7a1.37,1.37,0,0,0-.13-.2l-.27-.46a1.09,1.09,0,0,0-.11-.58l-4.38-8.53a1.05,1.05,0,0,0-1.93.75,3.91,3.91,0,0,0-4.62,1.82,13.21,13.21,0,0,0-2,7.46l0,.23-.3,1.31-4.47,12.72a33.27,33.27,0,0,0-4.58,6.58,4.56,4.56,0,0,0-.7.8A101,101,0,0,1,94.13,54a3.47,3.47,0,0,0-2,1.19,85.52,85.52,0,0,1-6.28,6.48c-.59.49-1.17,1-1.76,1.45a3.54,3.54,0,0,0-.68.73q-1.7,1.45-3.47,2.82a4.42,4.42,0,0,0-4,.84c-3.37,2.84-6.83,5.54-10.36,8.15a3.81,3.81,0,0,0-2.91.5A64.25,64.25,0,0,0,50.2,86.21a4.14,4.14,0,0,0-.12,5.54c-.3.31-.63.6-.93.9a34,34,0,0,0-2.94,2.59,25.2,25.2,0,0,0-4.78,4.14,4.45,4.45,0,0,0-1.16,2.34c-.46.53-.92,1-1.38,1.52-5,5.39-9.81,11.27-9.46,19a4,4,0,0,0,.75,2.16c-.26,1.2-.51,2.41-.75,3.61q-1.17,4.46-2.15,9a1,1,0,0,0,.15.81q-.57,2.63-1.06,5.27L26,145.27a547.86,547.86,0,0,0-15.4,61c-1,5.18,7.12,7.4,8.12,2.19.2-1.05.43-2.1.64-3.16a3.82,3.82,0,0,0,4.72,2.07,60.69,60.69,0,0,0,20.66-11.27l2.56-1.42a41.89,41.89,0,0,0,7.19-2.78,25.88,25.88,0,0,0,10.8-3.78,4.27,4.27,0,0,0,1.3-1.27c.22-.11.44-.24.66-.36a11.58,11.58,0,0,0,4-1.06,4.34,4.34,0,0,0,3.65.1,1,1,0,0,0,.84,1.44c.16.64.79,1.14,1.47.64l1-.76a1.14,1.14,0,0,0,.39-1.34,6.88,6.88,0,0,0,.45-1.3.93.93,0,0,0-.19-.84,4,4,0,0,0,1.75-2.17,13.67,13.67,0,0,0,.68-3.46c.31-.76.61-1.53.9-2.3q7.4-13.06,13.57-26.73a.93.93,0,0,0,1.12-.71c.17-.67.37-1.32.57-2,3.37-4.68,7-9.21,9.45-14.43.43-.91-.64-2-1.46-1.4l.31-.71a24,24,0,0,0,4.07-7.54,1,1,0,0,0-.44-1.12A191.48,191.48,0,0,0,125.81,95a3.94,3.94,0,0,0,.44-1.63c5.53-6.6,6.09-15.46,9.91-22.74q1.88-2.58,3.62-5.25a3.51,3.51,0,0,0,.6-2.12,3.45,3.45,0,0,0,0-2.49c2.69-3,5.26-6.36,4.94-9.5a3.26,3.26,0,0,0-.09-.45A3.88,3.88,0,0,0,147.5,49C152.14,40.87,142.59,34,135.27,29.05Z"/><path class="cls-4" d="M356,56.44a23.18,23.18,0,0,0-1.94-1.65,4,4,0,0,0-3.31-2.19,3.49,3.49,0,0,0-1.41-.63,54.17,54.17,0,0,0-10.72-3.45c-1.82-.43-3.59-.92-5.34-1.44-1.69-1.26-3.34-2.55-5-3.77C318.9,36.47,308.85,28,297.69,24.24a135.23,135.23,0,0,0-26.79-5.61l-1.32-.34c-6.79-7.36-19.32-8.15-29.77-6.63C229.56,8.05,218.9,6.24,208.29,8.6c-1.94.11-3.88.29-5.81.52A23.18,23.18,0,0,0,192.3,7.8a187.08,187.08,0,0,0-23.24-5C158.63,1,144.73.85,135.15,5.77,127,10,132.79,21.33,140.64,20a72.55,72.55,0,0,1,5.84,8,4.31,4.31,0,0,0,.54,2.41,17.22,17.22,0,0,0,2.33,3.13,3.91,3.91,0,0,0,2,3.88,10.24,10.24,0,0,0,1.27.66,8.83,8.83,0,0,0,5.83,2.56c.44.08.91.15,1.39.21,3.2.4,6.4.71,9.61,1a3.94,3.94,0,0,0,3,4.05,68.23,68.23,0,0,0,18.33,1,86,86,0,0,0,13.1,2.23c.82.23,1.64.46,2.47.65a67,67,0,0,0,34.91,7.92,86.76,86.76,0,0,0,13.14,2.42,73.37,73.37,0,0,0,13.06,4.59,4,4,0,0,0,3,3.57c5.82,1.84,11.7,3.47,17.66,3.72a8.74,8.74,0,0,0,2,.87l23.05,6.57a7.27,7.27,0,0,0,9.2-4.68c.85-.14,1.69-.3,2.51-.51,3.72-.28,7-1.48,11-1.73,5.66-.37,11.26-1.35,13.27-7.46,0-.08,0-.16.07-.24a38.91,38.91,0,0,0,4.92-1.47C357,62.27,358.46,58.76,356,56.44Z"/></g></g></svg>