<svg xmlns="http://www.w3.org/2000/svg" xmlns:xlink="http://www.w3.org/1999/xlink" viewBox="0 0 414.28 406.09"><defs><style>.cls-1,.cls-8{fill:none;}.cls-2,.cls-3,.cls-4,.cls-5{fill:#5aadc5;}.cls-2{fill-opacity:0.51;}.cls-3{fill-opacity:0.81;}.cls-4{fill-opacity:0.9;}.cls-5{fill-opacity:0.96;}.cls-6{isolation:isolate;}.cls-7{clip-path:url(#clip-path);}.cls-8{stroke:#000;stroke-miterlimit:10;stroke-width:0.25px;}.cls-9{clip-path:url(#clip-path-3);}.cls-10{clip-path:url(#clip-path-4);}.cls-11{clip-path:url(#clip-path-5);}.cls-12{clip-path:url(#clip-path-6);}.cls-13{clip-path:url(#clip-path-7);}.cls-14{clip-path:url(#clip-path-8);}.cls-15{clip-path:url(#clip-path-9);}.cls-16{clip-path:url(#clip-path-10);}.cls-17{clip-path:url(#clip-path-11);}.cls-18{clip-path:url(#clip-path-12);}.cls-19{clip-path:url(#clip-path-13);}.cls-20{clip-path:url(#clip-path-14);}.cls-21{clip-path:url(#clip-path-15);}.cls-22{clip-path:url(#clip-path-16);}.cls-23{clip-path:url(#clip-path-17);}.cls-24{clip-path:url(#clip-path-18);}.cls-25{clip-path:url(#clip-path-19);}.cls-26{clip-path:url(#clip-path-20);}.cls-27{clip-path:url(#clip-path-21);}.cls-28{clip-path:url(#clip-path-22);}.cls-29{clip-path:url(#clip-path-23);}.cls-30{clip-path:url(#clip-path-24);}.cls-31{clip-path:url(#clip-path-25);}.cls-32{clip-path:url(#clip-path-27);}.cls-33{clip-path:url(#clip-path-28);}.cls-34{clip-path:url(#clip-path-29);}.cls-35{clip-path:url(#clip-path-30);}.cls-36{clip-path:url(#clip-path-31);}.cls-37{clip-path:url(#clip-path-32);}.cls-38{clip-path:url(#clip-path-33);}.cls-39{clip-path:url(#clip-path-34);}.cls-40{clip-path:url(#clip-path-35);}.cls-41{clip-path:url(#clip-path-36);}.cls-42{clip-path:url(#clip-path-37);}.cls-43{clip-path:url(#clip-path-38);}.cls-44{clip-path:url(#clip-path-39);}.cls-45{clip-path:url(#clip-path-40);}.cls-46{clip-path:url(#clip-path-41);}.cls-47{clip-path:url(#clip-path-42);}.cls-48{clip-path:url(#clip-path-43);}.cls-49{clip-path:url(#clip-path-44);}.cls-50{clip-path:url(#clip-path-45);}.cls-51{clip-path:url(#clip-path-46);}.cls-52{clip-path:url(#clip-path-47);}.cls-53{clip-path:url(#clip-path-48);}.cls-54{clip-path:url(#clip-path-49);}.cls-55{clip-path:url(#clip-path-50);}.cls-56{clip-path:url(#clip-path-51);}.cls-57{clip-path:url(#clip-path-52);}.cls-58{clip-path:url(#clip-path-53);}.cls-59{clip-path:url(#clip-path-54);}.cls-60{clip-path:url(#clip-path-55);}.cls-61{clip-path:url(#clip-path-56);}.cls-62{clip-path:url(#clip-path-57);}.cls-63{clip-path:url(#clip-path-58);}.cls-64{clip-path:url(#clip-path-59);}.cls-65{clip-path:url(#clip-path-60);}.cls-66{clip-path:url(#clip-path-61);}.cls-67{clip-path:url(#clip-path-62);}.cls-68{clip-path:url(#clip-path-63);}.cls-69{clip-path:url(#clip-path-64);}.cls-70{clip-path:url(#clip-path-65);}.cls-71{clip-path:url(#clip-path-66);}.cls-72{clip-path:url(#clip-path-67);}.cls-73{clip-path:url(#clip-path-68);}.cls-74{clip-path:url(#clip-path-69);}.cls-75{clip-path:url(#clip-path-70);}.cls-76{clip-path:url(#clip-path-71);}.cls-77{clip-path:url(#clip-path-72);}.cls-78{clip-path:url(#clip-path-73);}.cls-79{clip-path:url(#clip-path-74);}.cls-80{clip-path:url(#clip-path-75);}.cls-81{clip-path:url(#clip-path-76);}.cls-82{clip-path:url(#clip-path-77);}.cls-83{clip-path:url(#clip-path-78);}.cls-84{clip-path:url(#clip-path-79);}.cls-85{clip-path:url(#clip-path-80);}.cls-86{clip-path:url(#clip-path-81);}.cls-87{clip-path:url(#clip-path-82);}.cls-88{clip-path:url(#clip-path-83);}.cls-89{clip-path:url(#clip-path-84);}.cls-90{clip-path:url(#clip-path-85);}.cls-91{clip-path:url(#clip-path-86);}.cls-92{clip-path:url(#clip-path-87);}.cls-93{clip-path:url(#clip-path-88);}.cls-94{clip-path:url(#clip-path-89);}.cls-95{clip-path:url(#clip-path-90);}.cls-96{clip-path:url(#clip-path-91);}.cls-97{clip-path:url(#clip-path-92);}.cls-98{clip-path:url(#clip-path-93);}.cls-99{clip-path:url(#clip-path-94);}.cls-100{clip-path:url(#clip-path-95);}.cls-101{clip-path:url(#clip-path-96);}.cls-102{clip-path:url(#clip-path-97);}.cls-103{clip-path:url(#clip-path-98);}.cls-104{clip-path:url(#clip-path-99);}.cls-105{clip-path:url(#clip-path-100);}.cls-106{clip-path:url(#clip-path-101);}.cls-107{clip-path:url(#clip-path-102);}.cls-108{clip-path:url(#clip-path-103);}.cls-109{clip-path:url(#clip-path-104);}.cls-110{clip-path:url(#clip-path-105);}</style><clipPath id="clip-path"><path class="cls-1" d="M144.12,151.45a4.93,4.93,0,0,1,3.32,1.32c4.71,4.2,6.77,10.71,9.56,16.2q4.8,9.45,10.31,18.53a281,281,0,0,0,25,34.83c3.13,3.74-.2,8.75-3.8,8.75a4.22,4.22,0,0,1-3.27-1.67,296.71,296.71,0,0,1-24.72-33.85q-5.61-9-10.54-18.4c-2.84-5.41-5-13.2-9.62-17.31C136.6,156.49,140.12,151.45,144.12,151.45Z"/></clipPath><clipPath id="clip-path-3"><path class="cls-1" d="M144.12,151.45v-4a8.89,8.89,0,0,1,6,2.34c5.55,5,7.75,12,10.46,17.37q4.74,9.32,10.17,18.27a276.29,276.29,0,0,0,24.66,34.33c5.5,6.67-.23,15.25-6.87,15.32a8.14,8.14,0,0,1-6.33-3.1,298.66,298.66,0,0,1-25.05-34.3q-5.7-9.12-10.7-18.66c-3-5.69-5-13-8.73-16.19-6.76-6.36-.58-15.39,6.41-15.38v4c-4,0-7.52,5-3.75,8.4,4.62,4.11,6.78,11.9,9.62,17.31q4.92,9.41,10.54,18.4a296.71,296.71,0,0,0,24.72,33.85,4.22,4.22,0,0,0,3.27,1.67c3.6,0,6.93-5,3.8-8.75a281,281,0,0,1-25-34.83Q161.82,178.44,157,169c-2.79-5.49-4.85-12-9.56-16.2A4.93,4.93,0,0,0,144.12,151.45Z"/></clipPath><clipPath id="clip-path-4"><polygon class="cls-1" points="144.13 147.45 144.12 147.45 144.12 147.45 144.13 147.45"/></clipPath><clipPath id="clip-path-5"><path class="cls-1" d="M144.13,147.45a8.88,8.88,0,0,1,6,2.34h0a8.88,8.88,0,0,0-6-2.34Z"/></clipPath><clipPath id="clip-path-6"><path class="cls-1" d="M150.12,149.8h0Z"/></clipPath><clipPath id="clip-path-7"><path class="cls-1" d="M150.12,149.8c5.53,5,7.73,12,10.44,17.36h0c-2.71-5.35-4.91-12.37-10.44-17.36Z"/></clipPath><clipPath id="clip-path-8"><path class="cls-1" d="M160.57,167.18v0h0Z"/></clipPath><clipPath id="clip-path-9"><path class="cls-1" d="M160.57,167.18q4.74,9.3,10.16,18.25h0q-5.41-8.94-10.16-18.25Z"/></clipPath><clipPath id="clip-path-10"><path class="cls-1" d="M170.75,185.47l0,0h0Z"/></clipPath><clipPath id="clip-path-11"><path class="cls-1" d="M170.75,185.47a276.46,276.46,0,0,0,24.64,34.29h0a276.46,276.46,0,0,1-24.64-34.29Z"/></clipPath><clipPath id="clip-path-12"><path class="cls-1" d="M195.4,219.78v0h0Z"/></clipPath><clipPath id="clip-path-13"><path class="cls-1" d="M195.4,219.78c5.48,6.66-.24,15.23-6.88,15.3h0c6.64-.07,12.36-8.64,6.88-15.3Z"/></clipPath><clipPath id="clip-path-14"><polygon class="cls-1" points="188.51 235.08 188.52 235.08 188.52 235.08 188.51 235.08"/></clipPath><clipPath id="clip-path-15"><path class="cls-1" d="M188.51,235.08a8.17,8.17,0,0,1-6.32-3.1h0a8.17,8.17,0,0,0,6.32,3.1Z"/></clipPath><clipPath id="clip-path-16"><path class="cls-1" d="M182.16,232l0,0h0Z"/></clipPath><clipPath id="clip-path-17"><path class="cls-1" d="M182.16,232a301.36,301.36,0,0,1-25-34.27h0a301.36,301.36,0,0,0,25,34.27Z"/></clipPath><clipPath id="clip-path-18"><path class="cls-1" d="M157.13,197.66v0h0Z"/></clipPath><clipPath id="clip-path-19"><path class="cls-1" d="M157.13,197.66q-5.69-9.1-10.69-18.64h0q5,9.53,10.69,18.64Z"/></clipPath><clipPath id="clip-path-20"><path class="cls-1" d="M146.43,179v0h0Z"/></clipPath><clipPath id="clip-path-21"><path class="cls-1" d="M146.43,179c-3-5.68-5-12.95-8.72-16.17h0c3.7,3.22,5.75,10.49,8.72,16.17Z"/></clipPath><clipPath id="clip-path-22"><path class="cls-1" d="M137.69,162.82h0Z"/></clipPath><clipPath id="clip-path-23"><path class="cls-1" d="M137.69,162.82c-6.73-6.36-.55-15.38,6.43-15.37h0c-7,0-13.16,9-6.43,15.37Z"/></clipPath><clipPath id="clip-path-24"><path class="cls-1" d="M144.12,147.45a8.89,8.89,0,0,1,6,2.34c5.55,5,7.75,12,10.46,17.37q4.74,9.32,10.17,18.27a276.29,276.29,0,0,0,24.66,34.33c5.5,6.67-.23,15.25-6.87,15.32a8.14,8.14,0,0,1-6.33-3.1,298.66,298.66,0,0,1-25.05-34.3q-5.7-9.12-10.7-18.66c-3-5.69-5-13-8.73-16.19-6.76-6.36-.58-15.39,6.41-15.38v4c-4,0-7.52,5-3.75,8.4,4.62,4.11,6.78,11.9,9.62,17.31q4.92,9.41,10.54,18.4a296.71,296.71,0,0,0,24.72,33.85,4.22,4.22,0,0,0,3.27,1.67c3.6,0,6.93-5,3.8-8.75a281,281,0,0,1-25-34.83Q161.82,178.44,157,169c-2.79-5.49-4.85-12-9.56-16.2a4.93,4.93,0,0,0-3.32-1.32Z"/></clipPath><clipPath id="clip-path-25"><path class="cls-1" d="M263,159c3,0,6.11,2.47,5.25,6.25-1.92,8.52-7.9,15.33-15.39,19.6a61.32,61.32,0,0,1-15.46,5.73,63.12,63.12,0,0,1-7.43,22.8c-2.9,5.11-8,11.6-13.49,11.6-2.22,0-4.51-1.05-6.74-3.68-6.11-7.15-6.62-20.6-1.12-28.07,4.5-6.12,11.8-8.69,19.48-10.67a93.39,93.39,0,0,0-3.23-26.87c-3.94-15.13-10.9-32.81-24.84-41.43a21.58,21.58,0,0,0-11-3.48,11.6,11.6,0,0,0-10,5.32c-5,7.32-3.12,16.74-1,24.69,1,3.76-2.12,6.21-5.1,6.21a4.51,4.51,0,0,1-4.54-3.55c-3-11.56-4.33-24.61,3.64-34.55a21.31,21.31,0,0,1,17.12-8.08,29.36,29.36,0,0,1,12.54,3c18.87,9,28.53,31.64,33.22,50.75a106.11,106.11,0,0,1,3.21,25.5c9.54-2.62,18-6.41,20.51-17.45A4.3,4.3,0,0,1,263,159Zm-38.45,42.4a56.73,56.73,0,0,0,2.26-8l-.07,0c-7.86,2.34-13.21,6.62-11.44,15.53.14.72.93,5.07,2,6.07-.34-.7,1.74-3,2.09-3.48a47,47,0,0,0,5.2-10.12"/></clipPath><clipPath id="clip-path-27"><path class="cls-1" d="M263,159v-4c5,0,10.68,4.34,9.16,11.13-2.22,9.77-9,17.46-17.32,22.2A58.53,58.53,0,0,1,241,193.77l-3.61-3.2a61.32,61.32,0,0,0,15.46-5.73c7.49-4.27,13.47-11.08,15.39-19.6C269.07,161.46,265.92,159,263,159Z"/></clipPath><clipPath id="clip-path-28"><path class="cls-1" d="M237.36,190.57l3.61,3.2a64,64,0,0,1-7.56,21.57c-3.19,5.63-9.13,13.5-17,13.63-3.49,0-6.86-1.61-9.79-5.09-7.27-8.57-7.86-24-1.29-33,5.36-7.24,13.59-10.08,18.81-11.43l3.89,3.13c-7.68,2-15,4.55-19.48,10.67-5.5,7.47-5,20.92,1.12,28.07,2.23,2.63,4.52,3.68,6.74,3.68,5.5,0,10.59-6.49,13.49-11.6A63.12,63.12,0,0,0,237.36,190.57Z"/></clipPath><clipPath id="clip-path-29"><path class="cls-1" d="M228.06,182.55l-3.89-3.13c.22-5.62-1-14.39-3.21-22.73-3.82-14.63-10.43-31.27-23.08-39a17.48,17.48,0,0,0-8.84-2.89,7.68,7.68,0,0,0-6.71,3.57c-4,5.72-2.44,13.91-.48,21.42,1.78,6.87-3.89,11.26-9,11.23a8.44,8.44,0,0,1-8.41-6.54c-3.2-12.2-4.72-26.62,4.38-38.06a25.26,25.26,0,0,1,20.25-9.58c4.83,0,9.24.5,14.26,3.35,20.45,9.78,30.55,33.68,35.39,53.41,2.08,8.5,3.35,17.48,3.34,21.2l-4,5.25a106.11,106.11,0,0,0-3.21-25.5c-4.69-19.11-14.35-41.78-33.22-50.75a29.36,29.36,0,0,0-12.54-3A21.31,21.31,0,0,0,172,108.89c-8,9.94-6.66,23-3.64,34.55a4.51,4.51,0,0,0,4.54,3.55c3,0,6.09-2.45,5.1-6.21-2.08-7.95-3.92-17.37,1-24.69a11.6,11.6,0,0,1,10-5.32,21.58,21.58,0,0,1,11,3.48c13.94,8.62,20.9,26.3,24.84,41.43A93.39,93.39,0,0,1,228.06,182.55Z"/></clipPath><clipPath id="clip-path-30"><path class="cls-1" d="M238.07,180l4-5.25a17.26,17.26,0,0,0,12.58-13.08A8.23,8.23,0,0,1,263,155v4a4.3,4.3,0,0,0-4.38,3.58C256.08,173.61,247.61,177.4,238.07,180Z"/></clipPath><clipPath id="clip-path-31"><path class="cls-1" d="M263,155h0Z"/></clipPath><clipPath id="clip-path-32"><path class="cls-1" d="M263,155c5,0,10.66,4.35,9.14,11.13h0C273.64,159.34,268,155,263,155Z"/></clipPath><clipPath id="clip-path-33"><path class="cls-1" d="M272.11,166.15v0h0Z"/></clipPath><clipPath id="clip-path-34"><path class="cls-1" d="M272.11,166.15c-2.22,9.76-9,17.43-17.31,22.17h0c8.33-4.74,15.09-12.41,17.31-22.17Z"/></clipPath><clipPath id="clip-path-35"><path class="cls-1" d="M254.78,188.32h0Z"/></clipPath><clipPath id="clip-path-36"><path class="cls-1" d="M254.78,188.32A58.29,58.29,0,0,1,241,193.77h0a58.29,58.29,0,0,0,13.81-5.45Z"/></clipPath><clipPath id="clip-path-37"><path class="cls-1" d="M241,193.79v0h0Z"/></clipPath><clipPath id="clip-path-38"><path class="cls-1" d="M241,193.79a64.18,64.18,0,0,1-7.56,21.55h0A64.18,64.18,0,0,0,241,193.79Z"/></clipPath><clipPath id="clip-path-39"><path class="cls-1" d="M233.4,215.36v0h0Z"/></clipPath><clipPath id="clip-path-40"><path class="cls-1" d="M233.4,215.36c-3.19,5.63-9.13,13.48-17,13.61h0c7.83-.13,13.77-8,17-13.61Z"/></clipPath><clipPath id="clip-path-41"><polygon class="cls-1" points="216.43 228.97 216.44 228.97 216.44 228.97 216.43 228.97"/></clipPath><clipPath id="clip-path-42"><path class="cls-1" d="M216.43,229c-3.49,0-6.85-1.61-9.78-5.09h0c2.93,3.48,6.29,5.08,9.78,5.09Z"/></clipPath><clipPath id="clip-path-43"><path class="cls-1" d="M206.63,223.86l0,0h0Z"/></clipPath><clipPath id="clip-path-44"><path class="cls-1" d="M206.63,223.86c-7.25-8.58-7.83-24-1.27-33h0c-6.56,9-6,24.43,1.27,33Z"/></clipPath><clipPath id="clip-path-45"><path class="cls-1" d="M205.37,190.83v0h0Z"/></clipPath><clipPath id="clip-path-46"><path class="cls-1" d="M205.37,190.83c5.37-7.23,13.58-10.07,18.8-11.41h0c-5.22,1.34-13.43,4.18-18.8,11.41Z"/></clipPath><clipPath id="clip-path-47"><path class="cls-1" d="M224.18,179.4v0h0Z"/></clipPath><clipPath id="clip-path-48"><path class="cls-1" d="M224.18,179.4c.21-5.62-1.05-14.38-3.22-22.71h0c2.17,8.33,3.43,17.09,3.22,22.71Z"/></clipPath><clipPath id="clip-path-49"><path class="cls-1" d="M221,156.64v.05h0Z"/></clipPath><clipPath id="clip-path-50"><path class="cls-1" d="M221,156.64c-3.82-14.62-10.44-31.23-23.07-39h0c12.63,7.75,19.25,24.36,23.07,39Z"/></clipPath><clipPath id="clip-path-51"><polygon class="cls-1" points="197.87 117.65 197.88 117.66 197.88 117.66 197.87 117.65"/></clipPath><clipPath id="clip-path-52"><path class="cls-1" d="M197.87,117.65a17.62,17.62,0,0,0-8.83-2.88h0a17.62,17.62,0,0,1,8.83,2.88Z"/></clipPath><clipPath id="clip-path-53"><polygon class="cls-1" points="189.04 114.77 189.04 114.77 189.04 114.77 189.04 114.77"/></clipPath><clipPath id="clip-path-54"><path class="cls-1" d="M189,114.77a7.69,7.69,0,0,0-6.71,3.57h0a7.69,7.69,0,0,1,6.71-3.57Z"/></clipPath><clipPath id="clip-path-55"><path class="cls-1" d="M182.32,118.36v0h0Z"/></clipPath><clipPath id="clip-path-56"><path class="cls-1" d="M182.32,118.36c-3.94,5.72-2.43,13.89-.47,21.4h0c-2-7.51-3.47-15.68.47-21.4Z"/></clipPath><clipPath id="clip-path-57"><path class="cls-1" d="M181.86,139.78v0h0Z"/></clipPath><clipPath id="clip-path-58"><path class="cls-1" d="M181.86,139.78c1.76,6.85-3.9,11.24-9,11.21h0c5.08,0,10.74-4.36,9-11.21Z"/></clipPath><clipPath id="clip-path-59"><polygon class="cls-1" points="172.87 150.99 172.88 150.99 172.88 150.99 172.87 150.99"/></clipPath><clipPath id="clip-path-60"><path class="cls-1" d="M172.87,151a8.44,8.44,0,0,1-8.4-6.54h0a8.44,8.44,0,0,0,8.4,6.54Z"/></clipPath><clipPath id="clip-path-61"><path class="cls-1" d="M164.46,144.42v0h0Z"/></clipPath><clipPath id="clip-path-62"><path class="cls-1" d="M164.46,144.42c-3.2-12.2-4.7-26.6,4.39-38h0c-9.09,11.43-7.59,25.83-4.39,38Z"/></clipPath><clipPath id="clip-path-63"><path class="cls-1" d="M168.87,106.37l0,0h0Z"/></clipPath><clipPath id="clip-path-64"><path class="cls-1" d="M168.87,106.37a25.25,25.25,0,0,1,20.23-9.56h0a25.25,25.25,0,0,0-20.23,9.56Z"/></clipPath><clipPath id="clip-path-65"><path class="cls-1" d="M189.12,96.81h0Z"/></clipPath><clipPath id="clip-path-66"><path class="cls-1" d="M189.12,96.81c4.82,0,9.23.51,14.24,3.35h0c-5-2.84-9.42-3.35-14.24-3.35Z"/></clipPath><clipPath id="clip-path-67"><path class="cls-1" d="M203.42,100.19l-.06,0h0Z"/></clipPath><clipPath id="clip-path-68"><path class="cls-1" d="M203.42,100.19c20.41,9.8,30.5,33.67,35.33,53.38h0c-4.83-19.71-14.92-43.58-35.33-53.38Z"/></clipPath><clipPath id="clip-path-69"><path class="cls-1" d="M238.75,153.59v0h0Z"/></clipPath><clipPath id="clip-path-70"><path class="cls-1" d="M238.75,153.59c2.08,8.5,3.35,17.47,3.34,21.18h0c0-3.71-1.26-12.68-3.34-21.18Z"/></clipPath><clipPath id="clip-path-71"><polygon class="cls-1" points="242.1 174.76 242.09 174.77 242.09 174.77 242.1 174.76"/></clipPath><clipPath id="clip-path-72"><path class="cls-1" d="M242.1,174.76a17.25,17.25,0,0,0,12.57-13.07h0a17.25,17.25,0,0,1-12.57,13.07Z"/></clipPath><clipPath id="clip-path-73"><path class="cls-1" d="M254.68,161.68h0Z"/></clipPath><clipPath id="clip-path-74"><path class="cls-1" d="M254.68,161.68A8.23,8.23,0,0,1,263,155h0a8.23,8.23,0,0,0-8.28,6.69Z"/></clipPath><clipPath id="clip-path-75"><path class="cls-1" d="M263,155c5,0,10.68,4.34,9.16,11.13-2.22,9.77-9,17.46-17.32,22.2A58.53,58.53,0,0,1,241,193.77l-3.61-3.2a61.32,61.32,0,0,0,15.46-5.73c7.49-4.27,13.47-11.08,15.39-19.6.86-3.78-2.29-6.25-5.25-6.25Z"/></clipPath><clipPath id="clip-path-76"><path class="cls-1" d="M241,193.77a64,64,0,0,1-7.56,21.57c-3.19,5.63-9.13,13.5-17,13.63-3.49,0-6.86-1.61-9.79-5.09-7.27-8.57-7.86-24-1.29-33,5.36-7.24,13.59-10.08,18.81-11.43l3.89,3.13c-7.68,2-15,4.55-19.48,10.67-5.5,7.47-5,20.92,1.12,28.07,2.23,2.63,4.52,3.68,6.74,3.68,5.5,0,10.59-6.49,13.49-11.6a63.12,63.12,0,0,0,7.43-22.8Z"/></clipPath><clipPath id="clip-path-77"><path class="cls-1" d="M224.17,179.42c.22-5.62-1-14.39-3.21-22.73-3.82-14.63-10.43-31.27-23.08-39a17.48,17.48,0,0,0-8.84-2.89,7.68,7.68,0,0,0-6.71,3.57c-4,5.72-2.44,13.91-.48,21.42,1.78,6.87-3.89,11.26-9,11.23a8.44,8.44,0,0,1-8.41-6.54c-3.2-12.2-4.72-26.62,4.38-38.06a25.26,25.26,0,0,1,20.25-9.58c4.83,0,9.24.5,14.26,3.35,20.45,9.78,30.55,33.68,35.39,53.41,2.08,8.5,3.35,17.48,3.34,21.2l-4,5.25a106.11,106.11,0,0,0-3.21-25.5c-4.69-19.11-14.35-41.78-33.22-50.75a29.36,29.36,0,0,0-12.54-3A21.31,21.31,0,0,0,172,108.89c-8,9.94-6.66,23-3.64,34.55a4.51,4.51,0,0,0,4.54,3.55c3,0,6.09-2.45,5.1-6.21-2.08-7.95-3.92-17.37,1-24.69a11.6,11.6,0,0,1,10-5.32,21.58,21.58,0,0,1,11,3.48c13.94,8.62,20.9,26.3,24.84,41.43a93.39,93.39,0,0,1,3.23,26.87Z"/></clipPath><clipPath id="clip-path-78"><path class="cls-1" d="M242.09,174.77a17.26,17.26,0,0,0,12.58-13.08A8.23,8.23,0,0,1,263,155v4a4.3,4.3,0,0,0-4.38,3.58c-2.5,11-11,14.83-20.51,17.45Z"/></clipPath><clipPath id="clip-path-79"><path class="cls-1" d="M224.76,195.71l-3.36,3.94c.48-2.36.41-2.45.38-2.5A4.3,4.3,0,0,0,224.76,195.71Z"/></clipPath><clipPath id="clip-path-80"><path class="cls-1" d="M221.4,199.65a11,11,0,0,0,.38-2.5h0a4.31,4.31,0,0,0,3-1.44l2-2.35a56.73,56.73,0,0,1-2.26,8L220.75,200C221.41,197.73,222.33,195.1,221.4,199.65Z"/></clipPath><clipPath id="clip-path-81"><path class="cls-1" d="M226.77,193.36l-.07,0,1.4,3.75-6.7,2.51c5.62-2.11,6.64-2.5,6.68-2.56s0,0,0-.06l0-.08-.78-2.11c-.11-.29-.21-.59-.33-.88a.72.72,0,0,0-.14-.19.53.53,0,0,1-.1-.17C226.65,193.51,226.72,193.43,226.77,193.36Z"/></clipPath><clipPath id="clip-path-82"><path class="cls-1" d="M221.4,199.65l5.37-6.29a.3.3,0,0,0-.09.25.46.46,0,0,0,.11.16c.1.12.1.12.36.8.13.36.21.59.54,1.47l.4,1.05h0c-.08.05-.18.11-5.72,2.19A4.33,4.33,0,0,0,221.4,199.65Z"/></clipPath><clipPath id="clip-path-83"><path class="cls-1" d="M216.49,213.69a6.9,6.9,0,0,0,.37.82l-.46-.65.82,1.13A3.74,3.74,0,0,1,216.49,213.69Z"/></clipPath><clipPath id="clip-path-84"><path class="cls-1" d="M216.4,213.86c.14.19.33.45.46.65a5.16,5.16,0,0,1-.37-.82,31.81,31.81,0,0,1-1.23-4.77c-1.77-8.91,3.58-13.19,11.44-15.53l1.4,3.75c-6.71,2.08-10.1,4.9-8.92,11,.14.7.91,4.25-15.6-12Z"/></clipPath><clipPath id="clip-path-85"><path class="cls-1" d="M216.57,214.09a52.43,52.43,0,0,0-5.22-6.41h0c-.5-.52-1.17-1.22-1.63-1.78-.6-.74-1.36-1.75-1.89-2.54a75.91,75.91,0,0,1-4.25-7.23c8.56,16.4,12.26,13.38,12.41,13.14a42.57,42.57,0,0,0,4.76-9.24l3.76,1.36a47,47,0,0,1-5.2,10.12c-.35.52-2.43,2.78-2.09,3.48Z"/></clipPath><clipPath id="clip-path-86"><path class="cls-1" d="M203.58,196.13l13,18a53.15,53.15,0,0,0-5.2-6.4,26.91,26.91,0,0,1-3.28-3.95c-.9-1.25-2.53-3.93-3.28-5.33C204.44,197.72,204,196.78,203.58,196.13Z"/></clipPath><clipPath id="clip-path-87"><polygon class="cls-1" points="220.75 200.02 220.75 200.03 220.75 200.03 220.75 200.02"/></clipPath><clipPath id="clip-path-88"><path class="cls-1" d="M220.75,200c.66-2.29,1.58-4.92.65-.37h0c.93-4.55,0-1.92-.65.37Z"/></clipPath><clipPath id="clip-path-89"><rect class="cls-1" x="224.75" y="194.81" height="7.16" transform="translate(-70.28 251.6) rotate(-51.66)"/></clipPath><clipPath id="clip-path-90"><path class="cls-1" d="M228.08,197.14h0Z"/></clipPath><clipPath id="clip-path-91"><path class="cls-1" d="M228.08,197.14c-6.7,2.08-10.08,4.91-8.9,11h0c-1.18-6.09,2.2-8.92,8.9-11Z"/></clipPath><clipPath id="clip-path-92"><polygon class="cls-1" points="219.18 208.14 219.18 208.14 219.18 208.14 219.18 208.14"/></clipPath><clipPath id="clip-path-93"><path class="cls-1" d="M219.18,208.14h0c.14.71.9,4.23-15.6-12h0C220.08,212.37,219.32,208.85,219.18,208.14Z"/></clipPath><clipPath id="clip-path-94"><path class="cls-1" d="M203.61,196.18l0-.05h0Z"/></clipPath><clipPath id="clip-path-95"><path class="cls-1" d="M203.61,196.18h0c8.54,16.35,12.23,13.33,12.38,13.09h0C215.84,209.51,212.15,212.53,203.61,196.18Z"/></clipPath><clipPath id="clip-path-96"><polygon class="cls-1" points="216 209.26 215.99 209.27 215.99 209.27 216 209.26"/></clipPath><clipPath id="clip-path-97"><path class="cls-1" d="M216,209.26a42.23,42.23,0,0,0,4.75-9.23h0a42.23,42.23,0,0,1-4.75,9.23Z"/></clipPath><clipPath id="clip-path-98"><path class="cls-1" d="M221.4,199.65a15.47,15.47,0,0,0,.42-2.5h0a4.36,4.36,0,0,0,2.94-1.44Z"/></clipPath><clipPath id="clip-path-99"><path class="cls-1" d="M224.76,195.71l2-2.35a56.73,56.73,0,0,1-2.26,8L220.75,200c.66-2.3,1.58-4.93.65-.38a11.08,11.08,0,0,0,.42-2.5A4.27,4.27,0,0,0,224.76,195.71Z"/></clipPath><clipPath id="clip-path-100"><path class="cls-1" d="M221.4,199.65c5.66-2.13,6.63-2.5,6.68-2.56L226.93,194a.88.88,0,0,0-.14-.23c-.1-.12-.19-.22,0-.41l-.07,0,1.4,3.75Z"/></clipPath><clipPath id="clip-path-101"><path class="cls-1" d="M226.77,193.36c-.05.07-.12.15-.09.24a.53.53,0,0,0,.1.17.57.57,0,0,1,.15.22c.18.45.34.91.51,1.37l.39,1,.06.17.06.14,0,.12,0,.11,0,.08s0,0,0,.06a5.26,5.26,0,0,1-.84.35l-5.85,2.21Z"/></clipPath><clipPath id="clip-path-102"><path class="cls-1" d="M216.49,213.69a31.81,31.81,0,0,1-1.23-4.77c-1.77-8.91,3.58-13.19,11.44-15.53l1.4,3.75c-6.71,2.08-10.1,4.9-8.92,11,.14.7.91,4.25-15.6-12l12.82,17.73.46.65A6.9,6.9,0,0,1,216.49,213.69Z"/></clipPath><clipPath id="clip-path-103"><path class="cls-1" d="M216.4,213.86l.82,1.13a3.74,3.74,0,0,1-.73-1.3,5.74,5.74,0,0,0,.37.82C216.73,214.31,216.54,214.05,216.4,213.86Z"/></clipPath><clipPath id="clip-path-104"><path class="cls-1" d="M203.58,196.13c8.56,16.4,12.26,13.38,12.41,13.14a42.57,42.57,0,0,0,4.76-9.24l3.76,1.36a47,47,0,0,1-5.2,10.12c-.35.52-2.43,2.78-2.09,3.48l-.65-.9a52.68,52.68,0,0,0-5.18-6.38,18.55,18.55,0,0,1-1.5-1.61c-.58-.7-1.31-1.69-1.85-2.44-.68-.95-1.5-2.28-2.1-3.29C205.2,199.12,204.27,197.41,203.58,196.13Z"/></clipPath><clipPath id="clip-path-105"><path class="cls-1" d="M216.57,214.09a56.09,56.09,0,0,0-5.2-6.4,24.3,24.3,0,0,1-2.53-2.92,64,64,0,0,1-5.26-8.64Z"/></clipPath></defs><g id="Layer_2" data-name="Layer 2"><g id="lines"><path class="cls-2" d="M305.3,226.05q-5.42-41.46-7.74-83.22c-.74-13.44-.6-27-1.6-40.4a42.45,42.45,0,0,0-.75-5.48,1.29,1.29,0,0,0,.27-.61c.21-1.81-.57-3.71-1-5.44l-1.08-4.15a5,5,0,0,0-.31-4.4,4.41,4.41,0,0,0-.53-2.06c-.71-1.15-2.1-1.22-3.31-1.45q-4.73-.9-9.47-1.71c-3.17-.54-6.55-.79-9.58-1.91a.81.81,0,0,0-1.11.5c-2.8-1.29-5.54-2.62-8.2-3.64-10-3.82-20.77-5.23-31.19-7.5a422.08,422.08,0,0,1-61.3-18.39c-2.67-1-4.78.49-5.69,2.63a19.2,19.2,0,0,0-4.76-.8l-5.57-1.57a1,1,0,0,0-1.22,1.11,7.36,7.36,0,0,0-.94-.15h0l-.27,0c-1.12-.09-1.35,1.68-.29,2,0,0,0,.09,0,.14-5.22,2.22-9.12,7.51-7,13.4q-2.6,4.76-5.2,9.52c-.12.23-.22.45-.31.67a4.76,4.76,0,0,0-.89,1.16q-11.76,21.24-23.14,42.67a4.64,4.64,0,0,0-1,1.46c-.55,1.21-1.1,2.42-1.66,3.63q-12.75,24.12-25.05,48.5A4.9,4.9,0,0,0,86,176.1c-.22.35-.43.7-.64,1.05a4.14,4.14,0,0,0-.39.79,4,4,0,0,0-1.1,4.71,120.18,120.18,0,0,0,21.43,36,4.21,4.21,0,0,0,6.13.59c3,4.15,7,7.5,10.06,11.68a1,1,0,0,0,.92.43c.91,1,1.84,2,2.8,3q8.74,17.17,17.73,34.22c1.89,3.58,6.59,2.88,8.63,0a8.38,8.38,0,0,0,1-1.82q3.92,3.69,8,7.16c2.71,3.54,5.8,7.12,9.82,7.88l.3.22c1.2.91,2,1.42,3.49.75s2.57-1.24,3.84-1.87l.34,0c3,0,5.71-2,8.18-3.46l11.54-6.64a4.53,4.53,0,0,0,2.48-3.77,13,13,0,0,0,1.25-1,10.79,10.79,0,0,1,2.4-1.54,29.4,29.4,0,0,1,5.5-1.77.89.89,0,0,0,.69-1q10.17-3.73,20.23-7.78c11-4.45,21.94-9.19,32.76-14.13,3.65-1.66,7.43-3.39,11.3-4.9,4.8-.38,9.57-1.4,14.3-2.22a55.8,55.8,0,0,0,8.94-1.91c.35,0,.69,0,1,.1C301.75,231.25,305.77,229.66,305.3,226.05Zm-10.85-5.25a4.1,4.1,0,0,0,0-1c-.22-2-.45-4-.67-6,.28,2.34.56,4.68.86,7Z"/><path class="cls-3" d="M368.82,294c-1.52-3.19-4.39-4.59-7.55-5.67-1.11-.38-2.18-.7-3.25-1A179.27,179.27,0,0,0,328.51,260a6.94,6.94,0,0,0-.63-1.36,45.41,45.41,0,0,0-9.63-10.46c-.15-.17-.31-.35-.48-.52-4.21-4.25-12.73-12-19.32-8.59-1.26.2-2.51.5-3.68.72l-9.36,1.7a5,5,0,0,0-1.79.13l-2.2.59c-5.21.19-10.42,1-15.7,1s-10.17.11-15.16,1.66c-4.1,1.28-8.11,3-12.1,4.63-13.33,5.35-28.09,10.85-35.67,23.2q-9.42,5.67-18.75,11.41c-3,1.85-6.06,3.71-9.09,5.58a19.61,19.61,0,0,0-1.76-1.36,7.49,7.49,0,0,0-10.26,2.69,7.59,7.59,0,0,0-.76,5.78,8.09,8.09,0,0,0,2.31,3.59c-1.83,7.54-3.33,15.21-4.66,22.86a5,5,0,0,0-.56,3.19l0,.19c-3.39,20.13-4.7,40.48-.5,60.59a5,5,0,0,0,4.82,3.67l.71,0a4.28,4.28,0,0,0,1.94,1L190,396.93c3.58,1.63,6.83,3.7,10.45,5.67,10.47,5.68,23.85,3,35.18,1.93,9.8-.9,19.68-1.95,29.41-3.57a6.77,6.77,0,0,0,6.86,1.62l1.2-.3.56.22a5.38,5.38,0,0,0,2.43.36c4.35.51,8.35-1,12.14-3.27.34-.11.67-.23,1-.36a35.42,35.42,0,0,0,13.41-9.89c8-9.14,14.77-19.57,20.77-30.1a.6.6,0,0,1,.06-.11,9.1,9.1,0,0,0,3.47-3c2.69-3.76,4.59-6.24,7.35-9.62a8.74,8.74,0,0,0,2-7.22l2.05-2.58a8.18,8.18,0,0,0,2.19-5.31,7,7,0,0,0,0-.78q4.69-5.13,9.83-9.87c4.89-4.51,9.44-9.3,11-15.62a7.18,7.18,0,0,0,4.84-.92C369.78,301.9,370.63,297.78,368.82,294Z"/><path class="cls-3" d="M410.61,170.29a10.08,10.08,0,0,1-5.65-3.21,17.38,17.38,0,0,0-2.75-5.8,5.28,5.28,0,0,0-3.72-2.24q-1.92-2.1-3.8-4.22c-4.31-12.64-11.88-24-18.59-35.57a313.7,313.7,0,0,1-24.05-51.79c-.86-2.39-3.45-4.45-6.15-3.49q-2.49.89-4.95,1.85a4.47,4.47,0,0,0-4.64-1.08A57,57,0,0,0,325.62,69a4,4,0,0,0-5-1.57,29.6,29.6,0,0,0-14.45,12.34,5.65,5.65,0,0,0-.62.28c-3.51-2.25-8.23,1.58-7.31,5.73,1.69,7.61.87,15.33.95,23A64.91,64.91,0,0,0,302.68,129c0,6.66,0,13.33-.12,20-.18,9.52-1.15,19.07.37,28.51a90.2,90.2,0,0,0,5.1,37.66,112.7,112.7,0,0,1,0,19.18c-.44,4,3.76,7.5,7.5,7.5a7.36,7.36,0,0,0,2.72-.51l16.87,16.17a4,4,0,0,0,1.47,3.18l11,8.76c.14.11.29.21.44.31,1.66,2.52,4.06,4.43,6.22,6.54a66.54,66.54,0,0,1,6.34,7c2,2.61,5.32,4.24,8.37,3.53.31.14.6.29.91.41,4,1.56,6.66-2.84,6.15-6.15q-.87-5.7-1.16-11.47a7.76,7.76,0,0,0,.7-1.61,26.38,26.38,0,0,0,.71-3.38,7.84,7.84,0,0,0,3.8-5.72c.32-2.33-.48-4.51-1.12-6.71-.08-.26-.18-.5-.28-.74q2.82-10,5.66-20,6.07-13.67,10.79-27.85a4.41,4.41,0,0,0,4-3.57,43.43,43.43,0,0,1,1.66-4.78,10.08,10.08,0,0,0,1.61-2.73c.82-2.06,2.27-3.79,3.12-5.85a45,45,0,0,1,7.28-7.94C415.63,176.23,414.13,171.06,410.61,170.29Z"/><path class="cls-4" d="M155.08,282.47c-.2-.24-.38-.48-.58-.71a4.83,4.83,0,0,0-1.33-3.49,84.64,84.64,0,0,0-11.15-10c-.36-.35-.7-.71-1.06-1.05a5.81,5.81,0,0,0-1.69-1.16,5,5,0,0,0-1-1.44c-2.22-2.18-4.47-4.31-6.74-6.43a5.39,5.39,0,0,0-.95-1.43l-11.76-13-.15-.28a4.25,4.25,0,0,0-.71-1.34L113.29,236a5.34,5.34,0,0,0-1.24-1.19,186.75,186.75,0,0,0-17.5-23.61,4.22,4.22,0,0,0-3-1.5q-8.43-11.58-16-23.81c-2.85-4.64-9.5-1.74-9.4,2.61a14.66,14.66,0,0,0-11.52,5,4.5,4.5,0,0,0-2.78,1c-1.72,1.25-3.46,2.47-5.2,3.67h0c-1-3.48-5-6-8-2.47a103.82,103.82,0,0,1-10.94,10.86c-1.13-3.21-5.67-5.37-8.34-2.19A141.58,141.58,0,0,1,1.45,222.18a5,5,0,0,0-.78,6.06c3.79,6.18,9.19,11.32,14.44,16.41q4.42,6.43,8.84,12.89a36.92,36.92,0,0,0,6.6,9.5,4.59,4.59,0,0,0,1.44,1,67.79,67.79,0,0,0,13.53,37.75,5.12,5.12,0,0,0,3.12,2c.1.18.2.36.31.54a4.71,4.71,0,0,0-.54,3.52q2.21,9.28,4.4,18.56a4.36,4.36,0,0,0,1.07,2q.78,2.2,1.66,4.38a4,4,0,0,0,0,3.11c.44,1.11.87,2.21,1.3,3.32a5.6,5.6,0,0,0,1.28,4.94,5.12,5.12,0,0,0,4.18,1.77h0c.73.28,1.45.58,2.17.87a5,5,0,0,0,.63,5.79,46,46,0,0,0,7.21,6.75,1.45,1.45,0,0,1,1.62-.14,35.48,35.48,0,0,1,3,2,13.06,13.06,0,0,0,3.21,1.5c2.29.76,4.66,1.3,7,1.86,4.45,1.05,9,2.08,13,4.43a1.43,1.43,0,0,1,.42,2.13l.31.07c7.66,1.53,15.45,2.29,23.18,3.4,8.57,1.23,16.57,3.61,24.92,5.75,5.2,1.33,7.83-4.62,4.86-8.36a18,18,0,0,1-2.11-3.39,4.62,4.62,0,0,0,1-3.19,34.79,34.79,0,0,0-.71-6.36,25,25,0,0,0-1.2-7l0-.4c0-.45,0-.91,0-1.36a4.9,4.9,0,0,0,2.72-4.21q.35-10.79-.27-21.51a5.07,5.07,0,0,0,.71-1.52,58,58,0,0,0,2.07-12.82,3.91,3.91,0,0,0,2.31-3.12,156.77,156.77,0,0,0,1.74-23.61A5.43,5.43,0,0,0,155.08,282.47Zm-48.21,83.71c-2.28-.4-4.56-.86-6.82-1.39a5.68,5.68,0,0,0,1.31-.8c2,.74,4.12,1.44,6.21,2.07a5,5,0,0,0,2.69.13c.3.24.62.45.93.67C109.75,366.64,108.31,366.43,106.87,366.18Z"/><path class="cls-4" d="M140.21,42.57c-1.33-5.22-5.61-8.74-9.08-12.55a45.62,45.62,0,0,1-9.6-16.82,5,5,0,0,0-9.65,0c-2.33,7.2-7,13-12,18.6-5.39,6-10.89,12-16.34,18L51.15,85.28A4.76,4.76,0,0,0,49,86.54q-1.64,1.63-3.22,3.32L40.8,93.09A5.09,5.09,0,0,0,38.59,98q-4.76,5.84-8.91,12.12a4.4,4.4,0,0,0,.17,5.2,21.15,21.15,0,0,0-1.74,5.39,5.21,5.21,0,0,0,.89,4.18q-2.47,5.31-4.71,10.75a4.36,4.36,0,0,0-.32,2.45c-.53,1-1,2.07-1.53,3.13a5.08,5.08,0,0,0,1.71,6.57c-.55,1.78-1,3.57-1.42,5.37a4.78,4.78,0,0,0-4.05,3.45A92.73,92.73,0,0,0,16.39,167a13.62,13.62,0,0,0-2.23,8.32,4.87,4.87,0,0,0,.82,2.45,4.82,4.82,0,0,0-.78,2.85c0,.38,0,.76,0,1.12a4.54,4.54,0,0,0-2.7,4.36c0,1,0,2.07,0,3.11q0,.32-.12.63a5,5,0,0,0-2,5.38A5,5,0,0,0,14,201.62a7.15,7.15,0,0,0,1.34-.1,5.36,5.36,0,0,0,.64.19l.47.1a5.45,5.45,0,0,0,2.91-.15c8.85-1.25,16-5.94,23.05-11.47,1.86-1.46,3.74-3,5.68-4.46a19.73,19.73,0,0,0,4.88-1.19l.54-.21,3-.64a66.51,66.51,0,0,0,8.29-1.41,5,5,0,0,0,1-.35,6,6,0,0,0,5.27.2c5.91-2.67,9.16-8.32,11.09-14.27,1.26-3.91,1.75-8.23,3.17-12.08a4.2,4.2,0,0,0,5.11-2.34l37.28-83c2.23-3.81,4.49-7.6,6.83-11.34C137.63,54,141.82,48.9,140.21,42.57ZM128,50.68c-.19-.29-.4-.59-.59-.89a5.72,5.72,0,0,0,1.57-.54C128.67,49.73,128.33,50.21,128,50.68Z"/><path class="cls-4" d="M338.69,52.56C321,43,303.45,32.57,285.06,24.37c-16.68-7.44-34.31-12.27-52.22-15.66a508.1,508.1,0,0,0-56.48-7.34C166.85.65,157.28.06,147.74,0c-7.68,0-15.35,1.08-21,6.75a5.08,5.08,0,0,0,0,7.07l18.84,18.89c.09.09.18.16.27.24a4.5,4.5,0,0,0,4.79,4.42,45.59,45.59,0,0,1,6.63.46,4.12,4.12,0,0,0,2.3,2.66,11.09,11.09,0,0,0,9.62.44,3.35,3.35,0,0,0,.53-.19c1.9.57,3.8,1.17,5.7,1.75l24.79,7.63c15.79,4.86,31.53,10,47.52,14.14,14.05,3.67,28.5,6.66,43,7.6a18.23,18.23,0,0,0,8.91,1.93A13.91,13.91,0,0,0,307.41,71a40.28,40.28,0,0,0,8.6-3.07c5.72-2.82,12.09-8.11,18.83-6.23C340.22,63.2,343.75,55.29,338.69,52.56Z"/><path class="cls-5" d="M159,283.91a45.62,45.62,0,0,0-7-6.71l0,0h0l-.2-.16a.61.61,0,0,0-.14-.07q-2-1.95-4-3.84c-1.76-1.71-3.53-3.42-5.33-5.08a.94.94,0,0,0-.74-.25,52.32,52.32,0,0,0-4.85-3.8A105.74,105.74,0,0,1,128,251.39a4,4,0,0,0-.85-3.95,216.46,216.46,0,0,1-16.45-20.8,4.06,4.06,0,0,0-1.68-4.27c-.58-.41-1.13-.86-1.68-1.31a11.56,11.56,0,0,1-1.52-1.74c-.27-.42-.55-.84-.81-1.26a3.8,3.8,0,0,0-2.7-1.84c-3.31-3.71-6.18-7.85-9.28-11.71a126.32,126.32,0,0,0-17.66-17.86A4.33,4.33,0,0,0,68.44,189a.66.66,0,0,0-.27,0c-1.11.43-2.22.9-3.31,1.38L61,191.2a.85.85,0,0,0-.68,1.15l-.59.24h0l-.24.1a1.13,1.13,0,0,0-.24.17,4.43,4.43,0,0,0-.51.06,61.2,61.2,0,0,0-24.17,9.71,3.38,3.38,0,0,0-.46.37l-.14.05a.89.89,0,0,0-.67,0l-.14.05a1.17,1.17,0,0,0-.22-.37.89.89,0,0,0-1.14-.58,24.64,24.64,0,0,0-7,3.75,1,1,0,0,0-.31.36A43.74,43.74,0,0,0,6,218.35a4.37,4.37,0,0,0-.81,1.34c-1.67.88-2.89,2.79-2.15,4.63a29.62,29.62,0,0,0,13.81,15.73,3.59,3.59,0,0,0,.86.32,55.32,55.32,0,0,0,3.71,7.33q4.32,8.58,8.93,17,4.44,11.1,8.89,22.2c3.42,8.55,8.16,17.91,5.47,27.28a4.1,4.1,0,0,0,1.84,4.51,9.41,9.41,0,0,1,3.34,4.2,3.4,3.4,0,0,0,1.62,1.68l.18.87a1,1,0,0,0-1.62,1,79.88,79.88,0,0,0,2.62,8.74c0,1.5.12,3,.28,4.5a4.1,4.1,0,0,0,1.23,2.61,7.73,7.73,0,0,0,.34,1.81l-.59-.22c-1.06-.4-1.76,1.3-.77,1.83s1.8,1,2.71,1.41a3.64,3.64,0,0,0,4.81,2.33c1.13.53,2.26,1.05,3.4,1.55s2.58,1.13,3.89,1.65a51.18,51.18,0,0,0,12.52,6.92c1.1.43,1.67-1.23.77-1.82s-1.87-1.19-2.81-1.79l2.41,1,.85.41,3.53,2.06a.89.89,0,0,0,1.13-.12c.78.38,1.57.76,2.36,1.11l1.62,1.14a3.12,3.12,0,0,0,2.25.63,3.31,3.31,0,0,0,1.55,1.63,55.35,55.35,0,0,0,12,4.33c.23.16.46.32.68.5a4.15,4.15,0,0,0,4.91.39l.56.23a3.16,3.16,0,0,0,2.18.06,3.34,3.34,0,0,0,2.31-.1,4.16,4.16,0,0,0,2.13,6.22l16.1,5.36a3.56,3.56,0,0,0,2.16.06q3.84,2.43,7.76,4.72a3.13,3.13,0,0,0,.87.5c1,.6,2.08,1.19,3.13,1.76,3.92,2.14,8.17-3,4.85-6.28-.62-.61-1.25-1.19-1.89-1.76a4.9,4.9,0,0,0,0-3.85c1.39-25,8.62-49.66,6.12-74.86a4.11,4.11,0,0,0-1-2.4q1.49-5.4,3.26-10.73A3.4,3.4,0,0,0,159,283.91Z"/><path class="cls-5" d="M128.51,28.22l-1.45-1.79c-.24-.29-.46-.6-.69-.9,0,0,0-.07,0-.11-1-2.6-2.87-4.64-4.51-6.83l-.12-.2c-.09-.15-.17-.3-.26-.44a1.13,1.13,0,0,0-.1-.56L117.19,9.1a1,1,0,0,0-1.83.73A3.68,3.68,0,0,0,111,11.6a13,13,0,0,0-1.89,7.25l0,.22-.29,1.27q-2.11,6.18-4.24,12.35a32.53,32.53,0,0,0-4.35,6.4,4.63,4.63,0,0,0-.67.77A96.77,96.77,0,0,1,89.42,52.41a3.25,3.25,0,0,0-1.93,1.16,82.78,82.78,0,0,1-6,6.29c-.56.47-1.11,1-1.68,1.41a3.52,3.52,0,0,0-.64.71q-1.61,1.41-3.3,2.73a4.14,4.14,0,0,0-3.76.82c-3.2,2.76-6.48,5.38-9.83,7.92a3.51,3.51,0,0,0-2.77.49,61.56,61.56,0,0,0-11.85,9.8,4.08,4.08,0,0,0-.11,5.38c-.29.3-.6.58-.89.87A32.92,32.92,0,0,0,43.9,92.5a23.91,23.91,0,0,0-4.54,4,4.32,4.32,0,0,0-1.1,2.27c-.44.51-.88,1-1.31,1.48-4.8,5.23-9.33,11-9,18.43a3.94,3.94,0,0,0,.71,2.1c-.25,1.17-.48,2.34-.71,3.51-.74,2.88-1.43,5.78-2,8.7a1,1,0,0,0,.14.79c-.36,1.7-.7,3.4-1,5.11-.13.73-.25,1.45-.38,2.18a542.26,542.26,0,0,0-14.63,59.29c-.94,5,6.77,7.19,7.72,2.13.19-1,.4-2.05.6-3.07a3.62,3.62,0,0,0,4.49,2,57.31,57.31,0,0,0,19.62-10.94l2.43-1.37a39,39,0,0,0,6.83-2.71A24.26,24.26,0,0,0,62,182.76a4,4,0,0,0,1.23-1.24c.22-.1.42-.23.63-.34a11,11,0,0,0,3.77-1,4,4,0,0,0,3.47.09,1,1,0,0,0,.8,1.4c.15.62.75,1.11,1.4.63l1-.74a1.11,1.11,0,0,0,.37-1.3A6.54,6.54,0,0,0,75.1,179a1,1,0,0,0-.18-.82,3.89,3.89,0,0,0,1.66-2.1,13.37,13.37,0,0,0,.65-3.36c.29-.74.58-1.49.85-2.24q7-12.69,12.89-26a.89.89,0,0,0,1.07-.69c.16-.65.35-1.28.54-1.92,3.2-4.55,6.63-9,9-14,.41-.88-.61-1.95-1.39-1.36l.3-.69a23.69,23.69,0,0,0,3.86-7.32,1,1,0,0,0-.42-1.09,185.41,185.41,0,0,0,15.61-25.12,3.84,3.84,0,0,0,.42-1.58c5.26-6.41,5.79-15,9.42-22.09,1.18-1.67,2.33-3.36,3.44-5.1a3.47,3.47,0,0,0,.56-2,3.44,3.44,0,0,0,0-2.43c2.56-2.92,5-6.17,4.7-9.22,0-.15-.06-.29-.08-.44a3.71,3.71,0,0,0,2.17-1.73C144.53,39.69,135.46,33,128.51,28.22Z"/><path class="cls-5" d="M338.21,54.82a19.81,19.81,0,0,0-1.85-1.6,3.8,3.8,0,0,0-3.14-2.13,3.24,3.24,0,0,0-1.34-.62,51.77,51.77,0,0,0-10.19-3.34c-1.72-.42-3.4-.89-5.07-1.4-1.6-1.22-3.17-2.48-4.76-3.67-8.9-6.64-18.45-14.84-29.05-18.51a124.49,124.49,0,0,0-25.45-5.45l-1.26-.34c-6.44-7.14-18.35-7.91-28.27-6.43-9.75-3.52-19.87-5.27-29.94-3q-2.77.17-5.53.51a21.4,21.4,0,0,0-9.67-1.28,176.42,176.42,0,0,0-22.08-4.9C150.71,1,137.49.82,128.4,5.61c-7.75,4.08-2.25,15.1,5.21,13.77a71,71,0,0,1,5.55,7.74,4.23,4.23,0,0,0,.52,2.34,16.17,16.17,0,0,0,2.2,3,3.86,3.86,0,0,0,1.87,3.77,10.1,10.1,0,0,0,1.21.64,8.33,8.33,0,0,0,5.54,2.49c.43.08.87.15,1.33.2,3,.39,6.08.69,9.13,1a3.8,3.8,0,0,0,2.86,3.94,63.47,63.47,0,0,0,17.41,1,77.88,77.88,0,0,0,12.44,2.17c.78.23,1.56.44,2.35.63A62.39,62.39,0,0,0,229.18,56a81,81,0,0,0,12.48,2.36,69.34,69.34,0,0,0,12.41,4.45,3.83,3.83,0,0,0,2.83,3.47c5.54,1.79,11.12,3.37,16.79,3.62a7.84,7.84,0,0,0,1.92.84l21.9,6.38c4.36,1.27,7.55-1.24,8.74-4.55.81-.13,1.6-.29,2.39-.49,3.53-.27,6.68-1.43,10.47-1.68,5.37-.36,10.7-1.31,12.6-7.25a2,2,0,0,0,.06-.23,38.6,38.6,0,0,0,4.68-1.42C339.15,60.48,340.54,57.07,338.21,54.82Z"/><g class="cls-6"><g class="cls-6"><g class="cls-7"><path class="cls-8" d="M144.12,151.45a4.93,4.93,0,0,1,3.32,1.32c4.71,4.2,6.77,10.71,9.56,16.2q4.8,9.45,10.31,18.53a281,281,0,0,0,25,34.83c3.13,3.74-.2,8.75-3.8,8.75a4.22,4.22,0,0,1-3.27-1.67,296.71,296.71,0,0,1-24.72-33.85q-5.61-9-10.54-18.4c-2.84-5.41-5-13.2-9.62-17.31C136.6,156.49,140.12,151.45,144.12,151.45Z"/></g></g><g class="cls-6"><g class="cls-7"><path class="cls-8" d="M144.12,151.45a4.93,4.93,0,0,1,3.32,1.32c4.71,4.2,6.77,10.71,9.56,16.2q4.8,9.45,10.31,18.53a281,281,0,0,0,25,34.83c3.13,3.74-.2,8.75-3.8,8.75a4.22,4.22,0,0,1-3.27-1.67,296.71,296.71,0,0,1-24.72-33.85q-5.61-9-10.54-18.4c-2.84-5.41-5-13.2-9.62-17.31C136.6,156.49,140.12,151.45,144.12,151.45Z"/></g></g><g class="cls-6"><g class="cls-9"><g class="cls-6"><path class="cls-8" d="M144.12,151.45v-4a8.89,8.89,0,0,1,6,2.34l-2.66,3A4.93,4.93,0,0,0,144.12,151.45Z"/><path class="cls-8" d="M144.12,149.43a6.88,6.88,0,0,1,4.66,1.84"/><path class="cls-8" d="M144.12,148a8.38,8.38,0,0,1,5.62,2.19"/><path class="cls-8" d="M145.25,151.59l.94-3.89"/><path class="cls-8" d="M146.36,152l1.85-3.55"/><path class="cls-8" d="M147.44,152.77l2.66-3c5.55,5,7.75,12,10.46,17.37L157,169C154.21,163.48,152.15,157,147.44,152.77Z"/><path class="cls-8" d="M148.78,151.27c5.13,4.59,7.26,11.37,10,16.79"/><path class="cls-8" d="M149.74,150.19c5.43,4.89,7.61,11.85,10.34,17.22"/><path class="cls-8" d="M151.39,157.62l3.29-2.3"/><path class="cls-8" d="M154.33,163.27l3.55-1.88"/><path class="cls-8" d="M157,169l3.56-1.81q4.74,9.32,10.17,18.27l-3.42,2.07Q161.82,178.44,157,169Z"/><path class="cls-8" d="M158.8,168.06q4.77,9.38,10.24,18.4"/><path class="cls-8" d="M160.08,167.41c3.16,6.22,6.57,12.33,10.18,18.3"/><path class="cls-8" d="M160.28,175.23l3.52-1.9"/><path class="cls-8" d="M163.72,181.41l3.47-2"/><path class="cls-8" d="M167.31,187.5l3.42-2.07a276.29,276.29,0,0,0,24.66,34.33l-3.07,2.57A281,281,0,0,1,167.31,187.5Z"/><path class="cls-8" d="M169,186.46A278.46,278.46,0,0,0,193.87,221"/><path class="cls-8" d="M170.26,185.71A275.64,275.64,0,0,0,195,220.11"/><path class="cls-8" d="M175.05,199.54l3.31-2.25"/><path class="cls-8" d="M183.39,211.15l3.19-2.41"/><path class="cls-8" d="M192.32,222.33l3.07-2.57c5.5,6.67-.23,15.25-6.87,15.32v-4C192.12,231.08,195.45,226.07,192.32,222.33Z"/><path class="cls-8" d="M193.87,221c4.33,5.21-.22,12-5.35,12.06"/><path class="cls-8" d="M195,220.11c5.18,6.27-.22,14.36-6.45,14.42"/><path class="cls-8" d="M193.53,226.26l4,.42"/><path class="cls-8" d="M191.8,229.64l2.67,2.92"/><path class="cls-8" d="M188.52,231.08v4a8.14,8.14,0,0,1-6.33-3.1l3.06-2.57A4.22,4.22,0,0,0,188.52,231.08Z"/><path class="cls-8" d="M188.52,233.1a6.24,6.24,0,0,1-4.82-2.39"/><path class="cls-8" d="M188.52,234.53a7.63,7.63,0,0,1-5.92-2.9"/><path class="cls-8" d="M187.39,230.91l-1.16,3.83"/><path class="cls-8" d="M186.28,230.36l-2.19,3.35"/><path class="cls-8" d="M185.25,229.41,182.19,232a298.66,298.66,0,0,1-25.05-34.3l3.39-2.12A296.71,296.71,0,0,0,185.25,229.41Z"/><path class="cls-8" d="M183.7,230.71a298.9,298.9,0,0,1-24.88-34.08"/><path class="cls-8" d="M182.6,231.63a300.85,300.85,0,0,1-25-34.24"/><path class="cls-8" d="M176.48,218.51l-3.17,2.43"/><path class="cls-8" d="M168.23,207.23l-3.29,2.28"/><path class="cls-8" d="M160.53,195.56l-3.39,2.12q-5.7-9.12-10.7-18.66l3.55-1.86Q154.91,186.57,160.53,195.56Z"/><path class="cls-8" d="M158.82,196.63q-5.65-9.06-10.62-18.53"/><path class="cls-8" d="M157.6,197.39q-5.68-9.1-10.67-18.62"/><path class="cls-8" d="M156.87,189.52l-3.45,2"/><path class="cls-8" d="M153.35,183.38l-3.5,2"/><path class="cls-8" d="M150,177.16,146.44,179c-3-5.69-5-13-8.73-16.19l2.66-3C145,164,147.15,171.75,150,177.16Z"/><path class="cls-8" d="M148.2,178.1c-2.91-5.55-5-13.08-9.17-16.74"/><path class="cls-8" d="M146.93,178.77c-3-5.65-5-13-8.85-16.34"/><path class="cls-8" d="M147.26,171.18,143.68,173"/><path class="cls-8" d="M144.29,165,141,167.2"/><path class="cls-8" d="M140.37,159.85l-2.66,3c-6.76-6.36-.58-15.39,6.41-15.38v4C140.12,151.45,136.6,156.49,140.37,159.85Z"/><path class="cls-8" d="M139,161.36c-5.28-4.88-.42-11.93,5.09-11.93"/><path class="cls-8" d="M138.08,162.43c-6.36-6-.54-14.44,6-14.43"/><path class="cls-8" d="M138.78,156.18l-4-.16"/><path class="cls-8" d="M140.53,152.88,137.85,150"/></g><path class="cls-8" d="M144.12,151.45v-4a8.89,8.89,0,0,1,6,2.34c5.55,5,7.75,12,10.46,17.37q4.74,9.32,10.17,18.27a276.29,276.29,0,0,0,24.66,34.33c5.5,6.67-.23,15.25-6.87,15.32a8.14,8.14,0,0,1-6.33-3.1,298.66,298.66,0,0,1-25.05-34.3q-5.7-9.12-10.7-18.66c-3-5.69-5-13-8.73-16.19-6.76-6.36-.58-15.39,6.41-15.38v4c-4,0-7.52,5-3.75,8.4,4.62,4.11,6.78,11.9,9.62,17.31q4.92,9.41,10.54,18.4a296.71,296.71,0,0,0,24.72,33.85,4.22,4.22,0,0,0,3.27,1.67c3.6,0,6.93-5,3.8-8.75a281,281,0,0,1-25-34.83Q161.82,178.44,157,169c-2.79-5.49-4.85-12-9.56-16.2A4.93,4.93,0,0,0,144.12,151.45Z"/></g></g><g class="cls-6"><g class="cls-10"><g class="cls-6"><path class="cls-8" d="M144.12,147.45h0a8.89,8.89,0,0,1,6,2.34h0A8.89,8.89,0,0,0,144.12,147.45Z"/></g><polygon class="cls-8" points="144.13 147.45 144.12 147.45 144.12 147.45 144.13 147.45"/></g></g><g class="cls-6"><g class="cls-11"><g class="cls-6"><path class="cls-8" d="M144.12,147.45h0a8.89,8.89,0,0,1,6,2.34h0A8.89,8.89,0,0,0,144.12,147.45Z"/><line class="cls-8" x1="146.19" y1="147.7" x2="146.19" y2="147.7"/><line class="cls-8" x1="148.21" y1="148.47" x2="148.21" y2="148.47"/></g><path class="cls-8" d="M144.13,147.45a8.88,8.88,0,0,1,6,2.34h0a8.88,8.88,0,0,0-6-2.34Z"/></g></g><g class="cls-6"><g class="cls-12"><g class="cls-6"><path class="cls-8" d="M150.1,149.79h0c5.55,5,7.75,12,10.46,17.37h0C157.85,161.81,155.65,154.78,150.1,149.79Z"/></g><path class="cls-8" d="M150.12,149.8h0Z"/></g></g><g class="cls-6"><g class="cls-13"><g class="cls-6"><path class="cls-8" d="M150.1,149.79h0c5.55,5,7.75,12,10.46,17.37h0C157.85,161.81,155.65,154.78,150.1,149.79Z"/><line class="cls-8" x1="154.68" y1="155.32" x2="154.68" y2="155.32"/><line class="cls-8" x1="157.88" y1="161.39" x2="157.88" y2="161.39"/></g><path class="cls-8" d="M150.12,149.8c5.53,5,7.73,12,10.44,17.36h0c-2.71-5.35-4.91-12.37-10.44-17.36Z"/></g></g><g class="cls-6"><g class="cls-14"><g class="cls-6"><path class="cls-8" d="M160.56,167.16h0q4.74,9.32,10.17,18.27h0Q165.32,176.49,160.56,167.16Z"/></g><path class="cls-8" d="M160.57,167.18v0h0Z"/></g></g><g class="cls-6"><g class="cls-15"><g class="cls-6"><path class="cls-8" d="M160.56,167.16h0q4.74,9.32,10.17,18.27h0Q165.32,176.49,160.56,167.16Z"/><line class="cls-8" x1="163.8" y1="173.33" x2="163.8" y2="173.33"/><line class="cls-8" x1="167.19" y1="179.42" x2="167.19" y2="179.42"/></g><path class="cls-8" d="M160.57,167.18q4.74,9.3,10.16,18.25h0q-5.41-8.94-10.16-18.25Z"/></g></g><g class="cls-6"><g class="cls-16"><g class="cls-6"><path class="cls-8" d="M170.73,185.43h0a276.29,276.29,0,0,0,24.66,34.33h0A276.29,276.29,0,0,1,170.73,185.43Z"/></g><path class="cls-8" d="M170.75,185.47l0,0h0Z"/></g></g><g class="cls-6"><g class="cls-17"><g class="cls-6"><path class="cls-8" d="M170.73,185.43h0a276.29,276.29,0,0,0,24.66,34.33h0A276.29,276.29,0,0,1,170.73,185.43Z"/><line class="cls-8" x1="178.36" y1="197.29" x2="178.36" y2="197.29"/><line class="cls-8" x1="186.58" y1="208.74" x2="186.58" y2="208.74"/></g><path class="cls-8" d="M170.75,185.47a276.46,276.46,0,0,0,24.64,34.29h0a276.46,276.46,0,0,1-24.64-34.29Z"/></g></g><g class="cls-6"><g class="cls-18"><g class="cls-6"><path class="cls-8" d="M195.39,219.76h0c5.5,6.67-.23,15.25-6.87,15.32h0C195.16,235,200.89,226.43,195.39,219.76Z"/></g><path class="cls-8" d="M195.4,219.78v0h0Z"/></g></g><g class="cls-6"><g class="cls-19"><g class="cls-6"><path class="cls-8" d="M195.39,219.76h0c5.5,6.67-.23,15.25-6.87,15.32h0C195.16,235,200.89,226.43,195.39,219.76Z"/><line class="cls-8" x1="197.53" y1="226.68" x2="197.53" y2="226.68"/><line class="cls-8" x1="194.47" y1="232.56" x2="194.47" y2="232.56"/></g><path class="cls-8" d="M195.4,219.78c5.48,6.66-.24,15.23-6.88,15.3h0c6.64-.07,12.36-8.64,6.88-15.3Z"/></g></g><g class="cls-6"><g class="cls-20"><g class="cls-6"><path class="cls-8" d="M188.52,235.08h0a8.14,8.14,0,0,1-6.33-3.1h0A8.17,8.17,0,0,0,188.52,235.08Z"/></g><polygon class="cls-8" points="188.51 235.08 188.52 235.08 188.52 235.08 188.51 235.08"/></g></g><g class="cls-6"><g class="cls-21"><g class="cls-6"><path class="cls-8" d="M188.52,235.08h0a8.14,8.14,0,0,1-6.33-3.1h0A8.17,8.17,0,0,0,188.52,235.08Z"/><line class="cls-8" x1="186.23" y1="234.74" x2="186.23" y2="234.74"/><line class="cls-8" x1="184.09" y1="233.71" x2="184.09" y2="233.71"/></g><path class="cls-8" d="M188.51,235.08a8.17,8.17,0,0,1-6.32-3.1h0a8.17,8.17,0,0,0,6.32,3.1Z"/></g></g><g class="cls-6"><g class="cls-22"><g class="cls-6"><path class="cls-8" d="M182.19,232h0a298.66,298.66,0,0,1-25.05-34.3h0A298.66,298.66,0,0,0,182.19,232Z"/></g><path class="cls-8" d="M182.16,232l0,0h0Z"/></g></g><g class="cls-6"><g class="cls-23"><g class="cls-6"><path class="cls-8" d="M182.19,232h0a298.66,298.66,0,0,1-25.05-34.3h0A298.66,298.66,0,0,0,182.19,232Z"/><line class="cls-8" x1="173.31" y1="220.94" x2="173.31" y2="220.94"/><line class="cls-8" x1="164.94" y1="209.51" x2="164.94" y2="209.51"/></g><path class="cls-8" d="M182.16,232a301.36,301.36,0,0,1-25-34.27h0a301.36,301.36,0,0,0,25,34.27Z"/></g></g><g class="cls-6"><g class="cls-24"><g class="cls-6"><path class="cls-8" d="M157.14,197.68h0q-5.7-9.12-10.7-18.66h0Q151.45,188.55,157.14,197.68Z"/></g><path class="cls-8" d="M157.13,197.66v0h0Z"/></g></g><g class="cls-6"><g class="cls-25"><g class="cls-6"><path class="cls-8" d="M157.14,197.68h0q-5.7-9.12-10.7-18.66h0Q151.45,188.55,157.14,197.68Z"/><line class="cls-8" x1="153.42" y1="191.55" x2="153.42" y2="191.55"/><line class="cls-8" x1="149.85" y1="185.33" x2="149.85" y2="185.33"/></g><path class="cls-8" d="M157.13,197.66q-5.69-9.1-10.69-18.64h0q5,9.53,10.69,18.64Z"/></g></g><g class="cls-6"><g class="cls-26"><g class="cls-6"><path class="cls-8" d="M146.44,179h0c-3-5.69-5-13-8.73-16.19h0C141.41,166.06,143.47,173.33,146.44,179Z"/></g><path class="cls-8" d="M146.43,179v0h0Z"/></g></g><g class="cls-6"><g class="cls-27"><g class="cls-6"><path class="cls-8" d="M146.44,179h0c-3-5.69-5-13-8.73-16.19h0C141.41,166.06,143.47,173.33,146.44,179Z"/><line class="cls-8" x1="143.68" y1="173.01" x2="143.68" y2="173.01"/><line class="cls-8" x1="140.96" y1="167.2" x2="140.96" y2="167.2"/></g><path class="cls-8" d="M146.43,179c-3-5.68-5-12.95-8.72-16.17h0c3.7,3.22,5.75,10.49,8.72,16.17Z"/></g></g><g class="cls-6"><g class="cls-28"><g class="cls-6"><path class="cls-8" d="M137.71,162.83h0c-6.76-6.36-.58-15.39,6.41-15.38h0C137.13,147.44,131,156.47,137.71,162.83Z"/></g><path class="cls-8" d="M137.69,162.82h0Z"/></g></g><g class="cls-6"><g class="cls-29"><g class="cls-6"><path class="cls-8" d="M137.71,162.83h0c-6.76-6.36-.58-15.39,6.41-15.38h0C137.13,147.44,131,156.47,137.71,162.83Z"/><line class="cls-8" x1="134.81" y1="156.02" x2="134.81" y2="156.02"/><line class="cls-8" x1="137.85" y1="150.02" x2="137.85" y2="150.02"/></g><path class="cls-8" d="M137.69,162.82c-6.73-6.36-.55-15.38,6.43-15.37h0c-7,0-13.16,9-6.43,15.37Z"/></g></g><g class="cls-6"><g class="cls-30"><g class="cls-6"><path class="cls-8" d="M144.12,147.45v4a4.93,4.93,0,0,1,3.32,1.32l2.66-3A8.89,8.89,0,0,0,144.12,147.45Z"/><path class="cls-8" d="M144.12,148a8.38,8.38,0,0,1,5.62,2.19"/><path class="cls-8" d="M144.12,149.43a6.88,6.88,0,0,1,4.66,1.84"/><path class="cls-8" d="M146.19,147.7l-.94,3.89"/><path class="cls-8" d="M148.21,148.47,146.36,152"/><path class="cls-8" d="M150.1,149.79l-2.66,3c4.71,4.2,6.77,10.71,9.56,16.2l3.56-1.81C157.85,161.81,155.65,154.78,150.1,149.79Z"/><path class="cls-8" d="M149.74,150.19c5.43,4.89,7.61,11.85,10.34,17.22"/><path class="cls-8" d="M148.78,151.27c5.13,4.59,7.26,11.37,10,16.79"/><path class="cls-8" d="M154.68,155.32l-3.29,2.3"/><path class="cls-8" d="M157.88,161.39l-3.55,1.88"/><path class="cls-8" d="M160.56,167.16,157,169q4.8,9.45,10.31,18.53l3.42-2.07Q165.32,176.49,160.56,167.16Z"/><path class="cls-8" d="M160.08,167.41c3.16,6.22,6.57,12.33,10.18,18.3"/><path class="cls-8" d="M158.8,168.06q4.77,9.38,10.24,18.4"/><path class="cls-8" d="M163.8,173.33l-3.52,1.9"/><path class="cls-8" d="M167.19,179.42l-3.47,2"/><path class="cls-8" d="M170.73,185.43l-3.42,2.07a281,281,0,0,0,25,34.83l3.07-2.57A276.29,276.29,0,0,1,170.73,185.43Z"/><path class="cls-8" d="M170.26,185.71A275.64,275.64,0,0,0,195,220.11"/><path class="cls-8" d="M169,186.46A278.46,278.46,0,0,0,193.87,221"/><path class="cls-8" d="M178.36,197.29l-3.31,2.25"/><path class="cls-8" d="M186.58,208.74l-3.19,2.41"/><path class="cls-8" d="M195.39,219.76l-3.07,2.57c3.13,3.74-.2,8.75-3.8,8.75v4C195.16,235,200.89,226.43,195.39,219.76Z"/><path class="cls-8" d="M195,220.11c5.18,6.27-.22,14.36-6.45,14.42"/><path class="cls-8" d="M193.87,221c4.33,5.21-.22,12-5.35,12.06"/><path class="cls-8" d="M197.53,226.68l-4-.42"/><path class="cls-8" d="M194.47,232.56l-2.67-2.92"/><path class="cls-8" d="M188.52,235.08v-4a4.22,4.22,0,0,1-3.27-1.67L182.19,232A8.14,8.14,0,0,0,188.52,235.08Z"/><path class="cls-8" d="M188.52,234.53a7.63,7.63,0,0,1-5.92-2.9"/><path class="cls-8" d="M188.52,233.1a6.24,6.24,0,0,1-4.82-2.39"/><path class="cls-8" d="M186.23,234.74l1.16-3.83"/><path class="cls-8" d="M184.09,233.71l2.19-3.35"/><path class="cls-8" d="M182.19,232l3.06-2.57a296.71,296.71,0,0,1-24.72-33.85l-3.39,2.12A298.66,298.66,0,0,0,182.19,232Z"/><path class="cls-8" d="M182.6,231.63a300.85,300.85,0,0,1-25-34.24"/><path class="cls-8" d="M183.7,230.71a298.9,298.9,0,0,1-24.88-34.08"/><path class="cls-8" d="M173.31,220.94l3.17-2.43"/><path class="cls-8" d="M164.94,209.51l3.29-2.28"/><path class="cls-8" d="M157.14,197.68l3.39-2.12q-5.61-9-10.54-18.4L146.44,179Q151.45,188.55,157.14,197.68Z"/><path class="cls-8" d="M157.6,197.39q-5.68-9.1-10.67-18.62"/><path class="cls-8" d="M158.82,196.63q-5.65-9.06-10.62-18.53"/><path class="cls-8" d="M153.42,191.55l3.45-2"/><path class="cls-8" d="M149.85,185.33l3.5-2"/><path class="cls-8" d="M146.44,179l3.55-1.86c-2.84-5.41-5-13.2-9.62-17.31l-2.66,3C141.41,166.06,143.47,173.33,146.44,179Z"/><path class="cls-8" d="M146.93,178.77c-3-5.65-5-13-8.85-16.34"/><path class="cls-8" d="M148.2,178.1c-2.91-5.55-5-13.08-9.17-16.74"/><path class="cls-8" d="M143.68,173l3.58-1.83"/><path class="cls-8" d="M141,167.2l3.33-2.24"/><path class="cls-8" d="M137.71,162.83l2.66-3c-3.77-3.36-.25-8.4,3.75-8.4v-4C137.13,147.44,131,156.47,137.71,162.83Z"/><path class="cls-8" d="M138.08,162.43c-6.36-6-.54-14.44,6-14.43"/><path class="cls-8" d="M139,161.36c-5.28-4.88-.42-11.93,5.09-11.93"/><path class="cls-8" d="M134.81,156l4,.16"/><path class="cls-8" d="M137.85,150l2.68,2.86"/></g><path class="cls-8" d="M144.12,147.45a8.89,8.89,0,0,1,6,2.34c5.55,5,7.75,12,10.46,17.37q4.74,9.32,10.17,18.27a276.29,276.29,0,0,0,24.66,34.33c5.5,6.67-.23,15.25-6.87,15.32a8.14,8.14,0,0,1-6.33-3.1,298.66,298.66,0,0,1-25.05-34.3q-5.7-9.12-10.7-18.66c-3-5.69-5-13-8.73-16.19-6.76-6.36-.58-15.39,6.41-15.38v4c-4,0-7.52,5-3.75,8.4,4.62,4.11,6.78,11.9,9.62,17.31q4.92,9.41,10.54,18.4a296.71,296.71,0,0,0,24.72,33.85,4.22,4.22,0,0,0,3.27,1.67c3.6,0,6.93-5,3.8-8.75a281,281,0,0,1-25-34.83Q161.82,178.44,157,169c-2.79-5.49-4.85-12-9.56-16.2a4.93,4.93,0,0,0-3.32-1.32Z"/></g></g></g><g class="cls-6"><g class="cls-6"><g class="cls-31"><path class="cls-8" d="M263,159c3,0,6.11,2.47,5.25,6.25-1.92,8.52-7.9,15.33-15.39,19.6a61.32,61.32,0,0,1-15.46,5.73,63.12,63.12,0,0,1-7.43,22.8c-2.9,5.11-8,11.6-13.49,11.6-2.22,0-4.51-1.05-6.74-3.68-6.11-7.15-6.62-20.6-1.12-28.07,4.5-6.12,11.8-8.69,19.48-10.67a93.39,93.39,0,0,0-3.23-26.87c-3.94-15.13-10.9-32.81-24.84-41.43a21.58,21.58,0,0,0-11-3.48,11.6,11.6,0,0,0-10,5.32c-5,7.32-3.12,16.74-1,24.69,1,3.76-2.12,6.21-5.1,6.21a4.51,4.51,0,0,1-4.54-3.55c-3-11.56-4.33-24.61,3.64-34.55a21.31,21.31,0,0,1,17.12-8.08,29.36,29.36,0,0,1,12.54,3c18.87,9,28.53,31.64,33.22,50.75a106.11,106.11,0,0,1,3.21,25.5c9.54-2.62,18-6.41,20.51-17.45A4.3,4.3,0,0,1,263,159Zm-38.45,42.4a56.73,56.73,0,0,0,2.26-8l-.07,0c-7.86,2.34-13.21,6.62-11.44,15.53.14.72.93,5.07,2,6.07-.34-.7,1.74-3,2.09-3.48a47,47,0,0,0,5.2-10.12"/></g></g><g class="cls-6"><g class="cls-31"><path class="cls-8" d="M263,159c3,0,6.11,2.47,5.25,6.25-1.92,8.52-7.9,15.33-15.39,19.6a61.32,61.32,0,0,1-15.46,5.73,63.12,63.12,0,0,1-7.43,22.8c-2.9,5.11-8,11.6-13.49,11.6-2.22,0-4.51-1.05-6.74-3.68-6.11-7.15-6.62-20.6-1.12-28.07,4.5-6.12,11.8-8.69,19.48-10.67a93.39,93.39,0,0,0-3.23-26.87c-3.94-15.13-10.9-32.81-24.84-41.43a21.58,21.58,0,0,0-11-3.48,11.6,11.6,0,0,0-10,5.32c-5,7.32-3.12,16.74-1,24.69,1,3.76-2.12,6.21-5.1,6.21a4.51,4.51,0,0,1-4.54-3.55c-3-11.56-4.33-24.61,3.64-34.55a21.31,21.31,0,0,1,17.12-8.08,29.36,29.36,0,0,1,12.54,3c18.87,9,28.53,31.64,33.22,50.75a106.11,106.11,0,0,1,3.21,25.5c9.54-2.62,18-6.41,20.51-17.45A4.3,4.3,0,0,1,263,159Zm-38.45,42.4a56.73,56.73,0,0,0,2.26-8l-.07,0c-7.86,2.34-13.21,6.62-11.44,15.53.14.72.93,5.07,2,6.07-.34-.7,1.74-3,2.09-3.48a47,47,0,0,0,5.2-10.12"/></g></g><g class="cls-6"><g class="cls-32"><g class="cls-6"><path class="cls-8" d="M263,159v-4c5,0,10.68,4.34,9.16,11.13l-3.91-.88C269.07,161.46,265.92,159,263,159Z"/><path class="cls-8" d="M263,157c4,0,8.42,3.42,7.22,8.71"/><path class="cls-8" d="M263,155.54c4.75,0,10.06,4.08,8.62,10.46"/><path class="cls-8" d="M265.83,159.77l2.08-3.41"/><path class="cls-8" d="M267.89,161.94l3.65-1.73"/><path class="cls-8" d="M268.21,165.24l3.91.88c-2.22,9.77-9,17.46-17.32,22.2l-2-3.48C260.31,180.57,266.29,173.76,268.21,165.24Z"/><path class="cls-8" d="M270.18,165.68c-2.07,9.16-8.44,16.41-16.36,20.91"/><path class="cls-8" d="M271.58,166c-2.17,9.6-8.83,17.17-17,21.84"/><path class="cls-8" d="M265,173.16l3.46,2"/><path class="cls-8" d="M259.71,179.76l2.79,2.87"/><path class="cls-8" d="M252.82,184.84l2,3.48A58.53,58.53,0,0,1,241,193.77l-3.61-3.2A61.32,61.32,0,0,0,252.82,184.84Z"/><path class="cls-8" d="M253.82,186.59a59.41,59.41,0,0,1-14.64,5.6"/><path class="cls-8" d="M254.53,187.84a58.77,58.77,0,0,1-14.05,5.5"/><path class="cls-8" d="M247.82,187.26l1.66,3.66"/><path class="cls-8" d="M242.65,189.1l2,3.6"/></g><path class="cls-8" d="M263,159v-4c5,0,10.68,4.34,9.16,11.13-2.22,9.77-9,17.46-17.32,22.2A58.53,58.53,0,0,1,241,193.77l-3.61-3.2a61.32,61.32,0,0,0,15.46-5.73c7.49-4.27,13.47-11.08,15.39-19.6C269.07,161.46,265.92,159,263,159Z"/></g></g><g class="cls-6"><g class="cls-33"><g class="cls-6"><path class="cls-8" d="M237.36,190.57l3.61,3.2a64,64,0,0,1-7.56,21.57l-3.48-2A63.12,63.12,0,0,0,237.36,190.57Z"/><path class="cls-8" d="M239.18,192.19a63.39,63.39,0,0,1-7.49,22.18"/><path class="cls-8" d="M240.48,193.34a63.85,63.85,0,0,1-7.55,21.73"/><path class="cls-8" d="M235.85,198.45l3.77,1.78"/><path class="cls-8" d="M233.4,206.07l3.7,1.58"/><path class="cls-8" d="M229.93,213.37l3.48,2c-3.19,5.63-9.13,13.5-17,13.63v-4C221.94,225,227,218.48,229.93,213.37Z"/><path class="cls-8" d="M231.69,214.37c-3.05,5.37-8.57,12.56-15.25,12.62"/><path class="cls-8" d="M232.93,215.07c-3.14,5.56-9,13.24-16.49,13.36"/><path class="cls-8" d="M226.36,218.65l3,2.7"/><path class="cls-8" d="M221.74,223.1l1.88,3.53"/><path class="cls-8" d="M216.44,225v4c-3.49,0-6.86-1.61-9.79-5.09l3-2.59C211.93,223.92,214.22,225,216.44,225Z"/><path class="cls-8" d="M216.44,227c-2.86,0-5.7-1.34-8.28-4.39"/><path class="cls-8" d="M216.44,228.43c-3.32,0-6.54-1.54-9.37-4.9"/><path class="cls-8" d="M214.2,224.6l-1.2,3.82"/><path class="cls-8" d="M211.94,223.41l-2.23,3.34"/><path class="cls-8" d="M209.7,221.29l-3,2.59c-7.27-8.57-7.86-24-1.29-33l3.22,2.37C203.08,200.69,203.59,214.14,209.7,221.29Z"/><path class="cls-8" d="M208.16,222.6c-6.69-7.87-7.24-22.34-1.21-30.58"/><path class="cls-8" d="M207.07,223.53c-7.11-8.38-7.69-23.57-1.27-32.36"/><path class="cls-8" d="M205.47,212.49l-3.84,1"/><path class="cls-8" d="M205.07,202.23l-3.91-.73"/><path class="cls-8" d="M208.58,193.22l-3.22-2.37c5.36-7.24,13.59-10.08,18.81-11.43l3.89,3.13C220.38,184.53,213.08,187.1,208.58,193.22Z"/><path class="cls-8" d="M207,192c4.94-6.68,12.71-9.39,19.15-11.05"/><path class="cls-8" d="M205.8,191.17c5.24-7.09,13.34-9.89,18.9-11.32"/><path class="cls-8" d="M213.92,188.17l-2.46-3.2"/><path class="cls-8" d="M220.6,184.84l-2.44-3.47"/></g><path class="cls-8" d="M237.36,190.57l3.61,3.2a64,64,0,0,1-7.56,21.57c-3.19,5.63-9.13,13.5-17,13.63-3.49,0-6.86-1.61-9.79-5.09-7.27-8.57-7.86-24-1.29-33,5.36-7.24,13.59-10.08,18.81-11.43l3.89,3.13c-7.68,2-15,4.55-19.48,10.67-5.5,7.47-5,20.92,1.12,28.07,2.23,2.63,4.52,3.68,6.74,3.68,5.5,0,10.59-6.49,13.49-11.6A63.12,63.12,0,0,0,237.36,190.57Z"/></g></g><g class="cls-6"><g class="cls-34"><g class="cls-6"><path class="cls-8" d="M228.06,182.55l-3.89-3.13c.22-5.62-1-14.39-3.21-22.73l3.87-1A93.39,93.39,0,0,1,228.06,182.55Z"/><path class="cls-8" d="M226.1,181c.28-7.32-1-16.28-3.22-24.78"/><path class="cls-8" d="M224.7,179.85c.24-6.09-1-14.92-3.21-23.3"/><path class="cls-8" d="M227.88,173.48l-4-.6"/><path class="cls-8" d="M226.75,164.48l-3.94.56"/><path class="cls-8" d="M224.83,155.68l-3.87,1c-3.82-14.63-10.43-31.27-23.08-39l2.11-3.41C213.93,122.87,220.89,140.55,224.83,155.68Z"/><path class="cls-8" d="M222.88,156.19c-3.88-14.88-10.67-32-24-40.22"/><path class="cls-8" d="M221.49,156.55c-3.83-14.7-10.5-31.48-23.32-39.36"/><path class="cls-8" d="M219.74,140.13l-3.65,1.66"/><path class="cls-8" d="M211.75,125.46,208.64,128"/><path class="cls-8" d="M200,114.25l-2.11,3.41a17.48,17.48,0,0,0-8.84-2.89v-4A21.58,21.58,0,0,1,200,114.25Z"/><path class="cls-8" d="M198.92,116a19.53,19.53,0,0,0-9.88-3.18"/><path class="cls-8" d="M198.17,117.19a18,18,0,0,0-9.13-3"/><path class="cls-8" d="M196.48,112.43l-1.53,3.7"/><path class="cls-8" d="M192.78,111.21l-.83,3.92"/><path class="cls-8" d="M189,110.77v4a7.68,7.68,0,0,0-6.71,3.57L179,116.09A11.6,11.6,0,0,1,189,110.77Z"/><path class="cls-8" d="M189,112.79a9.64,9.64,0,0,0-8.35,4.43"/><path class="cls-8" d="M189,114.23a8.19,8.19,0,0,0-7.16,3.8"/><path class="cls-8" d="M185.33,111.3l1.21,3.82"/><path class="cls-8" d="M181.93,113l2.35,3.25"/><path class="cls-8" d="M179,116.09l3.31,2.25c-4,5.72-2.44,13.91-.48,21.42l-3.87,1C175.9,132.83,174.06,123.41,179,116.09Z"/><path class="cls-8" d="M180.69,117.22c-4.45,6.52-2.77,15.31-.76,23"/><path class="cls-8" d="M181.88,118c-4.09,5.94-2.53,14.3-.56,21.87"/><path class="cls-8" d="M176.08,124l3.93.78"/><path class="cls-8" d="M176.22,132.47l4-.33"/><path class="cls-8" d="M178,140.78l3.87-1c1.78,6.87-3.89,11.26-9,11.23v-4C175.86,147,179,144.54,178,140.78Z"/><path class="cls-8" d="M179.93,140.26c1.39,5.33-3,8.76-7.05,8.75"/><path class="cls-8" d="M181.32,139.9c1.68,6.44-3.65,10.57-8.44,10.54"/><path class="cls-8" d="M177.76,144.06l3.69,1.67"/><path class="cls-8" d="M175.75,146.21l2.11,3.41"/><path class="cls-8" d="M172.88,147v4a8.44,8.44,0,0,1-8.41-6.54l3.87-1A4.51,4.51,0,0,0,172.88,147Z"/><path class="cls-8" d="M172.88,149a6.49,6.49,0,0,1-6.49-5.06"/><path class="cls-8" d="M172.88,150.44a7.9,7.9,0,0,1-7.88-6.12"/><path class="cls-8" d="M171,146.62l-1.6,3.68"/><path class="cls-8" d="M169.37,145.46l-3,2.68"/><path class="cls-8" d="M168.34,143.44l-3.87,1c-3.2-12.2-4.72-26.62,4.38-38.06l3.13,2.5C164,118.83,165.32,131.88,168.34,143.44Z"/><path class="cls-8" d="M166.39,144c-3.12-11.88-4.53-25.62,4-36.32"/><path class="cls-8" d="M165,144.32c-3.18-12.12-4.67-26.35,4.28-37.59"/><path class="cls-8" d="M166.17,131.56l-4,.15"/><path class="cls-8" d="M166.82,119.7,163,118.63"/><path class="cls-8" d="M172,108.89l-3.13-2.5a25.26,25.26,0,0,1,20.25-9.58v4A21.31,21.31,0,0,0,172,108.89Z"/><path class="cls-8" d="M170.4,107.63a23.28,23.28,0,0,1,18.7-8.84"/><path class="cls-8" d="M169.28,106.73a24.76,24.76,0,0,1,19.82-9.38"/><path class="cls-8" d="M177,104.3,174.79,101"/><path class="cls-8" d="M182.79,101.65l-1.11-3.84"/><path class="cls-8" d="M189.1,100.81v-4c4.83,0,9.24.5,14.26,3.35l-1.72,3.61A29.36,29.36,0,0,0,189.1,100.81Z"/><path class="cls-8" d="M189.1,98.79A27.64,27.64,0,0,1,202.51,102"/><path class="cls-8" d="M189.1,97.35a26.87,26.87,0,0,1,14,3.3"/><path class="cls-8" d="M193.32,101.15l.51-4.11"/><path class="cls-8" d="M197.53,102.15l1-4.13"/><path class="cls-8" d="M201.64,103.77l1.72-3.61c20.45,9.78,30.55,33.68,35.39,53.41l-3.89,1C230.17,135.41,220.51,112.74,201.64,103.77Z"/><path class="cls-8" d="M202.51,102c19.66,9.38,29.55,32.67,34.31,52.09"/><path class="cls-8" d="M203.12,100.65c20.24,9.67,30.28,33.41,35.09,53"/><path class="cls-8" d="M217.6,116.67l3-2.7"/><path class="cls-8" d="M228.36,134.86l3.61-1.73"/><path class="cls-8" d="M234.86,154.52l3.89-1c2.08,8.5,3.35,17.48,3.34,21.2l-4,5.25A106.11,106.11,0,0,0,234.86,154.52Z"/><path class="cls-8" d="M236.82,154c2.05,8.37,3.3,17.19,3.28,23.33"/><path class="cls-8" d="M238.21,153.7c2.08,8.46,3.34,17.4,3.33,21.78"/><path class="cls-8" d="M236.6,162.87l3.94-.85"/><path class="cls-8" d="M237.7,171.41l4-1.9"/></g><path class="cls-8" d="M228.06,182.55l-3.89-3.13c.22-5.62-1-14.39-3.21-22.73-3.82-14.63-10.43-31.27-23.08-39a17.48,17.48,0,0,0-8.84-2.89,7.68,7.68,0,0,0-6.71,3.57c-4,5.72-2.44,13.91-.48,21.42,1.78,6.87-3.89,11.26-9,11.23a8.44,8.44,0,0,1-8.41-6.54c-3.2-12.2-4.72-26.62,4.38-38.06a25.26,25.26,0,0,1,20.25-9.58c4.83,0,9.24.5,14.26,3.35,20.45,9.78,30.55,33.68,35.39,53.41,2.08,8.5,3.35,17.48,3.34,21.2l-4,5.25a106.11,106.11,0,0,0-3.21-25.5c-4.69-19.11-14.35-41.78-33.22-50.75a29.36,29.36,0,0,0-12.54-3A21.31,21.31,0,0,0,172,108.89c-8,9.94-6.66,23-3.64,34.55a4.51,4.51,0,0,0,4.54,3.55c3,0,6.09-2.45,5.1-6.21-2.08-7.95-3.92-17.37,1-24.69a11.6,11.6,0,0,1,10-5.32,21.58,21.58,0,0,1,11,3.48c13.94,8.62,20.9,26.3,24.84,41.43A93.39,93.39,0,0,1,228.06,182.55Z"/></g></g><g class="cls-6"><g class="cls-35"><g class="cls-6"><path class="cls-8" d="M238.07,180l4-5.25a17.26,17.26,0,0,0,12.58-13.08l3.91.88C256.08,173.61,247.61,177.4,238.07,180Z"/><path class="cls-8" d="M240.1,177.37c6.59-1.82,14.27-5.31,16.51-15.24"/><path class="cls-8" d="M241.54,175.48c4.49-1.25,11.62-4.51,13.67-13.67"/><path class="cls-8" d="M247.07,176.78l-.52-3.9"/><path class="cls-8" d="M254.27,171.42l-2.92-2.63"/><path class="cls-8" d="M258.58,162.57l-3.91-.88A8.23,8.23,0,0,1,263,155v4A4.3,4.3,0,0,0,258.58,162.57Z"/><path class="cls-8" d="M256.61,162.13A6.28,6.28,0,0,1,263,157"/><path class="cls-8" d="M255.21,161.81a7.68,7.68,0,0,1,7.75-6.27"/><path class="cls-8" d="M259.53,160.53l-3.06-2.61"/><path class="cls-8" d="M261.08,159.36l-1.64-3.66"/></g><path class="cls-8" d="M238.07,180l4-5.25a17.26,17.26,0,0,0,12.58-13.08A8.23,8.23,0,0,1,263,155v4a4.3,4.3,0,0,0-4.38,3.58C256.08,173.61,247.61,177.4,238.07,180Z"/></g></g><g class="cls-6"><g class="cls-36"><g class="cls-6"><path class="cls-8" d="M263,155h0c5,0,10.68,4.34,9.16,11.13h0C273.64,159.33,268,155,263,155Z"/></g><path class="cls-8" d="M263,155h0Z"/></g></g><g class="cls-6"><g class="cls-37"><g class="cls-6"><path class="cls-8" d="M263,155h0c5,0,10.68,4.34,9.16,11.13h0C273.64,159.33,268,155,263,155Z"/><line class="cls-8" x1="267.91" y1="156.36" x2="267.91" y2="156.36"/><line class="cls-8" x1="271.54" y1="160.21" x2="271.54" y2="160.21"/></g><path class="cls-8" d="M263,155c5,0,10.66,4.35,9.14,11.13h0C273.64,159.34,268,155,263,155Z"/></g></g><g class="cls-6"><g class="cls-38"><g class="cls-6"><path class="cls-8" d="M272.12,166.12h0c-2.22,9.77-9,17.46-17.32,22.2h0C263.13,183.58,269.9,175.89,272.12,166.12Z"/></g><path class="cls-8" d="M272.11,166.15v0h0Z"/></g></g><g class="cls-6"><g class="cls-39"><g class="cls-6"><path class="cls-8" d="M272.12,166.12h0c-2.22,9.77-9,17.46-17.32,22.2h0C263.13,183.58,269.9,175.89,272.12,166.12Z"/><line class="cls-8" x1="268.49" y1="175.17" x2="268.49" y2="175.17"/><line class="cls-8" x1="262.5" y1="182.63" x2="262.5" y2="182.63"/></g><path class="cls-8" d="M272.11,166.15c-2.22,9.76-9,17.43-17.31,22.17h0c8.33-4.74,15.09-12.41,17.31-22.17Z"/></g></g><g class="cls-6"><g class="cls-40"><g class="cls-6"><path class="cls-8" d="M254.8,188.32h0A58.53,58.53,0,0,1,241,193.77h0A58.53,58.53,0,0,0,254.8,188.32Z"/></g><path class="cls-8" d="M254.78,188.32h0Z"/></g></g><g class="cls-6"><g class="cls-41"><g class="cls-6"><path class="cls-8" d="M254.8,188.32h0A58.53,58.53,0,0,1,241,193.77h0A58.53,58.53,0,0,0,254.8,188.32Z"/><line class="cls-8" x1="249.48" y1="190.92" x2="249.48" y2="190.92"/><line class="cls-8" x1="244.66" y1="192.7" x2="244.66" y2="192.7"/></g><path class="cls-8" d="M254.78,188.32A58.29,58.29,0,0,1,241,193.77h0a58.29,58.29,0,0,0,13.81-5.45Z"/></g></g><g class="cls-6"><g class="cls-42"><g class="cls-6"><path class="cls-8" d="M241,193.77h0a64,64,0,0,1-7.56,21.57h0A64,64,0,0,0,241,193.77Z"/></g><path class="cls-8" d="M241,193.79v0h0Z"/></g></g><g class="cls-6"><g class="cls-43"><g class="cls-6"><path class="cls-8" d="M241,193.77h0a64,64,0,0,1-7.56,21.57h0A64,64,0,0,0,241,193.77Z"/><line class="cls-8" x1="239.62" y1="200.23" x2="239.62" y2="200.23"/><line class="cls-8" x1="237.1" y1="207.65" x2="237.1" y2="207.65"/></g><path class="cls-8" d="M241,193.79a64.18,64.18,0,0,1-7.56,21.55h0A64.18,64.18,0,0,0,241,193.79Z"/></g></g><g class="cls-6"><g class="cls-44"><g class="cls-6"><path class="cls-8" d="M233.41,215.34h0c-3.19,5.63-9.13,13.5-17,13.63h0C224.28,228.84,230.22,221,233.41,215.34Z"/></g><path class="cls-8" d="M233.4,215.36v0h0Z"/></g></g><g class="cls-6"><g class="cls-45"><g class="cls-6"><path class="cls-8" d="M233.41,215.34h0c-3.19,5.63-9.13,13.5-17,13.63h0C224.28,228.84,230.22,221,233.41,215.34Z"/><line class="cls-8" x1="229.34" y1="221.35" x2="229.34" y2="221.35"/><line class="cls-8" x1="223.62" y1="226.63" x2="223.62" y2="226.63"/></g><path class="cls-8" d="M233.4,215.36c-3.19,5.63-9.13,13.48-17,13.61h0c7.83-.13,13.77-8,17-13.61Z"/></g></g><g class="cls-6"><g class="cls-46"><g class="cls-6"><path class="cls-8" d="M216.44,229h0c-3.49,0-6.86-1.61-9.79-5.09h0C209.58,227.36,213,229,216.44,229Z"/></g><polygon class="cls-8" points="216.43 228.97 216.44 228.97 216.44 228.97 216.43 228.97"/></g></g><g class="cls-6"><g class="cls-47"><g class="cls-6"><path class="cls-8" d="M216.44,229h0c-3.49,0-6.86-1.61-9.79-5.09h0C209.58,227.36,213,229,216.44,229Z"/><line class="cls-8" x1="213" y1="228.42" x2="213" y2="228.42"/><line class="cls-8" x1="209.71" y1="226.75" x2="209.71" y2="226.75"/></g><path class="cls-8" d="M216.43,229c-3.49,0-6.85-1.61-9.78-5.09h0c2.93,3.48,6.29,5.08,9.78,5.09Z"/></g></g><g class="cls-6"><g class="cls-48"><g class="cls-6"><path class="cls-8" d="M206.65,223.88h0c-7.27-8.57-7.86-24-1.29-33h0C198.79,199.84,199.38,215.31,206.65,223.88Z"/></g><path class="cls-8" d="M206.63,223.86l0,0h0Z"/></g></g><g class="cls-6"><g class="cls-49"><g class="cls-6"><path class="cls-8" d="M206.65,223.88h0c-7.27-8.57-7.86-24-1.29-33h0C198.79,199.84,199.38,215.31,206.65,223.88Z"/><line class="cls-8" x1="201.63" y1="213.51" x2="201.63" y2="213.51"/><line class="cls-8" x1="201.16" y1="201.5" x2="201.16" y2="201.5"/></g><path class="cls-8" d="M206.63,223.86c-7.25-8.58-7.83-24-1.27-33h0c-6.56,9-6,24.43,1.27,33Z"/></g></g><g class="cls-6"><g class="cls-50"><g class="cls-6"><path class="cls-8" d="M205.36,190.85h0c5.36-7.24,13.59-10.08,18.81-11.43h0C219,180.77,210.72,183.61,205.36,190.85Z"/></g><path class="cls-8" d="M205.37,190.83v0h0Z"/></g></g><g class="cls-6"><g class="cls-51"><g class="cls-6"><path class="cls-8" d="M205.36,190.85h0c5.36-7.24,13.59-10.08,18.81-11.43h0C219,180.77,210.72,183.61,205.36,190.85Z"/><line class="cls-8" x1="211.46" y1="184.97" x2="211.46" y2="184.97"/><line class="cls-8" x1="218.16" y1="181.37" x2="218.16" y2="181.37"/></g><path class="cls-8" d="M205.37,190.83c5.37-7.23,13.58-10.07,18.8-11.41h0c-5.22,1.34-13.43,4.18-18.8,11.41Z"/></g></g><g class="cls-6"><g class="cls-52"><g class="cls-6"><path class="cls-8" d="M224.17,179.42h0c.22-5.62-1-14.39-3.21-22.73h0C223.13,165,224.39,173.8,224.17,179.42Z"/></g><path class="cls-8" d="M224.18,179.4v0h0Z"/></g></g><g class="cls-6"><g class="cls-53"><g class="cls-6"><path class="cls-8" d="M224.17,179.42h0c.22-5.62-1-14.39-3.21-22.73h0C223.13,165,224.39,173.8,224.17,179.42Z"/><line class="cls-8" x1="223.92" y1="172.88" x2="223.92" y2="172.88"/><line class="cls-8" x1="222.81" y1="165.04" x2="222.81" y2="165.04"/></g><path class="cls-8" d="M224.18,179.4c.21-5.62-1.05-14.38-3.22-22.71h0c2.17,8.33,3.43,17.09,3.22,22.71Z"/></g></g><g class="cls-6"><g class="cls-54"><g class="cls-6"><path class="cls-8" d="M221,156.69h0c-3.82-14.63-10.43-31.27-23.08-39h0C210.53,125.42,217.14,142.06,221,156.69Z"/></g><path class="cls-8" d="M221,156.64v.05h0Z"/></g></g><g class="cls-6"><g class="cls-55"><g class="cls-6"><path class="cls-8" d="M221,156.69h0c-3.82-14.63-10.43-31.27-23.08-39h0C210.53,125.42,217.14,142.06,221,156.69Z"/><line class="cls-8" x1="216.09" y1="141.79" x2="216.09" y2="141.79"/><line class="cls-8" x1="208.64" y1="127.97" x2="208.64" y2="127.97"/></g><path class="cls-8" d="M221,156.64c-3.82-14.62-10.44-31.23-23.07-39h0c12.63,7.75,19.25,24.36,23.07,39Z"/></g></g><g class="cls-6"><g class="cls-56"><g class="cls-6"><path class="cls-8" d="M197.88,117.66h0a17.48,17.48,0,0,0-8.84-2.89h0A17.48,17.48,0,0,1,197.88,117.66Z"/></g><polygon class="cls-8" points="197.87 117.65 197.88 117.66 197.88 117.66 197.87 117.65"/></g></g><g class="cls-6"><g class="cls-57"><g class="cls-6"><path class="cls-8" d="M197.88,117.66h0a17.48,17.48,0,0,0-8.84-2.89h0A17.48,17.48,0,0,1,197.88,117.66Z"/><line class="cls-8" x1="194.95" y1="116.13" x2="194.95" y2="116.13"/><line class="cls-8" x1="191.95" y1="115.13" x2="191.95" y2="115.13"/></g><path class="cls-8" d="M197.87,117.65a17.62,17.62,0,0,0-8.83-2.88h0a17.62,17.62,0,0,1,8.83,2.88Z"/></g></g><g class="cls-6"><g class="cls-58"><g class="cls-6"><path class="cls-8" d="M189,114.77h0a7.68,7.68,0,0,0-6.71,3.57h0A7.68,7.68,0,0,1,189,114.77Z"/></g><polygon class="cls-8" points="189.04 114.77 189.04 114.77 189.04 114.77 189.04 114.77"/></g></g><g class="cls-6"><g class="cls-59"><g class="cls-6"><path class="cls-8" d="M189,114.77h0a7.68,7.68,0,0,0-6.71,3.57h0A7.68,7.68,0,0,1,189,114.77Z"/><line class="cls-8" x1="186.54" y1="115.12" x2="186.54" y2="115.12"/><line class="cls-8" x1="184.28" y1="116.26" x2="184.28" y2="116.26"/></g><path class="cls-8" d="M189,114.77a7.69,7.69,0,0,0-6.71,3.57h0a7.69,7.69,0,0,1,6.71-3.57Z"/></g></g><g class="cls-6"><g class="cls-60"><g class="cls-6"><path class="cls-8" d="M182.33,118.34h0c-4,5.72-2.44,13.91-.48,21.42h0C179.89,132.25,178.38,124.06,182.33,118.34Z"/></g><path class="cls-8" d="M182.32,118.36v0h0Z"/></g></g><g class="cls-6"><g class="cls-61"><g class="cls-6"><path class="cls-8" d="M182.33,118.34h0c-4,5.72-2.44,13.91-.48,21.42h0C179.89,132.25,178.38,124.06,182.33,118.34Z"/><line class="cls-8" x1="180.01" y1="124.76" x2="180.01" y2="124.76"/><line class="cls-8" x1="180.23" y1="132.14" x2="180.23" y2="132.14"/></g><path class="cls-8" d="M182.32,118.36c-3.94,5.72-2.43,13.89-.47,21.4h0c-2-7.51-3.47-15.68.47-21.4Z"/></g></g><g class="cls-6"><g class="cls-62"><g class="cls-6"><path class="cls-8" d="M181.85,139.76h0c1.78,6.87-3.89,11.26-9,11.23h0C178,151,183.63,146.63,181.85,139.76Z"/></g><path class="cls-8" d="M181.86,139.78v0h0Z"/></g></g><g class="cls-6"><g class="cls-63"><g class="cls-6"><path class="cls-8" d="M181.85,139.76h0c1.78,6.87-3.89,11.26-9,11.23h0C178,151,183.63,146.63,181.85,139.76Z"/><line class="cls-8" x1="181.45" y1="145.73" x2="181.45" y2="145.73"/><line class="cls-8" x1="177.86" y1="149.62" x2="177.86" y2="149.62"/></g><path class="cls-8" d="M181.86,139.78c1.76,6.85-3.9,11.24-9,11.21h0c5.08,0,10.74-4.36,9-11.21Z"/></g></g><g class="cls-6"><g class="cls-64"><g class="cls-6"><path class="cls-8" d="M172.88,151h0a8.44,8.44,0,0,1-8.41-6.54h0A8.44,8.44,0,0,0,172.88,151Z"/></g><polygon class="cls-8" points="172.87 150.99 172.88 150.99 172.88 150.99 172.87 150.99"/></g></g><g class="cls-6"><g class="cls-65"><g class="cls-6"><path class="cls-8" d="M172.88,151h0a8.44,8.44,0,0,1-8.41-6.54h0A8.44,8.44,0,0,0,172.88,151Z"/><line class="cls-8" x1="169.37" y1="150.3" x2="169.37" y2="150.3"/><line class="cls-8" x1="166.37" y1="148.14" x2="166.37" y2="148.14"/></g><path class="cls-8" d="M172.87,151a8.44,8.44,0,0,1-8.4-6.54h0a8.44,8.44,0,0,0,8.4,6.54Z"/></g></g><g class="cls-6"><g class="cls-66"><g class="cls-6"><path class="cls-8" d="M164.47,144.45h0c-3.2-12.2-4.72-26.62,4.38-38.06h0C159.75,117.83,161.27,132.25,164.47,144.45Z"/></g><path class="cls-8" d="M164.46,144.42v0h0Z"/></g></g><g class="cls-6"><g class="cls-67"><g class="cls-6"><path class="cls-8" d="M164.47,144.45h0c-3.2-12.2-4.72-26.62,4.38-38.06h0C159.75,117.83,161.27,132.25,164.47,144.45Z"/><line class="cls-8" x1="162.16" y1="131.71" x2="162.16" y2="131.71"/><line class="cls-8" x1="162.96" y1="118.63" x2="162.96" y2="118.63"/></g><path class="cls-8" d="M164.46,144.42c-3.2-12.2-4.7-26.6,4.39-38h0c-9.09,11.43-7.59,25.83-4.39,38Z"/></g></g><g class="cls-6"><g class="cls-68"><g class="cls-6"><path class="cls-8" d="M168.85,106.39h0a25.26,25.26,0,0,1,20.25-9.58h0A25.26,25.26,0,0,0,168.85,106.39Z"/></g><path class="cls-8" d="M168.87,106.37l0,0h0Z"/></g></g><g class="cls-6"><g class="cls-69"><g class="cls-6"><path class="cls-8" d="M168.85,106.39h0a25.26,25.26,0,0,1,20.25-9.58h0A25.26,25.26,0,0,0,168.85,106.39Z"/><line class="cls-8" x1="174.79" y1="100.95" x2="174.79" y2="100.95"/><line class="cls-8" x1="181.68" y1="97.81" x2="181.68" y2="97.81"/></g><path class="cls-8" d="M168.87,106.37a25.25,25.25,0,0,1,20.23-9.56h0a25.25,25.25,0,0,0-20.23,9.56Z"/></g></g><g class="cls-6"><g class="cls-70"><g class="cls-6"><path class="cls-8" d="M189.1,96.81h0c4.83,0,9.24.5,14.26,3.35h0C198.34,97.31,193.93,96.81,189.1,96.81Z"/></g><path class="cls-8" d="M189.12,96.81h0Z"/></g></g><g class="cls-6"><g class="cls-71"><g class="cls-6"><path class="cls-8" d="M189.1,96.81h0c4.83,0,9.24.5,14.26,3.35h0C198.34,97.31,193.93,96.81,189.1,96.81Z"/><line class="cls-8" x1="193.83" y1="97.04" x2="193.83" y2="97.04"/><line class="cls-8" x1="198.51" y1="98.02" x2="198.51" y2="98.02"/></g><path class="cls-8" d="M189.12,96.81c4.82,0,9.23.51,14.24,3.35h0c-5-2.84-9.42-3.35-14.24-3.35Z"/></g></g><g class="cls-6"><g class="cls-72"><g class="cls-6"><path class="cls-8" d="M203.36,100.16h0c20.45,9.78,30.55,33.68,35.39,53.41h0C233.91,133.84,223.81,109.94,203.36,100.16Z"/></g><path class="cls-8" d="M203.42,100.19l-.06,0h0Z"/></g></g><g class="cls-6"><g class="cls-73"><g class="cls-6"><path class="cls-8" d="M203.36,100.16h0c20.45,9.78,30.55,33.68,35.39,53.41h0C233.91,133.84,223.81,109.94,203.36,100.16Z"/><line class="cls-8" x1="220.55" y1="113.97" x2="220.55" y2="113.97"/><line class="cls-8" x1="231.97" y1="133.13" x2="231.97" y2="133.13"/></g><path class="cls-8" d="M203.42,100.19c20.41,9.8,30.5,33.67,35.33,53.38h0c-4.83-19.71-14.92-43.58-35.33-53.38Z"/></g></g><g class="cls-6"><g class="cls-74"><g class="cls-6"><path class="cls-8" d="M238.75,153.57h0c2.08,8.5,3.35,17.48,3.34,21.2h0C242.1,171.05,240.83,162.07,238.75,153.57Z"/></g><path class="cls-8" d="M238.75,153.59v0h0Z"/></g></g><g class="cls-6"><g class="cls-75"><g class="cls-6"><path class="cls-8" d="M238.75,153.57h0c2.08,8.5,3.35,17.48,3.34,21.2h0C242.1,171.05,240.83,162.07,238.75,153.57Z"/><line class="cls-8" x1="240.54" y1="162.02" x2="240.54" y2="162.02"/><line class="cls-8" x1="241.69" y1="169.51" x2="241.69" y2="169.51"/></g><path class="cls-8" d="M238.75,153.59c2.08,8.5,3.35,17.47,3.34,21.18h0c0-3.71-1.26-12.68-3.34-21.18Z"/></g></g><g class="cls-6"><g class="cls-76"><g class="cls-6"><path class="cls-8" d="M242.09,174.77h0a17.26,17.26,0,0,0,12.58-13.08h0A17.26,17.26,0,0,1,242.09,174.77Z"/></g><polygon class="cls-8" points="242.1 174.76 242.09 174.77 242.09 174.77 242.1 174.76"/></g></g><g class="cls-6"><g class="cls-77"><g class="cls-6"><path class="cls-8" d="M242.09,174.77h0a17.26,17.26,0,0,0,12.58-13.08h0A17.26,17.26,0,0,1,242.09,174.77Z"/><line class="cls-8" x1="246.55" y1="172.88" x2="246.55" y2="172.88"/><line class="cls-8" x1="251.35" y1="168.79" x2="251.35" y2="168.79"/></g><path class="cls-8" d="M242.1,174.76a17.25,17.25,0,0,0,12.57-13.07h0a17.25,17.25,0,0,1-12.57,13.07Z"/></g></g><g class="cls-6"><g class="cls-78"><g class="cls-6"><path class="cls-8" d="M254.67,161.69h0A8.23,8.23,0,0,1,263,155h0A8.23,8.23,0,0,0,254.67,161.69Z"/></g><path class="cls-8" d="M254.68,161.68h0Z"/></g></g><g class="cls-6"><g class="cls-79"><g class="cls-6"><path class="cls-8" d="M254.67,161.69h0A8.23,8.23,0,0,1,263,155h0A8.23,8.23,0,0,0,254.67,161.69Z"/><line class="cls-8" x1="256.47" y1="157.92" x2="256.47" y2="157.92"/><line class="cls-8" x1="259.44" y1="155.7" x2="259.44" y2="155.7"/></g><path class="cls-8" d="M254.68,161.68A8.23,8.23,0,0,1,263,155h0a8.23,8.23,0,0,0-8.28,6.69Z"/></g></g><g class="cls-6"><g class="cls-80"><g class="cls-6"><path class="cls-8" d="M263,155v4c3,0,6.11,2.47,5.25,6.25l3.91.88C273.64,159.33,268,155,263,155Z"/><path class="cls-8" d="M263,155.54c4.75,0,10.06,4.08,8.62,10.46"/><path class="cls-8" d="M263,157c4,0,8.42,3.42,7.22,8.71"/><path class="cls-8" d="M267.91,156.36l-2.08,3.41"/><path class="cls-8" d="M271.54,160.21l-3.65,1.73"/><path class="cls-8" d="M272.12,166.12l-3.91-.88c-1.92,8.52-7.9,15.33-15.39,19.6l2,3.48C263.13,183.58,269.9,175.89,272.12,166.12Z"/><path class="cls-8" d="M271.58,166c-2.17,9.6-8.83,17.17-17,21.84"/><path class="cls-8" d="M270.18,165.68c-2.07,9.16-8.44,16.41-16.36,20.91"/><path class="cls-8" d="M268.49,175.17l-3.46-2"/><path class="cls-8" d="M262.5,182.63l-2.79-2.87"/><path class="cls-8" d="M254.8,188.32l-2-3.48a61.32,61.32,0,0,1-15.46,5.73l3.61,3.2A58.53,58.53,0,0,0,254.8,188.32Z"/><path class="cls-8" d="M254.53,187.84a58.77,58.77,0,0,1-14.05,5.5"/><path class="cls-8" d="M253.82,186.59a59.41,59.41,0,0,1-14.64,5.6"/><path class="cls-8" d="M249.48,190.92l-1.66-3.66"/><path class="cls-8" d="M244.66,192.7l-2-3.6"/></g><path class="cls-8" d="M263,155c5,0,10.68,4.34,9.16,11.13-2.22,9.77-9,17.46-17.32,22.2A58.53,58.53,0,0,1,241,193.77l-3.61-3.2a61.32,61.32,0,0,0,15.46-5.73c7.49-4.27,13.47-11.08,15.39-19.6.86-3.78-2.29-6.25-5.25-6.25Z"/></g></g><g class="cls-6"><g class="cls-81"><g class="cls-6"><path class="cls-8" d="M241,193.77l-3.61-3.2a63.12,63.12,0,0,1-7.43,22.8l3.48,2A64,64,0,0,0,241,193.77Z"/><path class="cls-8" d="M240.48,193.34a63.85,63.85,0,0,1-7.55,21.73"/><path class="cls-8" d="M239.18,192.19a63.39,63.39,0,0,1-7.49,22.18"/><path class="cls-8" d="M239.62,200.23l-3.77-1.78"/><path class="cls-8" d="M237.1,207.65l-3.7-1.58"/><path class="cls-8" d="M233.41,215.34l-3.48-2c-2.9,5.11-8,11.6-13.49,11.6v4C224.28,228.84,230.22,221,233.41,215.34Z"/><path class="cls-8" d="M232.93,215.07c-3.14,5.56-9,13.24-16.49,13.36"/><path class="cls-8" d="M231.69,214.37c-3.05,5.37-8.57,12.56-15.25,12.62"/><path class="cls-8" d="M229.34,221.35l-3-2.7"/><path class="cls-8" d="M223.62,226.63l-1.88-3.53"/><path class="cls-8" d="M216.44,229v-4c-2.22,0-4.51-1.05-6.74-3.68l-3,2.59C209.58,227.36,213,229,216.44,229Z"/><path class="cls-8" d="M216.44,228.43c-3.32,0-6.54-1.54-9.37-4.9"/><path class="cls-8" d="M216.44,227c-2.86,0-5.7-1.34-8.28-4.39"/><path class="cls-8" d="M213,228.42l1.2-3.82"/><path class="cls-8" d="M209.71,226.75l2.23-3.34"/><path class="cls-8" d="M206.65,223.88l3-2.59c-6.11-7.15-6.62-20.6-1.12-28.07l-3.22-2.37C198.79,199.84,199.38,215.31,206.65,223.88Z"/><path class="cls-8" d="M207.07,223.53c-7.11-8.38-7.69-23.57-1.27-32.36"/><path class="cls-8" d="M208.16,222.6c-6.69-7.87-7.24-22.34-1.21-30.58"/><path class="cls-8" d="M201.63,213.51l3.84-1"/><path class="cls-8" d="M201.16,201.5l3.91.73"/><path class="cls-8" d="M205.36,190.85l3.22,2.37c4.5-6.12,11.8-8.69,19.48-10.67l-3.89-3.13C219,180.77,210.72,183.61,205.36,190.85Z"/><path class="cls-8" d="M205.8,191.17c5.24-7.09,13.34-9.89,18.9-11.32"/><path class="cls-8" d="M207,192c4.94-6.68,12.71-9.39,19.15-11.05"/><path class="cls-8" d="M211.46,185l2.46,3.2"/><path class="cls-8" d="M218.16,181.37l2.44,3.47"/></g><path class="cls-8" d="M241,193.77a64,64,0,0,1-7.56,21.57c-3.19,5.63-9.13,13.5-17,13.63-3.49,0-6.86-1.61-9.79-5.09-7.27-8.57-7.86-24-1.29-33,5.36-7.24,13.59-10.08,18.81-11.43l3.89,3.13c-7.68,2-15,4.55-19.48,10.67-5.5,7.47-5,20.92,1.12,28.07,2.23,2.63,4.52,3.68,6.74,3.68,5.5,0,10.59-6.49,13.49-11.6a63.12,63.12,0,0,0,7.43-22.8Z"/></g></g><g class="cls-6"><g class="cls-82"><g class="cls-6"><path class="cls-8" d="M224.17,179.42l3.89,3.13a93.39,93.39,0,0,0-3.23-26.87l-3.87,1C223.13,165,224.39,173.8,224.17,179.42Z"/><path class="cls-8" d="M224.7,179.85c.24-6.09-1-14.92-3.21-23.3"/><path class="cls-8" d="M226.1,181c.28-7.32-1-16.28-3.22-24.78"/><path class="cls-8" d="M223.92,172.88l4,.6"/><path class="cls-8" d="M222.81,165l3.94-.56"/><path class="cls-8" d="M221,156.69l3.87-1c-3.94-15.13-10.9-32.81-24.84-41.43l-2.11,3.41C210.53,125.42,217.14,142.06,221,156.69Z"/><path class="cls-8" d="M221.49,156.55c-3.83-14.7-10.5-31.48-23.32-39.36"/><path class="cls-8" d="M222.88,156.19c-3.88-14.88-10.67-32-24-40.22"/><path class="cls-8" d="M216.09,141.79l3.65-1.66"/><path class="cls-8" d="M208.64,128l3.11-2.51"/><path class="cls-8" d="M197.88,117.66l2.11-3.41a21.58,21.58,0,0,0-11-3.48v4A17.48,17.48,0,0,1,197.88,117.66Z"/><path class="cls-8" d="M198.17,117.19a18,18,0,0,0-9.13-3"/><path class="cls-8" d="M198.92,116a19.53,19.53,0,0,0-9.88-3.18"/><path class="cls-8" d="M195,116.13l1.53-3.7"/><path class="cls-8" d="M192,115.13l.83-3.92"/><path class="cls-8" d="M189,114.77v-4a11.6,11.6,0,0,0-10,5.32l3.31,2.25A7.68,7.68,0,0,1,189,114.77Z"/><path class="cls-8" d="M189,114.23a8.19,8.19,0,0,0-7.16,3.8"/><path class="cls-8" d="M189,112.79a9.64,9.64,0,0,0-8.35,4.43"/><path class="cls-8" d="M186.54,115.12l-1.21-3.82"/><path class="cls-8" d="M184.28,116.26,181.93,113"/><path class="cls-8" d="M182.33,118.34,179,116.09c-5,7.32-3.12,16.74-1,24.69l3.87-1C179.89,132.25,178.38,124.06,182.33,118.34Z"/><path class="cls-8" d="M181.88,118c-4.09,5.94-2.53,14.3-.56,21.87"/><path class="cls-8" d="M180.69,117.22c-4.45,6.52-2.77,15.31-.76,23"/><path class="cls-8" d="M180,124.76l-3.93-.78"/><path class="cls-8" d="M180.23,132.14l-4,.33"/><path class="cls-8" d="M181.85,139.76l-3.87,1c1,3.76-2.12,6.21-5.1,6.21v4C178,151,183.63,146.63,181.85,139.76Z"/><path class="cls-8" d="M181.32,139.9c1.68,6.44-3.65,10.57-8.44,10.54"/><path class="cls-8" d="M179.93,140.26c1.39,5.33-3,8.76-7.05,8.75"/><path class="cls-8" d="M181.45,145.73l-3.69-1.67"/><path class="cls-8" d="M177.86,149.62l-2.11-3.41"/><path class="cls-8" d="M172.88,151v-4a4.51,4.51,0,0,1-4.54-3.55l-3.87,1A8.44,8.44,0,0,0,172.88,151Z"/><path class="cls-8" d="M172.88,150.44a7.9,7.9,0,0,1-7.88-6.12"/><path class="cls-8" d="M172.88,149a6.49,6.49,0,0,1-6.49-5.06"/><path class="cls-8" d="M169.37,150.3l1.6-3.68"/><path class="cls-8" d="M166.37,148.14l3-2.68"/><path class="cls-8" d="M164.47,144.45l3.87-1c-3-11.56-4.33-24.61,3.64-34.55l-3.13-2.5C159.75,117.83,161.27,132.25,164.47,144.45Z"/><path class="cls-8" d="M165,144.32c-3.18-12.12-4.67-26.35,4.28-37.59"/><path class="cls-8" d="M166.39,144c-3.12-11.88-4.53-25.62,4-36.32"/><path class="cls-8" d="M162.16,131.71l4-.15"/><path class="cls-8" d="M163,118.63l3.86,1.07"/><path class="cls-8" d="M168.85,106.39l3.13,2.5a21.31,21.31,0,0,1,17.12-8.08v-4A25.26,25.26,0,0,0,168.85,106.39Z"/><path class="cls-8" d="M169.28,106.73a24.76,24.76,0,0,1,19.82-9.38"/><path class="cls-8" d="M170.4,107.63a23.28,23.28,0,0,1,18.7-8.84"/><path class="cls-8" d="M174.79,101,177,104.3"/><path class="cls-8" d="M181.68,97.81l1.11,3.84"/><path class="cls-8" d="M189.1,96.81v4a29.36,29.36,0,0,1,12.54,3l1.72-3.61C198.34,97.31,193.93,96.81,189.1,96.81Z"/><path class="cls-8" d="M189.1,97.35a26.87,26.87,0,0,1,14,3.3"/><path class="cls-8" d="M189.1,98.79A27.64,27.64,0,0,1,202.51,102"/><path class="cls-8" d="M193.83,97l-.51,4.11"/><path class="cls-8" d="M198.51,98l-1,4.13"/><path class="cls-8" d="M203.36,100.16l-1.72,3.61c18.87,9,28.53,31.64,33.22,50.75l3.89-1C233.91,133.84,223.81,109.94,203.36,100.16Z"/><path class="cls-8" d="M203.12,100.65c20.24,9.67,30.28,33.41,35.09,53"/><path class="cls-8" d="M202.51,102c19.66,9.38,29.55,32.67,34.31,52.09"/><path class="cls-8" d="M220.55,114l-3,2.7"/><path class="cls-8" d="M232,133.13l-3.61,1.73"/><path class="cls-8" d="M238.75,153.57l-3.89,1a106.11,106.11,0,0,1,3.21,25.5l4-5.25C242.1,171.05,240.83,162.07,238.75,153.57Z"/><path class="cls-8" d="M238.21,153.7c2.08,8.46,3.34,17.4,3.33,21.78"/><path class="cls-8" d="M236.82,154c2.05,8.37,3.3,17.19,3.28,23.33"/><path class="cls-8" d="M240.54,162l-3.94.85"/><path class="cls-8" d="M241.69,169.51l-4,1.9"/></g><path class="cls-8" d="M224.17,179.42c.22-5.62-1-14.39-3.21-22.73-3.82-14.63-10.43-31.27-23.08-39a17.48,17.48,0,0,0-8.84-2.89,7.68,7.68,0,0,0-6.71,3.57c-4,5.72-2.44,13.91-.48,21.42,1.78,6.87-3.89,11.26-9,11.23a8.44,8.44,0,0,1-8.41-6.54c-3.2-12.2-4.72-26.62,4.38-38.06a25.26,25.26,0,0,1,20.25-9.58c4.83,0,9.24.5,14.26,3.35,20.45,9.78,30.55,33.68,35.39,53.41,2.08,8.5,3.35,17.48,3.34,21.2l-4,5.25a106.11,106.11,0,0,0-3.21-25.5c-4.69-19.11-14.35-41.78-33.22-50.75a29.36,29.36,0,0,0-12.54-3A21.31,21.31,0,0,0,172,108.89c-8,9.94-6.66,23-3.64,34.55a4.51,4.51,0,0,0,4.54,3.55c3,0,6.09-2.45,5.1-6.21-2.08-7.95-3.92-17.37,1-24.69a11.6,11.6,0,0,1,10-5.32,21.58,21.58,0,0,1,11,3.48c13.94,8.62,20.9,26.3,24.84,41.43a93.39,93.39,0,0,1,3.23,26.87Z"/></g></g><g class="cls-6"><g class="cls-83"><g class="cls-6"><path class="cls-8" d="M242.09,174.77l-4,5.25c9.54-2.62,18-6.41,20.51-17.45l-3.91-.88A17.26,17.26,0,0,1,242.09,174.77Z"/><path class="cls-8" d="M241.54,175.48c4.49-1.25,11.62-4.51,13.67-13.67"/><path class="cls-8" d="M240.1,177.37c6.59-1.82,14.27-5.31,16.51-15.24"/><path class="cls-8" d="M246.55,172.88l.52,3.9"/><path class="cls-8" d="M251.35,168.79l2.92,2.63"/><path class="cls-8" d="M254.67,161.69l3.91.88A4.3,4.3,0,0,1,263,159v-4A8.23,8.23,0,0,0,254.67,161.69Z"/><path class="cls-8" d="M255.21,161.81a7.68,7.68,0,0,1,7.75-6.27"/><path class="cls-8" d="M256.61,162.13A6.28,6.28,0,0,1,263,157"/><path class="cls-8" d="M256.47,157.92l3.06,2.61"/><path class="cls-8" d="M259.44,155.7l1.64,3.66"/></g><path class="cls-8" d="M242.09,174.77a17.26,17.26,0,0,0,12.58-13.08A8.23,8.23,0,0,1,263,155v4a4.3,4.3,0,0,0-4.38,3.58c-2.5,11-11,14.83-20.51,17.45Z"/></g></g><g class="cls-6"><g class="cls-84"><g class="cls-6"><path class="cls-8" d="M224.51,201.39,220.75,200c.66-2.3,1.58-4.93.65-.38l5.37-6.29A56.73,56.73,0,0,1,224.51,201.39Z"/><path class="cls-8" d="M222.61,200.7c.81-2.46,1.64-5.12,1.45-4.16"/><path class="cls-8" d="M221.26,200.21c.7-2.34,1.6-5,.87-1.42"/><path class="cls-8" d="M226.15,196.07l-4.36,1.14"/></g><path class="cls-8" d="M224.76,195.71l-3.36,3.94c.48-2.36.41-2.45.38-2.5A4.3,4.3,0,0,0,224.76,195.71Z"/></g></g><g class="cls-6"><g class="cls-85"><g class="cls-6"><path class="cls-8" d="M224.51,201.39,220.75,200c.66-2.3,1.58-4.93.65-.38l5.37-6.29A56.73,56.73,0,0,1,224.51,201.39Z"/><path class="cls-8" d="M222.61,200.7c.81-2.46,1.64-5.12,1.45-4.16"/><path class="cls-8" d="M221.26,200.21c.7-2.34,1.6-5,.87-1.42"/><path class="cls-8" d="M225.4,198.75l-4-.85"/><path class="cls-8" d="M226.15,196.07l-4.36,1.14"/></g><path class="cls-8" d="M221.4,199.65a11,11,0,0,0,.38-2.5h0a4.31,4.31,0,0,0,3-1.44l2-2.35a56.73,56.73,0,0,1-2.26,8L220.75,200C221.41,197.73,222.33,195.1,221.4,199.65Z"/></g></g><g class="cls-6"><g class="cls-86"><g class="cls-6"><path class="cls-8" d="M226.77,193.36l-5.37,6.29,6.7-2.51-1.4-3.75Z"/><line class="cls-8" x1="224.06" y1="196.54" x2="227.41" y2="195.28"/><line class="cls-8" x1="222.13" y1="198.79" x2="227.91" y2="196.63"/><path class="cls-8" d="M226.75,193.37l-.61,4.5"/><path class="cls-8" d="M226.72,193.38l1.15,3.84"/></g><path class="cls-8" d="M226.77,193.36l-.07,0,1.4,3.75-6.7,2.51c5.62-2.11,6.64-2.5,6.68-2.56s0,0,0-.06l0-.08-.78-2.11c-.11-.29-.21-.59-.33-.88a.72.72,0,0,0-.14-.19.53.53,0,0,1-.1-.17C226.65,193.51,226.72,193.43,226.77,193.36Z"/></g></g><g class="cls-6"><g class="cls-87"><g class="cls-6"><path class="cls-8" d="M226.77,193.36l-5.37,6.29,6.7-2.51-1.4-3.75Z"/><line class="cls-8" x1="224.06" y1="196.54" x2="227.41" y2="195.28"/><line class="cls-8" x1="222.13" y1="198.79" x2="227.91" y2="196.63"/><path class="cls-8" d="M226.75,193.37l-.61,4.5"/><path class="cls-8" d="M226.72,193.38l1.15,3.84"/></g><path class="cls-8" d="M221.4,199.65l5.37-6.29a.3.3,0,0,0-.09.25.46.46,0,0,0,.11.16c.1.12.1.12.36.8.13.36.21.59.54,1.47l.4,1.05h0c-.08.05-.18.11-5.72,2.19A4.33,4.33,0,0,0,221.4,199.65Z"/></g></g><g class="cls-6"><g class="cls-88"><g class="cls-6"><path class="cls-8" d="M215.26,208.92l3.92-.78c.14.7.91,4.25-15.6-12L217.22,215C216.19,214,215.4,209.64,215.26,208.92Z"/></g><path class="cls-8" d="M216.49,213.69a6.9,6.9,0,0,0,.37.82l-.46-.65.82,1.13A3.74,3.74,0,0,1,216.49,213.69Z"/></g></g><g class="cls-6"><g class="cls-89"><g class="cls-6"><path class="cls-8" d="M226.7,193.39l1.4,3.75c-6.71,2.08-10.1,4.9-8.92,11l-3.92.78C213.49,200,218.84,195.73,226.7,193.39Z"/><path class="cls-8" d="M227.41,195.28c-7.28,2.21-11.65,5.75-10.17,13.25"/><path class="cls-8" d="M227.91,196.63c-6.87,2.11-10.53,5.13-9.27,11.61"/><path class="cls-8" d="M219.85,196.48l2.69,3.08"/><path class="cls-8" d="M215.69,201.45l3.78,1.59"/><path class="cls-8" d="M215.26,208.92l3.92-.78c.14.7.91,4.25-15.6-12L217.22,215C216.19,214,215.4,209.64,215.26,208.92Z"/><path class="cls-8" d="M217.24,208.53c.14.7.92,4.65-6.9-3.06"/><path class="cls-8" d="M218.64,208.24c.15.71.92,4.37-13.2-9.54"/><path class="cls-8" d="M215.6,210.59l3.27-1.64"/><path class="cls-8" d="M216.29,213.13,215,206.62"/></g><path class="cls-8" d="M216.4,213.86c.14.19.33.45.46.65a5.16,5.16,0,0,1-.37-.82,31.81,31.81,0,0,1-1.23-4.77c-1.77-8.91,3.58-13.19,11.44-15.53l1.4,3.75c-6.71,2.08-10.1,4.9-8.92,11,.14.7.91,4.25-15.6-12Z"/></g></g><g class="cls-6"><g class="cls-90"><g class="cls-6"><path class="cls-8" d="M217.22,215l-13.64-18.86c8.56,16.4,12.26,13.38,12.41,13.14l3.32,2.24C219,212,216.88,214.29,217.22,215Z"/><path class="cls-8" d="M210.34,205.47c4.15,7.93,7,5.29,7.29,4.91"/><path class="cls-8" d="M205.44,198.7c7.35,14.07,10.82,11.15,11,10.88"/><path class="cls-8" d="M217.53,213.89l-7-7"/><path class="cls-8" d="M218.53,212.49l-3.92-2.87"/><path class="cls-8" d="M219.31,211.51,216,209.27a42.57,42.57,0,0,0,4.76-9.24l3.76,1.36A47,47,0,0,1,219.31,211.51Z"/><path class="cls-8" d="M217.63,210.38a44.12,44.12,0,0,0,5-9.68"/><path class="cls-8" d="M216.44,209.58a43.07,43.07,0,0,0,4.82-9.37"/><path class="cls-8" d="M221.31,208.28l-3.48-2"/><path class="cls-8" d="M223.06,204.9l-3.63-1.68"/></g><path class="cls-8" d="M216.57,214.09a52.43,52.43,0,0,0-5.22-6.41h0c-.5-.52-1.17-1.22-1.63-1.78-.6-.74-1.36-1.75-1.89-2.54a75.91,75.91,0,0,1-4.25-7.23c8.56,16.4,12.26,13.38,12.41,13.14a42.57,42.57,0,0,0,4.76-9.24l3.76,1.36a47,47,0,0,1-5.2,10.12c-.35.52-2.43,2.78-2.09,3.48Z"/></g></g><g class="cls-6"><g class="cls-91"><g class="cls-6"><path class="cls-8" d="M217.22,215l-13.64-18.86c8.56,16.4,12.26,13.38,12.41,13.14l3.32,2.24C219,212,216.88,214.29,217.22,215Z"/><path class="cls-8" d="M210.34,205.47c4.15,7.93,7,5.29,7.29,4.91"/><path class="cls-8" d="M205.44,198.7c7.35,14.07,10.82,11.15,11,10.88"/><path class="cls-8" d="M217.53,213.89l-7-7"/></g><path class="cls-8" d="M203.58,196.13l13,18a53.15,53.15,0,0,0-5.2-6.4,26.91,26.91,0,0,1-3.28-3.95c-.9-1.25-2.53-3.93-3.28-5.33C204.44,197.72,204,196.78,203.58,196.13Z"/></g></g><g class="cls-6"><g class="cls-92"><g class="cls-6"><path class="cls-8" d="M220.75,200h0c.66-2.3,1.58-4.93.65-.38h0C222.33,195.1,221.41,197.73,220.75,200Z"/></g><polygon class="cls-8" points="220.75 200.02 220.75 200.03 220.75 200.03 220.75 200.02"/></g></g><g class="cls-6"><g class="cls-93"><g class="cls-6"><path class="cls-8" d="M220.75,200h0c.66-2.3,1.58-4.93.65-.38h0C222.33,195.1,221.41,197.73,220.75,200Z"/><line class="cls-8" x1="221.42" y1="197.9" x2="221.42" y2="197.9"/><line class="cls-8" x1="221.79" y1="197.21" x2="221.79" y2="197.21"/></g><path class="cls-8" d="M220.75,200c.66-2.29,1.58-4.92.65-.37h0c.93-4.55,0-1.92-.65.37Z"/></g></g><g class="cls-6"><g class="cls-94"><rect class="cls-8" x="224.75" y="194.81" height="7.16" transform="translate(-70.28 251.6) rotate(-51.66)"/></g></g><g class="cls-6"><g class="cls-95"><g class="cls-6"><path class="cls-8" d="M228.1,197.14h0c-6.71,2.08-10.1,4.9-8.92,11h0C218,202,221.39,199.22,228.1,197.14Z"/></g><path class="cls-8" d="M228.08,197.14h0Z"/></g></g><g class="cls-6"><g class="cls-96"><g class="cls-6"><path class="cls-8" d="M228.1,197.14h0c-6.71,2.08-10.1,4.9-8.92,11h0C218,202,221.39,199.22,228.1,197.14Z"/><line class="cls-8" x1="222.54" y1="199.56" x2="222.54" y2="199.56"/><line class="cls-8" x1="219.47" y1="203.04" x2="219.47" y2="203.04"/></g><path class="cls-8" d="M228.08,197.14c-6.7,2.08-10.08,4.91-8.9,11h0c-1.18-6.09,2.2-8.92,8.9-11Z"/></g></g><g class="cls-6"><g class="cls-97"><g class="cls-6"><path class="cls-8" d="M219.18,208.14h0c.14.7.91,4.25-15.6-12h0C220.09,212.39,219.32,208.84,219.18,208.14Z"/></g><polygon class="cls-8" points="219.18 208.14 219.18 208.14 219.18 208.14 219.18 208.14"/></g></g><g class="cls-6"><g class="cls-98"><g class="cls-6"><path class="cls-8" d="M219.18,208.14h0c.14.7.91,4.25-15.6-12h0C220.09,212.39,219.32,208.84,219.18,208.14Z"/><line class="cls-8" x1="218.87" y1="208.95" x2="218.87" y2="208.95"/><line class="cls-8" x1="215" y1="206.62" x2="215" y2="206.62"/></g><path class="cls-8" d="M219.18,208.14h0c.14.71.9,4.23-15.6-12h0C220.08,212.37,219.32,208.85,219.18,208.14Z"/></g></g><g class="cls-6"><g class="cls-99"><g class="cls-6"><path class="cls-8" d="M203.58,196.13h0c8.56,16.4,12.26,13.38,12.41,13.14h0C215.84,209.51,212.14,212.53,203.58,196.13Z"/></g><path class="cls-8" d="M203.61,196.18l0-.05h0Z"/></g></g><g class="cls-6"><g class="cls-100"><g class="cls-6"><path class="cls-8" d="M203.58,196.13h0c8.56,16.4,12.26,13.38,12.41,13.14h0C215.84,209.51,212.14,212.53,203.58,196.13Z"/><line class="cls-8" x1="210.57" y1="206.88" x2="210.57" y2="206.88"/><line class="cls-8" x1="214.61" y1="209.62" x2="214.61" y2="209.62"/></g><path class="cls-8" d="M203.61,196.18h0c8.54,16.35,12.23,13.33,12.38,13.09h0C215.84,209.51,212.15,212.53,203.61,196.18Z"/></g></g><g class="cls-6"><g class="cls-101"><g class="cls-6"><path class="cls-8" d="M216,209.27h0a42.57,42.57,0,0,0,4.76-9.24h0A42.57,42.57,0,0,1,216,209.27Z"/></g><polygon class="cls-8" points="216 209.26 215.99 209.27 215.99 209.27 216 209.26"/></g></g><g class="cls-6"><g class="cls-102"><g class="cls-6"><path class="cls-8" d="M216,209.27h0a42.57,42.57,0,0,0,4.76-9.24h0A42.57,42.57,0,0,1,216,209.27Z"/><line class="cls-8" x1="217.83" y1="206.31" x2="217.83" y2="206.31"/><line class="cls-8" x1="219.43" y1="203.22" x2="219.43" y2="203.22"/></g><path class="cls-8" d="M216,209.26a42.23,42.23,0,0,0,4.75-9.23h0a42.23,42.23,0,0,1-4.75,9.23Z"/></g></g><g class="cls-6"><g class="cls-103"><g class="cls-6"><path class="cls-8" d="M220.75,200l3.76,1.36a56.73,56.73,0,0,0,2.26-8l-5.37,6.29C222.33,195.1,221.41,197.73,220.75,200Z"/><path class="cls-8" d="M221.26,200.21c.7-2.34,1.6-5,.87-1.42"/><path class="cls-8" d="M222.61,200.7c.81-2.46,1.64-5.12,1.45-4.16"/><path class="cls-8" d="M221.79,197.21l4.36-1.14"/></g><path class="cls-8" d="M221.4,199.65a15.47,15.47,0,0,0,.42-2.5h0a4.36,4.36,0,0,0,2.94-1.44Z"/></g></g><g class="cls-6"><g class="cls-104"><g class="cls-6"><path class="cls-8" d="M220.75,200l3.76,1.36a56.73,56.73,0,0,0,2.26-8l-5.37,6.29C222.33,195.1,221.41,197.73,220.75,200Z"/><path class="cls-8" d="M221.26,200.21c.7-2.34,1.6-5,.87-1.42"/><path class="cls-8" d="M222.61,200.7c.81-2.46,1.64-5.12,1.45-4.16"/><path class="cls-8" d="M221.42,197.9l4,.85"/><path class="cls-8" d="M221.79,197.21l4.36-1.14"/></g><path class="cls-8" d="M224.76,195.71l2-2.35a56.73,56.73,0,0,1-2.26,8L220.75,200c.66-2.3,1.58-4.93.65-.38a11.08,11.08,0,0,0,.42-2.5A4.27,4.27,0,0,0,224.76,195.71Z"/></g></g><g class="cls-6"><g class="cls-105"><g class="cls-6"><path class="cls-8" d="M221.4,199.65l5.37-6.29-.07,0,1.4,3.75Z"/><line class="cls-8" x1="222.13" y1="198.79" x2="227.91" y2="196.63"/><line class="cls-8" x1="224.06" y1="196.54" x2="227.41" y2="195.28"/><path class="cls-8" d="M226.14,197.87l.61-4.5"/><path class="cls-8" d="M227.87,197.22l-1.15-3.84"/></g><path class="cls-8" d="M221.4,199.65c5.66-2.13,6.63-2.5,6.68-2.56L226.93,194a.88.88,0,0,0-.14-.23c-.1-.12-.19-.22,0-.41l-.07,0,1.4,3.75Z"/></g></g><g class="cls-6"><g class="cls-106"><g class="cls-6"><path class="cls-8" d="M221.4,199.65l5.37-6.29-.07,0,1.4,3.75Z"/><line class="cls-8" x1="222.13" y1="198.79" x2="227.91" y2="196.63"/><line class="cls-8" x1="224.06" y1="196.54" x2="227.41" y2="195.28"/><path class="cls-8" d="M226.14,197.87l.61-4.5"/><path class="cls-8" d="M227.87,197.22l-1.15-3.84"/></g><path class="cls-8" d="M226.77,193.36c-.05.07-.12.15-.09.24a.53.53,0,0,0,.1.17.57.57,0,0,1,.15.22c.18.45.34.91.51,1.37l.39,1,.06.17.06.14,0,.12,0,.11,0,.08s0,0,0,.06a5.26,5.26,0,0,1-.84.35l-5.85,2.21Z"/></g></g><g class="cls-6"><g class="cls-107"><g class="cls-6"><path class="cls-8" d="M228.1,197.14l-1.4-3.75c-7.86,2.34-13.21,6.62-11.44,15.53l3.92-.78C218,202,221.39,199.22,228.1,197.14Z"/><path class="cls-8" d="M227.91,196.63c-6.87,2.11-10.53,5.13-9.27,11.61"/><path class="cls-8" d="M227.41,195.28c-7.28,2.21-11.65,5.75-10.17,13.25"/><path class="cls-8" d="M222.54,199.56l-2.69-3.08"/><path class="cls-8" d="M219.47,203l-3.78-1.59"/><path class="cls-8" d="M219.18,208.14l-3.92.78c.14.72.93,5.07,2,6.07l-13.64-18.86C220.09,212.39,219.32,208.84,219.18,208.14Z"/><path class="cls-8" d="M218.64,208.24c.15.71.92,4.37-13.2-9.54"/><path class="cls-8" d="M217.24,208.53c.14.7.92,4.65-6.9-3.06"/><path class="cls-8" d="M218.87,209l-3.27,1.64"/><path class="cls-8" d="M215,206.62l1.29,6.51"/></g><path class="cls-8" d="M216.49,213.69a31.81,31.81,0,0,1-1.23-4.77c-1.77-8.91,3.58-13.19,11.44-15.53l1.4,3.75c-6.71,2.08-10.1,4.9-8.92,11,.14.7.91,4.25-15.6-12l12.82,17.73.46.65A6.9,6.9,0,0,1,216.49,213.69Z"/></g></g><g class="cls-6"><g class="cls-108"><g class="cls-6"><path class="cls-8" d="M219.18,208.14l-3.92.78c.14.72.93,5.07,2,6.07l-13.64-18.86C220.09,212.39,219.32,208.84,219.18,208.14Z"/></g><path class="cls-8" d="M216.4,213.86l.82,1.13a3.74,3.74,0,0,1-.73-1.3,5.74,5.74,0,0,0,.37.82C216.73,214.31,216.54,214.05,216.4,213.86Z"/></g></g><g class="cls-6"><g class="cls-109"><g class="cls-6"><path class="cls-8" d="M203.58,196.13,217.22,215c-.34-.7,1.74-3,2.09-3.48L216,209.27C215.84,209.51,212.14,212.53,203.58,196.13Z"/><path class="cls-8" d="M205.44,198.7c7.35,14.07,10.82,11.15,11,10.88"/><path class="cls-8" d="M210.34,205.47c4.15,7.93,7,5.29,7.29,4.91"/><path class="cls-8" d="M210.57,206.88l7,7"/><path class="cls-8" d="M214.61,209.62l3.93,2.87"/><path class="cls-8" d="M216,209.27l3.32,2.24a47,47,0,0,0,5.2-10.12L220.75,200A42.57,42.57,0,0,1,216,209.27Z"/><path class="cls-8" d="M216.44,209.58a43.07,43.07,0,0,0,4.82-9.37"/><path class="cls-8" d="M217.63,210.38a44.12,44.12,0,0,0,5-9.68"/><path class="cls-8" d="M217.83,206.31l3.48,2"/><path class="cls-8" d="M219.43,203.22l3.63,1.68"/></g><path class="cls-8" d="M203.58,196.13c8.56,16.4,12.26,13.38,12.41,13.14a42.57,42.57,0,0,0,4.76-9.24l3.76,1.36a47,47,0,0,1-5.2,10.12c-.35.52-2.43,2.78-2.09,3.48l-.65-.9a52.68,52.68,0,0,0-5.18-6.38,18.55,18.55,0,0,1-1.5-1.61c-.58-.7-1.31-1.69-1.85-2.44-.68-.95-1.5-2.28-2.1-3.29C205.2,199.12,204.27,197.41,203.58,196.13Z"/></g></g><g class="cls-6"><g class="cls-110"><g class="cls-6"><path class="cls-8" d="M203.58,196.13,217.22,215c-.34-.7,1.74-3,2.09-3.48L216,209.27C215.84,209.51,212.14,212.53,203.58,196.13Z"/><path class="cls-8" d="M205.44,198.7c7.35,14.07,10.82,11.15,11,10.88"/><path class="cls-8" d="M210.34,205.47c4.15,7.93,7,5.29,7.29,4.91"/><path class="cls-8" d="M210.57,206.88l7,7"/></g><path class="cls-8" d="M216.57,214.09a56.09,56.09,0,0,0-5.2-6.4,24.3,24.3,0,0,1-2.53-2.92,64,64,0,0,1-5.26-8.64Z"/></g></g></g></g></g></svg>