<svg xmlns="http://www.w3.org/2000/svg" viewBox="0 0 428.95 499.8"><defs><style>.cls-1,.cls-2,.cls-3{fill:#2f559a;}.cls-1{fill-opacity:0.51;}.cls-2{fill-opacity:0.81;}.cls-3{fill-opacity:0.95;}</style></defs><g id="Layer_2" data-name="Layer 2"><g id="lines"><path class="cls-1" d="M348.54,141.37a9.48,9.48,0,0,0-3,1.57,5.87,5.87,0,0,0-4.92,0c.18-.21.36-.41.53-.62,3.61-4.43-1-12-6.35-8.51-4.8,3.15-10.14,7.52-15.79,10.4a25.85,25.85,0,0,0-2.8-.15,5.87,5.87,0,0,0-1.17-.28,12.79,12.79,0,0,0-5.39.53,4.19,4.19,0,0,0-.49.2c-32.06-4.56-64.11-9.18-96.2-13.54-28.46-3.87-57.78-6.69-86-1.1a23.45,23.45,0,0,0-14.38,1.72,37.75,37.75,0,0,0-7.59,0,5.49,5.49,0,0,0-2,.6c-4.16-2.58-10.31,1.9-7.31,7.19l7.41,13q.5,2.57,1.1,5.09a4.88,4.88,0,0,0,.56,4.44c.37.6.77,1.17,1.16,1.75a76.94,76.94,0,0,0,4.79,11.83c2.77,5.47,6,10.66,9.26,15.81a5,5,0,0,0,.46,2q4,8.65,8.73,16.84a5.12,5.12,0,0,0-2,7.24l25.09,43.13A111.48,111.48,0,0,0,166,284.56a4.7,4.7,0,0,0,.4,2.87A38.19,38.19,0,0,0,169,291.9a4.55,4.55,0,0,0-.24,5.76l30.86,41.48a5.09,5.09,0,0,0,1.13,2.57l6.71,8.07c.34.46.68.91,1,1.37a5.24,5.24,0,0,0,2.41,1.89c1.42,2.41,2.89,4.78,4.46,7a3.87,3.87,0,0,0,0,.59,4.5,4.5,0,0,0,3.49,4.27c.74.76,1.5,1.51,2.22,2.3,2.31,2.49,6.59.93,7.11-2.31a8.93,8.93,0,0,0,1.48-1.61,5.34,5.34,0,0,0,.38-4.66l.06-.09A5.79,5.79,0,0,0,231.5,357l4.5-7,6.46-6.35A24.22,24.22,0,0,0,250,336a4.82,4.82,0,0,0,.65-4.1q2.61-2.9,5.45-5.6l5.95-5.23a5.57,5.57,0,0,0,1.24-1.53l9-8.2a5.32,5.32,0,0,0,1.38-1.91,4.07,4.07,0,0,0,4.73-1.59c.28-.36.54-.73.81-1.1h0a.16.16,0,0,1,0-.07c1.48-2,2.86-4.05,4.14-6.14a4.86,4.86,0,0,0,5.4-3.82,36.28,36.28,0,0,1,4.81-10.57,4.7,4.7,0,0,0,.47-4.49l.63-1.4a6.05,6.05,0,0,0,2.12-2.75l7.14-18a4.4,4.4,0,0,0,.13-3,249.18,249.18,0,0,0,15.71-32.73q7.28-13.59,13.76-27.63,5.06-11,9.6-22.17,2.24-5.49,4.37-11.05c.09-.24.25-.68.43-1.22A28.52,28.52,0,0,0,355,148C355.82,144.14,352.56,140.13,348.54,141.37Z"/><path class="cls-2" d="M346.43,126.06c-1.15-.79-2.34-1.49-3.55-2.16-1.59-2.18-3.22-4.34-4.92-6.45-1-1.25-2-2.5-3.1-3.72l-1.59-1.83-.53-.6a4.85,4.85,0,0,0-.14-5.2,12.2,12.2,0,0,0-8-6.06,41.36,41.36,0,0,0-5.17-4.43,169.39,169.39,0,0,0-12-17.21,4.66,4.66,0,0,0-.47-.51A151.57,151.57,0,0,0,297,64.41a4.6,4.6,0,0,0-6.09-.85q-2.73-4-5.73-7.78A87.46,87.46,0,0,0,274.74,44.4a5,5,0,0,0-4.49-1.33L258.1,29.6a4.89,4.89,0,0,0-1.06-.85A28.86,28.86,0,0,0,244.42,13a11.3,11.3,0,0,0-3.29-2.39c-2.82-3.07-5.68-6.09-8.63-9a5.21,5.21,0,0,0-7.42,0,122.22,122.22,0,0,0-13.69,17A35.56,35.56,0,0,0,204,27.46a57.57,57.57,0,0,0-5,10.66q-12.28,16.14-24.59,32.27a6.72,6.72,0,0,0-.62,1,5.13,5.13,0,0,0-4.39-.83A7.68,7.68,0,0,0,164,78a71.51,71.51,0,0,0-16.13,18.38,4.29,4.29,0,0,0-3.2.91l-15.31,11.42a5.72,5.72,0,0,0-2.11,3.38q-2.33,1.65-4.74,3.2c-5.74,3.65-.48,13,5.29,9.36,1.43-.91,2.84-1.86,4.23-2.82a5.05,5.05,0,0,0,6.39-.57l.12-.11a51.49,51.49,0,0,0,7.74.56,4.74,4.74,0,0,0,3.53,1.36,6.16,6.16,0,0,0,5.55-3.13,21.5,21.5,0,0,0,10.92-.34c5,.31,9.88.78,14.79,1.48a5.73,5.73,0,0,0,3.43-.54l.29.07a160.86,160.86,0,0,0,20.8,2.81,23.84,23.84,0,0,0,9.85.65,4.42,4.42,0,0,0,1.82.77,69.33,69.33,0,0,0,9.3,1.11l10.55,3a5.2,5.2,0,0,0,5.21-1.8c12.84,6.37,27.63,8.47,41.84,10.18,1.76.21,3.7-1.18,4.53-2.68.14-.26.25-.51.37-.77h2.64l.56,0,.18,0s.4.14.23.06a1.6,1.6,0,0,0,.39.11,5.2,5.2,0,0,0,3.27.35c.26-.06.52-.09.78-.14a.81.81,0,0,0,.31,0c2.25-.14,4.5-.24,6.76-.27h0a6,6,0,0,0,.61.09,40.92,40.92,0,0,0,7.34,0l3.39,0a1,1,0,0,0,1,.81c6.41,0,12.8-.62,19.18-1.14a.42.42,0,0,0,.12,0c2.21.6,4.4,1.29,6.58,2.11C348.23,138.14,351.17,129.29,346.43,126.06Z"/><path class="cls-2" d="M426.31,331.38a45.24,45.24,0,0,0-9.49-17,6.07,6.07,0,0,0,1.13-2.89,31.43,31.43,0,0,0-5.6-21.8,5.31,5.31,0,0,0-4-2.3,89.1,89.1,0,0,0-8.35-27.34,4.79,4.79,0,0,0-1.75-2c0-.07,0-.13,0-.2-.76-3-2.35-5.52-3.61-8.26a49.72,49.72,0,0,1-3-9c-.76-3.13-1.34-6.3-1.95-9.46a1.5,1.5,0,0,0,.75-.46,1.11,1.11,0,0,0,.27-1.06c-1-2.55-2-5.11-3-7.66a1.11,1.11,0,0,0-1.59-.58c-.24-1.64-.48-3.27-.73-4.9a4.32,4.32,0,0,0-2.54-3.42,162,162,0,0,0-10.28-37.81,5.84,5.84,0,0,0-2.17-2.65,133.19,133.19,0,0,0,.15-17.76c-.42-6.9-9.5-6.89-10.43-.36a5,5,0,0,0-3.25,3.54l-.58,2a6.05,6.05,0,0,0-.64.61A51.94,51.94,0,0,0,343,187a5.84,5.84,0,0,0,1,4.58c-.09.39-.17.78-.25,1.17a5.68,5.68,0,0,0-3.48,2.35,51.71,51.71,0,0,0-8.69,25.35,1.08,1.08,0,0,0,0,.18c-1.26,2.84-2.5,5.69-3.68,8.57-.68,1.31-1.33,2.63-2,3.95a5,5,0,0,0-.47.75q-1.54,3.06-2.95,6.17-6.75,14-12.59,28.42l0,.06h0c-.17.43-.36.86-.53,1.29l-.06.16q-4.25,8-7.89,16.34a6.06,6.06,0,0,0-.46,3.09,139.87,139.87,0,0,0-13.76,16.75,5.49,5.49,0,0,0-2,1.09,43.49,43.49,0,0,0-8.74,10.08,4.6,4.6,0,0,0-.74,2.44L254.2,340.13a4.78,4.78,0,0,0-1.6,4.42,5.5,5.5,0,0,0-.49.47,24.23,24.23,0,0,0-4.27,2.92l-.31.14A6.54,6.54,0,0,0,244,352c-2.85,4.49,1.57,11.3,6.74,8l.49-.32a21.63,21.63,0,0,0,6.38.32,3.8,3.8,0,0,0,1.3.51,31.35,31.35,0,0,0,13.1-.15,4.21,4.21,0,0,0,1.56.57,48.58,48.58,0,0,0,17.11-.24,5.33,5.33,0,0,0,1.16.15q45.57,1.38,91.17.43a4.83,4.83,0,0,0,4.55-3c1.86-.12,3.73-.21,5.6-.28a1.06,1.06,0,0,0,1-1.3l1.17-.06a1.19,1.19,0,0,0,.27-.07c3.76-.12,7.53-.34,11.29-.7a6,6,0,0,0,1.33-.29,4.9,4.9,0,0,0,5.1-1.07c5,2.92,11.36,2.05,13.8-3.9C429.43,344.92,428,337,426.31,331.38Z"/><path class="cls-2" d="M208.43,362.7Q197.26,349.2,186.9,335a5.18,5.18,0,0,0-.7-3.83,139.73,139.73,0,0,0-8.28-12.52Q167,302.4,155.78,286.39a100.59,100.59,0,0,0-18.13-39.62,53.11,53.11,0,0,0-7.08-11.21,115.92,115.92,0,0,0-9.27-24.76,6.3,6.3,0,0,0-.25-1.22,138.23,138.23,0,0,0-11.5-26.29,5,5,0,0,0-2-2c-.53-1.43-1-2.88-1.54-4.34-2.78-8.29-3.88-19.9-12.51-24.08-3.19-1.54-8.37.2-7.89,4.68A64.6,64.6,0,0,1,86,168c0,.08-.07.15-.1.23a37.91,37.91,0,0,0-2,8.42,1,1,0,0,0-1-1,1.09,1.09,0,0,0,0,2.17,1,1,0,0,0,.93-.65l0,.2a6.7,6.7,0,0,0-1.42,1.44,101.5,101.5,0,0,0-16.72,35.82,4.2,4.2,0,0,0-1.78,2.33q-2.41,7.32-4.27,14.8a2.9,2.9,0,0,0-.06.41c-.56,1.53-1.1,3-1.61,4.59-1.21,2.78-2.31,5.6-3.33,8.46a5.28,5.28,0,0,0-3.08,3.26Q47.41,261,44.11,273.87a90.22,90.22,0,0,0-5.35,13.89,5,5,0,0,0,1,4.8c0,.16-.07.32-.1.47l-8.44,21.48a4,4,0,0,0-3.15,2,89.15,89.15,0,0,0-9.36,20.63,4.83,4.83,0,0,0-.2,1,26.78,26.78,0,0,0-5,8.76,5.14,5.14,0,0,0,2.78,6.2c.06,2.91,3.23,5.11,6.26,4.86a5.57,5.57,0,0,0,3.39,1.43,23.86,23.86,0,0,0,9.49-1.29,6.1,6.1,0,0,0,1,.21c.42.06.85.1,1.28.15a5.44,5.44,0,0,0,1.16.33,60.39,60.39,0,0,0,6.89.74A4.82,4.82,0,0,0,49,360.92a62.27,62.27,0,0,0,7.11-.2l.09,0a4.14,4.14,0,0,0,2.58,1.6,451.5,451.5,0,0,0,133.67,3.5,19.32,19.32,0,0,0,4.27,1.67,1.08,1.08,0,0,0,1-.28,32,32,0,0,1,3.26,3.14C205.66,375.53,212.77,368,208.43,362.7Z"/><path class="cls-3" d="M400.11,361.17l-.33.16a4.67,4.67,0,0,0-3.56.81l-1.2.79a4.63,4.63,0,0,0-4.62-1.11L366.9,369a1,1,0,0,0,.05-.28,1.16,1.16,0,0,0-.77-1,6.69,6.69,0,0,0-3.49.21l-.22,0h0l-.34,0c-.3,0-.6,0-.9,0l-.34,0h0l-.1,0-.06,0a1,1,0,0,0-1.39-.34,1.09,1.09,0,0,0-.49,1.09,5.93,5.93,0,0,0-.73,0c-8.21.45-16.39,1.24-24.55,2.27a.86.86,0,0,0,.05-.23,1.09,1.09,0,0,0-1.05-1.09c-1.61.09-3.21.2-4.82.33a4.68,4.68,0,0,0-4.78-3.49l-4,.36a4.33,4.33,0,0,0-4.6-2.77l-24.16,1.63a5.56,5.56,0,0,0-5-1.58l-29.89,4.22a.94.94,0,0,0-.87-.57,80.6,80.6,0,0,1-12.88-1.24,1.12,1.12,0,0,0-1.13.41,6.06,6.06,0,0,0-3.94-2c-2.87-.4-5.1.71-7.12,2.77a5.53,5.53,0,0,0-1.34,5.27c.2.71.41,1.41.62,2.12a14,14,0,0,0-2.85,5.79,5.63,5.63,0,0,0,1.85,5.55,33.87,33.87,0,0,0-1.06,5.14c-.33,2.52,1.46,4.34,3.62,5a24.42,24.42,0,0,0-.51,4.94l-.5,6.42c0,.51,0,1,0,1.51s0,1.26,0,1.89a5.87,5.87,0,0,0-.13.87q-1.53,19.59-3.07,39.18a4.74,4.74,0,0,0,.18,1.71,1,1,0,0,0-.43.85c0,3.66.17,7.34,0,11,0,.27-.05.52-.07.78-.16.74-.32,1.49-.51,2.22a15.7,15.7,0,0,0-3.39,10.63,5.3,5.3,0,0,0,.93,2.68l-2.88,2.11c-3.84,2.8-2.64,9.27,1.42,10.1a1.89,1.89,0,0,0-.05.23,1,1,0,0,0,.09.41.91.91,0,0,0,.22.35,1,1,0,0,0,.74.32l.28,0a1,1,0,0,0,.46-.28l1.29-1.05a1,1,0,0,0,.22-.35v0c11.1-3.74,20.43-10,29.19-17.9l4.57-4.16c0,.06,0,.13.06.18a1.06,1.06,0,0,0,1.44.39c.74-.39,1.48-.77,2.24-1.13l.55-.25.05,0,.06,0,.29-.12c.39-.16.79-.31,1.19-.44a1.1,1.1,0,0,0,.73-1.33,1.07,1.07,0,0,0-1.29-.76l-.6.22,9.48-5.26a4,4,0,0,0,4.38-.72q4-3.12,8.12-6.09l3.67-.51a22.24,22.24,0,0,0,9.41-5.48q6.86-3.88,13.32-8.37A74.39,74.39,0,0,0,329.14,428a4.87,4.87,0,0,0,1.66-.59,121.33,121.33,0,0,0,28.11-22.3,5.09,5.09,0,0,0,1.32-2.53c.67-.6,1.35-1.19,2-1.8l.11-.12q6.09-3.66,12-7.69a5.73,5.73,0,0,0,2.09-2.49q3.77-2.47,7.43-5.13a7.35,7.35,0,0,0,1.11-1,35.51,35.51,0,0,0,8.38-5.68,4.66,4.66,0,0,0,1.44-2.31l4.55-2.76a6.07,6.07,0,0,0,.63-.47l5.47-2.61C411.53,367.61,406.21,358.27,400.11,361.17Z"/><path class="cls-3" d="M60.62,409c-1-.46-1.51-.63,0,0Z"/><path class="cls-3" d="M220.65,385.2a6.26,6.26,0,0,1-.12-1.06,10.36,10.36,0,0,1,.08-1.25l.41-5.18a1.08,1.08,0,0,0-1.05-1.08,1,1,0,0,0-.65.26,4.54,4.54,0,0,0-4.37-1.43l-3.18.62a19.57,19.57,0,0,0-10.88-2.9,23.94,23.94,0,0,0-9.06,2.18c-8.37-4.85-17.71-4.42-27-4.42-16.05,0-32.11.08-48.15-.76-7.65-.41-15.3-1-22.9-1.95l-1.38-.17-.54-.08c-2-.36-4-.64-5.91-1q-6.4-1.15-12.73-2.68a24.21,24.21,0,0,0-14.68,1.21c-6.31-8.78-38-4.67-43.82-4.36-4.42.24-5.37,5.54-2.12,8.08,11.08,8.68,22,17.54,33.62,25.43,2.42,6.55,7.81,11.58,15,14.58l-.58-.24c.4.17.87.39,1.35.61,1.15.56,2.3,1.13,3.44,1.71,2.58,1.31,5.11,2.7,7.63,4.13,5,2.85,10,5.83,15,8.85,10.75,6.57,21.29,13.5,31.83,20.42l63.63,41.72a18.5,18.5,0,0,0,5.71,2.44c5.32,5.26,13.26,9.47,20.48,7.94.4.82.8,1.63,1.23,2.43a1,1,0,0,0,1.44.39,1.13,1.13,0,0,0,.38-1.48c-.38-.69-.72-1.4-1.07-2.1a4.25,4.25,0,0,0,1.87-3.59q-.24-2.89-.31-5.77a.88.88,0,0,0,.63-.73,51.91,51.91,0,0,0,1.1-9.3v-.08c5.46-13.36,5.73-27.12,6.49-41.5q1-19.32,2-38.62A20.87,20.87,0,0,0,220.65,385.2Z"/><path class="cls-3" d="M86.51,141a4.35,4.35,0,0,0-4.26-2.09c-3.2-4.76-8-8.55-12.74-9.47a164.58,164.58,0,0,1-34.36-10.59c-5.64-2.44-12.48-.62-17.78,2.88a2.28,2.28,0,0,0-.67-.53,2,2,0,0,0-.79-.21,1.54,1.54,0,0,0-.81.22,1.11,1.11,0,0,0-.37,1.49,1,1,0,0,0,.62.49h0a22.8,22.8,0,0,0-3.93,4c-5,6.7-7.12,18.53-1.76,25.88.38.49.74,1,1.09,1.51-1.5,4-2.61,8.32-3.8,12.38-3.17,10.81-3.42,21.34-3.13,32.47C4.3,216.56,2.48,233.87.93,251A48.24,48.24,0,0,0,0,261.67a25.87,25.87,0,0,0,5.27,14.65c-.89,7-.4,13.92.13,21q1,13.06,1.93,26.12a4.51,4.51,0,0,0,1.08,2.62C7.85,328,7.33,330,6.91,332A4.21,4.21,0,0,0,15,334.28,83.6,83.6,0,0,0,17.93,324c4.52-12.79,11.5-24.65,14.81-37.91a50.9,50.9,0,0,0,2.91-5.7c5.46-4.15,8.85-10.8,9.46-18.72.08-.95.16-1.91.23-2.86.45-1.58.89-3.16,1.4-4.72,1.27-3.9,2.63-7.78,3.9-11.68q3.84-11.76,7.27-23.65.81-2.85,1.59-5.71a27,27,0,0,0,3.78-4.62c4.82-7.44,9.63-14.93,13.39-23a103.34,103.34,0,0,0,9.39-33.52,15.77,15.77,0,0,0-.41-5.48A4.47,4.47,0,0,0,86.51,141Z"/><path class="cls-3" d="M197.51,12.76q-2.14,2.26-4.35,4.46c-.11.1-.22.18-.33.3l-.15.17-2.11,2a4,4,0,0,0-3.47.27c-.91.49-1.79,1-2.67,1.54a4.12,4.12,0,0,0-2.15.39,61.57,61.57,0,0,0-12.5,8A3.85,3.85,0,0,0,168,30a26.82,26.82,0,0,0-4.65,1.76A3.54,3.54,0,0,0,159.61,33c-.75.85-1.53,1.67-2.31,2.47-2.59,1.86-5.07,3.91-7.59,5.82l-5.06,3.85A147.46,147.46,0,0,0,122,54.7a3.94,3.94,0,0,0-1.53,1.36,4.67,4.67,0,0,0-.86.67L99.51,76.35a3.86,3.86,0,0,0-4-.08A63.81,63.81,0,0,0,78.4,90.9c-1.47,1.33-2.92,2.67-4.37,4a4,4,0,0,0-1.83.14,35,35,0,0,0-15.5,9.73l-.31.2a1,1,0,0,0-1.09-.38,64.77,64.77,0,0,1-9.37,3,53.09,53.09,0,0,0-11.74.24c-4.33.6-6.11,7.17-1.11,8.52a43.6,43.6,0,0,0,7.68,1.37,3.45,3.45,0,0,0,3.34,1.51l1-.11c2.41-.25,4.81-.4,7.22-.42l3.57,0,.17,0,.24.13.74.3a3.77,3.77,0,0,0,2,2.26,67.58,67.58,0,0,0,16.39,6q2.7,1.37,5.31,3a3.68,3.68,0,0,0,3.43.38c0,.12.06.24.11.36,1.9,5.16,10,2.92,8.09-2.31.94,2.57,6.53.49,8-.25a23.94,23.94,0,0,0,6.55-5.33c5.54-5.92,10.81-12.1,16.39-18,1.48-1.57,3-3.1,4.5-4.66a4.25,4.25,0,0,0,1.41-.93l8.81-8.63a.9.9,0,0,0,1.39-.36c1.2-2.44,3.46-4.09,5.46-5.79l7-6a.8.8,0,0,0,.25-.4A27.45,27.45,0,0,0,157,74.49a4.17,4.17,0,0,0,1.34-1.06,66.28,66.28,0,0,1,10.21-9.75,5.54,5.54,0,0,0,.66-.61,4.78,4.78,0,0,0,1.43-.83,31.64,31.64,0,0,0,6.21-6.9c1.32-1.41,2.65-2.81,4-4.19a4.08,4.08,0,0,0,2.17-1.81l2.57-4.2a28.31,28.31,0,0,0,5.54-9.38,4,4,0,0,0,.14-.55c2.76-3.51,5.4-7.12,7.88-10.85a3.86,3.86,0,0,0,.58-1.43l3.66-4C207.12,14.82,201.29,8.74,197.51,12.76Z"/><path class="cls-3" d="M411.6,117.8a1,1,0,0,0-.64.25,4.81,4.81,0,0,0-1.81-2.65,4.51,4.51,0,0,0-3.86-3.84,3.44,3.44,0,0,0-4.26-1.34l-2.53.93-.79-.73a4.06,4.06,0,0,0-1.8-2.83c-2-1.29-4-2.47-6.07-3.56a4,4,0,0,0-1.46-1.37l-34.6-19.52-.69-.48a4.71,4.71,0,0,0-.88-.69c-.86-.51-1.71-1-2.56-1.55a219.47,219.47,0,0,0-22.79-14.94q-6.44-4.56-12.67-9.41C303.18,47.5,293,38,280.13,32.48c-3.94-1.69-7,4.47-4.08,7.24l40.1,37.88s-.06.05-.08.1a1.12,1.12,0,0,0,.37,1.48c1,.54,2.05,1.12,3,1.73a3.5,3.5,0,0,0,.69,3l21.29,28.62a4.44,4.44,0,0,0,5.24,1.56c.21.37.41.74.61,1.11a4.39,4.39,0,0,0,.45,5.33c1.87,2,3.75,3.93,5.62,5.89a3.93,3.93,0,0,0,2.45,1.28,13.35,13.35,0,0,0,2.39,2.57l0,0h0l.74.59a5,5,0,0,0,1.66,2.06l0,.09a1.8,1.8,0,0,0-.1.33.9.9,0,0,0,0,.43.86.86,0,0,0,.13.41.77.77,0,0,0,.27.3.71.71,0,0,0,.35.19l.28,0a1,1,0,0,0,.53-.15,1.07,1.07,0,0,0,.48-.64c0-.07,0-.12.06-.18a5.59,5.59,0,0,0,3.26-.44,4,4,0,0,0,.86.2,7.3,7.3,0,0,0,.77.57c3.67,2.31,8.47.57,12.34-.37a139.92,139.92,0,0,0,29.26-10.91,3.6,3.6,0,0,0,2-2.94,1,1,0,0,0,.48.12A1.09,1.09,0,0,0,411.6,117.8Z"/><path class="cls-3" d="M425.87,163.37q1.94-14.18,3.07-28.45a3.91,3.91,0,0,0-2.39-3.81,4.79,4.79,0,0,0-1.25-1.6c0-2.78-3.07-5.27-5.56-4.4a3.42,3.42,0,0,0-3,.65l-7,5.16a1,1,0,0,0-.7-.28,15.52,15.52,0,0,0-4,1,1.08,1.08,0,0,0-.74,1.3l-2.62.69a108.83,108.83,0,0,0-19.84,5.23l0,0a29.2,29.2,0,0,0-5.38,1.84l-.14.07H376a4.29,4.29,0,0,0-1.92.58,18.79,18.79,0,0,1-2.6,0c-1.21-.06-1.32,1.66-.37,2.07-2.73,2-1.72,7.37,2.51,7.91l.66.08a3.72,3.72,0,0,0-1.64,4.6q1.35,4.23,3,8.33A66.82,66.82,0,0,0,382.79,188a4.26,4.26,0,0,0,0,2.65,214.12,214.12,0,0,0,7.31,20.5c-.07,4.66,1.75,9,3.46,13.33a3.82,3.82,0,0,0,.19,2.21q4.38,11.63,9.54,22.9l3.25,12.64a4,4,0,0,0,2.07,2.73c.7,2.19,1.44,4.37,2.28,6.53,0,.1.09.18.13.27a46.3,46.3,0,0,0,1.75,8.64A4.11,4.11,0,0,0,414.9,283c.28,2.78.56,5.57.87,8.35.61,5.48,9,5.54,8.39,0q-1.17-10.47-2-20.95a4.48,4.48,0,0,0,4.69-4.34q-.33-34.42-.64-68.85Q426.6,180.27,425.87,163.37Z"/></g></g></svg>