<svg xmlns="http://www.w3.org/2000/svg" viewBox="0 0 480.04 458.55"><defs><style>.cls-1,.cls-2,.cls-3{fill:#54b948;}.cls-1{fill-opacity:0.5;}.cls-2{fill-opacity:0.8;}.cls-3{fill-opacity:0.96;}</style></defs><g id="Layer_2" data-name="Layer 2"><g id="lines"><path class="cls-1" d="M279.79,157.78a4.22,4.22,0,0,0,.14-2.2c-.27-1.36-.53-2.72-.8-4.08a4,4,0,0,0-2-2.77,18.25,18.25,0,0,0-5-5,4,4,0,0,0-2.64-2.16,26.45,26.45,0,0,0-3.93-.86q-7.83-1.67-15.78-2.78a3.94,3.94,0,0,0-4.28,2.75l-9.19-2.57a134.8,134.8,0,0,0-22.76-6.37l-.12,0h0l-1.12-.22a3.77,3.77,0,0,0-1.82.11c-2.51-.89-5-1.74-7.6-2.52a4.09,4.09,0,0,0-4.93,1.7q-8-1.25-16.1-1.89c-1.59-.36-3.19-.72-4.8-1.06a4.75,4.75,0,0,0-3.5.57l-1.8-.08a4.45,4.45,0,0,0-2.37.57q-12.32-2.62-24.72-4.85a4.67,4.67,0,0,0-2.21-1.06c-3.21-.59-6.42-1.15-9.63-1.72a114.52,114.52,0,0,0-39.65-6.6h-.1l-8-1.19q-8.52-1.68-17.11-3.09a4.68,4.68,0,0,0-1.4,0l-17.12-3.6a4.68,4.68,0,0,0-4.82,1.79L26.94,106a3.75,3.75,0,0,0-1.85.16c-.93-.09-1.87-.2-2.8-.28a3.86,3.86,0,0,0-2,.33Q13.18,103.94,5.93,102c-4.55-1.2-8.49,5.31-3.85,7.72l3.46,1.8a14.13,14.13,0,0,0,3.36,5.79,4.24,4.24,0,0,0,1.54,1,4.48,4.48,0,0,0,.86,3l7.08,9.87a4.39,4.39,0,0,0,.57,4.26l.46.63a4.72,4.72,0,0,0,.38,2.49A37.28,37.28,0,0,0,33.6,155.14a4,4,0,0,0,3.7.59c.46.52.93,1,1.42,1.54a4.16,4.16,0,0,0,2,1.07c1.57,1.66,3.18,3.27,4.82,4.86q7.38,8.79,14.17,18A132,132,0,0,0,69.88,195.8c1.6,2,4.29,1.65,6.06.27l1.86,2.06c4.06,6.84,9.41,12.71,16.59,16.5.85.78,1.71,1.55,2.58,2.32a118.4,118.4,0,0,0,25.87,32.68c.13.11.25.18.38.28a168.56,168.56,0,0,0,20.29,23.59q3,4,6,8a44,44,0,0,0,5.67,10.38,4,4,0,0,0,.58,4.66,276.23,276.23,0,0,1,28.91,39,4.66,4.66,0,0,0,7.12.86c.51.59,1,1.18,1.57,1.76a4.44,4.44,0,0,0,1.59,1.1,3.89,3.89,0,0,0,1.1,3.32c.86.93,1.7,1.87,2.56,2.8a4.26,4.26,0,0,0,.86,1.48l1.23,1.4a4.34,4.34,0,0,0,.42,4.79A276.75,276.75,0,0,0,230,385.44a4.41,4.41,0,0,0,3.28,1.2c1.19,1.47,2.4,2.93,3.59,4.41A4,4,0,0,0,239,392.5q3,3.69,5.87,7.41a4,4,0,0,0,1.73,1.31,217.88,217.88,0,0,0,20.92,20.41,4.51,4.51,0,0,0,1.66,2.83l28.48,23.15a3.58,3.58,0,0,0,1.29.68,4.91,4.91,0,0,0,1.64.8c.12.65.23,1.3.37,2a4.35,4.35,0,0,0,4.91,3.25q.31.66.66,1.32c2.2,4.23,9.49,1.9,8.25-2.9q-2.32-8.94-4.08-18a4,4,0,0,0,1.3-3.86l-3.72-21.12c-.06-1.2-.15-2.4-.23-3.6a3.29,3.29,0,0,0,.93-2.61l-.09-1.16h0l0-.24c-.3-3.77-.72-7.5-1.31-11.21q-.74-7.47-1-15v-.13a.88.88,0,0,0,0-.17c0-.23,0-.46,0-.7a4.4,4.4,0,0,0-.1-.74q-.44-4.72-1-9.42a155.07,155.07,0,0,0-2.26-28.62,4.3,4.3,0,0,0-.18-.64l-.33-4a3.3,3.3,0,0,0-1-2.1l-.69-3.6a3.92,3.92,0,0,0,.59-3.13l-1-4.76a4.14,4.14,0,0,0,1.68-4.15q-3.53-22.33-8.79-44.3a4.57,4.57,0,0,0,0-1.73c-2.2-12.16-4.46-24.32-7.24-36.35a92.26,92.26,0,0,0-3-27.45,3.67,3.67,0,0,0-.4-1,230.74,230.74,0,0,0-3.27-27.87v0a4.32,4.32,0,0,0-.4-1.93c.06-.63.14-1.25.24-1.87l2.73-8.39A3.84,3.84,0,0,0,279.79,157.78Zm-7.06,246.33-4.66-5.1,4.86,4.89Zm-4-88.1,2.92,2.22.08,0,1.92,1.45,0,.29Q271.25,318,268.76,316Zm21.7,83.13c-.14,1.08-.25,2.16-.32,3.24-.09-1.26-.17-2.52-.25-3.77l.56.49Z"/><path class="cls-2" d="M472.5,1.24a67.4,67.4,0,0,1-9.84,7.07,3.77,3.77,0,0,0-4.5.85q-1.55,1.62-3.11,3.23a4.56,4.56,0,0,0-1.32,3.06c-.17.26-.34.52-.52.77a4.85,4.85,0,0,0-5.55.08,138.27,138.27,0,0,0-26.3,27,4.18,4.18,0,0,0-3,.29,81.74,81.74,0,0,0-17.43,11.74,3.86,3.86,0,0,0,.09,6.22l-1,.81c-11.67,6-23.11,12.3-33.6,20.18a3.65,3.65,0,0,0-1.4,3.66,261.38,261.38,0,0,0-24.66,16.62,3.76,3.76,0,0,0-.93,5l-1.68,1.29a3.91,3.91,0,0,0-2.37.76l-.94.64h0q-12.65,8.58-24.6,18a4.9,4.9,0,0,0-2.46.91L293,139.59a3.65,3.65,0,0,0-1.16,1.31c-2.77-2.91-8.81.75-7,5.33.12.31.22.62.31.93a4.72,4.72,0,0,0-1.18,2.2c-.88,3.65.73,8.63,1.76,12.09a4.9,4.9,0,0,0,.87,1.67,128.23,128.23,0,0,0,1.74,16.27c0,1.08,0,2.15,0,3.22a3.9,3.9,0,0,0-.39,2.87c.21,1,.4,1.9.6,2.85a113.8,113.8,0,0,0,2.79,18.78,114.65,114.65,0,0,0,5.7,40.2,4.68,4.68,0,0,0,1.46,2.13c0,8.49,1.67,17,3.22,25.32q3.68,19.74,8.49,39.26a4.81,4.81,0,0,0,.57,1.38q.59,4.38,1.22,8.74c.58,4.79,1.22,9.58,2,14.35a3.52,3.52,0,0,0-2.16,3.5,218.29,218.29,0,0,0,5,41.78c0,.85.09,1.71.15,2.56a104.7,104.7,0,0,0,2.37,36.28c0,.49,0,1-.08,1.47a132,132,0,0,0-1.95,14.72,3.79,3.79,0,0,0,3.59,4.34,32.54,32.54,0,0,1-.63,6.49c-.39.78-.78,1.57-1.13,2.38a3.59,3.59,0,0,0,0,3.11c.64,3.32,5.78,4.95,8.05,1.53l8.36-12.56a3.28,3.28,0,0,0,.24-.45,4.57,4.57,0,0,0,1.57-1.85q2.36-4.94,4.72-9.86a4.77,4.77,0,0,0,1.08-1.49q2.82-6,5.62-12a4.44,4.44,0,0,0,1.18-1.84l.88-2.58,16.75-35.86a3.39,3.39,0,0,0-.34-3.68l3-8.61a301.24,301.24,0,0,0,13.14-38.14,4.35,4.35,0,0,0,.15-1.4,4.41,4.41,0,0,0,1.37-2.07l.57-1.78a3.75,3.75,0,0,0,4.51-2.87q5.38-19.12,10.76-38.25a4,4,0,0,0-.18-2.67,361.46,361.46,0,0,1,9.39-36.05,3.67,3.67,0,0,0,3.8-2.91q2.88-12,5.77-23.93a4.37,4.37,0,0,0-.76-3.83q2.75-8.37,5.37-16.79a4.12,4.12,0,0,0-.3-3.41q6.29-16.59,11.34-33.57c3.31-6.81,6.61-13.61,9.42-20.64a83.72,83.72,0,0,0,4.63-17.66,4.26,4.26,0,0,0,1.46-2.77q1.05-8.1,2.09-16.21c.42-2.37.83-4.73,1.27-7.09a4.69,4.69,0,0,0,.18-.45,234,234,0,0,0,6-25q1.67-7,3.34-14a4.27,4.27,0,0,0-.13-2.5c1.8-6.29,3.34-12.63,4.67-19l.24-.53a40.44,40.44,0,0,0,3-7.1A4,4,0,0,0,470.2,21c.3-.8.62-1.6.91-2.4.77-1.52,1.53-3,2.34-4.53a5.57,5.57,0,0,0,.33-.77c1.76-2.18,3.53-4.35,5.34-6.49C482.39,2.89,476.15-1.94,472.5,1.24ZM306.38,147.63l-.14-.38v0c.61-.31,1.22-.62,1.82-.94Z"/><path class="cls-3" d="M453.58.22l-1.77.6a3.5,3.5,0,0,0-1.07.19L433.11,7.12a4.65,4.65,0,0,0-1.56.89l-6.93,2.53a127.2,127.2,0,0,0-25.29,9.91,4.63,4.63,0,0,0-1.45,1.17q-7.62,2.36-15.09,5.19A4.27,4.27,0,0,0,379.4,26l-.22,0a5.17,5.17,0,0,0-1.54-.07,199.36,199.36,0,0,0-25.45,4.5,4.32,4.32,0,0,0-2.7,1.82l-14,3.14a4.06,4.06,0,0,0-3.34,3.41l-26,3.84Q293,43.9,279.81,44.53a5.05,5.05,0,0,0-1.89.46,4.67,4.67,0,0,0-2.56.2,37.13,37.13,0,0,1-7.57,1.75,3.75,3.75,0,0,0-3,2.1q-6.75,1.23-13.54,2.19a4.37,4.37,0,0,0-2.63-.21l-7.81,1.54-.32,0-3.06.36a4.15,4.15,0,0,0-1.89.64l-6.4,1.26q-11.51,2-22.92,4.54a4.09,4.09,0,0,0-3.34,3.45L190.16,65.8A4.68,4.68,0,0,0,188,66.9q-20,3.75-39.69,8.77c-.1,0-.19,0-.3,0l-14.57,1.61q-12.81.9-25.54,2.82a3.77,3.77,0,0,0-3.32,4.8,4.5,4.5,0,0,0-1.14.08q-3,.58-5.92,1.24a4.37,4.37,0,0,0-2.05-.06q-3.15.6-6.28,1.32L73.38,90.81a55.29,55.29,0,0,0-7,1.47,4.78,4.78,0,0,0-1.57.76c-2.52.29-5,.5-7.58.6a47.69,47.69,0,0,0-15.14-.31c-5.08.8-4.21,8.07.58,8.54a110.41,110.41,0,0,0,14.19.43c2.9.53,5.78,1.22,8.67,1.82,7.45,1.54,15,2.43,22.54,3.42l35.76,4.71c.61.18,1.23.33,1.84.48a3.86,3.86,0,0,0,.93.47,129.05,129.05,0,0,0,36.67,7.25c.78.06,1.56.13,2.35.17,4.85.28,11.36,1,16.19-1l2.21.56A67.57,67.57,0,0,0,198.3,122a5.19,5.19,0,0,0,1.17.2c4.54.2,9.12.4,13.66.85,3,.56,6.11,1,9.19,1.41a56.2,56.2,0,0,1,5.67,1.47c8.39,2.68,15.42,8.62,24.57,8.78a4.62,4.62,0,0,0,3.85-2,35.24,35.24,0,0,0,10.36,2.36,8,8,0,0,0,3.76-.63,3.6,3.6,0,0,0,.84.28l.12,0c0,.05,0,.1,0,.16-.05,2.15,1.64,4.64,4.1,4.55l2.52-.09a4.36,4.36,0,0,0,4.57-3.46,3.75,3.75,0,0,0,2.69-2c6.51-3.11,12.54-7.76,18.19-12.57a126.66,126.66,0,0,0,23.86-16.57c1.56-1,3.11-2,4.68-2.91a4.17,4.17,0,0,0,4.48.28,109.92,109.92,0,0,0,25.89-16.86,4,4,0,0,0,1.45-3l22.28-17.29q6.75-4.81,13.09-10.16a3.85,3.85,0,0,0,1.52-3.2c.06-.05.13-.08.18-.13l6.58-6q3.45-3,7-5.83,7.59-5.15,14.86-10.74a3.64,3.64,0,0,0,1.29-1.85A3.59,3.59,0,0,0,432,23.7a101,101,0,0,0,16.63-8.79,5,5,0,0,0,1.68-1.81l.3-.17a4.49,4.49,0,0,0,2.14-3l3.74-1.67C460.92,6.29,458.35-1.39,453.58.22Z"/></g></g></svg>