<svg xmlns="http://www.w3.org/2000/svg" xmlns:xlink="http://www.w3.org/1999/xlink" viewBox="0 0 435 424.34"><defs><style>.cls-1,.cls-7{fill:none;}.cls-2,.cls-3,.cls-4{fill:#54b948;}.cls-2{fill-opacity:0.5;}.cls-3{fill-opacity:0.8;}.cls-4{fill-opacity:0.96;}.cls-5{isolation:isolate;}.cls-6{clip-path:url(#clip-path);}.cls-7{stroke:#000;stroke-miterlimit:10;stroke-width:0.25px;}.cls-8{clip-path:url(#clip-path-2);}.cls-9{clip-path:url(#clip-path-3);}.cls-10{clip-path:url(#clip-path-4);}.cls-11{clip-path:url(#clip-path-5);}.cls-12{clip-path:url(#clip-path-6);}.cls-13{clip-path:url(#clip-path-7);}.cls-14{clip-path:url(#clip-path-8);}.cls-15{clip-path:url(#clip-path-9);}.cls-16{clip-path:url(#clip-path-10);}.cls-17{clip-path:url(#clip-path-11);}.cls-18{clip-path:url(#clip-path-12);}.cls-19{clip-path:url(#clip-path-13);}.cls-20{clip-path:url(#clip-path-14);}.cls-21{clip-path:url(#clip-path-15);}.cls-22{clip-path:url(#clip-path-16);}.cls-23{clip-path:url(#clip-path-17);}.cls-24{clip-path:url(#clip-path-18);}.cls-25{clip-path:url(#clip-path-19);}.cls-26{clip-path:url(#clip-path-20);}.cls-27{clip-path:url(#clip-path-21);}.cls-28{clip-path:url(#clip-path-22);}.cls-29{clip-path:url(#clip-path-23);}.cls-30{clip-path:url(#clip-path-24);}.cls-31{clip-path:url(#clip-path-25);}.cls-32{clip-path:url(#clip-path-26);}.cls-33{clip-path:url(#clip-path-27);}.cls-34{clip-path:url(#clip-path-28);}.cls-35{clip-path:url(#clip-path-29);}.cls-36{clip-path:url(#clip-path-30);}.cls-37{clip-path:url(#clip-path-31);}.cls-38{clip-path:url(#clip-path-32);}.cls-39{clip-path:url(#clip-path-33);}.cls-40{clip-path:url(#clip-path-34);}.cls-41{clip-path:url(#clip-path-35);}.cls-42{clip-path:url(#clip-path-36);}.cls-43{clip-path:url(#clip-path-37);}.cls-44{clip-path:url(#clip-path-38);}.cls-45{clip-path:url(#clip-path-39);}.cls-46{clip-path:url(#clip-path-40);}.cls-47{clip-path:url(#clip-path-41);}</style><clipPath id="clip-path"><path class="cls-1" d="M235.14,132.51c9.26-1.3,10.2,8.06-.6,11.46q-20.64,6.51-41,14.39t-40.19,17.15c7.77,4.48,13.33,10.44,19.55,16.18a69.19,69.19,0,0,0,11,7.75A457.1,457.1,0,0,1,219.2,162a16.92,16.92,0,0,1,9.15-4.37c6.08-.85,10.7,2.14,5.23,7.31a468.91,468.91,0,0,0-38.68,41.57,27.28,27.28,0,0,1,7.66,8.27C205,219.1,197,225.11,191,226c-2.39.34-4.46-.14-5.43-1.88a19.14,19.14,0,0,0-2.27-3.22c-8.78,11.15-17.17,22.38-25.6,33.62a12.19,12.19,0,0,1-8,4.69c-5.49.77-10.28-2.35-6.33-7.62,9.73-13,19.4-25.93,29.69-38.78-4.91-3-10.16-5.82-14.28-9.31-8.36-7-14.27-16.14-27-20.07-4.54-1.4-4.94-7,2.23-10.52q24-11.82,48.64-21.81t49.82-17.9A17.22,17.22,0,0,1,235.14,132.51Z"/></clipPath><clipPath id="clip-path-2"><path class="cls-1" d="M242.31,136.41c9.26-1.3,10.2,8.06-.6,11.46q-20.64,6.51-41,14.39t-40.19,17.15c7.77,4.48,13.32,10.44,19.55,16.18a69.19,69.19,0,0,0,11,7.75,456.94,456.94,0,0,1,35.23-37.47,17,17,0,0,1,9.16-4.37c6.08-.86,10.69,2.14,5.23,7.31a468.91,468.91,0,0,0-38.68,41.57,27.53,27.53,0,0,1,7.66,8.27c2.43,4.35-5.56,10.36-11.56,11.2-2.39.34-4.46-.15-5.43-1.88a19.31,19.31,0,0,0-2.27-3.22c-8.78,11.15-17.17,22.38-25.6,33.62a12.21,12.21,0,0,1-8.05,4.69c-5.49.77-10.28-2.35-6.33-7.62,9.73-13,19.4-25.93,29.68-38.78-4.9-3-10.15-5.82-14.27-9.31-8.36-7-14.28-16.14-27-20.07-4.53-1.4-4.93-7,2.23-10.52q24-11.82,48.65-21.81t49.82-17.9A17.22,17.22,0,0,1,242.31,136.41Z"/></clipPath><clipPath id="clip-path-3"><path class="cls-1" d="M247.43,135.38a7,7,0,0,1,1.21.86,12,12,0,0,1,.86,1,3.51,3.51,0,0,1,.33.6,4.34,4.34,0,0,1,.41,1.31,5.54,5.54,0,0,1-.06,2.14,7.55,7.55,0,0,1-1.47,3.06,16,16,0,0,1-1.78,1.81,12.16,12.16,0,0,1-1.24.89,17.39,17.39,0,0,1-3,1.53c-.95.39-2.26.77-3.23,1.08-2.85.91-13.05,4.2-24.59,8.36-8,2.89-14.2,5.32-14.23,5.34l-2,.79c-3,1.18-6.27,2.5-8,3.21,0,0-4.6,1.87-9.76,4.06,0,0-4.87,2.06-9.21,4-3.71,1.64-6.62,3-8.41,3.81a10.12,10.12,0,0,1-2.65.16q19.86-9.27,40.19-17.15t41-14.39c10.8-3.4,9.86-12.76.6-11.46a2.42,2.42,0,0,0-.59-1.84A9.45,9.45,0,0,1,247.43,135.38Z"/></clipPath><clipPath id="clip-path-4"><path class="cls-1" d="M241.51,149a17.15,17.15,0,0,0,5.31-2.75,9.25,9.25,0,0,0,3-3.9,5.81,5.81,0,0,0,.2-3.94,5.23,5.23,0,0,0-1-1.73,4.64,4.64,0,0,0-.49-.5c-.34-.27-.81-.6-1.17-.83,4.91,2.67,3.47,10.49-6.1,13.62-13.69,4.35-27.37,9.12-40.88,14.36s-26.89,10.95-37.25,15.78c.08,0,.08.08,0,.11,5.73-2.65,11.66-5.28,17.62-7.8,4-1.71,7.56-3.17,11.76-4.87,4-1.6,8-3.18,8-3.19,1.49-.58,5.44-2.11,10.16-3.85,4.14-1.52,8.36-3,10.21-3.67,4.09-1.43,8.12-2.8,12.3-4.18h0l4.1-1.34,2.06-.66C240.07,149.49,240.9,149.24,241.51,149Z"/></clipPath><clipPath id="clip-path-5"><path class="cls-1" d="M163.2,179.14a39.66,39.66,0,0,1,5.84,4.25c2.11,1.78,4.77,4.31,7.84,7.25,1.73,1.65,3.11,2.94,3.66,3.45.79.71,1.6,1.39,2.41,2,1.64,1.27,3.11,2.25,4.07,2.88,1.25.81,2.46,1.55,3.38,2.11a3.57,3.57,0,0,1,.73,2.24,69.19,69.19,0,0,1-11-7.75c-6.23-5.74-11.78-11.7-19.55-16.18C162.35,179.44,163.53,179.32,163.2,179.14Z"/></clipPath><clipPath id="clip-path-6"><path class="cls-1" d="M180.54,194.09c-1-1-1-1-6.32-6-2.74-2.61-4.15-3.82-5.17-4.7a41.7,41.7,0,0,0-5.85-4.26c5.45,3.15,11.07,9.18,17.29,14.91a62.91,62.91,0,0,0,9.9,7h0A64.17,64.17,0,0,1,180.54,194.09Z"/></clipPath><clipPath id="clip-path-7"><path class="cls-1" d="M241.51,160.5a10.36,10.36,0,0,1,1,.7,3.92,3.92,0,0,1,.6.62,3.83,3.83,0,0,1,.83,1.8,4.24,4.24,0,0,1-.12,1.86,13,13,0,0,1-.73,1.67,7.43,7.43,0,0,1-.58.88c-.39.49-.94,1.13-1.38,1.58-.61.64-1.5,1.43-2.14,2-3.82,3.64-10.05,9.78-18,18.37-2.58,2.77-9.42,10.24-17.38,19.83a3.42,3.42,0,0,1-1.54.53,468.91,468.91,0,0,1,38.68-41.57c5.46-5.17.85-8.17-5.23-7.31a17,17,0,0,0-9.16,4.37,456.94,456.94,0,0,0-35.23,37.47,3.55,3.55,0,0,0-.74-2.25,455.51,455.51,0,0,1,34.54-36.64,18.57,18.57,0,0,1,10-4.79A10.65,10.65,0,0,1,241.51,160.5Z"/></clipPath><clipPath id="clip-path-8"><path class="cls-1" d="M241.16,169.61c-.62.63-1.5,1.43-2.14,2-4.84,4.61-11.55,11.44-14.22,14.3-.57.62-1.35,1.43-1.92,2-2.4,2.57-2.44,2.62-3.76,4.06-1.63,1.78-3.41,3.75-5.42,6-.77.86-3.06,3.48-3.48,4-3.91,4.57-3.91,4.57-6.61,7.8.06-.07,0-.13-.05-.18A456.71,456.71,0,0,1,241,169.58c4.16-4.25,3.39-7.52.52-9.08a5.1,5.1,0,0,1,1.86,1.63,3.92,3.92,0,0,1,.65,2,4.34,4.34,0,0,1-.17,1.37,11.37,11.37,0,0,1-.73,1.68A12.54,12.54,0,0,1,241.16,169.61Z"/></clipPath><clipPath id="clip-path-9"><path class="cls-1" d="M203.59,209.69a27.07,27.07,0,0,1,6.26,6.81A6.65,6.65,0,0,1,211,219a5.38,5.38,0,0,1,0,2.22,8.06,8.06,0,0,1-1.75,3.42,16.63,16.63,0,0,1-3.22,3,20,20,0,0,1-8.22,3.49,7.79,7.79,0,0,1-4.91-.64,4.8,4.8,0,0,1-1.9-1.87c-.56-1-1.35-2-1.16-1.88s.35-.11.44-.3a5.4,5.4,0,0,0,.27-1.63,19.31,19.31,0,0,1,2.27,3.22c1,1.73,3,2.22,5.43,1.88,6-.84,14-6.85,11.56-11.2a27.53,27.53,0,0,0-7.66-8.27C203.18,210.18,203.84,209.87,203.59,209.69Z"/></clipPath><clipPath id="clip-path-10"><path class="cls-1" d="M210.47,217.53a23.14,23.14,0,0,0-3-4.22,27,27,0,0,0-3.86-3.62l0,0a26.31,26.31,0,0,1,6.79,7.75c3,5.93-6.25,12.71-12.78,13.62a7.71,7.71,0,0,1-4.75-.61,6.57,6.57,0,0,0,2.46.72,11.31,11.31,0,0,0,3.41-.25,18.24,18.24,0,0,0,3.12-1,21.32,21.32,0,0,0,3.13-1.64,20,20,0,0,0,2.75-2.09,13.18,13.18,0,0,0,2.08-2.4,5.8,5.8,0,0,0,.7-6.24Z"/></clipPath><clipPath id="clip-path-11"><path class="cls-1" d="M190.2,226.38c-.12.27-.26.4-.41.32l0,0C189.87,226.72,190,226.71,190.2,226.38Z"/></clipPath><clipPath id="clip-path-12"><path class="cls-1" d="M190.07,226.61c-2.37,3-3.89,5-7.16,9.23-.81,1.07-1.62,2.14-2.44,3.2L178,242.29l-6.23,8.28-1.26,1.67-1.26,1.68-2.52,3.36c-.38.51-.88,1.19-1.27,1.69a13.86,13.86,0,0,1-10.85,5.44,11.47,11.47,0,0,1-1.8-.13,9.11,9.11,0,0,1-2.92-1c-2.86-1.56-4.08-4.76-1.05-9.07,9.74-13,19.42-25.95,28.58-37.39a5.91,5.91,0,0,0,2.74-.2c-10.28,12.85-19.95,25.8-29.68,38.78-4,5.27.84,8.39,6.33,7.62a12.21,12.21,0,0,0,8.05-4.69c8.43-11.24,16.82-22.47,25.6-33.62A3.8,3.8,0,0,1,190.07,226.61Z"/></clipPath><clipPath id="clip-path-13"><path class="cls-1" d="M165.47,259a13.81,13.81,0,0,1-7.14,4.89,12.73,12.73,0,0,1-2.08.43,12.19,12.19,0,0,1-2.73.07,10.67,10.67,0,0,1-1.77-.31,8.31,8.31,0,0,1-1.85-.73,10.27,10.27,0,0,0,6.32.92,13.76,13.76,0,0,0,9.09-5.33c8.43-11.22,16.81-22.45,24.48-32.21.1.05.19,0,.28-.09-2.73,3.46-5.81,7.48-5.94,7.65s-2.67,3.48-6.12,8c0,0-3.57,4.73-6.23,8.28Z"/></clipPath><clipPath id="clip-path-14"><path class="cls-1" d="M144.27,191.16a34,34,0,0,0-3.18-1.52c-1-.41-2.3-.86-3.3-1.19a7.29,7.29,0,0,1-1.41-.59c-4.43-2.41-4.06-9,3.69-12.8q24-11.85,48.75-21.85t49.93-18a12.43,12.43,0,0,1,3-.69,2.42,2.42,0,0,1,.59,1.84,17.22,17.22,0,0,0-2.74.64Q214.42,145,189.75,155T141.1,176.76c-7.16,3.53-6.76,9.12-2.23,10.52,12.75,3.93,18.67,13,27,20.07,4.12,3.49,9.37,6.3,14.27,9.31a5.91,5.91,0,0,1-2.74.2c-3.55-2.18-8.85-5-13.08-8.58C157.57,202.55,152.47,195.63,144.27,191.16Z"/></clipPath><clipPath id="clip-path-15"><path class="cls-1" d="M137.79,188.45a7.84,7.84,0,0,1-1.41-.59,6.16,6.16,0,0,0,1.36.56,35.87,35.87,0,0,1,6.53,2.74A34.74,34.74,0,0,0,137.79,188.45Z"/></clipPath><clipPath id="clip-path-16"><path class="cls-1" d="M247.43,135.38c4.91,2.67,3.47,10.49-6.1,13.62-13.69,4.35-27.37,9.12-40.88,14.36s-26.89,10.95-37.25,15.78l-6-3.25c10.36-4.83,23.78-10.52,37.25-15.78s27.18-10,40.88-14.36c9.56-3.13,11-10.95,6.09-13.62Z"/></clipPath><clipPath id="clip-path-17"><path class="cls-1" d="M241.45,132.13l6,3.25a9.45,9.45,0,0,0-5.71-.81l-6-3.25A9.43,9.43,0,0,1,241.45,132.13Z"/></clipPath><clipPath id="clip-path-18"><path class="cls-1" d="M163.2,179.14c5.45,3.15,11.07,9.18,17.29,14.91a62.91,62.91,0,0,0,9.9,7l-6-3.25a63.84,63.84,0,0,1-9.9-7c-6.22-5.73-11.83-11.76-17.28-14.91C159,176.87,161.42,178.14,163.2,179.14Z"/></clipPath><clipPath id="clip-path-19"><path class="cls-1" d="M241.51,160.5c2.87,1.56,3.64,4.83-.52,9.08a456.71,456.71,0,0,0-37.43,40.09l-6-3.25A456.51,456.51,0,0,1,235,166.33c4.17-4.25,3.4-7.52.53-9.08Z"/></clipPath><clipPath id="clip-path-20"><path class="cls-1" d="M235.54,157.25l6,3.25a10.65,10.65,0,0,0-6.59-.84,18.57,18.57,0,0,0-10,4.79,455.51,455.51,0,0,0-34.54,36.64l-6-3.25A455.73,455.73,0,0,1,219,161.2a18.57,18.57,0,0,1,10-4.79A10.65,10.65,0,0,1,235.54,157.25Z"/></clipPath><clipPath id="clip-path-21"><path class="cls-1" d="M192.82,230.43l-6-3.25a4.85,4.85,0,0,1-1.89-1.87,21.9,21.9,0,0,1-1.16-1.88l6,3.25c-.19-.1.6.86,1.16,1.88A4.8,4.8,0,0,0,192.82,230.43Z"/></clipPath><clipPath id="clip-path-22"><path class="cls-1" d="M186.84,227.18a7.73,7.73,0,0,0,4.76.61c6.53-.9,15.77-7.69,12.78-13.62a26.46,26.46,0,0,0-6.79-7.75l6,3.25a26.31,26.31,0,0,1,6.79,7.75c3,5.93-6.25,12.71-12.78,13.62a7.71,7.71,0,0,1-4.75-.61Z"/></clipPath><clipPath id="clip-path-23"><path class="cls-1" d="M189.76,226.68l0,0-6-3.25,0,0Z"/></clipPath><clipPath id="clip-path-24"><path class="cls-1" d="M149.9,263.32l-6-3.25c-2.87-1.56-4.09-4.76-1.05-9.07,9.73-13,19.42-25.95,28.57-37.39l6,3.25c-9.16,11.44-18.84,24.39-28.58,37.39C145.82,258.56,147,261.76,149.9,263.32Z"/></clipPath><clipPath id="clip-path-25"><path class="cls-1" d="M143.93,260.07a10.25,10.25,0,0,0,6.31.92,13.78,13.78,0,0,0,9.1-5.33c8.43-11.22,16.81-22.45,24.48-32.21l6,3.25c-7.67,9.76-16,21-24.48,32.21a13.76,13.76,0,0,1-9.09,5.33,10.27,10.27,0,0,1-6.32-.92Z"/></clipPath><clipPath id="clip-path-26"><path class="cls-1" d="M144.27,191.16a35.87,35.87,0,0,0-6.53-2.74,6.16,6.16,0,0,1-1.36-.56l-6-3.25a6.58,6.58,0,0,0,1.36.56,35.58,35.58,0,0,1,6.53,2.74Z"/></clipPath><clipPath id="clip-path-27"><path class="cls-1" d="M138.29,187.91l6,3.25c8.2,4.47,13.3,11.39,20.08,17.12,4.23,3.57,9.53,6.4,13.08,8.58l-6-3.25c-3.54-2.18-8.84-5-13.07-8.58C151.59,199.3,146.49,192.38,138.29,187.91Z"/></clipPath><clipPath id="clip-path-28"><path class="cls-1" d="M136.38,187.86l-6-3.25c-4.43-2.41-4.05-9,3.7-12.8q24-11.85,48.74-21.85c16.47-6.65,33.08-12.68,49.94-18a13,13,0,0,1,3-.69l6,3.25a12.43,12.43,0,0,0-3,.69q-25.27,7.91-49.93,18t-48.75,21.85C132.32,178.84,132,185.45,136.38,187.86Z"/></clipPath><clipPath id="clip-path-29"><path class="cls-1" d="M235.59,131.29a.27.27,0,0,1,.15,0,9.43,9.43,0,0,1,5.71.81,7.84,7.84,0,0,0-2.87-.87,11,11,0,0,0-1.62-.07C236.54,131.19,236,131.26,235.59,131.29Z"/></clipPath><clipPath id="clip-path-30"><path class="cls-1" d="M241.45,132.13c4.92,2.67,3.47,10.49-6.09,13.62-13.7,4.35-27.37,9.12-40.88,14.36s-26.89,10.95-37.25,15.78a15.71,15.71,0,0,0-3.85-.38q19.86-9.27,40.19-17.15t41-14.39c10.8-3.4,9.86-12.76.6-11.46,0-.7.19-1.19.45-1.22A9.36,9.36,0,0,1,241.45,132.13Z"/></clipPath><clipPath id="clip-path-31"><path class="cls-1" d="M157.23,175.89c5.45,3.15,11.06,9.18,17.28,14.91a63.84,63.84,0,0,0,9.9,7c-.33-.18-.53.54-.45,1.6a69.19,69.19,0,0,1-11-7.75c-6.22-5.74-11.78-11.7-19.55-16.18A15.71,15.71,0,0,1,157.23,175.89Z"/></clipPath><clipPath id="clip-path-32"><path class="cls-1" d="M184.17,197.89a.18.18,0,0,1,.24,0A455.73,455.73,0,0,1,219,161.2a18.57,18.57,0,0,1,10-4.79,10.65,10.65,0,0,1,6.59.84c-.76-.38-3-1.54-7.25-.79a18.36,18.36,0,0,0-4.12,1.21,19,19,0,0,0-4,2.32,18.08,18.08,0,0,0-1.38,1.18c-1.18,1.09-2.72,2.58-3.87,3.71L213,166.74l-3.74,3.72c-2.65,2.67-5.41,5.55-5.43,5.57h0l-1.77,1.86c-2.26,2.4-2.26,2.4-3.46,3.69-.85.91-2.62,2.83-5,5.51C189.44,191.69,185.88,195.88,184.17,197.89Z"/></clipPath><clipPath id="clip-path-33"><path class="cls-1" d="M218.78,161.17a18.33,18.33,0,0,1,8.5-4.51,15.1,15.1,0,0,1,4.6-.41,10.48,10.48,0,0,1,1.86.3,7.36,7.36,0,0,1,1.8.7c2.87,1.56,3.64,4.83-.53,9.08a456.51,456.51,0,0,0-37.42,40.09,6.22,6.22,0,0,0-2.69.06,468.91,468.91,0,0,1,38.68-41.57c5.47-5.17.85-8.16-5.23-7.31A16.92,16.92,0,0,0,219.2,162,457.1,457.1,0,0,0,184,199.44a2.52,2.52,0,0,1,.21-1.55c2.49-2.95,6.44-7.54,11.06-12.63,1.11-1.23,3.47-3.81,6.83-7.37.93-1,2.32-2.43,3.56-3.71.54-.56,1.27-1.29,1.81-1.86C207.46,172.28,212,167.62,218.78,161.17Z"/></clipPath><clipPath id="clip-path-34"><path class="cls-1" d="M186.84,227.18a5.16,5.16,0,0,1-1.68-1.48c-.26-.35-.45-.74-.68-1.11l-.45-.67a1,1,0,0,1-.08-.11c-.09-.17-.23-.32-.32-.5a2.39,2.39,0,0,1-.2-.72,1.54,1.54,0,0,0,.36.85h0a21.9,21.9,0,0,0,1.16,1.88A4.85,4.85,0,0,0,186.84,227.18Z"/></clipPath><clipPath id="clip-path-35"><path class="cls-1" d="M184.84,225.21a17,17,0,0,0-1-1.5,2.71,2.71,0,0,1-.28-.46,1.23,1.23,0,0,1-.08-.25,1.46,1.46,0,0,1-.05-.2.5.5,0,0,1,0-.12s0-.07,0-.09a7.66,7.66,0,0,1-.13-1.74,19.14,19.14,0,0,1,2.27,3.22c1,1.74,3,2.22,5.43,1.88,6-.84,14-6.85,11.56-11.2a27.28,27.28,0,0,0-7.66-8.27,6.22,6.22,0,0,1,2.69-.06,26.46,26.46,0,0,1,6.79,7.75c3,5.93-6.25,12.72-12.78,13.62a7.73,7.73,0,0,1-4.76-.61A5.12,5.12,0,0,1,184.84,225.21Z"/></clipPath><clipPath id="clip-path-36"><path class="cls-1" d="M183.79,223.43l0,0h0Z"/></clipPath><clipPath id="clip-path-37"><path class="cls-1" d="M143.93,260.07c-.34-.21-.79-.5-1.1-.74a3.58,3.58,0,0,1-.62-.61,4.84,4.84,0,0,1-.82-1.25,3.53,3.53,0,0,1-.28-.85,5.26,5.26,0,0,1,0-2.36,9,9,0,0,1,1.23-2.78c.17-.29.21-.36,7.65-10.25,3.56-4.74,7.2-9.54,7.23-9.58,3.85-5.07,6.06-7.92,8.56-11.14,1.22-1.56,2-2.55,2.82-3.58q1.38-1.77,2.79-3.52a.12.12,0,0,0,0,.2C162.3,225.05,152.61,238,142.88,251,139.84,255.31,141.06,258.51,143.93,260.07Z"/></clipPath><clipPath id="clip-path-38"><path class="cls-1" d="M142.72,251l7.29-9.72c2.07-2.77,5.31-7.07,7.23-9.58,4-5.32,6.51-8.5,8.56-11.14l2.82-3.58q1.38-1.77,2.79-3.52a3.78,3.78,0,0,1,1.6-.65c-10.29,12.85-20,25.8-29.69,38.78-3.95,5.27.84,8.39,6.33,7.62a12.19,12.19,0,0,0,8-4.69c8.43-11.24,16.82-22.47,25.6-33.62,0,1.26.19,2.42.52,2.6-7.67,9.76-16,21-24.48,32.21a13.78,13.78,0,0,1-9.1,5.33,10.25,10.25,0,0,1-6.31-.92,6.18,6.18,0,0,1-1.92-1.58,4.49,4.49,0,0,1-.94-2.06,7.74,7.74,0,0,1-.06-1.36,3.16,3.16,0,0,1,.14-.86,8.82,8.82,0,0,1,.46-1.34A15.21,15.21,0,0,1,142.72,251Z"/></clipPath><clipPath id="clip-path-39"><path class="cls-1" d="M171.44,213.6c-.84-.51-1-.6-2.94-1.75-2.72-1.61-3.65-2.21-4.73-2.9-1.41-.9-3-2-4.13-2.9a99.13,99.13,0,0,1-8.45-7.78c-5-4.89-8.31-7.84-12.9-10.36,8.2,4.47,13.3,11.39,20.09,17.12,4.23,3.57,9.53,6.4,13.07,8.58Z"/></clipPath><clipPath id="clip-path-40"><path class="cls-1" d="M158.33,205c-1.72-1.44-3.45-3.1-4.83-4.44-1.55-1.51-3.06-3.06-4.64-4.54-.68-.65-2.28-2.16-3.6-3.26a45.3,45.3,0,0,0-3.91-3c-.89-.62-1.35-.88-3.06-1.87a35.58,35.58,0,0,0-6.53-2.74,6.58,6.58,0,0,1-1.36-.56,5.56,5.56,0,0,1-2.65-3,3.29,3.29,0,0,1-.21-.76,10.24,10.24,0,0,1-.09-1.36,6.32,6.32,0,0,1,.3-1.57,8.2,8.2,0,0,1,2-3.15,14,14,0,0,1,4.2-3s5.8-2.87,12.06-5.82c3.54-1.67,9.43-4.37,12.13-5.59,8.22-3.68,16.48-7.2,24.56-10.45h0l2.47-1c1.26-.51,2-.82,5-2l5-1.92c6.5-2.48,11.86-4.41,12.44-4.62,6.48-2.32,9.87-3.47,10-3.51,7.32-2.46,7.32-2.46,10.09-3.35,1.5-.49,3.51-1.11,5-1.59l.5-.18.48-.14a15.39,15.39,0,0,1,2-.38c-.26,0-.45.52-.45,1.22a17.22,17.22,0,0,0-2.74.64q-25.15,7.92-49.82,17.9t-48.64,21.81c-7.17,3.53-6.77,9.12-2.23,10.52,12.75,3.93,18.66,13,27,20.07,4.12,3.49,9.37,6.3,14.28,9.31-1.18.29-1.87.66-1.57.84-1.19-.73-2.39-1.42-3.59-2.13-2.35-1.41-3.46-2.1-4.78-3A48.63,48.63,0,0,1,158.33,205Z"/></clipPath><clipPath id="clip-path-41"><path class="cls-1" d="M130.4,184.61c-4.43-2.41-4.05-9,3.7-12.8q24-11.85,48.74-21.85c16.47-6.65,33.08-12.68,49.94-18a13,13,0,0,1,3-.69.21.21,0,0,0-.15,0l-.7.1-.72.14a10.42,10.42,0,0,0-1.41.39l-.17.07h0c-4.33,1.35-6.72,2.14-10,3.24-3.88,1.27-10.51,3.55-17.53,6.1-8.18,3-15.37,5.82-17.39,6.61l-4.94,2h0c-1.64.68-3.3,1.33-4.94,2L172.79,154l-4.91,2.09c-5.87,2.56-5.87,2.56-9.78,4.3,0,0-4.43,2-9.71,4.46-2.09,1-3.56,1.67-4.84,2.28l-4.83,2.32c-1.45.69-3.37,1.63-4.81,2.35-.47.24-1.1.57-1.56.86-4,2.53-4.62,5.21-4.81,6.09a5.47,5.47,0,0,0,.29,3.09,5.58,5.58,0,0,0,2,2.42C130,184.37,130.23,184.5,130.4,184.61Z"/></clipPath></defs><g id="Layer_2" data-name="Layer 2"><g id="lines"><path class="cls-2" d="M254,145.45a3.93,3.93,0,0,0,.12-2c-.25-1.26-.5-2.52-.74-3.78a3.82,3.82,0,0,0-1.85-2.58,17.21,17.21,0,0,0-4.52-4.61,3.67,3.67,0,0,0-2.41-2,22.77,22.77,0,0,0-3.56-.82Q233.94,128,226.73,127a3.55,3.55,0,0,0-3.88,2.54l-8.35-2.42a120.33,120.33,0,0,0-20.66-6l-.12,0h0c-.34-.07-.67-.15-1-.21a3.22,3.22,0,0,0-1.65.09c-2.28-.83-4.57-1.63-6.9-2.36a3.65,3.65,0,0,0-4.47,1.55q-7.26-1.18-14.61-1.82c-1.45-.34-2.9-.68-4.36-1a4.15,4.15,0,0,0-3.17.51l-1.63-.08a3.94,3.94,0,0,0-2.15.51q-11.19-2.48-22.45-4.6a4.27,4.27,0,0,0-2-1c-2.91-.57-5.83-1.1-8.74-1.64a102.49,102.49,0,0,0-36-6.29h-.09l-7.29-1.14q-7.75-1.59-15.54-2.93a3.88,3.88,0,0,0-1.27,0L44.84,97.26a4.17,4.17,0,0,0-4.36,1.64l-16-2.56a3.44,3.44,0,0,0-1.68.14l-2.53-.27a3.4,3.4,0,0,0-1.79.3q-6.5-2.08-13.07-3.89C1.22,91.48-2.32,97.5,1.9,99.76L5,101.44a13.32,13.32,0,0,0,3.08,5.38,3.8,3.8,0,0,0,1.4,1,4.21,4.21,0,0,0,.79,2.75l6.47,9.18a4.13,4.13,0,0,0,.54,4l.42.59a4.48,4.48,0,0,0,.34,2.3A34.89,34.89,0,0,0,30.69,142a3.54,3.54,0,0,0,3.36.56c.41.49.84,1,1.29,1.43a3.79,3.79,0,0,0,1.82,1c1.43,1.54,2.9,3,4.39,4.52q6.74,8.17,12.93,16.77a122.94,122.94,0,0,0,9.29,13.54c1.46,1.86,3.9,1.55,5.5.28.56.64,1.12,1.28,1.69,1.91,3.72,6.36,8.59,11.83,15.12,15.37.78.72,1.56,1.44,2.35,2.15A110.86,110.86,0,0,0,112,229.89l.34.26a159,159,0,0,0,18.51,21.95q2.72,3.74,5.5,7.41a42.13,42.13,0,0,0,5.19,9.64,3.72,3.72,0,0,0,.55,4.32,259.37,259.37,0,0,1,26.39,36.29,4.19,4.19,0,0,0,6.46.83c.47.55.94,1.1,1.44,1.63a4,4,0,0,0,1.44,1,3.69,3.69,0,0,0,1,3.08l2.34,2.61a4,4,0,0,0,.78,1.38c.38.43.75.87,1.12,1.3a4.08,4.08,0,0,0,.41,4.43,257.29,257.29,0,0,0,26.3,30.14,4,4,0,0,0,3,1.13l3.28,4.1a3.66,3.66,0,0,0,1.93,1.35q2.69,3.44,5.35,6.89a3.8,3.8,0,0,0,1.58,1.23,198.83,198.83,0,0,0,19.07,19,4.13,4.13,0,0,0,1.51,2.62l25.93,21.58a3.27,3.27,0,0,0,1.18.64,4.45,4.45,0,0,0,1.49.75c.11.6.22,1.2.34,1.8a4,4,0,0,0,4.47,3c.2.41.39.82.6,1.22,2,3.93,8.62,1.81,7.47-2.65q-2.13-8.29-3.77-16.69a3.77,3.77,0,0,0,1.16-3.57l-3.46-19.58c-.07-1.12-.15-2.23-.23-3.34a3,3,0,0,0,.83-2.42c0-.36-.06-.71-.08-1.07h0l0-.23c-.29-3.49-.69-6.95-1.24-10.38q-.69-6.93-1-13.9a.48.48,0,0,0,0-.12c0-.06,0-.11,0-.16,0-.22,0-.43,0-.64a4.77,4.77,0,0,0-.1-.69q-.41-4.38-.92-8.74A146.67,146.67,0,0,0,276,310.83a3.66,3.66,0,0,0-.17-.59c-.1-1.24-.21-2.47-.32-3.71a3.1,3.1,0,0,0-.9-2c-.22-1.11-.43-2.22-.64-3.33a3.71,3.71,0,0,0,.52-2.9c-.31-1.47-.61-2.94-.92-4.41a3.83,3.83,0,0,0,1.5-3.85q-3.28-20.7-8.16-41.09a4.52,4.52,0,0,0,0-1.6c-2.06-11.28-4.15-22.55-6.73-33.71a87.26,87.26,0,0,0-2.81-25.45,3.49,3.49,0,0,0-.37-.89,219.81,219.81,0,0,0-3.08-25.83v0a4.33,4.33,0,0,0-.37-1.79c.05-.58.12-1.16.21-1.73l2.43-7.77A3.6,3.6,0,0,0,254,145.45Zm-5.35,228.23-4.25-4.75,4.44,4.55A1.8,1.8,0,0,0,248.66,373.68Zm-4-81.65,2.65,2.06.08.05,1.74,1.35,0,.27C247.69,294.51,246.19,293.26,244.69,292Zm20,77.12q-.18,1.5-.27,3c-.09-1.17-.17-2.33-.25-3.5l.52.46Z"/><path class="cls-3" d="M428.14,1.22a59.21,59.21,0,0,1-8.89,6.51,3.34,3.34,0,0,0-4.07.77c-.94,1-1.88,2-2.81,3a4.16,4.16,0,0,0-1.19,2.82c-.15.24-.31.48-.47.71a4.29,4.29,0,0,0-5,.06A125,125,0,0,0,381.93,40a3.74,3.74,0,0,0-2.73.26A73.12,73.12,0,0,0,363.45,51a3.61,3.61,0,0,0,.1,5.76l-.86.75C352.13,63,341.78,68.82,332.3,76.09A3.4,3.4,0,0,0,331,79.47a237,237,0,0,0-22.29,15.29,3.53,3.53,0,0,0-.83,4.68l-1.51,1.19a3.5,3.5,0,0,0-2.15.69l-.85.6h0q-11.43,7.89-22.24,16.57a4.32,4.32,0,0,0-2.23.83l-13,9.33a3.36,3.36,0,0,0-1,1.21c-2.53-2.71-8,.66-6.33,4.91.11.29.21.58.29.87a4.34,4.34,0,0,0-1.07,2c-.78,3.38.7,8,1.65,11.21a4.55,4.55,0,0,0,.8,1.55,120.72,120.72,0,0,0,1.65,15.08c0,1,0,2,0,3a3.7,3.7,0,0,0-.34,2.66c.19.88.37,1.76.56,2.64a107,107,0,0,0,2.61,17.41,108.29,108.29,0,0,0,5.34,37.27,4.32,4.32,0,0,0,1.33,2c0,7.88,1.58,15.74,3,23.48q3.42,18.31,7.87,36.42a4.51,4.51,0,0,0,.52,1.28c.37,2.71.76,5.41,1.15,8.11q.81,6.66,1.83,13.3a3.24,3.24,0,0,0-1.93,3.23A206.23,206.23,0,0,0,288.59,355c0,.79.08,1.58.14,2.37A99.37,99.37,0,0,0,291,391c0,.45,0,.91-.06,1.36A122,122,0,0,0,289.27,406a3.53,3.53,0,0,0,3.27,4,30.68,30.68,0,0,1-.54,6c-.35.72-.7,1.45-1,2.2a3.42,3.42,0,0,0,0,2.89c.59,3.07,5.26,4.61,7.31,1.44l7.53-11.6a4.23,4.23,0,0,0,.22-.42,4.14,4.14,0,0,0,1.41-1.7l4.24-9.12a4.23,4.23,0,0,0,1-1.37q2.52-5.56,5.05-11.12a4.12,4.12,0,0,0,1.06-1.69l.79-2.4,15-33.15a3.21,3.21,0,0,0-.32-3.41c.88-2.66,1.77-5.31,2.65-8a280.4,280.4,0,0,0,11.76-35.3,4.49,4.49,0,0,0,.13-1.29,4,4,0,0,0,1.23-1.91l.51-1.65a3.37,3.37,0,0,0,4.08-2.64l9.6-35.4a3.84,3.84,0,0,0-.18-2.47,337.66,337.66,0,0,1,8.36-33.37,3.3,3.3,0,0,0,3.44-2.68L381,199.79a4.15,4.15,0,0,0-.71-3.55q2.46-7.74,4.8-15.53a3.9,3.9,0,0,0-.28-3.16q5.61-15.36,10.14-31.06c3-6.3,5.94-12.59,8.45-19.08a77.94,77.94,0,0,0,4.13-16.35,4,4,0,0,0,1.31-2.56l1.83-15c.37-2.18.73-4.37,1.12-6.56,0-.14.12-.26.16-.41a218.7,218.7,0,0,0,5.3-23.1l3-12.95a4,4,0,0,0-.12-2.33q2.4-8.72,4.15-17.6l.22-.49a37.38,37.38,0,0,0,2.66-6.56,3.75,3.75,0,0,0-1-4c.27-.74.56-1.48.82-2.23.69-1.39,1.38-2.8,2.1-4.18a4.7,4.7,0,0,0,.3-.71q2.37-3,4.81-6C437.12,2.79,431.45-1.71,428.14,1.22Zm-150,134.94-.13-.35v0l1.65-.86Z"/><path class="cls-4" d="M411,.2l-1.6.54a3.51,3.51,0,0,0-1,.18l-16,5.58a4.33,4.33,0,0,0-1.41.82l-6.28,2.32a112.86,112.86,0,0,0-22.89,9.07,4.19,4.19,0,0,0-1.31,1.08q-6.9,2.14-13.67,4.74a3.87,3.87,0,0,0-3.08-.74l-.19,0a4.6,4.6,0,0,0-1.4-.08,178.48,178.48,0,0,0-23.07,4.06,3.94,3.94,0,0,0-2.45,1.67L304,32.34a3.68,3.68,0,0,0-3,3.14l-23.6,3.45Q265.48,40,253.54,40.51a4.48,4.48,0,0,0-1.7.42,4.29,4.29,0,0,0-2.33.17,32.38,32.38,0,0,1-6.86,1.59A3.4,3.4,0,0,0,240,44.63q-6.1,1.11-12.26,2a4,4,0,0,0-2.39-.21l-7.08,1.4-.29,0-2.77.32a3.77,3.77,0,0,0-1.72.58l-5.79,1.15q-10.44,1.8-20.78,4.1a3.7,3.7,0,0,0-3,3.18l-11.56,2.68a4,4,0,0,0-1.94,1q-18.1,3.39-36,8a2.43,2.43,0,0,0-.27,0l-13.22,1.43q-11.61.78-23.15,2.51a3.44,3.44,0,0,0-3,4.43,4.06,4.06,0,0,0-1,.07q-2.7.52-5.37,1.12a4.1,4.1,0,0,0-1.86-.07c-1.91.37-3.8.77-5.69,1.2l-14.35,3a48.36,48.36,0,0,0-6.3,1.32,4.34,4.34,0,0,0-1.43.7c-2.28.26-4.57.44-6.87.52a42.45,42.45,0,0,0-13.74-.34c-4.6.72-3.77,7.46.58,7.91a97.22,97.22,0,0,0,12.87.46c2.63.5,5.24,1.15,7.87,1.72,6.76,1.46,13.62,2.31,20.46,3.27l32.46,4.52c.55.16,1.11.3,1.67.45a4.17,4.17,0,0,0,.84.44,115.49,115.49,0,0,0,33.29,6.87c.71.06,1.42.13,2.13.17,4.41.28,10.32,1,14.69-.89l2,.52a59.94,59.94,0,0,0,12.92,1.8,4.87,4.87,0,0,0,1.06.19c4.12.2,8.27.41,12.39.85q4.16.78,8.35,1.34a52.26,52.26,0,0,1,5.15,1.39c7.62,2.52,14,8,22.32,8.24a4.12,4.12,0,0,0,3.48-1.87,31.77,31.77,0,0,0,9.42,2.24,7.1,7.1,0,0,0,3.4-.57,3.67,3.67,0,0,0,.77.26h.11a.8.8,0,0,0,0,.15c0,2,1.51,4.32,3.75,4.25l2.28-.08a4,4,0,0,0,4.13-3.19,3.4,3.4,0,0,0,2.44-1.84c5.88-2.85,11.33-7.14,16.44-11.57A113.37,113.37,0,0,0,297,96.51c1.41-.9,2.81-1.8,4.23-2.68a3.72,3.72,0,0,0,4.07.28,98.25,98.25,0,0,0,23.41-15.52,3.61,3.61,0,0,0,1.3-2.8l20.14-15.93q6.11-4.44,11.83-9.35a3.6,3.6,0,0,0,1.37-3l.16-.13,5.94-5.48q3.12-2.76,6.35-5.37c4.57-3.16,9.06-6.45,13.43-9.89A3.25,3.25,0,0,0,390.36,25a3.33,3.33,0,0,0,1.13-3.11,89.69,89.69,0,0,0,15-8.07,4.53,4.53,0,0,0,1.52-1.67l.27-.16a4.09,4.09,0,0,0,1.93-2.76l3.38-1.53C417.66,5.85,415.3-1.27,411,.2Z"/><g class="cls-5"><g class="cls-5"><g class="cls-6"><path class="cls-7" d="M235.14,132.51c9.26-1.3,10.2,8.06-.6,11.46q-20.64,6.51-41,14.39t-40.19,17.15c7.77,4.48,13.33,10.44,19.55,16.18a69.19,69.19,0,0,0,11,7.75A457.1,457.1,0,0,1,219.2,162a16.92,16.92,0,0,1,9.15-4.37c6.08-.85,10.7,2.14,5.23,7.31a468.91,468.91,0,0,0-38.68,41.57,27.28,27.28,0,0,1,7.66,8.27C205,219.1,197,225.11,191,226c-2.39.34-4.46-.14-5.43-1.88a19.14,19.14,0,0,0-2.27-3.22c-8.78,11.15-17.17,22.38-25.6,33.62a12.19,12.19,0,0,1-8,4.69c-5.49.77-10.28-2.35-6.33-7.62,9.73-13,19.4-25.93,29.69-38.78-4.91-3-10.16-5.82-14.28-9.31-8.36-7-14.27-16.14-27-20.07-4.54-1.4-4.94-7,2.23-10.52q24-11.82,48.64-21.81t49.82-17.9A17.22,17.22,0,0,1,235.14,132.51Z"/></g></g><g class="cls-5"><g class="cls-8"><path class="cls-7" d="M242.31,136.41c9.26-1.3,10.2,8.06-.6,11.46q-20.64,6.51-41,14.39t-40.19,17.15c7.77,4.48,13.32,10.44,19.55,16.18a69.19,69.19,0,0,0,11,7.75,456.94,456.94,0,0,1,35.23-37.47,17,17,0,0,1,9.16-4.37c6.08-.86,10.69,2.14,5.23,7.31a468.91,468.91,0,0,0-38.68,41.57,27.53,27.53,0,0,1,7.66,8.27c2.43,4.35-5.56,10.36-11.56,11.2-2.39.34-4.46-.15-5.43-1.88a19.31,19.31,0,0,0-2.27-3.22c-8.78,11.15-17.17,22.38-25.6,33.62a12.21,12.21,0,0,1-8.05,4.69c-5.49.77-10.28-2.35-6.33-7.62,9.73-13,19.4-25.93,29.68-38.78-4.9-3-10.15-5.82-14.27-9.31-8.36-7-14.28-16.14-27-20.07-4.53-1.4-4.93-7,2.23-10.52q24-11.82,48.65-21.81t49.82-17.9A17.22,17.22,0,0,1,242.31,136.41Z"/></g></g><g class="cls-5"><g class="cls-9"><g class="cls-5"><path class="cls-7" d="M242.31,136.41a2.42,2.42,0,0,0-.59-1.84c10.79-1.35,11.9,10.41-.39,14.43.33.18.5-.32.38-1.13C252.51,144.47,251.57,135.11,242.31,136.41Z"/><path class="cls-7" d="M242.23,135.6c10-1.33,11.06,9.25-.49,13"/><path class="cls-7" d="M242,134.94c10.58-1.34,11.67,10.09-.41,14"/><path class="cls-7" d="M248.67,138.05c.59-.5.8-1.05.47-1.23"/><path class="cls-7" d="M248.72,143.1c.65.22.9.25.57.07"/><path class="cls-7" d="M241.71,147.87c.12.81-.05,1.31-.38,1.13-13.69,4.35-27.37,9.12-40.88,14.36.33.18.46-.31.29-1.1Q221.05,154.37,241.71,147.87Z"/><path class="cls-7" d="M241.74,148.56q-20.6,6.51-40.93,14.37"/><path class="cls-7" d="M241.61,149c-13.71,4.35-27.39,9.11-40.9,14.36"/><path class="cls-7" d="M228,152.36c.15.8,0,1.31-.33,1.13"/><path class="cls-7" d="M214.32,157.15c.16.8,0,1.3-.31,1.12"/><path class="cls-7" d="M200.74,162.26c.17.79,0,1.28-.29,1.1-13.47,5.26-26.89,10.95-37.25,15.78.33.18-.85.3-2.65.27Q180.41,170.14,200.74,162.26Z"/><path class="cls-7" d="M200.81,162.93c-13.5,5.26-26.92,11-38.7,16.46"/><path class="cls-7" d="M200.71,163.33c-13.48,5.26-26.9,10.95-37.65,16"/><path class="cls-7" d="M187.24,167.67c.26.76.2,1.23-.13,1.05"/><path class="cls-7" d="M173.84,173.38c.68.56,1,.87.63.69"/></g><path class="cls-7" d="M247.43,135.38a7,7,0,0,1,1.21.86,12,12,0,0,1,.86,1,3.51,3.51,0,0,1,.33.6,4.34,4.34,0,0,1,.41,1.31,5.54,5.54,0,0,1-.06,2.14,7.55,7.55,0,0,1-1.47,3.06,16,16,0,0,1-1.78,1.81,12.16,12.16,0,0,1-1.24.89,17.39,17.39,0,0,1-3,1.53c-.95.39-2.26.77-3.23,1.08-2.85.91-13.05,4.2-24.59,8.36-8,2.89-14.2,5.32-14.23,5.34l-2,.79c-3,1.18-6.27,2.5-8,3.21,0,0-4.6,1.87-9.76,4.06,0,0-4.87,2.06-9.21,4-3.71,1.64-6.62,3-8.41,3.81a10.12,10.12,0,0,1-2.65.16q19.86-9.27,40.19-17.15t41-14.39c10.8-3.4,9.86-12.76.6-11.46a2.42,2.42,0,0,0-.59-1.84A9.45,9.45,0,0,1,247.43,135.38Z"/></g></g><g class="cls-5"><g class="cls-10"><g class="cls-5"><path class="cls-7" d="M242.31,136.41a2.42,2.42,0,0,0-.59-1.84c10.79-1.35,11.9,10.41-.39,14.43.33.18.5-.32.38-1.13C252.51,144.47,251.57,135.11,242.31,136.41Z"/><path class="cls-7" d="M248.67,138.05c.59-.5.8-1.05.47-1.23"/><path class="cls-7" d="M248.72,143.1c.65.22.9.25.57.07"/><path class="cls-7" d="M241.71,147.87c.12.81-.05,1.31-.38,1.13-13.69,4.35-27.37,9.12-40.88,14.36.33.18.46-.31.29-1.1Q221.05,154.37,241.71,147.87Z"/><path class="cls-7" d="M228,152.36c.15.8,0,1.31-.33,1.13"/><path class="cls-7" d="M214.32,157.15c.16.8,0,1.3-.31,1.12"/><path class="cls-7" d="M200.74,162.26c.17.79,0,1.28-.29,1.1-13.47,5.26-26.89,10.95-37.25,15.78.33.18-.85.3-2.65.27Q180.41,170.14,200.74,162.26Z"/><path class="cls-7" d="M187.24,167.67c.26.76.2,1.23-.13,1.05"/><path class="cls-7" d="M173.84,173.38c.68.56,1,.87.63.69"/></g><path class="cls-7" d="M241.51,149a17.15,17.15,0,0,0,5.31-2.75,9.25,9.25,0,0,0,3-3.9,5.81,5.81,0,0,0,.2-3.94,5.23,5.23,0,0,0-1-1.73,4.64,4.64,0,0,0-.49-.5c-.34-.27-.81-.6-1.17-.83,4.91,2.67,3.47,10.49-6.1,13.62-13.69,4.35-27.37,9.12-40.88,14.36s-26.89,10.95-37.25,15.78c.08,0,.08.08,0,.11,5.73-2.65,11.66-5.28,17.62-7.8,4-1.71,7.56-3.17,11.76-4.87,4-1.6,8-3.18,8-3.19,1.49-.58,5.44-2.11,10.16-3.85,4.14-1.52,8.36-3,10.21-3.67,4.09-1.43,8.12-2.8,12.3-4.18h0l4.1-1.34,2.06-.66C240.07,149.49,240.9,149.24,241.51,149Z"/></g></g><g class="cls-5"><g class="cls-11"><g class="cls-5"><path class="cls-7" d="M160.55,179.41c1.8,0,3-.09,2.65-.27,5.45,3.15,11.07,9.18,17.29,14.91.33.18.15.87-.39,1.54C173.87,189.85,168.32,183.89,160.55,179.41Z"/><path class="cls-7" d="M162.11,179.39c6.6,3.81,12.18,9.81,18.41,15.54"/><path class="cls-7" d="M163.06,179.3c5.77,3.33,11.37,9.34,17.59,15.08"/><path class="cls-7" d="M167.69,184.32c.9-.48,1.36-1,1-1.19"/><path class="cls-7" d="M174,189.84c.59-.65.79-1.33.46-1.51"/><path class="cls-7" d="M180.1,195.59c.54-.67.72-1.36.39-1.54a62.91,62.91,0,0,0,9.9,7,3.55,3.55,0,0,1,.74,2.25A69.19,69.19,0,0,1,180.1,195.59Z"/><path class="cls-7" d="M180.52,194.93A65.5,65.5,0,0,0,191,202.32"/><path class="cls-7" d="M180.65,194.38a65,65,0,0,0,10.06,7.14"/><path class="cls-7" d="M183.49,198.36c.47-.72.59-1.45.26-1.63"/><path class="cls-7" d="M187.21,200.91c.31-.83.29-1.64,0-1.82"/></g><path class="cls-7" d="M163.2,179.14a39.66,39.66,0,0,1,5.84,4.25c2.11,1.78,4.77,4.31,7.84,7.25,1.73,1.65,3.11,2.94,3.66,3.45.79.71,1.6,1.39,2.41,2,1.64,1.27,3.11,2.25,4.07,2.88,1.25.81,2.46,1.55,3.38,2.11a3.57,3.57,0,0,1,.73,2.24,69.19,69.19,0,0,1-11-7.75c-6.23-5.74-11.78-11.7-19.55-16.18C162.35,179.44,163.53,179.32,163.2,179.14Z"/></g></g><g class="cls-5"><g class="cls-12"><g class="cls-5"><path class="cls-7" d="M160.55,179.41c1.8,0,3-.09,2.65-.27,5.45,3.15,11.07,9.18,17.29,14.91.33.18.15.87-.39,1.54C173.87,189.85,168.32,183.89,160.55,179.41Z"/><path class="cls-7" d="M167.69,184.32c.9-.48,1.36-1,1-1.19"/><path class="cls-7" d="M174,189.84c.59-.65.79-1.33.46-1.51"/><path class="cls-7" d="M180.1,195.59c.54-.67.72-1.36.39-1.54a62.91,62.91,0,0,0,9.9,7,3.55,3.55,0,0,1,.74,2.25A69.19,69.19,0,0,1,180.1,195.59Z"/><path class="cls-7" d="M183.49,198.36c.47-.72.59-1.45.26-1.63"/><path class="cls-7" d="M187.21,200.91c.31-.83.29-1.64,0-1.82"/></g><path class="cls-7" d="M180.54,194.09c-1-1-1-1-6.32-6-2.74-2.61-4.15-3.82-5.17-4.7a41.7,41.7,0,0,0-5.85-4.26c5.45,3.15,11.07,9.18,17.29,14.91a62.91,62.91,0,0,0,9.9,7h0A64.17,64.17,0,0,1,180.54,194.09Z"/></g></g><g class="cls-5"><g class="cls-13"><g class="cls-5"><path class="cls-7" d="M191.13,203.34a3.55,3.55,0,0,0-.74-2.25,455.51,455.51,0,0,1,34.54-36.64,6.46,6.46,0,0,1,1.43,1.42A456.94,456.94,0,0,0,191.13,203.34Z"/><path class="cls-7" d="M191,202.32a455.89,455.89,0,0,1,34.88-37"/><path class="cls-7" d="M190.71,201.52a454.41,454.41,0,0,1,34.64-36.76"/><path class="cls-7" d="M202.12,190.74a4.78,4.78,0,0,0-1.28-1.61"/><path class="cls-7" d="M213.82,178.25a6.6,6.6,0,0,0-1.45-1.41"/><path class="cls-7" d="M226.36,165.87a6.46,6.46,0,0,0-1.43-1.42,18.57,18.57,0,0,1,10-4.79,2.43,2.43,0,0,1,.6,1.84A17,17,0,0,0,226.36,165.87Z"/><path class="cls-7" d="M225.86,165.27a17.78,17.78,0,0,1,9.58-4.58"/><path class="cls-7" d="M225.35,164.76a18.31,18.31,0,0,1,9.87-4.73"/><path class="cls-7" d="M229.26,163.7a3.89,3.89,0,0,0-1.14-1.64"/><path class="cls-7" d="M232.39,162.25a2.94,2.94,0,0,0-.86-1.77"/><path class="cls-7" d="M235.52,161.5a2.43,2.43,0,0,0-.6-1.84c6.87-1.09,12.67,3.18,6.07,9.92.33.18.22-.17-.24-.77C246.21,163.64,241.6,160.64,235.52,161.5Z"/><path class="cls-7" d="M235.44,160.69c6.48-1,11.69,2.67,5.65,8.63"/><path class="cls-7" d="M235.22,160c6.76-1.05,12.4,3,6,9.56"/><path class="cls-7" d="M240.79,161.87c.45-.72.55-1.44.22-1.62"/><path class="cls-7" d="M243.17,164.43c.72-.18,1-.48.7-.66"/><path class="cls-7" d="M240.75,168.81c.46.6.57.95.24.77a456.71,456.71,0,0,0-37.43,40.09c.33.18-.34.5-1.49.71A468.91,468.91,0,0,1,240.75,168.81Z"/><path class="cls-7" d="M241.09,169.32A461.11,461.11,0,0,0,203,210.14"/><path class="cls-7" d="M241.18,169.59a456.85,456.85,0,0,0-37.6,40.3"/><path class="cls-7" d="M226.9,182.53c.52.54.67.84.34.66"/><path class="cls-7" d="M214.08,196.39c.7.33,1,.45.67.27"/></g><path class="cls-7" d="M241.51,160.5a10.36,10.36,0,0,1,1,.7,3.92,3.92,0,0,1,.6.62,3.83,3.83,0,0,1,.83,1.8,4.24,4.24,0,0,1-.12,1.86,13,13,0,0,1-.73,1.67,7.43,7.43,0,0,1-.58.88c-.39.49-.94,1.13-1.38,1.58-.61.64-1.5,1.43-2.14,2-3.82,3.64-10.05,9.78-18,18.37-2.58,2.77-9.42,10.24-17.38,19.83a3.42,3.42,0,0,1-1.54.53,468.91,468.91,0,0,1,38.68-41.57c5.46-5.17.85-8.17-5.23-7.31a17,17,0,0,0-9.16,4.37,456.94,456.94,0,0,0-35.23,37.47,3.55,3.55,0,0,0-.74-2.25,455.51,455.51,0,0,1,34.54-36.64,18.57,18.57,0,0,1,10-4.79A10.65,10.65,0,0,1,241.51,160.5Z"/></g></g><g class="cls-5"><g class="cls-14"><g class="cls-5"><path class="cls-7" d="M235.52,161.5a2.43,2.43,0,0,0-.6-1.84c6.87-1.09,12.67,3.18,6.07,9.92.33.18.22-.17-.24-.77C246.21,163.64,241.6,160.64,235.52,161.5Z"/><path class="cls-7" d="M243.17,164.43c.72-.18,1-.48.7-.66"/><path class="cls-7" d="M240.75,168.81c.46.6.57.95.24.77a456.71,456.71,0,0,0-37.43,40.09c.33.18-.34.5-1.49.71A468.91,468.91,0,0,1,240.75,168.81Z"/><path class="cls-7" d="M226.9,182.53c.52.54.67.84.34.66"/><path class="cls-7" d="M214.08,196.39c.7.33,1,.45.67.27"/></g><path class="cls-7" d="M241.16,169.61c-.62.63-1.5,1.43-2.14,2-4.84,4.61-11.55,11.44-14.22,14.3-.57.62-1.35,1.43-1.92,2-2.4,2.57-2.44,2.62-3.76,4.06-1.63,1.78-3.41,3.75-5.42,6-.77.86-3.06,3.48-3.48,4-3.91,4.57-3.91,4.57-6.61,7.8.06-.07,0-.13-.05-.18A456.71,456.71,0,0,1,241,169.58c4.16-4.25,3.39-7.52.52-9.08a5.1,5.1,0,0,1,1.86,1.63,3.92,3.92,0,0,1,.65,2,4.34,4.34,0,0,1-.17,1.37,11.37,11.37,0,0,1-.73,1.68A12.54,12.54,0,0,1,241.16,169.61Z"/></g></g><g class="cls-5"><g class="cls-15"><g class="cls-5"><path class="cls-7" d="M202.07,210.38c1.15-.21,1.82-.53,1.49-.71a26.31,26.31,0,0,1,6.79,7.75c.33.18.05.73-.62,1.23A27.53,27.53,0,0,0,202.07,210.38Z"/><path class="cls-7" d="M203,210.14a26.77,26.77,0,0,1,7.22,8"/><path class="cls-7" d="M203.58,209.89a26.65,26.65,0,0,1,6.91,7.81"/><path class="cls-7" d="M205.06,212.87c.75-.52,1.08-1.08.75-1.26"/><path class="cls-7" d="M207.65,215.61c.63-.58.88-1.19.55-1.37"/><path class="cls-7" d="M209.73,218.65c.67-.5,1-1.05.62-1.23,3,5.93-6.25,12.71-12.78,13.62.33.18.6-.35.6-1.19C204.17,229,212.16,223,209.73,218.65Z"/><path class="cls-7" d="M210.26,218.15c2.72,5.14-5.91,11.55-12.17,12.42"/><path class="cls-7" d="M210.49,217.7c2.91,5.72-6.16,12.4-12.62,13.3"/><path class="cls-7" d="M209.15,223.3c.7.23,1,.26.67.08"/><path class="cls-7" d="M204.37,227.54c.38.67.41,1.06.08.88"/><path class="cls-7" d="M198.17,229.85c0,.84-.27,1.37-.6,1.19-2.75.39-5.34-.18-6.65-2.48.33.18,1.15-.09,1.82-.59C193.71,229.7,195.78,230.19,198.17,229.85Z"/><path class="cls-7" d="M198.09,230.57c-2.57.37-4.91-.16-6.05-2.18"/><path class="cls-7" d="M197.87,231c-2.69.38-5.22-.18-6.48-2.4"/><path class="cls-7" d="M195.92,229.9c-.23.83-.67,1.36-1,1.18"/><path class="cls-7" d="M194.05,229.3c-.46.74-1.1,1.19-1.43,1"/><path class="cls-7" d="M192.74,228c-.67.5-1.49.77-1.82.59-.59-1.07-1.43-2.08-1.13-1.86s.64-.69.68-1.95A19.31,19.31,0,0,1,192.74,228Z"/><path class="cls-7" d="M192,228.39a24.1,24.1,0,0,0-1.69-2.54"/><path class="cls-7" d="M191.39,228.6c-.6-1.08-1.43-2.1-1.28-2"/><path class="cls-7" d="M192.06,226.85c-.64.57-1.43.88-1.76.7"/><path class="cls-7" d="M191.3,225.78c-.49.77-1.15,1.25-1.48,1.07"/></g><path class="cls-7" d="M203.59,209.69a27.07,27.07,0,0,1,6.26,6.81A6.65,6.65,0,0,1,211,219a5.38,5.38,0,0,1,0,2.22,8.06,8.06,0,0,1-1.75,3.42,16.63,16.63,0,0,1-3.22,3,20,20,0,0,1-8.22,3.49,7.79,7.79,0,0,1-4.91-.64,4.8,4.8,0,0,1-1.9-1.87c-.56-1-1.35-2-1.16-1.88s.35-.11.44-.3a5.4,5.4,0,0,0,.27-1.63,19.31,19.31,0,0,1,2.27,3.22c1,1.73,3,2.22,5.43,1.88,6-.84,14-6.85,11.56-11.2a27.53,27.53,0,0,0-7.66-8.27C203.18,210.18,203.84,209.87,203.59,209.69Z"/></g></g><g class="cls-5"><g class="cls-16"><g class="cls-5"><path class="cls-7" d="M202.07,210.38c1.15-.21,1.82-.53,1.49-.71a26.31,26.31,0,0,1,6.79,7.75c.33.18.05.73-.62,1.23A27.53,27.53,0,0,0,202.07,210.38Z"/><path class="cls-7" d="M205.06,212.87c.75-.52,1.08-1.08.75-1.26"/><path class="cls-7" d="M207.65,215.61c.63-.58.88-1.19.55-1.37"/><path class="cls-7" d="M209.73,218.65c.67-.5,1-1.05.62-1.23,3,5.93-6.25,12.71-12.78,13.62.33.18.6-.35.6-1.19C204.17,229,212.16,223,209.73,218.65Z"/><path class="cls-7" d="M209.15,223.3c.7.23,1,.26.67.08"/><path class="cls-7" d="M204.37,227.54c.38.67.41,1.06.08.88"/><path class="cls-7" d="M198.17,229.85c0,.84-.27,1.37-.6,1.19-2.75.39-5.34-.18-6.65-2.48.33.18,1.15-.09,1.82-.59C193.71,229.7,195.78,230.19,198.17,229.85Z"/><path class="cls-7" d="M195.92,229.9c-.23.83-.67,1.36-1,1.18"/></g><path class="cls-7" d="M210.47,217.53a23.14,23.14,0,0,0-3-4.22,27,27,0,0,0-3.86-3.62l0,0a26.31,26.31,0,0,1,6.79,7.75c3,5.93-6.25,12.71-12.78,13.62a7.71,7.71,0,0,1-4.75-.61,6.57,6.57,0,0,0,2.46.72,11.31,11.31,0,0,0,3.41-.25,18.24,18.24,0,0,0,3.12-1,21.32,21.32,0,0,0,3.13-1.64,20,20,0,0,0,2.75-2.09,13.18,13.18,0,0,0,2.08-2.4,5.8,5.8,0,0,0,.7-6.24Z"/></g></g><g class="cls-5"><g class="cls-17"><g class="cls-5"><path class="cls-7" d="M192.74,228c-.67.5-1.49.77-1.82.59-.59-1.07-1.43-2.08-1.13-1.86s.64-.69.68-1.95A19.31,19.31,0,0,1,192.74,228Z"/><path class="cls-7" d="M191.39,228.6c-.6-1.08-1.43-2.1-1.28-2"/></g><path class="cls-7" d="M190.2,226.38c-.12.27-.26.4-.41.32l0,0C189.87,226.72,190,226.71,190.2,226.38Z"/></g></g><g class="cls-5"><g class="cls-18"><g class="cls-5"><path class="cls-7" d="M190.47,224.75c0,1.26-.35,2.13-.68,1.95-7.67,9.76-16,21-24.48,32.21.33.18.14-.06-.44-.54C173.3,247.13,181.69,235.9,190.47,224.75Z"/><path class="cls-7" d="M190.35,225.85c-8.22,10.45-16.61,21.68-25,32.91"/><path class="cls-7" d="M190.11,226.56c-7.83,9.94-16.21,21.17-24.64,32.4"/><path class="cls-7" d="M181.8,235.92c.39.72.44,1.15.11,1"/><path class="cls-7" d="M173.31,247.14c.54.51.72.78.39.6"/><path class="cls-7" d="M164.87,258.37c.58.48.77.72.44.54a13.76,13.76,0,0,1-9.09,5.33c.33.18.6-.35.6-1.18A12.21,12.21,0,0,0,164.87,258.37Z"/><path class="cls-7" d="M165.32,258.76a12.94,12.94,0,0,1-8.59,5"/><path class="cls-7" d="M165.47,259a13.54,13.54,0,0,1-8.95,5.24"/><path class="cls-7" d="M162.49,260.74c.39.67.43,1.07.1.89"/><path class="cls-7" d="M159.72,262.28c.19.79.07,1.28-.26,1.1"/><path class="cls-7" d="M156.82,263.06c0,.83-.27,1.36-.6,1.18-6.21.94-12.21-3.11-7.37-10a14,14,0,0,1,1.64,1.19C146.54,260.71,151.33,263.83,156.82,263.06Z"/><path class="cls-7" d="M156.73,263.77c-5.85.86-11.25-2.73-6.85-8.81"/><path class="cls-7" d="M156.52,264.2c-6.11.92-12-3-7.22-9.67"/><path class="cls-7" d="M151.86,262.6c-.44.73-1.06,1.18-1.39,1"/><path class="cls-7" d="M149.15,259.93a2.94,2.94,0,0,1-1.92.18"/><path class="cls-7" d="M150.49,255.44a14,14,0,0,0-1.64-1.19c9.74-13,19.42-25.95,28.58-37.39a5.91,5.91,0,0,0,2.74-.2C169.89,229.51,160.22,242.46,150.49,255.44Z"/><path class="cls-7" d="M149.88,255c9.73-13,19.41-26,29.13-38.08"/><path class="cls-7" d="M149.3,254.53c9.73-13,19.41-25.95,28.72-37.58"/><path class="cls-7" d="M160.22,242.47a16.18,16.18,0,0,0-1.67-1.15"/><path class="cls-7" d="M170.07,229.54a17.59,17.59,0,0,1-2-.79"/></g><path class="cls-7" d="M190.07,226.61c-2.37,3-3.89,5-7.16,9.23-.81,1.07-1.62,2.14-2.44,3.2L178,242.29l-6.23,8.28-1.26,1.67-1.26,1.68-2.52,3.36c-.38.51-.88,1.19-1.27,1.69a13.86,13.86,0,0,1-10.85,5.44,11.47,11.47,0,0,1-1.8-.13,9.11,9.11,0,0,1-2.92-1c-2.86-1.56-4.08-4.76-1.05-9.07,9.74-13,19.42-25.95,28.58-37.39a5.91,5.91,0,0,0,2.74-.2c-10.28,12.85-19.95,25.8-29.68,38.78-4,5.27.84,8.39,6.33,7.62a12.21,12.21,0,0,0,8.05-4.69c8.43-11.24,16.82-22.47,25.6-33.62A3.8,3.8,0,0,1,190.07,226.61Z"/></g></g><g class="cls-5"><g class="cls-19"><g class="cls-5"><path class="cls-7" d="M190.47,224.75c0,1.26-.35,2.13-.68,1.95-7.67,9.76-16,21-24.48,32.21.33.18.14-.06-.44-.54C173.3,247.13,181.69,235.9,190.47,224.75Z"/><path class="cls-7" d="M181.8,235.92c.39.72.44,1.15.11,1"/><path class="cls-7" d="M173.31,247.14c.54.51.72.78.39.6"/><path class="cls-7" d="M164.87,258.37c.58.48.77.72.44.54a13.76,13.76,0,0,1-9.09,5.33c.33.18.6-.35.6-1.18A12.21,12.21,0,0,0,164.87,258.37Z"/><path class="cls-7" d="M162.49,260.74c.39.67.43,1.07.1.89"/><path class="cls-7" d="M159.72,262.28c.19.79.07,1.28-.26,1.1"/><path class="cls-7" d="M156.82,263.06c0,.83-.27,1.36-.6,1.18-6.21.94-12.21-3.11-7.37-10a14,14,0,0,1,1.64,1.19C146.54,260.71,151.33,263.83,156.82,263.06Z"/><path class="cls-7" d="M151.86,262.6c-.44.73-1.06,1.18-1.39,1"/></g><path class="cls-7" d="M165.47,259a13.81,13.81,0,0,1-7.14,4.89,12.73,12.73,0,0,1-2.08.43,12.19,12.19,0,0,1-2.73.07,10.67,10.67,0,0,1-1.77-.31,8.31,8.31,0,0,1-1.85-.73,10.27,10.27,0,0,0,6.32.92,13.76,13.76,0,0,0,9.09-5.33c8.43-11.22,16.81-22.45,24.48-32.21.1.05.19,0,.28-.09-2.73,3.46-5.81,7.48-5.94,7.65s-2.67,3.48-6.12,8c0,0-3.57,4.73-6.23,8.28Z"/></g></g><g class="cls-5"><g class="cls-20"><g class="cls-5"><path class="cls-7" d="M180.17,216.66a5.91,5.91,0,0,1-2.74.2c-3.55-2.18-8.85-5-13.08-8.58.33.17,1-.24,1.55-.93C170,210.84,175.27,213.65,180.17,216.66Z"/><path class="cls-7" d="M179,216.88c-4.22-2.59-9.49-5.41-13.67-8.94"/><path class="cls-7" d="M178,217c-3.73-2.29-9-5.12-13.23-8.68"/><path class="cls-7" d="M175.21,213.68c-.67.61-1.48,1-1.81.78"/><path class="cls-7" d="M170.34,210.65c-.5.71-1.18,1.14-1.51,1"/><path class="cls-7" d="M165.9,207.35c-.53.69-1.22,1.1-1.55.93-8.42-7.11-14.24-16.06-26.61-19.86.33.18.84-.33,1.13-1.14C151.62,191.21,157.54,200.3,165.9,207.35Z"/><path class="cls-7" d="M165.34,207.94c-8.39-7.08-14.26-16.1-26.82-20"/><path class="cls-7" d="M164.79,208.27c-8.42-7.1-14.25-16.07-26.68-19.89"/><path class="cls-7" d="M158,199.88c-.53.7-1.22,1.11-1.55.93"/><path class="cls-7" d="M149.69,192.66c-.46.74-1.1,1.2-1.43,1"/><path class="cls-7" d="M138.87,187.28c-.29.81-.8,1.32-1.13,1.14-5.8-1.71-6.14-9.22,2.33-13.36a3.39,3.39,0,0,1,1,1.7C133.94,180.29,134.34,185.88,138.87,187.28Z"/><path class="cls-7" d="M138.52,188c-5.17-1.55-5.54-8.11,2.28-11.95"/><path class="cls-7" d="M138.11,188.38c-5.62-1.66-6-8.91,2.32-13"/><path class="cls-7" d="M135.84,184.72a2.8,2.8,0,0,1-2,.4"/><path class="cls-7" d="M136.33,180.75a16.37,16.37,0,0,1-1.91-.77"/><path class="cls-7" d="M141.1,176.76a3.39,3.39,0,0,0-1-1.7q24-11.85,48.75-21.85a3.18,3.18,0,0,1,.93,1.74Q165.11,164.91,141.1,176.76Z"/><path class="cls-7" d="M140.8,176q24-11.84,48.7-21.83"/><path class="cls-7" d="M140.43,175.41q24-11.85,48.73-21.85"/><path class="cls-7" d="M157.17,169.08a3.42,3.42,0,0,0-1-1.72"/><path class="cls-7" d="M173.39,161.8a3.38,3.38,0,0,0-1-1.74"/><path class="cls-7" d="M189.75,155a3.18,3.18,0,0,0-.93-1.74q24.69-10,49.93-18a2.84,2.84,0,0,1,.82,1.79Q214.42,145,189.75,155Z"/><path class="cls-7" d="M189.5,154.19q24.66-10,49.88-17.93"/><path class="cls-7" d="M189.16,153.56q24.69-10,49.92-17.94"/><path class="cls-7" d="M206.24,148.53a3.09,3.09,0,0,0-.9-1.76"/><path class="cls-7" d="M222.85,142.56a3.06,3.06,0,0,0-.88-1.78"/><path class="cls-7" d="M239.57,137.05a2.84,2.84,0,0,0-.82-1.79,12.43,12.43,0,0,1,3-.69,2.42,2.42,0,0,1,.59,1.84A17.22,17.22,0,0,0,239.57,137.05Z"/><path class="cls-7" d="M239.38,136.26a15.35,15.35,0,0,1,2.85-.66"/><path class="cls-7" d="M239.08,135.62a13.32,13.32,0,0,1,2.94-.68"/><path class="cls-7" d="M240.53,136.77a2.72,2.72,0,0,0-.72-1.85"/><path class="cls-7" d="M241.44,136.56a2.55,2.55,0,0,0-.65-1.85"/></g><path class="cls-7" d="M144.27,191.16a34,34,0,0,0-3.18-1.52c-1-.41-2.3-.86-3.3-1.19a7.29,7.29,0,0,1-1.41-.59c-4.43-2.41-4.06-9,3.69-12.8q24-11.85,48.75-21.85t49.93-18a12.43,12.43,0,0,1,3-.69,2.42,2.42,0,0,1,.59,1.84,17.22,17.22,0,0,0-2.74.64Q214.42,145,189.75,155T141.1,176.76c-7.16,3.53-6.76,9.12-2.23,10.52,12.75,3.93,18.67,13,27,20.07,4.12,3.49,9.37,6.3,14.27,9.31a5.91,5.91,0,0,1-2.74.2c-3.55-2.18-8.85-5-13.08-8.58C157.57,202.55,152.47,195.63,144.27,191.16Z"/></g></g><g class="cls-5"><g class="cls-21"><g class="cls-5"><path class="cls-7" d="M165.9,207.35c-.53.69-1.22,1.1-1.55.93-8.42-7.11-14.24-16.06-26.61-19.86.33.18.84-.33,1.13-1.14C151.62,191.21,157.54,200.3,165.9,207.35Z"/><path class="cls-7" d="M138.87,187.28c-.29.81-.8,1.32-1.13,1.14-5.8-1.71-6.14-9.22,2.33-13.36a3.39,3.39,0,0,1,1,1.7C133.94,180.29,134.34,185.88,138.87,187.28Z"/></g><path class="cls-7" d="M137.79,188.45a7.84,7.84,0,0,1-1.41-.59,6.16,6.16,0,0,0,1.36.56,35.87,35.87,0,0,1,6.53,2.74A34.74,34.74,0,0,0,137.79,188.45Z"/></g></g><g class="cls-5"><g class="cls-22"><g class="cls-5"><path class="cls-7" d="M241.72,134.57l-6-3.25c10.8-1.35,11.91,10.41-.38,14.43l6,3.25C253.62,145,252.51,133.22,241.72,134.57Z"/><line class="cls-7" x1="249.14" y1="136.82" x2="243.17" y2="133.57"/><line class="cls-7" x1="249.29" y1="143.17" x2="243.32" y2="139.92"/><path class="cls-7" d="M241.33,149l-6-3.25c-13.7,4.35-27.37,9.12-40.88,14.36l6,3.25C214,158.12,227.64,153.35,241.33,149Z"/><line class="cls-7" x1="227.65" y1="153.49" x2="221.68" y2="150.24"/><line class="cls-7" x1="214.01" y1="158.27" x2="208.04" y2="155.02"/><path class="cls-7" d="M200.45,163.36l-6-3.25c-13.47,5.26-26.89,10.95-37.25,15.78l6,3.25C173.56,174.31,187,168.62,200.45,163.36Z"/><line class="cls-7" x1="187.11" y1="168.72" x2="181.14" y2="165.47"/><line class="cls-7" x1="174.47" y1="174.07" x2="168.5" y2="170.82"/></g><path class="cls-7" d="M247.43,135.38c4.91,2.67,3.47,10.49-6.1,13.62-13.69,4.35-27.37,9.12-40.88,14.36s-26.89,10.95-37.25,15.78l-6-3.25c10.36-4.83,23.78-10.52,37.25-15.78s27.18-10,40.88-14.36c9.56-3.13,11-10.95,6.09-13.62Z"/></g></g><g class="cls-5"><g class="cls-23"><g class="cls-5"><path class="cls-7" d="M241.72,134.57l-6-3.25c10.8-1.35,11.91,10.41-.38,14.43l6,3.25C253.62,145,252.51,133.22,241.72,134.57Z"/></g><path class="cls-7" d="M241.45,132.13l6,3.25a9.45,9.45,0,0,0-5.71-.81l-6-3.25A9.43,9.43,0,0,1,241.45,132.13Z"/></g></g><g class="cls-5"><g class="cls-24"><g class="cls-5"><path class="cls-7" d="M163.2,179.14l-6-3.25c5.45,3.15,11.06,9.18,17.28,14.91l6,3.25C174.27,188.32,168.65,182.29,163.2,179.14Z"/><line class="cls-7" x1="168.72" y1="183.13" x2="162.75" y2="179.88"/><line class="cls-7" x1="174.45" y1="188.33" x2="168.48" y2="185.08"/><path class="cls-7" d="M180.49,194.05l-6-3.25a63.84,63.84,0,0,0,9.9,7l6,3.25A62.91,62.91,0,0,1,180.49,194.05Z"/><line class="cls-7" x1="183.75" y1="196.73" x2="177.78" y2="193.48"/><line class="cls-7" x1="187.17" y1="199.09" x2="181.2" y2="195.84"/></g><path class="cls-7" d="M163.2,179.14c5.45,3.15,11.07,9.18,17.29,14.91a62.91,62.91,0,0,0,9.9,7l-6-3.25a63.84,63.84,0,0,1-9.9-7c-6.22-5.73-11.83-11.76-17.28-14.91C159,176.87,161.42,178.14,163.2,179.14Z"/></g></g><g class="cls-5"><g class="cls-25"><g class="cls-5"><path class="cls-7" d="M234.92,159.66l-6-3.25c6.86-1.09,12.66,3.19,6.06,9.92l6,3.25C247.59,162.84,241.79,158.57,234.92,159.66Z"/><line class="cls-7" x1="243.87" y1="163.77" x2="237.9" y2="160.52"/><path class="cls-7" d="M241,169.58l-6-3.25a456.51,456.51,0,0,0-37.42,40.09l6,3.25A456.71,456.71,0,0,1,241,169.58Z"/><line class="cls-7" x1="227.24" y1="183.19" x2="221.26" y2="179.94"/><line class="cls-7" x1="214.75" y1="196.66" x2="208.77" y2="193.41"/></g><path class="cls-7" d="M241.51,160.5c2.87,1.56,3.64,4.83-.52,9.08a456.71,456.71,0,0,0-37.43,40.09l-6-3.25A456.51,456.51,0,0,1,235,166.33c4.17-4.25,3.4-7.52.53-9.08Z"/></g></g><g class="cls-5"><g class="cls-26"><g class="cls-5"><path class="cls-7" d="M190.39,201.09l-6-3.25A455.73,455.73,0,0,1,219,161.2l6,3.25A455.51,455.51,0,0,0,190.39,201.09Z"/><line class="cls-7" x1="200.84" y1="189.13" x2="194.87" y2="185.88"/><line class="cls-7" x1="212.37" y1="176.84" x2="206.39" y2="173.59"/><path class="cls-7" d="M224.93,164.45l-6-3.25a18.57,18.57,0,0,1,10-4.79l6,3.25A18.57,18.57,0,0,0,224.93,164.45Z"/><line class="cls-7" x1="228.12" y1="162.06" x2="222.14" y2="158.81"/><line class="cls-7" x1="231.53" y1="160.48" x2="225.56" y2="157.23"/><path class="cls-7" d="M234.92,159.66l-6-3.25c6.86-1.09,12.66,3.19,6.06,9.92l6,3.25C247.59,162.84,241.79,158.57,234.92,159.66Z"/><line class="cls-7" x1="241.01" y1="160.25" x2="235.04" y2="157"/></g><path class="cls-7" d="M235.54,157.25l6,3.25a10.65,10.65,0,0,0-6.59-.84,18.57,18.57,0,0,0-10,4.79,455.51,455.51,0,0,0-34.54,36.64l-6-3.25A455.73,455.73,0,0,1,219,161.2a18.57,18.57,0,0,1,10-4.79A10.65,10.65,0,0,1,235.54,157.25Z"/></g></g><g class="cls-5"><g class="cls-27"><g class="cls-5"><path class="cls-7" d="M197.57,231l-6-3.25c-2.75.39-5.34-.18-6.65-2.48l6,3.25C192.23,230.86,194.82,231.43,197.57,231Z"/><line class="cls-7" x1="192.62" y1="230.31" x2="186.64" y2="227.06"/><path class="cls-7" d="M190.92,228.56l-6-3.25c-.59-1.07-1.43-2.08-1.13-1.86l6,3.25C189.49,226.48,190.33,227.49,190.92,228.56Z"/><line class="cls-7" x1="190.3" y1="227.55" x2="184.33" y2="224.3"/><line class="cls-7" x1="189.82" y1="226.85" x2="183.85" y2="223.6"/></g><path class="cls-7" d="M192.82,230.43l-6-3.25a4.85,4.85,0,0,1-1.89-1.87,21.9,21.9,0,0,1-1.16-1.88l6,3.25c-.19-.1.6.86,1.16,1.88A4.8,4.8,0,0,0,192.82,230.43Z"/></g></g><g class="cls-5"><g class="cls-28"><g class="cls-5"><path class="cls-7" d="M203.56,209.67l-6-3.25a26.46,26.46,0,0,1,6.79,7.75l6,3.25A26.31,26.31,0,0,0,203.56,209.67Z"/><line class="cls-7" x1="205.81" y1="211.61" x2="199.84" y2="208.36"/><line class="cls-7" x1="208.2" y1="214.24" x2="202.23" y2="210.99"/><path class="cls-7" d="M210.35,217.42l-6-3.25c3,5.93-6.25,12.72-12.78,13.62l6,3.25C204.1,230.13,213.35,223.35,210.35,217.42Z"/><line class="cls-7" x1="209.82" y1="223.38" x2="203.85" y2="220.13"/><line class="cls-7" x1="204.45" y1="228.42" x2="198.48" y2="225.17"/><path class="cls-7" d="M197.57,231l-6-3.25c-2.75.39-5.34-.18-6.65-2.48l6,3.25C192.23,230.86,194.82,231.43,197.57,231Z"/><line class="cls-7" x1="194.92" y1="231.08" x2="188.94" y2="227.83"/></g><path class="cls-7" d="M186.84,227.18a7.73,7.73,0,0,0,4.76.61c6.53-.9,15.77-7.69,12.78-13.62a26.46,26.46,0,0,0-6.79-7.75l6,3.25a26.31,26.31,0,0,1,6.79,7.75c3,5.93-6.25,12.71-12.78,13.62a7.71,7.71,0,0,1-4.75-.61Z"/></g></g><g class="cls-5"><g class="cls-29"><g class="cls-5"><path class="cls-7" d="M190.92,228.56l-6-3.25c-.59-1.07-1.43-2.08-1.13-1.86l6,3.25C189.49,226.48,190.33,227.49,190.92,228.56Z"/></g><path class="cls-7" d="M189.76,226.68l0,0-6-3.25,0,0Z"/></g></g><g class="cls-5"><g class="cls-30"><g class="cls-5"><path class="cls-7" d="M156.22,264.24l-6-3.25c-6.21.94-12.21-3.11-7.36-10l6,3.25C144,261.13,150,265.18,156.22,264.24Z"/><line class="cls-7" x1="147.23" y1="260.11" x2="141.25" y2="256.86"/><path class="cls-7" d="M148.85,254.25l-6-3.25c9.73-13,19.42-25.95,28.57-37.39l6,3.25C168.27,228.3,158.59,241.25,148.85,254.25Z"/><line class="cls-7" x1="158.55" y1="241.32" x2="152.58" y2="238.07"/><line class="cls-7" x1="168.11" y1="228.75" x2="162.14" y2="225.5"/></g><path class="cls-7" d="M149.9,263.32l-6-3.25c-2.87-1.56-4.09-4.76-1.05-9.07,9.73-13,19.42-25.95,28.57-37.39l6,3.25c-9.16,11.44-18.84,24.39-28.58,37.39C145.82,258.56,147,261.76,149.9,263.32Z"/></g></g><g class="cls-5"><g class="cls-31"><g class="cls-5"><path class="cls-7" d="M189.79,226.7l-6-3.25c-7.67,9.76-16,21-24.48,32.21l6,3.25C173.74,247.69,182.12,236.46,189.79,226.7Z"/><line class="cls-7" x1="181.91" y1="236.9" x2="175.94" y2="233.65"/><line class="cls-7" x1="173.7" y1="247.74" x2="167.73" y2="244.49"/><path class="cls-7" d="M165.31,258.91l-6-3.25a13.78,13.78,0,0,1-9.1,5.33l6,3.25A13.76,13.76,0,0,0,165.31,258.91Z"/><line class="cls-7" x1="162.59" y1="261.63" x2="156.62" y2="258.38"/><line class="cls-7" x1="159.46" y1="263.38" x2="153.49" y2="260.13"/><path class="cls-7" d="M156.22,264.24l-6-3.25c-6.21.94-12.21-3.11-7.36-10l6,3.25C144,261.13,150,265.18,156.22,264.24Z"/><line class="cls-7" x1="150.47" y1="263.6" x2="144.5" y2="260.35"/></g><path class="cls-7" d="M143.93,260.07a10.25,10.25,0,0,0,6.31.92,13.78,13.78,0,0,0,9.1-5.33c8.43-11.22,16.81-22.45,24.48-32.21l6,3.25c-7.67,9.76-16,21-24.48,32.21a13.76,13.76,0,0,1-9.09,5.33,10.27,10.27,0,0,1-6.32-.92Z"/></g></g><g class="cls-5"><g class="cls-32"><g class="cls-5"><path class="cls-7" d="M164.35,208.28l-6-3.25c-8.42-7.11-14.24-16.06-26.62-19.86l6,3.25C150.11,192.22,155.93,201.17,164.35,208.28Z"/><path class="cls-7" d="M137.74,188.42l-6-3.25c-5.79-1.71-6.13-9.22,2.34-13.36l6,3.25C131.6,179.2,131.94,186.71,137.74,188.42Z"/></g><path class="cls-7" d="M144.27,191.16a35.87,35.87,0,0,0-6.53-2.74,6.16,6.16,0,0,1-1.36-.56l-6-3.25a6.58,6.58,0,0,0,1.36.56,35.58,35.58,0,0,1,6.53,2.74Z"/></g></g><g class="cls-5"><g class="cls-33"><g class="cls-5"><path class="cls-7" d="M177.43,216.86l-6-3.25c-3.54-2.18-8.84-5-13.07-8.58l6,3.25C168.58,211.85,173.88,214.68,177.43,216.86Z"/><line class="cls-7" x1="173.4" y1="214.46" x2="167.43" y2="211.21"/><line class="cls-7" x1="168.83" y1="211.61" x2="162.86" y2="208.36"/><path class="cls-7" d="M164.35,208.28l-6-3.25c-8.42-7.11-14.24-16.06-26.62-19.86l6,3.25C150.11,192.22,155.93,201.17,164.35,208.28Z"/><line class="cls-7" x1="156.46" y1="200.81" x2="150.49" y2="197.56"/><line class="cls-7" x1="148.26" y1="193.68" x2="142.29" y2="190.43"/></g><path class="cls-7" d="M138.29,187.91l6,3.25c8.2,4.47,13.3,11.39,20.08,17.12,4.23,3.57,9.53,6.4,13.08,8.58l-6-3.25c-3.54-2.18-8.84-5-13.07-8.58C151.59,199.3,146.49,192.38,138.29,187.91Z"/></g></g><g class="cls-5"><g class="cls-34"><g class="cls-5"><path class="cls-7" d="M137.74,188.42l-6-3.25c-5.79-1.71-6.13-9.22,2.34-13.36l6,3.25C131.6,179.2,131.94,186.71,137.74,188.42Z"/><line class="cls-7" x1="133.88" y1="185.12" x2="127.91" y2="181.87"/><line class="cls-7" x1="134.42" y1="179.98" x2="128.44" y2="176.73"/><path class="cls-7" d="M140.07,175.06l-6-3.25q24-11.85,48.74-21.85l6,3.25Q164.06,163.16,140.07,175.06Z"/><line class="cls-7" x1="156.16" y1="167.36" x2="150.19" y2="164.11"/><line class="cls-7" x1="172.4" y1="160.06" x2="166.43" y2="156.81"/><path class="cls-7" d="M188.82,153.21l-6-3.25c16.47-6.65,33.08-12.68,49.94-18l6,3.25Q213.48,143.17,188.82,153.21Z"/><line class="cls-7" x1="205.34" y1="146.77" x2="199.36" y2="143.52"/><line class="cls-7" x1="221.97" y1="140.78" x2="216" y2="137.53"/><path class="cls-7" d="M238.75,135.26l-6-3.25a13,13,0,0,1,3-.69l6,3.25A12.43,12.43,0,0,0,238.75,135.26Z"/><line class="cls-7" x1="239.81" y1="134.92" x2="233.84" y2="131.67"/><line class="cls-7" x1="240.79" y1="134.71" x2="234.81" y2="131.47"/></g><path class="cls-7" d="M136.38,187.86l-6-3.25c-4.43-2.41-4.05-9,3.7-12.8q24-11.85,48.74-21.85c16.47-6.65,33.08-12.68,49.94-18a13,13,0,0,1,3-.69l6,3.25a12.43,12.43,0,0,0-3,.69q-25.27,7.91-49.93,18t-48.75,21.85C132.32,178.84,132,185.45,136.38,187.86Z"/></g></g><g class="cls-5"><g class="cls-35"><g class="cls-5"><path class="cls-7" d="M235.74,131.32c-.33-.18-.6.36-.6,1.19,9.26-1.3,10.2,8.06-.6,11.46a2.81,2.81,0,0,0,.82,1.78C247.65,141.73,246.54,130,235.74,131.32Z"/></g><path class="cls-7" d="M235.59,131.29a.27.27,0,0,1,.15,0,9.43,9.43,0,0,1,5.71.81,7.84,7.84,0,0,0-2.87-.87,11,11,0,0,0-1.62-.07C236.54,131.19,236,131.26,235.59,131.29Z"/></g></g><g class="cls-5"><g class="cls-36"><g class="cls-5"><path class="cls-7" d="M235.74,131.32c-.33-.18-.6.36-.6,1.19,9.26-1.3,10.2,8.06-.6,11.46a2.81,2.81,0,0,0,.82,1.78C247.65,141.73,246.54,130,235.74,131.32Z"/><path class="cls-7" d="M235.44,131.37c10.58-1.35,11.67,10.08-.41,14"/><path class="cls-7" d="M235.23,131.79c10-1.33,11.05,9.25-.49,13"/><path class="cls-7" d="M243.17,133.57c-.33-.18-1.08.08-1.67.58"/><path class="cls-7" d="M243.32,139.92a14.8,14.8,0,0,0-1.76-.72"/><path class="cls-7" d="M235.36,145.75a2.81,2.81,0,0,1-.82-1.78q-20.64,6.51-41,14.39a3.05,3.05,0,0,0,.91,1.75C208,154.87,221.66,150.1,235.36,145.75Z"/><path class="cls-7" d="M235,145.39c-13.71,4.35-27.38,9.12-40.9,14.36"/><path class="cls-7" d="M234.74,144.75c-13.73,4.34-27.41,9.12-40.93,14.37"/><path class="cls-7" d="M221.68,150.24a3,3,0,0,1-.87-1.78"/><path class="cls-7" d="M208,155a3,3,0,0,1-.89-1.76"/><path class="cls-7" d="M194.48,160.11a3.05,3.05,0,0,1-.91-1.75q-20.31,7.88-40.19,17.15a15.71,15.71,0,0,1,3.85.38C167.59,171.06,181,165.37,194.48,160.11Z"/><path class="cls-7" d="M194.13,159.75c-13.48,5.26-26.89,10.95-37.64,16"/><path class="cls-7" d="M193.81,159.12c-13.51,5.26-26.92,11-38.71,16.46"/><path class="cls-7" d="M181.14,165.47a3.62,3.62,0,0,1-1.07-1.7"/><path class="cls-7" d="M168.5,170.82a15.88,15.88,0,0,1-1.82-1.34"/></g><path class="cls-7" d="M241.45,132.13c4.92,2.67,3.47,10.49-6.09,13.62-13.7,4.35-27.37,9.12-40.88,14.36s-26.89,10.95-37.25,15.78a15.71,15.71,0,0,0-3.85-.38q19.86-9.27,40.19-17.15t41-14.39c10.8-3.4,9.86-12.76.6-11.46,0-.7.19-1.19.45-1.22A9.36,9.36,0,0,1,241.45,132.13Z"/></g></g><g class="cls-5"><g class="cls-37"><g class="cls-5"><path class="cls-7" d="M157.23,175.89a15.71,15.71,0,0,0-3.85-.38c7.77,4.48,13.33,10.44,19.55,16.18.55-.67,1.25-1.07,1.58-.89C168.29,185.07,162.68,179,157.23,175.89Z"/><path class="cls-7" d="M156.49,175.72c5.76,3.33,11.37,9.35,17.59,15.08"/><path class="cls-7" d="M155.1,175.58c6.6,3.81,12.19,9.8,18.41,15.54"/><path class="cls-7" d="M162.75,179.88a3.38,3.38,0,0,0-2.23.54"/><path class="cls-7" d="M168.48,185.08c-.33-.17-1.07.21-1.66.86"/><path class="cls-7" d="M174.51,190.8c-.33-.18-1,.22-1.58.89a69.19,69.19,0,0,0,11,7.75c-.08-1.06.12-1.78.45-1.6A63.84,63.84,0,0,1,174.51,190.8Z"/><path class="cls-7" d="M174.08,190.8a63.15,63.15,0,0,0,10,7.14"/><path class="cls-7" d="M173.51,191.12A65.5,65.5,0,0,0,184,198.51"/><path class="cls-7" d="M177.78,193.48c-.33-.18-1,.26-1.46,1"/><path class="cls-7" d="M181.2,195.84c-.33-.18-.85.34-1.16,1.17"/></g><path class="cls-7" d="M157.23,175.89c5.45,3.15,11.06,9.18,17.28,14.91a63.84,63.84,0,0,0,9.9,7c-.33-.18-.53.54-.45,1.6a69.19,69.19,0,0,1-11-7.75c-6.22-5.74-11.78-11.7-19.55-16.18A15.71,15.71,0,0,1,157.23,175.89Z"/></g></g><g class="cls-5"><g class="cls-38"><g class="cls-5"><path class="cls-7" d="M184.41,197.84c-.33-.18-.53.54-.45,1.6A457.1,457.1,0,0,1,219.2,162c-.46-.6-.57-.95-.24-.77A455.73,455.73,0,0,0,184.41,197.84Z"/><path class="cls-7" d="M194.87,185.88c-.33-.18-.29.25.09,1"/><path class="cls-7" d="M206.39,173.59c-.33-.18-.21.16.26.76"/><path class="cls-7" d="M219,161.2c-.33-.18-.22.17.24.77a16.92,16.92,0,0,1,9.15-4.37c0-.83.27-1.36.6-1.19A18.57,18.57,0,0,0,219,161.2Z"/><path class="cls-7" d="M222.14,158.81c-.32-.18-.35.26,0,1"/><path class="cls-7" d="M225.56,157.23c-.33-.17-.48.33-.33,1.12"/><path class="cls-7" d="M229,156.41c-.33-.17-.6.36-.6,1.19,6.08-.85,10.7,2.14,5.23,7.31a6.68,6.68,0,0,0,1.43,1.42C241.61,159.6,235.81,155.32,229,156.41Z"/><path class="cls-7" d="M235,157c-.33-.18-1,.26-1.42,1"/></g><path class="cls-7" d="M184.17,197.89a.18.18,0,0,1,.24,0A455.73,455.73,0,0,1,219,161.2a18.57,18.57,0,0,1,10-4.79,10.65,10.65,0,0,1,6.59.84c-.76-.38-3-1.54-7.25-.79a18.36,18.36,0,0,0-4.12,1.21,19,19,0,0,0-4,2.32,18.08,18.08,0,0,0-1.38,1.18c-1.18,1.09-2.72,2.58-3.87,3.71L213,166.74l-3.74,3.72c-2.65,2.67-5.41,5.55-5.43,5.57h0l-1.77,1.86c-2.26,2.4-2.26,2.4-3.46,3.69-.85.91-2.62,2.83-5,5.51C189.44,191.69,185.88,195.88,184.17,197.89Z"/></g></g><g class="cls-5"><g class="cls-39"><g class="cls-5"><path class="cls-7" d="M184.41,197.84c-.33-.18-.53.54-.45,1.6A457.1,457.1,0,0,1,219.2,162c-.46-.6-.57-.95-.24-.77A455.73,455.73,0,0,0,184.41,197.84Z"/><path class="cls-7" d="M184.13,197.94a454.36,454.36,0,0,1,34.64-36.75"/><path class="cls-7" d="M184,198.51a456.08,456.08,0,0,1,34.89-37"/><path class="cls-7" d="M194.87,185.88c-.33-.18-.29.25.09,1"/><path class="cls-7" d="M206.39,173.59c-.33-.18-.21.16.26.76"/><path class="cls-7" d="M219,161.2c-.33-.18-.22.17.24.77a16.92,16.92,0,0,1,9.15-4.37c0-.83.27-1.36.6-1.19A18.57,18.57,0,0,0,219,161.2Z"/><path class="cls-7" d="M218.77,161.19a18.2,18.2,0,0,1,9.88-4.73"/><path class="cls-7" d="M218.86,161.46a17.72,17.72,0,0,1,9.57-4.58"/><path class="cls-7" d="M222.14,158.81c-.32-.18-.35.26,0,1"/><path class="cls-7" d="M225.56,157.23c-.33-.17-.48.33-.33,1.12"/><path class="cls-7" d="M229,156.41c-.33-.17-.6.36-.6,1.19,6.08-.85,10.7,2.14,5.23,7.31a6.68,6.68,0,0,0,1.43,1.42C241.61,159.6,235.81,155.32,229,156.41Z"/><path class="cls-7" d="M228.65,156.46c6.75-1.06,12.39,3,5.95,9.55"/><path class="cls-7" d="M228.43,156.88c6.48-1,11.69,2.67,5.66,8.63"/><path class="cls-7" d="M235,157c-.33-.18-1,.26-1.42,1"/><path class="cls-7" d="M237.9,160.52a3.32,3.32,0,0,0-1.89,0"/><path class="cls-7" d="M235,166.33a6.68,6.68,0,0,1-1.43-1.42,468.91,468.91,0,0,0-38.68,41.57,6.22,6.22,0,0,1,2.69-.06A456.51,456.51,0,0,1,235,166.33Z"/><path class="cls-7" d="M234.6,166a458.37,458.37,0,0,0-37.6,40.3"/><path class="cls-7" d="M234.09,165.51A458.14,458.14,0,0,0,196,206.33"/><path class="cls-7" d="M221.26,179.94a8.87,8.87,0,0,1-1.53-1.31"/><path class="cls-7" d="M208.77,193.41c-.33-.18-1.16-.59-1.86-.92"/></g><path class="cls-7" d="M218.78,161.17a18.33,18.33,0,0,1,8.5-4.51,15.1,15.1,0,0,1,4.6-.41,10.48,10.48,0,0,1,1.86.3,7.36,7.36,0,0,1,1.8.7c2.87,1.56,3.64,4.83-.53,9.08a456.51,456.51,0,0,0-37.42,40.09,6.22,6.22,0,0,0-2.69.06,468.91,468.91,0,0,1,38.68-41.57c5.47-5.17.85-8.16-5.23-7.31A16.92,16.92,0,0,0,219.2,162,457.1,457.1,0,0,0,184,199.44a2.52,2.52,0,0,1,.21-1.55c2.49-2.95,6.44-7.54,11.06-12.63,1.11-1.23,3.47-3.81,6.83-7.37.93-1,2.32-2.43,3.56-3.71.54-.56,1.27-1.29,1.81-1.86C207.46,172.28,212,167.62,218.78,161.17Z"/></g></g><g class="cls-5"><g class="cls-40"><g class="cls-5"><path class="cls-7" d="M191.6,227.79A2.41,2.41,0,0,1,191,226c-2.39.34-4.46-.14-5.43-1.88-.67.5-.95,1.06-.62,1.24C186.26,227.61,188.85,228.18,191.6,227.79Z"/><path class="cls-7" d="M191.29,227.42c-2.69.39-5.21-.17-6.48-2.4"/><path class="cls-7" d="M186.64,227.06c-.33-.18-.22-.92.24-1.66"/><path class="cls-7" d="M185,225.31c-.33-.18,0-.74.62-1.24a19.14,19.14,0,0,0-2.27-3.22c0,1.26.19,2.42.52,2.6C183.52,223.23,184.36,224.24,185,225.31Z"/><path class="cls-7" d="M184.81,225c-.59-1.08-1.42-2.09-1.28-2"/><path class="cls-7" d="M184.33,224.3c-.33-.18-.08-.78.56-1.35"/><path class="cls-7" d="M183.85,223.6c-.33-.18-.2-.95.28-1.72"/></g><path class="cls-7" d="M186.84,227.18a5.16,5.16,0,0,1-1.68-1.48c-.26-.35-.45-.74-.68-1.11l-.45-.67a1,1,0,0,1-.08-.11c-.09-.17-.23-.32-.32-.5a2.39,2.39,0,0,1-.2-.72,1.54,1.54,0,0,0,.36.85h0a21.9,21.9,0,0,0,1.16,1.88A4.85,4.85,0,0,0,186.84,227.18Z"/></g></g><g class="cls-5"><g class="cls-41"><g class="cls-5"><path class="cls-7" d="M197.59,206.42a6.22,6.22,0,0,0-2.69.06,27.28,27.28,0,0,1,7.66,8.27c.68-.5,1.49-.76,1.82-.58A26.46,26.46,0,0,0,197.59,206.42Z"/><path class="cls-7" d="M197,206.31a26.43,26.43,0,0,1,6.91,7.82"/><path class="cls-7" d="M196,206.33a26.77,26.77,0,0,1,7.22,8"/><path class="cls-7" d="M199.84,208.36c-.33-.18-1.2.09-2,.61"/><path class="cls-7" d="M202.23,211c-.33-.18-1.11.14-1.75.72"/><path class="cls-7" d="M204.38,214.17c-.33-.18-1.14.08-1.82.58C205,219.1,197,225.11,191,226a2.41,2.41,0,0,0,.6,1.84C198.13,226.89,207.37,220.1,204.38,214.17Z"/><path class="cls-7" d="M203.91,214.13c2.92,5.71-6.16,12.39-12.62,13.29"/><path class="cls-7" d="M203.26,214.34c2.71,5.14-5.91,11.55-12.18,12.42"/><path class="cls-7" d="M203.85,220.13a15,15,0,0,0-1.87-.73"/><path class="cls-7" d="M198.48,225.17a4.75,4.75,0,0,1-1.28-1.53"/><path class="cls-7" d="M191.6,227.79A2.41,2.41,0,0,1,191,226c-2.39.34-4.46-.14-5.43-1.88-.67.5-.95,1.06-.62,1.24C186.26,227.61,188.85,228.18,191.6,227.79Z"/><path class="cls-7" d="M191.29,227.42c-2.69.39-5.21-.17-6.48-2.4"/><path class="cls-7" d="M191.08,226.76c-2.57.37-4.9-.16-6-2.18"/><path class="cls-7" d="M188.94,227.83c-.33-.18-.41-1-.19-1.83"/><path class="cls-7" d="M186.64,227.06c-.33-.18-.22-.92.24-1.66"/><path class="cls-7" d="M185,225.31c-.33-.18,0-.74.62-1.24a19.14,19.14,0,0,0-2.27-3.22c0,1.26.19,2.42.52,2.6C183.52,223.23,184.36,224.24,185,225.31Z"/><path class="cls-7" d="M184.81,225c-.59-1.08-1.42-2.09-1.28-2"/><path class="cls-7" d="M185,224.58a25.45,25.45,0,0,0-1.7-2.54"/><path class="cls-7" d="M184.33,224.3c-.33-.18-.08-.78.56-1.35"/><path class="cls-7" d="M183.85,223.6c-.33-.18-.2-.95.28-1.72"/></g><path class="cls-7" d="M184.84,225.21a17,17,0,0,0-1-1.5,2.71,2.71,0,0,1-.28-.46,1.23,1.23,0,0,1-.08-.25,1.46,1.46,0,0,1-.05-.2.5.5,0,0,1,0-.12s0-.07,0-.09a7.66,7.66,0,0,1-.13-1.74,19.14,19.14,0,0,1,2.27,3.22c1,1.74,3,2.22,5.43,1.88,6-.84,14-6.85,11.56-11.2a27.28,27.28,0,0,0-7.66-8.27,6.22,6.22,0,0,1,2.69-.06,26.46,26.46,0,0,1,6.79,7.75c3,5.93-6.25,12.72-12.78,13.62a7.73,7.73,0,0,1-4.76-.61A5.12,5.12,0,0,1,184.84,225.21Z"/></g></g><g class="cls-5"><g class="cls-42"><g class="cls-5"><path class="cls-7" d="M185,225.31c-.33-.18,0-.74.62-1.24a19.14,19.14,0,0,0-2.27-3.22c0,1.26.19,2.42.52,2.6C183.52,223.23,184.36,224.24,185,225.31Z"/></g><path class="cls-7" d="M183.79,223.43l0,0h0Z"/></g></g><g class="cls-5"><g class="cls-43"><g class="cls-5"><path class="cls-7" d="M150.24,261a2.41,2.41,0,0,1-.59-1.83c-5.49.77-10.28-2.35-6.33-7.62-.57-.48-.77-.72-.44-.54C138,257.88,144,261.93,150.24,261Z"/><path class="cls-7" d="M141.25,256.86c-.33-.18,0-.55.73-.83"/><path class="cls-7" d="M142.88,251c-.33-.18-.13.06.44.54,9.73-13,19.4-25.93,29.69-38.78-1.19.29-1.89.67-1.56.85C162.3,225.05,152.61,238,142.88,251Z"/><path class="cls-7" d="M152.58,238.07c-.33-.18-.12,0,.48.5"/><path class="cls-7" d="M162.14,225.5c-.33-.18,0-.12.76.14"/></g><path class="cls-7" d="M143.93,260.07c-.34-.21-.79-.5-1.1-.74a3.58,3.58,0,0,1-.62-.61,4.84,4.84,0,0,1-.82-1.25,3.53,3.53,0,0,1-.28-.85,5.26,5.26,0,0,1,0-2.36,9,9,0,0,1,1.23-2.78c.17-.29.21-.36,7.65-10.25,3.56-4.74,7.2-9.54,7.23-9.58,3.85-5.07,6.06-7.92,8.56-11.14,1.22-1.56,2-2.55,2.82-3.58q1.38-1.77,2.79-3.52a.12.12,0,0,0,0,.2C162.3,225.05,152.61,238,142.88,251,139.84,255.31,141.06,258.51,143.93,260.07Z"/></g></g><g class="cls-5"><g class="cls-44"><g class="cls-5"><path class="cls-7" d="M183.82,223.45c-.33-.18-.56-1.34-.52-2.6-8.78,11.15-17.17,22.38-25.6,33.62a14,14,0,0,0,1.64,1.19C167.77,244.44,176.15,233.21,183.82,223.45Z"/><path class="cls-7" d="M183.53,223c-7.82,9.94-16.2,21.18-24.63,32.4"/><path class="cls-7" d="M183.34,222c-8.22,10.45-16.6,21.68-25,32.91"/><path class="cls-7" d="M175.94,233.65a4.8,4.8,0,0,1-1.3-1.63"/><path class="cls-7" d="M167.73,244.49a10.85,10.85,0,0,1-1.59-1.25"/><path class="cls-7" d="M159.34,255.66a14,14,0,0,1-1.64-1.19,12.19,12.19,0,0,1-8,4.69,2.41,2.41,0,0,0,.59,1.83A13.78,13.78,0,0,0,159.34,255.66Z"/><path class="cls-7" d="M158.9,255.38a13.56,13.56,0,0,1-9,5.24"/><path class="cls-7" d="M158.31,255a12.92,12.92,0,0,1-8.58,5"/><path class="cls-7" d="M156.62,258.38a4.94,4.94,0,0,1-1.3-1.54"/><path class="cls-7" d="M153.49,260.13a3.17,3.17,0,0,1-.94-1.75"/><path class="cls-7" d="M150.24,261a2.41,2.41,0,0,1-.59-1.83c-5.49.77-10.28-2.35-6.33-7.62-.57-.48-.77-.72-.44-.54C138,257.88,144,261.93,150.24,261Z"/><path class="cls-7" d="M149.94,260.62c-6.11.92-11.95-3-7.22-9.67"/><path class="cls-7" d="M149.73,260c-5.85.86-11.26-2.73-6.85-8.81"/><path class="cls-7" d="M144.5,260.35c-.33-.18-.25-.92.19-1.65"/><path class="cls-7" d="M141.25,256.86c-.33-.18,0-.55.73-.83"/><path class="cls-7" d="M142.88,251c-.33-.18-.13.06.44.54,9.73-13,19.4-25.93,29.69-38.78-1.19.29-1.89.67-1.56.85C162.3,225.05,152.61,238,142.88,251Z"/><path class="cls-7" d="M142.72,251c9.73-13,19.42-25.95,28.72-37.58"/><path class="cls-7" d="M142.88,251.15c9.73-13,19.41-26,29.12-38.08"/><path class="cls-7" d="M152.58,238.07c-.33-.18-.12,0,.48.5"/><path class="cls-7" d="M162.14,225.5c-.33-.18,0-.12.76.14"/></g><path class="cls-7" d="M142.72,251l7.29-9.72c2.07-2.77,5.31-7.07,7.23-9.58,4-5.32,6.51-8.5,8.56-11.14l2.82-3.58q1.38-1.77,2.79-3.52a3.78,3.78,0,0,1,1.6-.65c-10.29,12.85-20,25.8-29.69,38.78-3.95,5.27.84,8.39,6.33,7.62a12.19,12.19,0,0,0,8-4.69c8.43-11.24,16.82-22.47,25.6-33.62,0,1.26.19,2.42.52,2.6-7.67,9.76-16,21-24.48,32.21a13.78,13.78,0,0,1-9.1,5.33,10.25,10.25,0,0,1-6.31-.92,6.18,6.18,0,0,1-1.92-1.58,4.49,4.49,0,0,1-.94-2.06,7.74,7.74,0,0,1-.06-1.36,3.16,3.16,0,0,1,.14-.86,8.82,8.82,0,0,1,.46-1.34A15.21,15.21,0,0,1,142.72,251Z"/></g></g><g class="cls-5"><g class="cls-45"><g class="cls-5"><path class="cls-7" d="M171.45,213.61c-.33-.18.37-.56,1.56-.85-4.91-3-10.16-5.82-14.28-9.31-.52.69-.68,1.4-.35,1.58C162.61,208.6,167.91,211.43,171.45,213.61Z"/><path class="cls-7" d="M167.43,211.21c-.33-.18-.06-.82.61-1.43"/><path class="cls-7" d="M162.86,208.36c-.33-.18-.19-.9.31-1.61"/><path class="cls-7" d="M158.38,205c-.33-.18-.17-.89.35-1.58-8.36-7-14.27-16.14-27-20.07-.3.81-.28,1.61,0,1.79C144.14,189,150,197.92,158.38,205Z"/><path class="cls-7" d="M150.49,197.56c-.33-.18-.17-.88.35-1.57"/><path class="cls-7" d="M142.29,190.43c-.33-.18-.23-.93.23-1.67"/></g><path class="cls-7" d="M171.44,213.6c-.84-.51-1-.6-2.94-1.75-2.72-1.61-3.65-2.21-4.73-2.9-1.41-.9-3-2-4.13-2.9a99.13,99.13,0,0,1-8.45-7.78c-5-4.89-8.31-7.84-12.9-10.36,8.2,4.47,13.3,11.39,20.09,17.12,4.23,3.57,9.53,6.4,13.07,8.58Z"/></g></g><g class="cls-5"><g class="cls-46"><g class="cls-5"><path class="cls-7" d="M171.45,213.61c-.33-.18.37-.56,1.56-.85-4.91-3-10.16-5.82-14.28-9.31-.52.69-.68,1.4-.35,1.58C162.61,208.6,167.91,211.43,171.45,213.61Z"/><path class="cls-7" d="M171.44,213.37c-3.73-2.29-9-5.12-13.23-8.68"/><path class="cls-7" d="M172,213.07c-4.22-2.59-9.49-5.41-13.67-8.94"/><path class="cls-7" d="M167.43,211.21c-.33-.18-.06-.82.61-1.43"/><path class="cls-7" d="M162.86,208.36c-.33-.18-.19-.9.31-1.61"/><path class="cls-7" d="M158.38,205c-.33-.18-.17-.89.35-1.58-8.36-7-14.27-16.14-27-20.07-.3.81-.28,1.61,0,1.79C144.14,189,150,197.92,158.38,205Z"/><path class="cls-7" d="M158.21,204.69c-8.42-7.1-14.25-16.06-26.67-19.88"/><path class="cls-7" d="M158.33,204.13c-8.39-7.08-14.26-16.1-26.81-20"/><path class="cls-7" d="M150.49,197.56c-.33-.18-.17-.88.35-1.57"/><path class="cls-7" d="M142.29,190.43c-.33-.18-.23-.93.23-1.67"/><path class="cls-7" d="M131.76,185.17c-.33-.18-.35-1,0-1.79-4.54-1.4-4.94-7,2.23-10.52-.24-.76-.17-1.23.16-1.05C125.63,176,126,183.46,131.76,185.17Z"/><path class="cls-7" d="M131.54,184.81c-5.63-1.67-6-8.92,2.32-13"/><path class="cls-7" d="M131.52,184.16c-5.18-1.55-5.55-8.11,2.28-11.95"/><path class="cls-7" d="M127.91,181.87c-.33-.18,0-.65.76-1.05"/><path class="cls-7" d="M128.44,176.73c-.33-.18,0-.12.72.12"/><path class="cls-7" d="M134.1,171.81c-.33-.18-.4.29-.16,1.05q24-11.82,48.64-21.81c-.19-.78-.07-1.27.26-1.09Q158.09,159.91,134.1,171.81Z"/><path class="cls-7" d="M133.86,171.84q24-11.85,48.73-21.85"/><path class="cls-7" d="M133.8,172.21q24-11.84,48.69-21.83"/><path class="cls-7" d="M150.19,164.11c-.33-.18-.42.3-.19,1.07"/><path class="cls-7" d="M166.43,156.81c-.33-.17-.43.31-.21,1.09"/><path class="cls-7" d="M182.84,150c-.33-.18-.45.31-.26,1.09q24.63-9.95,49.82-17.9c-.12-.81,0-1.32.38-1.14C215.92,137.28,199.31,143.31,182.84,150Z"/><path class="cls-7" d="M182.59,150c16.46-6.65,33.07-12.67,49.92-17.94"/><path class="cls-7" d="M182.49,150.38q24.67-10,49.88-17.93"/><path class="cls-7" d="M199.36,143.52c-.33-.18-.46.32-.29,1.11"/><path class="cls-7" d="M216,137.53c-.33-.18-.47.33-.32,1.13"/><path class="cls-7" d="M232.78,132c-.33-.18-.5.33-.38,1.14a17.22,17.22,0,0,1,2.74-.64c0-.83.27-1.37.6-1.19A13,13,0,0,0,232.78,132Z"/><path class="cls-7" d="M232.51,132.05a12.59,12.59,0,0,1,2.93-.68"/><path class="cls-7" d="M232.37,132.45a15.26,15.26,0,0,1,2.86-.66"/><path class="cls-7" d="M233.84,131.67c-.33-.18-.55.36-.48,1.2"/><path class="cls-7" d="M234.81,131.47c-.33-.18-.57.35-.54,1.19"/></g><path class="cls-7" d="M158.33,205c-1.72-1.44-3.45-3.1-4.83-4.44-1.55-1.51-3.06-3.06-4.64-4.54-.68-.65-2.28-2.16-3.6-3.26a45.3,45.3,0,0,0-3.91-3c-.89-.62-1.35-.88-3.06-1.87a35.58,35.58,0,0,0-6.53-2.74,6.58,6.58,0,0,1-1.36-.56,5.56,5.56,0,0,1-2.65-3,3.29,3.29,0,0,1-.21-.76,10.24,10.24,0,0,1-.09-1.36,6.32,6.32,0,0,1,.3-1.57,8.2,8.2,0,0,1,2-3.15,14,14,0,0,1,4.2-3s5.8-2.87,12.06-5.82c3.54-1.67,9.43-4.37,12.13-5.59,8.22-3.68,16.48-7.2,24.56-10.45h0l2.47-1c1.26-.51,2-.82,5-2l5-1.92c6.5-2.48,11.86-4.41,12.44-4.62,6.48-2.32,9.87-3.47,10-3.51,7.32-2.46,7.32-2.46,10.09-3.35,1.5-.49,3.51-1.11,5-1.59l.5-.18.48-.14a15.39,15.39,0,0,1,2-.38c-.26,0-.45.52-.45,1.22a17.22,17.22,0,0,0-2.74.64q-25.15,7.92-49.82,17.9t-48.64,21.81c-7.17,3.53-6.77,9.12-2.23,10.52,12.75,3.93,18.66,13,27,20.07,4.12,3.49,9.37,6.3,14.28,9.31-1.18.29-1.87.66-1.57.84-1.19-.73-2.39-1.42-3.59-2.13-2.35-1.41-3.46-2.1-4.78-3A48.63,48.63,0,0,1,158.33,205Z"/></g></g><g class="cls-5"><g class="cls-47"><g class="cls-5"><path class="cls-7" d="M131.76,185.17c-.33-.18-.35-1,0-1.79-4.54-1.4-4.94-7,2.23-10.52-.24-.76-.17-1.23.16-1.05C125.63,176,126,183.46,131.76,185.17Z"/><path class="cls-7" d="M127.91,181.87c-.33-.18,0-.65.76-1.05"/><path class="cls-7" d="M128.44,176.73c-.33-.18,0-.12.72.12"/><path class="cls-7" d="M134.1,171.81c-.33-.18-.4.29-.16,1.05q24-11.82,48.64-21.81c-.19-.78-.07-1.27.26-1.09Q158.09,159.91,134.1,171.81Z"/><path class="cls-7" d="M150.19,164.11c-.33-.18-.42.3-.19,1.07"/><path class="cls-7" d="M166.43,156.81c-.33-.17-.43.31-.21,1.09"/><path class="cls-7" d="M182.84,150c-.33-.18-.45.31-.26,1.09q24.63-9.95,49.82-17.9c-.12-.81,0-1.32.38-1.14C215.92,137.28,199.31,143.31,182.84,150Z"/><path class="cls-7" d="M199.36,143.52c-.33-.18-.46.32-.29,1.11"/><path class="cls-7" d="M216,137.53c-.33-.18-.47.33-.32,1.13"/><path class="cls-7" d="M232.78,132c-.33-.18-.5.33-.38,1.14a17.22,17.22,0,0,1,2.74-.64c0-.83.27-1.37.6-1.19A13,13,0,0,0,232.78,132Z"/><path class="cls-7" d="M233.84,131.67c-.33-.18-.55.36-.48,1.2"/><path class="cls-7" d="M234.81,131.47c-.33-.18-.57.35-.54,1.19"/></g><path class="cls-7" d="M130.4,184.61c-4.43-2.41-4.05-9,3.7-12.8q24-11.85,48.74-21.85c16.47-6.65,33.08-12.68,49.94-18a13,13,0,0,1,3-.69.21.21,0,0,0-.15,0l-.7.1-.72.14a10.42,10.42,0,0,0-1.41.39l-.17.07h0c-4.33,1.35-6.72,2.14-10,3.24-3.88,1.27-10.51,3.55-17.53,6.1-8.18,3-15.37,5.82-17.39,6.61l-4.94,2h0c-1.64.68-3.3,1.33-4.94,2L172.79,154l-4.91,2.09c-5.87,2.56-5.87,2.56-9.78,4.3,0,0-4.43,2-9.71,4.46-2.09,1-3.56,1.67-4.84,2.28l-4.83,2.32c-1.45.69-3.37,1.63-4.81,2.35-.47.24-1.1.57-1.56.86-4,2.53-4.62,5.21-4.81,6.09a5.47,5.47,0,0,0,.29,3.09,5.58,5.58,0,0,0,2,2.42C130,184.37,130.23,184.5,130.4,184.61Z"/></g></g></g></g></g></svg>