<svg xmlns="http://www.w3.org/2000/svg" viewBox="0 0 460 460.51"><defs><style>.cls-1,.cls-2{fill:#e46425;}.cls-1{fill-opacity:0.51;}.cls-2{fill-opacity:0.84;}</style></defs><g id="Layer_2" data-name="Layer 2"><g id="lines"><path class="cls-1" d="M457.43,213.57a119.52,119.52,0,0,0-15.72-12.31,166,166,0,0,0-13.88-13.68,3.47,3.47,0,0,0-.59-1.52,3.85,3.85,0,0,0-1.41-2.32q-8.15-6.88-16.17-13.9a3.92,3.92,0,0,0-1.08-4.27q-3.49-3.37-7.16-6.52-11.81-10.65-24.07-20.75-9.72-11-19.51-21.83c-20.48-22.75-40.9-46.89-67.45-62.61-4.8-5.77-9.66-11.5-14.81-16.93a131.5,131.5,0,0,0-8.23-11.61,4.41,4.41,0,0,0-.76-1.33q-4.24-5-8.34-10c-.05-.12-.07-.25-.12-.37a14.8,14.8,0,0,0-1.87-3.47,8.75,8.75,0,0,0,.06-3.69c0-.15-.06-.29-.08-.44A8,8,0,0,0,250.51.22c-9.2-1.61-15.47,6.1-20,13.22-2.7,2.77-5.24,5.8-7.75,8.59-2.62,1.61-5.37,3.07-7.89,4.82a28.57,28.57,0,0,0-9,8.25l-.3.33a6.73,6.73,0,0,0-9.11,1.65c-6.26,7.47-12.21,15.94-19.83,22.09-3.44,2.77-7.14,5.13-10.78,7.57A48.58,48.58,0,0,0,154.14,76a8.1,8.1,0,0,0-1,9.88c-7.37,6.61-14.68,13.3-21.83,20.16A499.33,499.33,0,0,0,87.69,154C74.18,170.76,60.65,188,43.26,201a6,6,0,0,0-1.66,1.88c-5.63,1-6.48,8.81-2.4,10.63A4.43,4.43,0,0,0,40.94,218C51.76,227,60.11,238,67.46,249.67a67,67,0,0,0,13.27,22.58c3.55,4,9.31.31,9.26-4.15l.57.47,9.89,9.33a4.44,4.44,0,0,0-.24,2.69c1.62,7.74,8.37,12.53,13.92,17.51,5.93,5.32,11.91,12.34,19.34,15.51a4.44,4.44,0,0,0,2.65.31q12.09,14.56,24.2,29.11c8.51,10.22,17.39,18.79,28.6,26,4.56,2.92,9.09,5.84,13.54,8.85,1.73,1.49,3.43,3,5.08,4.62,3.08,3,5.83,6.27,9.23,8.87,2.92,2.25,5.95,4,8.65,6.54,6.42,6.1,18.85,19.85,29.24,19.61,6.7.73,13.24-2,18.41-7.44,8.19-8.6,14.3-19.41,21.91-28.57.89-1.08,1.82-2.13,2.73-3.19a8.19,8.19,0,0,0,5.31-2.12c14.22-12.37,28.36-24.77,42.29-37.49a7.08,7.08,0,0,0,2.36-7.3l2.12-1.82a7.54,7.54,0,0,0,7.53-2.08c9-8.8,16.81-18.66,24.64-28.51,3.81-4.79,7.63-9.58,11.65-14.21,3.68-4.23,7.85-10.22,13.07-12.48,2.9-1.25,4.16-4.61,3.95-7.71l1.78-1.91.14-.15a4.82,4.82,0,0,0,2.18-1c.37-.28.73-.58,1.09-.88l0,0,.1-.12c1.18-1,2.31-2,3.37-3a4.77,4.77,0,0,0,2.86-2.41c.33-.61.63-1.23.92-1.85a39.59,39.59,0,0,0,3.14-4.73,13.61,13.61,0,0,1,13.18-2.64c4,1.32,7.75-2.87,6.72-6.76a76.44,76.44,0,0,0-2.67-8.21l2.49-1.69a6,6,0,0,0,2.15-2.49C455.6,230.26,464.48,220.1,457.43,213.57Z"/><path class="cls-2" d="M231.28,413.26a84.43,84.43,0,0,1-10.18-8,5.66,5.66,0,0,0-1.58-1.63c-.28-.2-.54-.41-.81-.62a89.73,89.73,0,0,1-10.59-12.51A5.61,5.61,0,0,0,204,388a325.58,325.58,0,0,0-25.1-23.9c-5-4.9-10.12-9.67-15.41-14.26a5.72,5.72,0,0,0-3.38-1.47A134.52,134.52,0,0,1,147,334.49a4.45,4.45,0,0,0-3.91-1.73q-10-9.63-20.48-18.69c-.66-4.1-3.23-6.82-6.17-9.76-3.25-3.25-6.67-6.32-10.21-9.26a4.44,4.44,0,0,0-4.32-.88,137.29,137.29,0,0,0-17.54-17.05c4.2.32,7.81-5.18,4.34-9.41a313.87,313.87,0,0,0-29.3-31.27q-7.86-7.29-16.2-14c-3.95-3.19-9-8.87-14.64-7.19A9.21,9.21,0,0,0,24,218.43a3.66,3.66,0,0,0-4.57,1c-2.22,2.55-5.15,5.1-7,8.07a4.63,4.63,0,0,0-2.24,5.61h0l-.34.28a45.19,45.19,0,0,0-6.25,2.8,7.33,7.33,0,0,0-3.4,8.4,4.72,4.72,0,0,0,2.54,4.68,4.77,4.77,0,0,0,3.4,3.78c4.12,4.37,8.64,8.47,12.8,12.7a5.2,5.2,0,0,0,3.4,1.68c1.87,1.94,3.72,3.89,5.55,5.87a4.75,4.75,0,0,0,1,.83,5.22,5.22,0,0,0,1.22,2.11c.43.46.87.89,1.31,1.34q2,2.67,4.17,5.18a7.17,7.17,0,0,0,2.09,8q40.54,37.79,81.09,75.58A422.22,422.22,0,0,1,149,398.15a5.77,5.77,0,0,0,2.45,4.48c1.42,1.06,2.83,2.14,4.24,3.21,11.06,12.56,23,24.26,35,35.93a7.6,7.6,0,0,0,9.07,1.47,5.29,5.29,0,0,0,.45,1.28c2.14,4.36,5.6,9,10.15,10.92a4.27,4.27,0,0,0,1.77,2.29c.09.09.18.17.26.26a10.63,10.63,0,0,0,1.27,1.15,6.12,6.12,0,0,0,5.29,1.2,5.16,5.16,0,0,0,2.37-1.41,5.63,5.63,0,0,0,4.23-5.51l.42-.27a40.28,40.28,0,0,0,10.84-11.47c.51-.57,1-1.12,1.54-1.69a38.23,38.23,0,0,0,2.51-3c3,.33,5-2.22,5.39-5a6.25,6.25,0,0,0,.4-.5C253.45,421.65,237.18,417.19,231.28,413.26Z"/></g></g></svg>