<svg xmlns="http://www.w3.org/2000/svg" xmlns:xlink="http://www.w3.org/1999/xlink" viewBox="0 0 420.75 419.04"><defs><style>.cls-1,.cls-6{fill:none;}.cls-2,.cls-3{fill:#e46425;}.cls-2{fill-opacity:0.51;}.cls-3{fill-opacity:0.84;}.cls-4{isolation:isolate;}.cls-5{clip-path:url(#clip-path);}.cls-6{stroke:#000;stroke-miterlimit:10;stroke-width:0.25px;}.cls-7{clip-path:url(#clip-path-2);}.cls-8{clip-path:url(#clip-path-3);}.cls-9{clip-path:url(#clip-path-4);}.cls-10{clip-path:url(#clip-path-5);}.cls-11{clip-path:url(#clip-path-6);}.cls-12{clip-path:url(#clip-path-7);}.cls-13{clip-path:url(#clip-path-8);}.cls-14{clip-path:url(#clip-path-9);}.cls-15{clip-path:url(#clip-path-10);}.cls-16{clip-path:url(#clip-path-11);}.cls-17{clip-path:url(#clip-path-12);}.cls-18{clip-path:url(#clip-path-13);}.cls-19{clip-path:url(#clip-path-14);}.cls-20{clip-path:url(#clip-path-15);}.cls-21{clip-path:url(#clip-path-16);}.cls-22{clip-path:url(#clip-path-17);}.cls-23{clip-path:url(#clip-path-18);}.cls-24{clip-path:url(#clip-path-19);}.cls-25{clip-path:url(#clip-path-20);}.cls-26{clip-path:url(#clip-path-21);}.cls-27{clip-path:url(#clip-path-22);}.cls-28{clip-path:url(#clip-path-23);}.cls-29{clip-path:url(#clip-path-24);}.cls-30{clip-path:url(#clip-path-25);}.cls-31{clip-path:url(#clip-path-26);}.cls-32{clip-path:url(#clip-path-27);}.cls-33{clip-path:url(#clip-path-28);}.cls-34{clip-path:url(#clip-path-29);}.cls-35{clip-path:url(#clip-path-30);}.cls-36{clip-path:url(#clip-path-31);}.cls-37{clip-path:url(#clip-path-32);}.cls-38{clip-path:url(#clip-path-33);}.cls-39{clip-path:url(#clip-path-34);}.cls-40{clip-path:url(#clip-path-35);}.cls-41{clip-path:url(#clip-path-36);}.cls-42{clip-path:url(#clip-path-37);}.cls-43{clip-path:url(#clip-path-38);}.cls-44{clip-path:url(#clip-path-39);}.cls-45{clip-path:url(#clip-path-40);}.cls-46{clip-path:url(#clip-path-41);}.cls-47{clip-path:url(#clip-path-42);}.cls-48{clip-path:url(#clip-path-43);}.cls-49{clip-path:url(#clip-path-44);}.cls-50{clip-path:url(#clip-path-45);}.cls-51{clip-path:url(#clip-path-46);}.cls-52{clip-path:url(#clip-path-47);}.cls-53{clip-path:url(#clip-path-48);}.cls-54{clip-path:url(#clip-path-49);}.cls-55{clip-path:url(#clip-path-50);}.cls-56{clip-path:url(#clip-path-51);}.cls-57{clip-path:url(#clip-path-52);}.cls-58{clip-path:url(#clip-path-53);}.cls-59{clip-path:url(#clip-path-54);}.cls-60{clip-path:url(#clip-path-55);}.cls-61{clip-path:url(#clip-path-56);}.cls-62{clip-path:url(#clip-path-57);}.cls-63{clip-path:url(#clip-path-58);}.cls-64{clip-path:url(#clip-path-59);}.cls-65{clip-path:url(#clip-path-60);}.cls-66{clip-path:url(#clip-path-61);}.cls-67{clip-path:url(#clip-path-62);}.cls-68{clip-path:url(#clip-path-63);}.cls-69{clip-path:url(#clip-path-64);}.cls-70{clip-path:url(#clip-path-65);}.cls-71{clip-path:url(#clip-path-66);}.cls-72{clip-path:url(#clip-path-67);}.cls-73{clip-path:url(#clip-path-68);}</style><clipPath id="clip-path"><path class="cls-1" d="M285.08,184.27l3.16-2.46c9.75,12.67,4.63,31.9-1.16,43.68a61.12,61.12,0,0,1-54.68,34.32,48.79,48.79,0,0,1-16.31-2.27A62.41,62.41,0,0,1,182,233.66c-9.26-13.18-12.55-29.82-12-45.37.63-17.56,5.85-34.34,11.53-50.4,5.22-14.74,11.5-29.54,23-41.29a8.58,8.58,0,0,1,6.19-2.71c6.83,0,12.86,8.81,6.6,15.37-9.4,9.62-14.54,22.43-19.11,35.51-5,14.33-9.66,29-10.18,43.81-.64,18.33,5.84,36.08,6.74,36.67l11.15,12.4c-15.64-10.61-22.58-29.76-21.88-49.22.55-15.47,5.32-30.48,10.39-45,4.66-13.34,10-26.71,20-37,3.46-3.55.06-8.57-3.74-8.57a4.59,4.59,0,0,0-3.33,1.51c-10.86,11.12-16.93,25.37-22.05,39.82-5.61,15.87-10.7,32.27-11.3,49.21-.53,14.85,2.6,30.61,11.27,42.93a58.43,58.43,0,0,0,31.86,22.33,55.56,55.56,0,0,0,15.22,2.12,57.12,57.12,0,0,0,51.09-32.08C288.93,212.63,293.48,195,285.08,184.27Z"/></clipPath><clipPath id="clip-path-2"><path class="cls-1" d="M195.31,225.84c-.18-.19-.36-.39-.53-.59.4.7,3.06-16,9.94-28.88A54.53,54.53,0,0,1,244.28,168a40.47,40.47,0,0,1,8.58-.63c12.73,0,27.19,4,35.38,14.47l-3.16,2.46c-7.17-9.21-20.36-12.93-32.22-12.93a54,54,0,0,0-8,.59,50.5,50.5,0,0,0-36.63,26.32c-6.39,12-8.79,27.29-2.32,39.4Z"/></clipPath><clipPath id="clip-path-3"><path class="cls-1" d="M194.78,225.25l.53.59C195.13,225.65,195,225.45,194.78,225.25Z"/></clipPath><clipPath id="clip-path-4"><path class="cls-1" d="M288.26,181.85l0,0h0Z"/></clipPath><clipPath id="clip-path-5"><path class="cls-1" d="M288.26,181.85c9.71,12.67,4.6,31.87-1.18,43.64h0c5.78-11.77,10.89-31,1.18-43.64Z"/></clipPath><clipPath id="clip-path-6"><path class="cls-1" d="M287.05,225.56l0-.07h0Z"/></clipPath><clipPath id="clip-path-7"><path class="cls-1" d="M287.05,225.56a61.11,61.11,0,0,1-54.65,34.25h0a61.11,61.11,0,0,0,54.65-34.25Z"/></clipPath><clipPath id="clip-path-8"><path class="cls-1" d="M232.39,259.81h0Z"/></clipPath><clipPath id="clip-path-9"><path class="cls-1" d="M232.39,259.81a48.7,48.7,0,0,1-16.3-2.27h0a48.7,48.7,0,0,0,16.3,2.27Z"/></clipPath><clipPath id="clip-path-10"><path class="cls-1" d="M216,257.53h0Z"/></clipPath><clipPath id="clip-path-11"><path class="cls-1" d="M216,257.53a62.45,62.45,0,0,1-34-23.87h0a62.45,62.45,0,0,0,34,23.87Z"/></clipPath><clipPath id="clip-path-12"><path class="cls-1" d="M182,233.62l0,0h0l0,0Z"/></clipPath><clipPath id="clip-path-13"><path class="cls-1" d="M182,233.62c-9.24-13.17-12.53-29.8-12-45.33h0c-.56,15.53,2.73,32.16,12,45.33Z"/></clipPath><clipPath id="clip-path-14"><path class="cls-1" d="M170.05,188.24v0h0Z"/></clipPath><clipPath id="clip-path-15"><path class="cls-1" d="M170.05,188.24c.64-17.54,5.85-34.31,11.53-50.35h0c-5.68,16-10.89,32.81-11.53,50.35Z"/></clipPath><clipPath id="clip-path-16"><path class="cls-1" d="M181.6,137.84l0,0h0Z"/></clipPath><clipPath id="clip-path-17"><path class="cls-1" d="M181.6,137.84c5.21-14.72,11.49-29.5,22.94-41.24h0c-11.45,11.74-17.73,26.52-22.94,41.24Z"/></clipPath><clipPath id="clip-path-18"><polygon class="cls-1" points="204.54 96.6 204.54 96.6 204.54 96.6 204.54 96.6"/></clipPath><clipPath id="clip-path-19"><path class="cls-1" d="M204.54,96.6a8.59,8.59,0,0,1,6.19-2.71h0a8.59,8.59,0,0,0-6.19,2.71Z"/></clipPath><clipPath id="clip-path-20"><path class="cls-1" d="M210.75,93.89h0Z"/></clipPath><clipPath id="clip-path-21"><path class="cls-1" d="M210.75,93.89c6.82,0,12.83,8.82,6.58,15.37h0c6.25-6.55.24-15.32-6.58-15.37Z"/></clipPath><clipPath id="clip-path-22"><path class="cls-1" d="M217.3,109.28l0,0h0Z"/></clipPath><clipPath id="clip-path-23"><path class="cls-1" d="M217.3,109.28c-9.38,9.62-14.51,22.42-19.08,35.49h0c4.57-13.07,9.7-25.87,19.08-35.49Z"/></clipPath><clipPath id="clip-path-24"><path class="cls-1" d="M198.2,144.81l0,0h0Z"/></clipPath><clipPath id="clip-path-25"><path class="cls-1" d="M198.2,144.81c-5,14.32-9.64,28.93-10.16,43.77h0c.52-14.84,5.16-29.45,10.16-43.77Z"/></clipPath><clipPath id="clip-path-26"><path class="cls-1" d="M188,188.63v0h0Z"/></clipPath><clipPath id="clip-path-27"><path class="cls-1" d="M188,188.63c-.62,18.32,5.84,36,6.74,36.62h0c-.9-.59-7.36-18.3-6.74-36.62Z"/></clipPath><clipPath id="clip-path-28"><polygon class="cls-1" points="194.78 225.25 194.78 225.25 194.78 225.25 194.78 225.25"/></clipPath><clipPath id="clip-path-29"><path class="cls-1" d="M194.78,225.25c.41.67,3.07-16,9.94-28.88h0c-6.87,12.86-9.53,29.55-9.94,28.88Z"/></clipPath><clipPath id="clip-path-30"><path class="cls-1" d="M204.74,196.32l0,.05h0Z"/></clipPath><clipPath id="clip-path-31"><path class="cls-1" d="M204.74,196.32A54.53,54.53,0,0,1,244.28,168h0a54.53,54.53,0,0,0-39.54,28.35Z"/></clipPath><clipPath id="clip-path-32"><polygon class="cls-1" points="244.29 167.97 244.28 167.97 244.28 167.97 244.29 167.97"/></clipPath><clipPath id="clip-path-33"><path class="cls-1" d="M244.29,168a40.37,40.37,0,0,1,8.57-.63h0a40.37,40.37,0,0,0-8.57.63Z"/></clipPath><clipPath id="clip-path-34"><path class="cls-1" d="M252.9,167.34h0Z"/></clipPath><clipPath id="clip-path-35"><path class="cls-1" d="M252.9,167.34c12.72,0,27.16,4,35.34,14.47h0c-8.18-10.44-22.62-14.47-35.34-14.47Z"/></clipPath><clipPath id="clip-path-36"><path class="cls-1" d="M288.24,181.81c9.75,12.67,4.63,31.9-1.16,43.68a61.12,61.12,0,0,1-54.68,34.32,48.79,48.79,0,0,1-16.31-2.27A62.41,62.41,0,0,1,182,233.66c-9.26-13.18-12.55-29.82-12-45.37.63-17.56,5.85-34.34,11.53-50.4,5.22-14.74,11.5-29.54,23-41.29a8.58,8.58,0,0,1,6.19-2.71c6.83,0,12.86,8.81,6.6,15.37-9.4,9.62-14.54,22.43-19.11,35.51-5,14.33-9.66,29-10.18,43.81-.64,18.33,5.84,36.08,6.74,36.67l11.15,12.4c-15.64-10.61-22.58-29.76-21.88-49.22.55-15.47,5.32-30.48,10.39-45,4.66-13.34,10-26.71,20-37,3.46-3.55.06-8.57-3.74-8.57a4.59,4.59,0,0,0-3.33,1.51c-10.86,11.12-16.93,25.37-22.05,39.82-5.61,15.87-10.7,32.27-11.3,49.21-.53,14.85,2.6,30.61,11.27,42.93a58.43,58.43,0,0,0,31.86,22.33,55.56,55.56,0,0,0,15.22,2.12,57.12,57.12,0,0,0,51.09-32.08c5.44-11.1,10-28.7,1.59-39.46Z"/></clipPath><clipPath id="clip-path-37"><path class="cls-1" d="M194.78,225.25c.4.7,3.06-16,9.94-28.88A54.53,54.53,0,0,1,244.28,168a40.47,40.47,0,0,1,8.58-.63c12.73,0,27.19,4,35.38,14.47l-3.16,2.46c-7.17-9.21-20.36-12.93-32.22-12.93a54,54,0,0,0-8,.59,50.5,50.5,0,0,0-36.63,26.32c-6.39,12-8.79,27.29-2.32,39.4l-10.62-11.81C195.13,225.65,195,225.45,194.78,225.25Z"/></clipPath><clipPath id="clip-path-38"><path class="cls-1" d="M195.31,225.84l-.49-.54,0-.05Z"/></clipPath><clipPath id="clip-path-39"><path class="cls-1" d="M219.65,241.81l3.19-.68a.8.8,0,0,1-.48.25h-.11C221,241.54,220.15,241.71,219.65,241.81Z"/></clipPath><clipPath id="clip-path-40"><path class="cls-1" d="M222.84,241.13a.77.77,0,0,1-.44.24l-.15,0c-.91.11-1.79.25-2.6.42l-4,.86a5.38,5.38,0,0,0,.52-7.29c-7.46-9.24-3.94-24,1.41-33.36a40.17,40.17,0,0,1,42.53-20.08c5.84,1.1,14.31,3.78,17.65,9.2,2.93,4.75,1.82,12.15.66,17.28l-3.9-.88c1.07-4.75,1.92-11-.16-14.3-2.36-4-9.64-6.35-15-7.36a35,35,0,0,0-6.63-.62A36,36,0,0,0,221.05,204c-4.86,8.54-7.82,21.52-1.77,28.86C222.8,237.24,221.45,242.54,222.84,241.13Z"/></clipPath><clipPath id="clip-path-41"><path class="cls-1" d="M216.26,242.54c.28-.08.45-.12.84-.76a20.37,20.37,0,0,0,1.05-2.33h0c.15,0,2,.66,4.68,1.69-5.27-2-4.85-1.85-4.42-1.71,4.32,1.12,9.46,2.36,14.12,2.36A42.58,42.58,0,0,0,269,221a93.06,93.06,0,0,0,5.5-13.47l3.9.88a48.66,48.66,0,0,1-6,14.67,46.56,46.56,0,0,1-39.9,22.69,47.9,47.9,0,0,1-15.39-2.56c-.51-.17-1-.36-1.5-.55Z"/></clipPath><clipPath id="clip-path-42"><path class="cls-1" d="M222.84,241.13l-6.58,1.41c.22-.06.43-.11.76-.65a13,13,0,0,0,1-2.26l.08-.18h0a25.57,25.57,0,0,1,3.94,1.41A3.31,3.31,0,0,0,222.84,241.13Z"/></clipPath><clipPath id="clip-path-43"><path class="cls-1" d="M274.52,207.53h0Z"/></clipPath><clipPath id="clip-path-44"><path class="cls-1" d="M274.52,207.53c1.07-4.75,1.92-11-.16-14.29h0c2.08,3.25,1.23,9.54.16,14.29Z"/></clipPath><clipPath id="clip-path-45"><path class="cls-1" d="M274.35,193.23h0Z"/></clipPath><clipPath id="clip-path-46"><path class="cls-1" d="M274.35,193.23c-2.37-4-9.64-6.34-15-7.35h0c5.35,1,12.62,3.39,15,7.35Z"/></clipPath><clipPath id="clip-path-47"><polygon class="cls-1" points="259.36 185.87 259.37 185.88 259.37 185.88 259.36 185.87"/></clipPath><clipPath id="clip-path-48"><path class="cls-1" d="M259.36,185.87a35.87,35.87,0,0,0-6.63-.61h0a35.87,35.87,0,0,1,6.63.61Z"/></clipPath><clipPath id="clip-path-49"><polygon class="cls-1" points="252.72 185.26 252.73 185.26 252.73 185.26 252.72 185.26"/></clipPath><clipPath id="clip-path-50"><path class="cls-1" d="M252.72,185.26a36.82,36.82,0,0,0-8.25.94h0a36.82,36.82,0,0,1,8.25-.94Z"/></clipPath><clipPath id="clip-path-51"><path class="cls-1" d="M244.44,186.21h0Z"/></clipPath><clipPath id="clip-path-52"><path class="cls-1" d="M244.44,186.21A36.64,36.64,0,0,0,221.05,204h0a36.64,36.64,0,0,1,23.39-17.8Z"/></clipPath><clipPath id="clip-path-53"><path class="cls-1" d="M221,204v0h0Z"/></clipPath><clipPath id="clip-path-54"><path class="cls-1" d="M221,204c-4.85,8.55-7.81,21.51-1.76,28.84h0c-6.05-7.33-3.09-20.29,1.76-28.84Z"/></clipPath><clipPath id="clip-path-55"><path class="cls-1" d="M219.29,232.88h0Z"/></clipPath><clipPath id="clip-path-56"><path class="cls-1" d="M219.29,232.88c3.51,4.37,2.16,9.66,3.55,8.25h0c-1.39,1.41,0-3.88-3.55-8.25Z"/></clipPath><clipPath id="clip-path-57"><path class="cls-1" d="M222.82,241.13h0Z"/></clipPath><clipPath id="clip-path-58"><path class="cls-1" d="M222.82,241.13h0c-5.25-2-4.83-1.85-4.4-1.71h0C218,239.28,217.57,239.11,222.82,241.13Z"/></clipPath><clipPath id="clip-path-59"><path class="cls-1" d="M218.44,239.43h0Z"/></clipPath><clipPath id="clip-path-60"><path class="cls-1" d="M218.44,239.43c4.31,1.11,9.44,2.35,14.1,2.35h0c-4.66,0-9.79-1.24-14.1-2.35Z"/></clipPath><clipPath id="clip-path-61"><path class="cls-1" d="M232.58,241.78h0Z"/></clipPath><clipPath id="clip-path-62"><path class="cls-1" d="M232.58,241.78A42.56,42.56,0,0,0,269,221h0a42.56,42.56,0,0,1-36.44,20.77Z"/></clipPath><clipPath id="clip-path-63"><path class="cls-1" d="M269,221h0Z"/></clipPath><clipPath id="clip-path-64"><path class="cls-1" d="M269,221a93.36,93.36,0,0,0,5.49-13.46h0A93.36,93.36,0,0,1,269,221Z"/></clipPath><clipPath id="clip-path-65"><path class="cls-1" d="M222.84,241.13c-.21.18-.23.2-.43.24s-.26,0-.39,0c-1.15.14-2,.31-2.37.39Z"/></clipPath><clipPath id="clip-path-66"><path class="cls-1" d="M219.65,241.81l-4,.86a5.38,5.38,0,0,0,.52-7.29c-7.46-9.24-3.94-24,1.41-33.36a40.17,40.17,0,0,1,42.53-20.08c5.84,1.1,14.31,3.78,17.65,9.2,2.93,4.75,1.82,12.15.66,17.28l-3.9-.88c1.07-4.75,1.92-11-.16-14.3-2.36-4-9.64-6.35-15-7.36a35,35,0,0,0-6.63-.62A36,36,0,0,0,221.05,204c-4.86,8.54-7.82,21.52-1.77,28.86,3.52,4.37,2.17,9.67,3.56,8.26a.7.7,0,0,1-.43.24h-.09C221,241.53,220.16,241.71,219.65,241.81Z"/></clipPath><clipPath id="clip-path-67"><path class="cls-1" d="M222.84,241.13c-5.27-2-4.85-1.85-4.42-1.71,4.32,1.12,9.46,2.36,14.12,2.36A42.58,42.58,0,0,0,269,221a93.06,93.06,0,0,0,5.5-13.47l3.9.88a48.66,48.66,0,0,1-6,14.67,46.56,46.56,0,0,1-39.9,22.69,47.9,47.9,0,0,1-15.39-2.56c-.51-.17-1-.36-1.5-.55l.61-.13a1,1,0,0,0,.66-.46,14.78,14.78,0,0,0,1.25-2.69C218.24,239.37,220,240,222.84,241.13Z"/></clipPath><clipPath id="clip-path-68"><path class="cls-1" d="M216.26,242.54A.94.94,0,0,0,217,242a13.8,13.8,0,0,0,1.22-2.62c.08,0,.88.29,4.67,1.74Z"/></clipPath></defs><g id="Layer_2" data-name="Layer 2"><g id="lines"><path class="cls-2" d="M418.39,194.33A109.32,109.32,0,0,0,404,183.13a150.68,150.68,0,0,0-12.7-12.44,3.25,3.25,0,0,0-.54-1.39,3.53,3.53,0,0,0-1.29-2.11q-7.46-6.25-14.79-12.65a3.53,3.53,0,0,0-1-3.88q-3.18-3.07-6.55-5.93-10.79-9.69-22-18.88-8.89-10-17.85-19.87c-18.73-20.7-37.4-42.67-61.69-57-4.4-5.25-8.83-10.46-13.55-15.41A118.89,118.89,0,0,0,244.53,23a4,4,0,0,0-.69-1.21c-2.59-3-5.12-6.07-7.63-9.14,0-.12-.07-.23-.11-.34a13.32,13.32,0,0,0-1.71-3.16,7.71,7.71,0,0,0,.05-3.36c0-.13-.05-.26-.07-.4A7.29,7.29,0,0,0,229.13.2c-8.41-1.47-14.15,5.55-18.31,12-2.47,2.52-4.79,5.27-7.09,7.82-2.4,1.46-4.91,2.79-7.22,4.39a26.26,26.26,0,0,0-8.27,7.49l-.27.31a6.18,6.18,0,0,0-8.33,1.5c-5.73,6.79-11.17,14.5-18.14,20.1-3.14,2.52-6.53,4.67-9.86,6.89A44.71,44.71,0,0,0,141,69.12a7.36,7.36,0,0,0-.88,9c-6.75,6-13.43,12.1-20,18.34A456.86,456.86,0,0,0,80.2,140.08c-12.35,15.3-24.73,31-40.63,42.83a5.41,5.41,0,0,0-1.52,1.71c-5.15.87-5.93,8-2.2,9.67a4,4,0,0,0,1.6,4.11c9.89,8.12,17.53,18.12,24.26,28.79a60.87,60.87,0,0,0,12.13,20.54c3.25,3.67,8.52.29,8.47-3.77l.53.42,9,8.49a4,4,0,0,0-.22,2.45c1.48,7,7.66,11.4,12.73,15.93,5.42,4.84,10.89,11.23,17.69,14.12a4.14,4.14,0,0,0,2.42.28q11.07,13.25,22.14,26.49c7.79,9.29,15.91,17.09,26.16,23.63,4.17,2.66,8.31,5.32,12.38,8.06,1.59,1.36,3.14,2.75,4.65,4.2,2.81,2.7,5.34,5.71,8.44,8.08,2.68,2,5.45,3.62,7.91,5.95,5.88,5.55,17.24,18.06,26.75,17.84,6.12.66,12.11-1.83,16.83-6.77,7.5-7.83,13.08-17.66,20-26,.82-1,1.67-1.94,2.5-2.9a7.53,7.53,0,0,0,4.86-1.93c13-11.26,25.94-22.54,38.69-34.11a6.46,6.46,0,0,0,2.15-6.65c.65-.55,1.3-1.1,1.94-1.66a6.91,6.91,0,0,0,6.89-1.89c8.24-8,15.37-17,22.53-25.93,3.49-4.37,7-8.73,10.66-12.94,3.36-3.85,7.18-9.3,12-11.35,2.65-1.14,3.8-4.2,3.61-7,.54-.58,1.08-1.16,1.63-1.73l.12-.14a4.55,4.55,0,0,0,2-.9c.34-.26.66-.53,1-.8l0,0a.52.52,0,0,1,.1-.11c1.08-.88,2.1-1.79,3.08-2.74a4.39,4.39,0,0,0,2.62-2.18c.3-.57.57-1.13.83-1.69a34.7,34.7,0,0,0,2.87-4.31,12.52,12.52,0,0,1,12.06-2.4c3.71,1.2,7.09-2.61,6.15-6.15a70.13,70.13,0,0,0-2.44-7.47l2.27-1.54a5.37,5.37,0,0,0,2-2.27C416.72,209.52,424.84,200.27,418.39,194.33Z"/><path class="cls-3" d="M211.54,376a77.87,77.87,0,0,1-9.31-7.27,5.33,5.33,0,0,0-1.44-1.49c-.26-.18-.5-.37-.75-.56a82.71,82.71,0,0,1-9.68-11.38,5.12,5.12,0,0,0-3.78-2.27,298.44,298.44,0,0,0-23-21.75q-6.85-6.69-14.1-13a5.17,5.17,0,0,0-3.1-1.33,123.5,123.5,0,0,1-12-12.65,4.1,4.1,0,0,0-3.58-1.57q-9.14-8.76-18.73-17c-.61-3.72-2.95-6.21-5.65-8.88-3-3-6.1-5.75-9.33-8.42a4.12,4.12,0,0,0-4-.81,125.27,125.27,0,0,0-16-15.51,5.17,5.17,0,0,0,4-8.56,286,286,0,0,0-26.8-28.45q-7.18-6.63-14.82-12.75c-3.61-2.9-8.2-8.08-13.39-6.55a8.47,8.47,0,0,0-4.12,2.9,3.37,3.37,0,0,0-4.18.91c-2,2.32-4.71,4.64-6.37,7.34a4.21,4.21,0,0,0-2,5.11h0l-.31.26a39.91,39.91,0,0,0-5.72,2.55,6.64,6.64,0,0,0-3.11,7.64,4.28,4.28,0,0,0,2.32,4.26,4.34,4.34,0,0,0,3.11,3.44c3.76,4,7.9,7.71,11.71,11.56a4.8,4.8,0,0,0,3.1,1.52c1.71,1.77,3.41,3.54,5.08,5.35a4.53,4.53,0,0,0,.91.75,4.62,4.62,0,0,0,1.12,1.92c.39.42.79.81,1.19,1.22,1.22,1.62,2.49,3.2,3.82,4.71a6.51,6.51,0,0,0,1.91,7.3Q71.6,299,108.69,333.37a381.6,381.6,0,0,1,27.56,28.93,5.28,5.28,0,0,0,2.25,4.07c1.3,1,2.58,1.94,3.88,2.92,10.11,11.43,21.07,22.07,32,32.69a7,7,0,0,0,8.29,1.34,5.44,5.44,0,0,0,.41,1.17c2,4,5.13,8.21,9.28,9.93A3.9,3.9,0,0,0,194,416.5l.24.24a9.64,9.64,0,0,0,1.16,1.05,5.62,5.62,0,0,0,4.84,1.09,4.69,4.69,0,0,0,2.16-1.28,5.12,5.12,0,0,0,3.87-5l.39-.25a36.9,36.9,0,0,0,9.91-10.44c.47-.51.95-1,1.41-1.54a34.19,34.19,0,0,0,2.3-2.75c2.71.31,4.6-2,4.93-4.57.12-.14.25-.28.37-.45C231.82,383.68,216.94,379.62,211.54,376Z"/><g class="cls-4"><g class="cls-4"><g class="cls-5"><g class="cls-4"><path class="cls-6" d="M285.08,184.27l3.16-2.46c9.75,12.67,4.63,31.9-1.16,43.68l-3.59-1.76C288.93,212.63,293.48,195,285.08,184.27Z"/><path class="cls-6" d="M286.67,183c9.08,11.73,4.25,30.15-1.37,41.6"/><path class="cls-6" d="M287.8,182.14c9.57,12.41,4.53,31.42-1.21,43.11"/><path class="cls-6" d="M289.61,196.81l3.94-.66"/><path class="cls-6" d="M288.19,211l3.93.79"/><path class="cls-6" d="M283.49,223.73l3.59,1.76a61.12,61.12,0,0,1-54.68,34.32v-4A57.12,57.12,0,0,0,283.49,223.73Z"/><path class="cls-6" d="M285.3,224.62a59.14,59.14,0,0,1-52.9,33.21"/><path class="cls-6" d="M286.59,225.25a60.6,60.6,0,0,1-54.19,34"/><path class="cls-6" d="M270.64,240.88l2.7,3"/><path class="cls-6" d="M252.94,251.91l1.45,3.73"/><path class="cls-6" d="M232.4,255.81v4a48.79,48.79,0,0,1-16.31-2.27l1.09-3.85A55.56,55.56,0,0,0,232.4,255.81Z"/><path class="cls-6" d="M232.4,257.83a51.54,51.54,0,0,1-15.77-2.2"/><path class="cls-6" d="M232.4,259.27A49.64,49.64,0,0,1,216.23,257"/><path class="cls-6" d="M227.34,255.58l-.29,4.07"/><path class="cls-6" d="M222.25,254.88l-.58,4.11"/><path class="cls-6" d="M217.18,253.69l-1.09,3.85A62.41,62.41,0,0,1,182,233.66l3.28-2.3A58.43,58.43,0,0,0,217.18,253.69Z"/><path class="cls-6" d="M216.63,255.63a60.34,60.34,0,0,1-33-23.11"/><path class="cls-6" d="M216.23,257a61.9,61.9,0,0,1-33.74-23.67"/><path class="cls-6" d="M204.94,248.71,203,252.23"/><path class="cls-6" d="M194.14,241.18l-2.66,3"/><path class="cls-6" d="M185.32,231.36l-3.28,2.3c-9.26-13.18-12.55-29.82-12-45.37l4,.14C173.52,203.28,176.65,219,185.32,231.36Z"/><path class="cls-6" d="M183.66,232.52c-9-12.75-12.18-29-11.63-44.16"/><path class="cls-6" d="M182.49,233.35c-9.18-13.07-12.45-29.59-11.89-45"/><path class="cls-6" d="M178.42,218.06l-3.73,1.44"/><path class="cls-6" d="M174.81,203.43l-4,.6"/><path class="cls-6" d="M174.05,188.43l-4-.14c.63-17.56,5.85-34.34,11.53-50.4l3.77,1.33C179.74,155.09,174.65,171.49,174.05,188.43Z"/><path class="cls-6" d="M172,188.36c.62-17.25,5.77-33.85,11.42-49.81"/><path class="cls-6" d="M170.6,188.31c.62-17.47,5.82-34.21,11.5-50.24"/><path class="cls-6" d="M176,171.67l-3.94-.68"/><path class="cls-6" d="M180.06,155.27l-3.86-1.08"/><path class="cls-6" d="M185.35,139.22l-3.77-1.33c5.22-14.74,11.5-29.54,23-41.29l2.86,2.8C196.54,110.52,190.47,124.77,185.35,139.22Z"/><path class="cls-6" d="M183.45,138.55C188.62,124,194.79,109.42,206,98"/><path class="cls-6" d="M182.1,138.07c5.2-14.7,11.45-29.42,22.83-41.09"/><path class="cls-6" d="M190.93,124.94l-3.62-1.7"/><path class="cls-6" d="M198,111.45l-3.34-2.2"/><path class="cls-6" d="M207.4,99.4l-2.86-2.8a8.58,8.58,0,0,1,6.19-2.71v4A4.59,4.59,0,0,0,207.4,99.4Z"/><path class="cls-6" d="M206,98a6.6,6.6,0,0,1,4.77-2.12"/><path class="cls-6" d="M204.93,97a8,8,0,0,1,5.8-2.54"/><path class="cls-6" d="M208.47,98.54l-2-3.46"/><path class="cls-6" d="M209.59,98.05l-1-3.86"/><path class="cls-6" d="M210.73,97.89v-4c6.83,0,12.86,8.81,6.6,15.37l-2.86-2.8C217.93,102.91,214.53,97.89,210.73,97.89Z"/><path class="cls-6" d="M210.73,95.87c5.33,0,10.06,6.93,5.18,12"/><path class="cls-6" d="M210.73,94.44c6.42,0,12.09,8.29,6.21,14.43"/><path class="cls-6" d="M214.16,99.33l2.71-2.9"/><path class="cls-6" d="M215.88,102.66l4-.29"/><path class="cls-6" d="M214.47,106.46l2.86,2.8c-9.4,9.62-14.54,22.43-19.11,35.51l-3.78-1.32C199.1,130.11,204.44,116.74,214.47,106.46Z"/><path class="cls-6" d="M215.91,107.87c-9.71,9.95-14.94,23-19.56,36.25"/><path class="cls-6" d="M216.94,108.87c-9.49,9.72-14.65,22.6-19.24,35.72"/><path class="cls-6" d="M205.85,117.66l3.36,2.17"/><path class="cls-6" d="M199.48,130.22l3.64,1.67"/><path class="cls-6" d="M194.44,143.45l3.78,1.32c-5,14.33-9.66,29-10.18,43.81l-4-.15C184.6,173,189.37,158,194.44,143.45Z"/><path class="cls-6" d="M196.35,144.12c-5,14.41-9.75,29.23-10.29,44.39"/><path class="cls-6" d="M197.7,144.59c-5,14.35-9.68,29-10.2,44"/><path class="cls-6" d="M189.62,158.12l3.85,1.08"/><path class="cls-6" d="M185.86,173.12l3.94.68"/><path class="cls-6" d="M184.05,188.43l4,.15c-.64,18.33,5.84,36.08,6.74,36.67l11.15,12.4C190.29,227,183.35,207.89,184.05,188.43Z"/><path class="cls-6" d="M186.06,188.51c-.66,18.89,6,37.33,14.24,42.88"/><path class="cls-6" d="M187.5,188.56C186.85,207,193.39,225,196.3,227"/><path class="cls-6" d="M185.94,207.48l3.37-1.38"/><path class="cls-6" d="M193.15,224.5l-.66-4.94"/></g><path class="cls-6" d="M285.08,184.27l3.16-2.46c9.75,12.67,4.63,31.9-1.16,43.68a61.12,61.12,0,0,1-54.68,34.32,48.79,48.79,0,0,1-16.31-2.27A62.41,62.41,0,0,1,182,233.66c-9.26-13.18-12.55-29.82-12-45.37.63-17.56,5.85-34.34,11.53-50.4,5.22-14.74,11.5-29.54,23-41.29a8.58,8.58,0,0,1,6.19-2.71c6.83,0,12.86,8.81,6.6,15.37-9.4,9.62-14.54,22.43-19.11,35.51-5,14.33-9.66,29-10.18,43.81-.64,18.33,5.84,36.08,6.74,36.67l11.15,12.4c-15.64-10.61-22.58-29.76-21.88-49.22.55-15.47,5.32-30.48,10.39-45,4.66-13.34,10-26.71,20-37,3.46-3.55.06-8.57-3.74-8.57a4.59,4.59,0,0,0-3.33,1.51c-10.86,11.12-16.93,25.37-22.05,39.82-5.61,15.87-10.7,32.27-11.3,49.21-.53,14.85,2.6,30.61,11.27,42.93a58.43,58.43,0,0,0,31.86,22.33,55.56,55.56,0,0,0,15.22,2.12,57.12,57.12,0,0,0,51.09-32.08C288.93,212.63,293.48,195,285.08,184.27Z"/></g></g><g class="cls-4"><g class="cls-7"><g class="cls-4"><path class="cls-6" d="M205.93,237.65l-11.15-12.4c.4.7,3.06-16,9.94-28.88l3.53,1.88C201.86,210.23,199.46,225.54,205.93,237.65Z"/><path class="cls-6" d="M200.3,231.39c-3-5.64-.47-21.66,6.17-34.09"/><path class="cls-6" d="M196.3,227c-.53-1.06,2.09-17.57,8.9-30.32"/><path class="cls-6" d="M202.24,224.72,196,220.93"/><path class="cls-6" d="M203.37,211.1l-4.2-1.37"/><path class="cls-6" d="M208.25,198.25l-3.53-1.88A54.53,54.53,0,0,1,244.28,168l.6,4A50.5,50.5,0,0,0,208.25,198.25Z"/><path class="cls-6" d="M206.47,197.3a52.5,52.5,0,0,1,38.11-27.37"/><path class="cls-6" d="M205.2,196.63a53.94,53.94,0,0,1,39.16-28.12"/><path class="cls-6" d="M217.56,185.77l-2.8-2.85"/><path class="cls-6" d="M230.08,176.71l-1.81-3.57"/><path class="cls-6" d="M244.88,171.93l-.6-4a40.47,40.47,0,0,1,8.58-.63v4A54,54,0,0,0,244.88,171.93Z"/><path class="cls-6" d="M244.58,169.93a44.82,44.82,0,0,1,8.28-.6"/><path class="cls-6" d="M244.36,168.51a41.17,41.17,0,0,1,8.5-.62"/><path class="cls-6" d="M247.46,171.61l-.45-4"/><path class="cls-6" d="M250.12,171.41l-.29-4.07"/><path class="cls-6" d="M252.86,171.34v-4c12.73,0,27.19,4,35.38,14.47l-3.16,2.46C277.91,175.06,264.72,171.34,252.86,171.34Z"/><path class="cls-6" d="M252.86,169.33c12.3,0,26.13,3.86,33.81,13.69"/><path class="cls-6" d="M252.86,167.89c12.61,0,26.9,4,34.94,14.25"/><path class="cls-6" d="M264.89,172.65l1-3.88"/><path class="cls-6" d="M276.17,176.83l2.08-3.42"/></g><path class="cls-6" d="M195.31,225.84c-.18-.19-.36-.39-.53-.59.4.7,3.06-16,9.94-28.88A54.53,54.53,0,0,1,244.28,168a40.47,40.47,0,0,1,8.58-.63c12.73,0,27.19,4,35.38,14.47l-3.16,2.46c-7.17-9.21-20.36-12.93-32.22-12.93a54,54,0,0,0-8,.59,50.5,50.5,0,0,0-36.63,26.32c-6.39,12-8.79,27.29-2.32,39.4Z"/></g></g><g class="cls-4"><g class="cls-8"><g class="cls-4"><path class="cls-6" d="M205.93,237.65l-11.15-12.4c.4.7,3.06-16,9.94-28.88l3.53,1.88C201.86,210.23,199.46,225.54,205.93,237.65Z"/></g><path class="cls-6" d="M194.78,225.25l.53.59C195.13,225.65,195,225.45,194.78,225.25Z"/></g></g><g class="cls-4"><g class="cls-9"><g class="cls-4"><path class="cls-6" d="M288.24,181.81h0c9.75,12.67,4.63,31.9-1.16,43.68h0C292.87,213.71,298,194.48,288.24,181.81Z"/></g><path class="cls-6" d="M288.26,181.85l0,0h0Z"/></g></g><g class="cls-4"><g class="cls-10"><g class="cls-4"><path class="cls-6" d="M288.24,181.81h0c9.75,12.67,4.63,31.9-1.16,43.68h0C292.87,213.71,298,194.48,288.24,181.81Z"/><line class="cls-6" x1="293.55" y1="196.15" x2="293.55" y2="196.15"/><line class="cls-6" x1="292.12" y1="211.75" x2="292.12" y2="211.75"/></g><path class="cls-6" d="M288.26,181.85c9.71,12.67,4.6,31.87-1.18,43.64h0c5.78-11.77,10.89-31,1.18-43.64Z"/></g></g><g class="cls-4"><g class="cls-11"><g class="cls-4"><path class="cls-6" d="M287.08,225.49h0a61.12,61.12,0,0,1-54.68,34.32h0A61.12,61.12,0,0,0,287.08,225.49Z"/></g><path class="cls-6" d="M287.05,225.56l0-.07h0Z"/></g></g><g class="cls-4"><g class="cls-12"><g class="cls-4"><path class="cls-6" d="M287.08,225.49h0a61.12,61.12,0,0,1-54.68,34.32h0A61.12,61.12,0,0,0,287.08,225.49Z"/><line class="cls-6" x1="273.34" y1="243.84" x2="273.34" y2="243.84"/><line class="cls-6" x1="254.39" y1="255.64" x2="254.39" y2="255.64"/></g><path class="cls-6" d="M287.05,225.56a61.11,61.11,0,0,1-54.65,34.25h0a61.11,61.11,0,0,0,54.65-34.25Z"/></g></g><g class="cls-4"><g class="cls-13"><g class="cls-4"><path class="cls-6" d="M232.4,259.81h0a48.79,48.79,0,0,1-16.31-2.27h0A48.79,48.79,0,0,0,232.4,259.81Z"/></g><path class="cls-6" d="M232.39,259.81h0Z"/></g></g><g class="cls-4"><g class="cls-14"><g class="cls-4"><path class="cls-6" d="M232.4,259.81h0a48.79,48.79,0,0,1-16.31-2.27h0A48.79,48.79,0,0,0,232.4,259.81Z"/><line class="cls-6" x1="227.05" y1="259.65" x2="227.05" y2="259.65"/><line class="cls-6" x1="221.67" y1="258.99" x2="221.67" y2="258.99"/></g><path class="cls-6" d="M232.39,259.81a48.7,48.7,0,0,1-16.3-2.27h0a48.7,48.7,0,0,0,16.3,2.27Z"/></g></g><g class="cls-4"><g class="cls-15"><g class="cls-4"><path class="cls-6" d="M216.09,257.54h0A62.41,62.41,0,0,1,182,233.66h0A62.41,62.41,0,0,0,216.09,257.54Z"/></g><path class="cls-6" d="M216,257.53h0Z"/></g></g><g class="cls-4"><g class="cls-16"><g class="cls-4"><path class="cls-6" d="M216.09,257.54h0A62.41,62.41,0,0,1,182,233.66h0A62.41,62.41,0,0,0,216.09,257.54Z"/><line class="cls-6" x1="203.02" y1="252.23" x2="203.02" y2="252.23"/><line class="cls-6" x1="191.48" y1="244.18" x2="191.48" y2="244.18"/></g><path class="cls-6" d="M216,257.53a62.45,62.45,0,0,1-34-23.87h0a62.45,62.45,0,0,0,34,23.87Z"/></g></g><g class="cls-4"><g class="cls-17"><g class="cls-4"><path class="cls-6" d="M182,233.66h0c-9.26-13.18-12.55-29.82-12-45.37h0C169.49,203.84,172.78,220.48,182,233.66Z"/></g><path class="cls-6" d="M182,233.62l0,0h0l0,0Z"/></g></g><g class="cls-4"><g class="cls-18"><g class="cls-4"><path class="cls-6" d="M182,233.66h0c-9.26-13.18-12.55-29.82-12-45.37h0C169.49,203.84,172.78,220.48,182,233.66Z"/><line class="cls-6" x1="174.69" y1="219.5" x2="174.69" y2="219.5"/><line class="cls-6" x1="170.85" y1="204.03" x2="170.85" y2="204.03"/></g><path class="cls-6" d="M182,233.62c-9.24-13.17-12.53-29.8-12-45.33h0c-.56,15.53,2.73,32.16,12,45.33Z"/></g></g><g class="cls-4"><g class="cls-19"><g class="cls-4"><path class="cls-6" d="M170.05,188.29h0c.63-17.56,5.85-34.34,11.53-50.4h0C175.9,154,170.68,170.73,170.05,188.29Z"/></g><path class="cls-6" d="M170.05,188.24v0h0Z"/></g></g><g class="cls-4"><g class="cls-20"><g class="cls-4"><path class="cls-6" d="M170.05,188.29h0c.63-17.56,5.85-34.34,11.53-50.4h0C175.9,154,170.68,170.73,170.05,188.29Z"/><line class="cls-6" x1="172.06" y1="170.99" x2="172.06" y2="170.99"/><line class="cls-6" x1="176.2" y1="154.19" x2="176.2" y2="154.19"/></g><path class="cls-6" d="M170.05,188.24c.64-17.54,5.85-34.31,11.53-50.35h0c-5.68,16-10.89,32.81-11.53,50.35Z"/></g></g><g class="cls-4"><g class="cls-21"><g class="cls-4"><path class="cls-6" d="M181.58,137.89h0c5.22-14.74,11.5-29.54,23-41.29h0C193.08,108.35,186.8,123.15,181.58,137.89Z"/></g><path class="cls-6" d="M181.6,137.84l0,0h0Z"/></g></g><g class="cls-4"><g class="cls-22"><g class="cls-4"><path class="cls-6" d="M181.58,137.89h0c5.22-14.74,11.5-29.54,23-41.29h0C193.08,108.35,186.8,123.15,181.58,137.89Z"/><line class="cls-6" x1="187.31" y1="123.24" x2="187.31" y2="123.24"/><line class="cls-6" x1="194.65" y1="109.25" x2="194.65" y2="109.25"/></g><path class="cls-6" d="M181.6,137.84c5.21-14.72,11.49-29.5,22.94-41.24h0c-11.45,11.74-17.73,26.52-22.94,41.24Z"/></g></g><g class="cls-4"><g class="cls-23"><g class="cls-4"><path class="cls-6" d="M204.54,96.6h0a8.58,8.58,0,0,1,6.19-2.71h0A8.58,8.58,0,0,0,204.54,96.6Z"/></g><polygon class="cls-6" points="204.54 96.6 204.54 96.6 204.54 96.6 204.54 96.6"/></g></g><g class="cls-4"><g class="cls-24"><g class="cls-4"><path class="cls-6" d="M204.54,96.6h0a8.58,8.58,0,0,1,6.19-2.71h0A8.58,8.58,0,0,0,204.54,96.6Z"/><line class="cls-6" x1="206.45" y1="95.08" x2="206.45" y2="95.08"/><line class="cls-6" x1="208.55" y1="94.19" x2="208.55" y2="94.19"/></g><path class="cls-6" d="M204.54,96.6a8.59,8.59,0,0,1,6.19-2.71h0a8.59,8.59,0,0,0-6.19,2.71Z"/></g></g><g class="cls-4"><g class="cls-25"><g class="cls-4"><path class="cls-6" d="M210.73,93.89h0c6.83,0,12.86,8.81,6.6,15.37h0C223.59,102.7,217.56,93.92,210.73,93.89Z"/></g><path class="cls-6" d="M210.75,93.89h0Z"/></g></g><g class="cls-4"><g class="cls-26"><g class="cls-4"><path class="cls-6" d="M210.73,93.89h0c6.83,0,12.86,8.81,6.6,15.37h0C223.59,102.7,217.56,93.92,210.73,93.89Z"/><line class="cls-6" x1="216.87" y1="96.43" x2="216.87" y2="96.43"/><line class="cls-6" x1="219.92" y1="102.37" x2="219.92" y2="102.37"/></g><path class="cls-6" d="M210.75,93.89c6.82,0,12.83,8.82,6.58,15.37h0c6.25-6.55.24-15.32-6.58-15.37Z"/></g></g><g class="cls-4"><g class="cls-27"><g class="cls-4"><path class="cls-6" d="M217.33,109.26h0c-9.4,9.62-14.54,22.43-19.11,35.51h0C202.79,131.69,207.93,118.88,217.33,109.26Z"/></g><path class="cls-6" d="M217.3,109.28l0,0h0Z"/></g></g><g class="cls-4"><g class="cls-28"><g class="cls-4"><path class="cls-6" d="M217.33,109.26h0c-9.4,9.62-14.54,22.43-19.11,35.51h0C202.79,131.69,207.93,118.88,217.33,109.26Z"/><line class="cls-6" x1="209.21" y1="119.83" x2="209.21" y2="119.83"/><line class="cls-6" x1="203.12" y1="131.89" x2="203.12" y2="131.89"/></g><path class="cls-6" d="M217.3,109.28c-9.38,9.62-14.51,22.42-19.08,35.49h0c4.57-13.07,9.7-25.87,19.08-35.49Z"/></g></g><g class="cls-4"><g class="cls-29"><g class="cls-4"><path class="cls-6" d="M198.22,144.77h0c-5,14.33-9.66,29-10.18,43.81h0C188.56,173.73,193.21,159.1,198.22,144.77Z"/></g><path class="cls-6" d="M198.2,144.81l0,0h0Z"/></g></g><g class="cls-4"><g class="cls-30"><g class="cls-4"><path class="cls-6" d="M198.22,144.77h0c-5,14.33-9.66,29-10.18,43.81h0C188.56,173.73,193.21,159.1,198.22,144.77Z"/><line class="cls-6" x1="193.47" y1="159.2" x2="193.47" y2="159.2"/><line class="cls-6" x1="189.8" y1="173.8" x2="189.8" y2="173.8"/></g><path class="cls-6" d="M198.2,144.81c-5,14.32-9.64,28.93-10.16,43.77h0c.52-14.84,5.16-29.45,10.16-43.77Z"/></g></g><g class="cls-4"><g class="cls-31"><g class="cls-4"><path class="cls-6" d="M188,188.58h0c-.64,18.33,5.84,36.08,6.74,36.67h0C193.88,224.66,187.4,206.91,188,188.58Z"/></g><path class="cls-6" d="M188,188.63v0h0Z"/></g></g><g class="cls-4"><g class="cls-32"><g class="cls-4"><path class="cls-6" d="M188,188.58h0c-.64,18.33,5.84,36.08,6.74,36.67h0C193.88,224.66,187.4,206.91,188,188.58Z"/><line class="cls-6" x1="189.31" y1="206.1" x2="189.31" y2="206.1"/><line class="cls-6" x1="192.49" y1="219.56" x2="192.49" y2="219.56"/></g><path class="cls-6" d="M188,188.63c-.62,18.32,5.84,36,6.74,36.62h0c-.9-.59-7.36-18.3-6.74-36.62Z"/></g></g><g class="cls-4"><g class="cls-33"><g class="cls-4"><path class="cls-6" d="M194.78,225.25h0c.4.7,3.06-16,9.94-28.88h0C197.84,209.24,195.18,226,194.78,225.25Z"/></g><polygon class="cls-6" points="194.78 225.25 194.78 225.25 194.78 225.25 194.78 225.25"/></g></g><g class="cls-4"><g class="cls-34"><g class="cls-4"><path class="cls-6" d="M194.78,225.25h0c.4.7,3.06-16,9.94-28.88h0C197.84,209.24,195.18,226,194.78,225.25Z"/><line class="cls-6" x1="196.01" y1="220.93" x2="196.01" y2="220.93"/><line class="cls-6" x1="199.17" y1="209.73" x2="199.17" y2="209.73"/></g><path class="cls-6" d="M194.78,225.25c.41.67,3.07-16,9.94-28.88h0c-6.87,12.86-9.53,29.55-9.94,28.88Z"/></g></g><g class="cls-4"><g class="cls-35"><g class="cls-4"><path class="cls-6" d="M204.72,196.37h0A54.53,54.53,0,0,1,244.28,168h0A54.53,54.53,0,0,0,204.72,196.37Z"/></g><path class="cls-6" d="M204.74,196.32l0,.05h0Z"/></g></g><g class="cls-4"><g class="cls-36"><g class="cls-4"><path class="cls-6" d="M204.72,196.37h0A54.53,54.53,0,0,1,244.28,168h0A54.53,54.53,0,0,0,204.72,196.37Z"/><line class="cls-6" x1="214.76" y1="182.92" x2="214.76" y2="182.92"/><line class="cls-6" x1="228.27" y1="173.14" x2="228.27" y2="173.14"/></g><path class="cls-6" d="M204.74,196.32A54.53,54.53,0,0,1,244.28,168h0a54.53,54.53,0,0,0-39.54,28.35Z"/></g></g><g class="cls-4"><g class="cls-37"><g class="cls-4"><path class="cls-6" d="M244.28,168h0a40.47,40.47,0,0,1,8.58-.63h0A40.47,40.47,0,0,0,244.28,168Z"/></g><polygon class="cls-6" points="244.29 167.97 244.28 167.97 244.28 167.97 244.29 167.97"/></g></g><g class="cls-4"><g class="cls-38"><g class="cls-4"><path class="cls-6" d="M244.28,168h0a40.47,40.47,0,0,1,8.58-.63h0A40.47,40.47,0,0,0,244.28,168Z"/><line class="cls-6" x1="247.01" y1="167.59" x2="247.01" y2="167.59"/><line class="cls-6" x1="249.83" y1="167.34" x2="249.83" y2="167.34"/></g><path class="cls-6" d="M244.29,168a40.37,40.37,0,0,1,8.57-.63h0a40.37,40.37,0,0,0-8.57.63Z"/></g></g><g class="cls-4"><g class="cls-39"><g class="cls-4"><path class="cls-6" d="M252.86,167.34h0c12.73,0,27.19,4,35.38,14.47h0C280.05,171.36,265.59,167.34,252.86,167.34Z"/></g><path class="cls-6" d="M252.9,167.34h0Z"/></g></g><g class="cls-4"><g class="cls-40"><g class="cls-4"><path class="cls-6" d="M252.86,167.34h0c12.73,0,27.19,4,35.38,14.47h0C280.05,171.36,265.59,167.34,252.86,167.34Z"/><line class="cls-6" x1="265.87" y1="168.77" x2="265.87" y2="168.77"/><line class="cls-6" x1="278.25" y1="173.41" x2="278.25" y2="173.41"/></g><path class="cls-6" d="M252.9,167.34c12.72,0,27.16,4,35.34,14.47h0c-8.18-10.44-22.62-14.47-35.34-14.47Z"/></g></g><g class="cls-4"><g class="cls-41"><g class="cls-4"><path class="cls-6" d="M288.24,181.81l-3.16,2.46c8.4,10.76,3.85,28.36-1.59,39.46l3.59,1.76C292.87,213.71,298,194.48,288.24,181.81Z"/><path class="cls-6" d="M287.8,182.14c9.57,12.41,4.53,31.42-1.21,43.11"/><path class="cls-6" d="M286.67,183c9.08,11.73,4.25,30.15-1.37,41.6"/><path class="cls-6" d="M293.55,196.15l-3.94.66"/><path class="cls-6" d="M292.12,211.75l-3.93-.79"/><path class="cls-6" d="M287.08,225.49l-3.59-1.76a57.12,57.12,0,0,1-51.09,32.08v4A61.12,61.12,0,0,0,287.08,225.49Z"/><path class="cls-6" d="M286.59,225.25a60.6,60.6,0,0,1-54.19,34"/><path class="cls-6" d="M285.3,224.62a59.14,59.14,0,0,1-52.9,33.21"/><path class="cls-6" d="M273.34,243.84l-2.7-3"/><path class="cls-6" d="M254.39,255.64l-1.45-3.73"/><path class="cls-6" d="M232.4,259.81v-4a55.56,55.56,0,0,1-15.22-2.12l-1.09,3.85A48.79,48.79,0,0,0,232.4,259.81Z"/><path class="cls-6" d="M232.4,259.27A49.64,49.64,0,0,1,216.23,257"/><path class="cls-6" d="M232.4,257.83a51.54,51.54,0,0,1-15.77-2.2"/><path class="cls-6" d="M227.05,259.65l.29-4.07"/><path class="cls-6" d="M221.67,259l.58-4.11"/><path class="cls-6" d="M216.09,257.54l1.09-3.85a58.43,58.43,0,0,1-31.86-22.33l-3.28,2.3A62.41,62.41,0,0,0,216.09,257.54Z"/><path class="cls-6" d="M216.23,257a61.9,61.9,0,0,1-33.74-23.67"/><path class="cls-6" d="M216.63,255.63a60.34,60.34,0,0,1-33-23.11"/><path class="cls-6" d="M203,252.23l1.92-3.52"/><path class="cls-6" d="M191.48,244.18l2.66-3"/><path class="cls-6" d="M182,233.66l3.28-2.3c-8.67-12.32-11.8-28.08-11.27-42.93l-4-.14C169.49,203.84,172.78,220.48,182,233.66Z"/><path class="cls-6" d="M182.49,233.35c-9.18-13.07-12.45-29.59-11.89-45"/><path class="cls-6" d="M183.66,232.52c-9-12.75-12.18-29-11.63-44.16"/><path class="cls-6" d="M174.69,219.5l3.73-1.44"/><path class="cls-6" d="M170.85,204l4-.6"/><path class="cls-6" d="M170.05,188.29l4,.14c.6-16.94,5.69-33.34,11.3-49.21l-3.77-1.33C175.9,154,170.68,170.73,170.05,188.29Z"/><path class="cls-6" d="M170.6,188.31c.62-17.47,5.82-34.21,11.5-50.24"/><path class="cls-6" d="M172,188.36c.62-17.25,5.77-33.85,11.42-49.81"/><path class="cls-6" d="M172.06,171l3.94.68"/><path class="cls-6" d="M176.2,154.19l3.86,1.08"/><path class="cls-6" d="M181.58,137.89l3.77,1.33c5.12-14.45,11.19-28.7,22.05-39.82l-2.86-2.8C193.08,108.35,186.8,123.15,181.58,137.89Z"/><path class="cls-6" d="M182.1,138.07c5.2-14.7,11.45-29.42,22.83-41.09"/><path class="cls-6" d="M183.45,138.55C188.62,124,194.79,109.42,206,98"/><path class="cls-6" d="M187.31,123.24l3.62,1.7"/><path class="cls-6" d="M194.65,109.25l3.34,2.2"/><path class="cls-6" d="M204.54,96.6l2.86,2.8a4.59,4.59,0,0,1,3.33-1.51v-4A8.58,8.58,0,0,0,204.54,96.6Z"/><path class="cls-6" d="M204.93,97a8,8,0,0,1,5.8-2.54"/><path class="cls-6" d="M206,98a6.6,6.6,0,0,1,4.77-2.12"/><path class="cls-6" d="M206.45,95.08l2,3.46"/><path class="cls-6" d="M208.55,94.19l1,3.86"/><path class="cls-6" d="M210.73,93.89v4c3.8,0,7.2,5,3.74,8.57l2.86,2.8C223.59,102.7,217.56,93.92,210.73,93.89Z"/><path class="cls-6" d="M210.73,94.44c6.42,0,12.09,8.29,6.21,14.43"/><path class="cls-6" d="M210.73,95.87c5.33,0,10.06,6.93,5.18,12"/><path class="cls-6" d="M216.87,96.43l-2.71,2.9"/><path class="cls-6" d="M219.92,102.37l-4,.29"/><path class="cls-6" d="M217.33,109.26l-2.86-2.8c-10,10.28-15.37,23.65-20,37l3.78,1.32C202.79,131.69,207.93,118.88,217.33,109.26Z"/><path class="cls-6" d="M216.94,108.87c-9.49,9.72-14.65,22.6-19.24,35.72"/><path class="cls-6" d="M215.91,107.87c-9.71,9.95-14.94,23-19.56,36.25"/><path class="cls-6" d="M209.21,119.83l-3.36-2.17"/><path class="cls-6" d="M203.12,131.89l-3.64-1.67"/><path class="cls-6" d="M198.22,144.77l-3.78-1.32c-5.07,14.5-9.84,29.51-10.39,45l4,.15C188.56,173.73,193.21,159.1,198.22,144.77Z"/><path class="cls-6" d="M197.7,144.59c-5,14.35-9.68,29-10.2,44"/><path class="cls-6" d="M196.35,144.12c-5,14.41-9.75,29.23-10.29,44.39"/><path class="cls-6" d="M193.47,159.2l-3.85-1.08"/><path class="cls-6" d="M189.8,173.8l-3.94-.68"/><path class="cls-6" d="M188,188.58l-4-.15c-.7,19.46,6.24,38.61,21.88,49.22l-11.15-12.4C193.88,224.66,187.4,206.91,188,188.58Z"/><path class="cls-6" d="M187.5,188.56C186.85,207,193.39,225,196.3,227"/><path class="cls-6" d="M186.06,188.51c-.66,18.89,6,37.33,14.24,42.88"/><path class="cls-6" d="M189.31,206.1l-3.37,1.38"/><path class="cls-6" d="M192.49,219.56l.66,4.94"/></g><path class="cls-6" d="M288.24,181.81c9.75,12.67,4.63,31.9-1.16,43.68a61.12,61.12,0,0,1-54.68,34.32,48.79,48.79,0,0,1-16.31-2.27A62.41,62.41,0,0,1,182,233.66c-9.26-13.18-12.55-29.82-12-45.37.63-17.56,5.85-34.34,11.53-50.4,5.22-14.74,11.5-29.54,23-41.29a8.58,8.58,0,0,1,6.19-2.71c6.83,0,12.86,8.81,6.6,15.37-9.4,9.62-14.54,22.43-19.11,35.51-5,14.33-9.66,29-10.18,43.81-.64,18.33,5.84,36.08,6.74,36.67l11.15,12.4c-15.64-10.61-22.58-29.76-21.88-49.22.55-15.47,5.32-30.48,10.39-45,4.66-13.34,10-26.71,20-37,3.46-3.55.06-8.57-3.74-8.57a4.59,4.59,0,0,0-3.33,1.51c-10.86,11.12-16.93,25.37-22.05,39.82-5.61,15.87-10.7,32.27-11.3,49.21-.53,14.85,2.6,30.61,11.27,42.93a58.43,58.43,0,0,0,31.86,22.33,55.56,55.56,0,0,0,15.22,2.12,57.12,57.12,0,0,0,51.09-32.08c5.44-11.1,10-28.7,1.59-39.46Z"/></g></g><g class="cls-4"><g class="cls-42"><g class="cls-4"><path class="cls-6" d="M194.78,225.25l11.15,12.4c-6.47-12.11-4.07-27.42,2.32-39.4l-3.53-1.88C197.84,209.24,195.18,226,194.78,225.25Z"/><path class="cls-6" d="M196.3,227c-.53-1.06,2.09-17.57,8.9-30.32"/><path class="cls-6" d="M200.3,231.39c-3-5.64-.47-21.66,6.17-34.09"/><path class="cls-6" d="M196,220.93l6.23,3.79"/><path class="cls-6" d="M199.17,209.73l4.2,1.37"/><path class="cls-6" d="M204.72,196.37l3.53,1.88a50.5,50.5,0,0,1,36.63-26.32l-.6-4A54.53,54.53,0,0,0,204.72,196.37Z"/><path class="cls-6" d="M205.2,196.63a53.94,53.94,0,0,1,39.16-28.12"/><path class="cls-6" d="M206.47,197.3a52.5,52.5,0,0,1,38.11-27.37"/><path class="cls-6" d="M214.76,182.92l2.8,2.85"/><path class="cls-6" d="M228.27,173.14l1.81,3.57"/><path class="cls-6" d="M244.28,168l.6,4a54,54,0,0,1,8-.59v-4A40.47,40.47,0,0,0,244.28,168Z"/><path class="cls-6" d="M244.36,168.51a41.17,41.17,0,0,1,8.5-.62"/><path class="cls-6" d="M244.58,169.93a44.82,44.82,0,0,1,8.28-.6"/><path class="cls-6" d="M247,167.59l.45,4"/><path class="cls-6" d="M249.83,167.34l.29,4.07"/><path class="cls-6" d="M252.86,167.34v4c11.86,0,25.05,3.72,32.22,12.93l3.16-2.46C280.05,171.36,265.59,167.34,252.86,167.34Z"/><path class="cls-6" d="M252.86,167.89c12.61,0,26.9,4,34.94,14.25"/><path class="cls-6" d="M252.86,169.33c12.3,0,26.13,3.86,33.81,13.69"/><path class="cls-6" d="M265.87,168.77l-1,3.88"/><path class="cls-6" d="M278.25,173.41l-2.08,3.42"/></g><path class="cls-6" d="M194.78,225.25c.4.7,3.06-16,9.94-28.88A54.53,54.53,0,0,1,244.28,168a40.47,40.47,0,0,1,8.58-.63c12.73,0,27.19,4,35.38,14.47l-3.16,2.46c-7.17-9.21-20.36-12.93-32.22-12.93a54,54,0,0,0-8,.59,50.5,50.5,0,0,0-36.63,26.32c-6.39,12-8.79,27.29-2.32,39.4l-10.62-11.81C195.13,225.65,195,225.45,194.78,225.25Z"/></g></g><g class="cls-4"><g class="cls-43"><g class="cls-4"><path class="cls-6" d="M194.78,225.25l11.15,12.4c-6.47-12.11-4.07-27.42,2.32-39.4l-3.53-1.88C197.84,209.24,195.18,226,194.78,225.25Z"/></g><path class="cls-6" d="M195.31,225.84l-.49-.54,0-.05Z"/></g></g><g class="cls-4"><g class="cls-44"><g class="cls-4"><path class="cls-6" d="M216.17,235.38l3.11-2.51c3.52,4.37,2.17,9.67,3.56,8.26l-7.19,1.54A5.38,5.38,0,0,0,216.17,235.38Z"/><path class="cls-6" d="M218.86,233.21c3.31,4.12,2,9.1,3,8.13"/></g><path class="cls-6" d="M219.65,241.81l3.19-.68a.8.8,0,0,1-.48.25h-.11C221,241.54,220.15,241.71,219.65,241.81Z"/></g></g><g class="cls-4"><g class="cls-45"><g class="cls-4"><path class="cls-6" d="M278.42,208.42l-3.9-.88c1.07-4.75,1.92-11-.16-14.3l3.4-2.1C280.69,195.89,279.58,203.29,278.42,208.42Z"/><path class="cls-6" d="M276.45,208c1.12-4.94,2.1-11.78-.41-15.78"/><path class="cls-6" d="M275.05,207.66c1.08-4.8,2-11.25-.23-14.71"/><path class="cls-6" d="M279.42,202.72l-4-.28"/><path class="cls-6" d="M279.49,196.59l-3.93.75"/><path class="cls-6" d="M277.76,191.14l-3.4,2.1c-2.36-4-9.64-6.35-15-7.36l.75-3.94C266,183,274.42,185.72,277.76,191.14Z"/><path class="cls-6" d="M276,192.2c-2.85-4.69-10.71-7.22-16.31-8.27"/><path class="cls-6" d="M274.82,193c-2.49-4.16-9.93-6.59-15.35-7.61"/><path class="cls-6" d="M273,186.59l-2.39,3.2"/><path class="cls-6" d="M266.54,183.61l-1.43,3.74"/><path class="cls-6" d="M260.11,181.94l-.75,3.94a35,35,0,0,0-6.63-.62v-4A40.53,40.53,0,0,1,260.11,181.94Z"/><path class="cls-6" d="M259.73,183.93a37.29,37.29,0,0,0-7-.65"/><path class="cls-6" d="M259.47,185.34a36.2,36.2,0,0,0-6.74-.63"/><path class="cls-6" d="M257.67,181.56l-.5,4"/><path class="cls-6" d="M255.2,181.34l-.24,4"/><path class="cls-6" d="M252.73,181.26v4a37,37,0,0,0-8.26.94l-.9-3.9A40.85,40.85,0,0,1,252.73,181.26Z"/><path class="cls-6" d="M252.73,183.28a38.5,38.5,0,0,0-8.7,1"/><path class="cls-6" d="M252.73,184.71a37.4,37.4,0,0,0-8.38,1"/><path class="cls-6" d="M249.65,181.38l.3,4"/><path class="cls-6" d="M246.59,181.73l.6,4"/><path class="cls-6" d="M243.57,182.3l.9,3.9A36.65,36.65,0,0,0,221.05,204l-3.47-2A40.7,40.7,0,0,1,243.57,182.3Z"/><path class="cls-6" d="M244,184.27A38.63,38.63,0,0,0,219.33,203"/><path class="cls-6" d="M244.35,185.67a37.17,37.17,0,0,0-23.77,18.07"/><path class="cls-6" d="M233.15,186.37l2,3.49"/><path class="cls-6" d="M224.35,193.1l2.83,2.84"/><path class="cls-6" d="M217.58,202l3.47,2c-4.86,8.54-7.82,21.52-1.77,28.86l-3.11,2.51C208.71,226.14,212.23,211.39,217.58,202Z"/><path class="cls-6" d="M219.33,203c-5.1,9-8.34,22.81-1.59,31.09"/><path class="cls-6" d="M220.58,203.74c-4.93,8.65-8,21.87-1.72,29.47"/><path class="cls-6" d="M213.18,212.78l3.91.88"/><path class="cls-6" d="M212,224.71,216,224"/><path class="cls-6" d="M216.17,235.38l3.11-2.51c3.52,4.37,2.17,9.67,3.56,8.26l-7.19,1.54A5.38,5.38,0,0,0,216.17,235.38Z"/><path class="cls-6" d="M217.74,234.11a8.67,8.67,0,0,1,1.54,7.78"/><path class="cls-6" d="M218.86,233.21c3.31,4.12,2,9.1,3,8.13"/><path class="cls-6" d="M217.32,238l4.14-.71"/><path class="cls-6" d="M217,240.54l5.07.05"/></g><path class="cls-6" d="M222.84,241.13a.77.77,0,0,1-.44.24l-.15,0c-.91.11-1.79.25-2.6.42l-4,.86a5.38,5.38,0,0,0,.52-7.29c-7.46-9.24-3.94-24,1.41-33.36a40.17,40.17,0,0,1,42.53-20.08c5.84,1.1,14.31,3.78,17.65,9.2,2.93,4.75,1.82,12.15.66,17.28l-3.9-.88c1.07-4.75,1.92-11-.16-14.3-2.36-4-9.64-6.35-15-7.36a35,35,0,0,0-6.63-.62A36,36,0,0,0,221.05,204c-4.86,8.54-7.82,21.52-1.77,28.86C222.8,237.24,221.45,242.54,222.84,241.13Z"/></g></g><g class="cls-4"><g class="cls-46"><g class="cls-4"><path class="cls-6" d="M215.65,242.67l7.19-1.54c-5.27-2-4.85-1.85-4.42-1.71l-1.27,3.8C216.64,243.05,216.14,242.86,215.65,242.67Z"/><path class="cls-6" d="M219.28,241.89a15.54,15.54,0,1,1-1.49-.59"/><path class="cls-6" d="M221.86,241.34c-4.49-1.72-4.05-1.55-3.61-1.4"/><path class="cls-6" d="M216.14,242.86l3.11-3.1"/><path class="cls-6" d="M216.64,243l1.56-3.69"/><path class="cls-6" d="M217.15,243.22l1.27-3.8c4.32,1.12,9.46,2.36,14.12,2.36v4A47.9,47.9,0,0,1,217.15,243.22Z"/><path class="cls-6" d="M217.79,241.3a52.44,52.44,0,0,0,14.75,2.46"/><path class="cls-6" d="M218.25,239.94a57,57,0,0,0,14.29,2.39"/><path class="cls-6" d="M222.28,244.65l.68-4.12"/><path class="cls-6" d="M227.42,245.5l.35-4.08"/><path class="cls-6" d="M232.54,245.78v-4A42.58,42.58,0,0,0,269,221l3.42,2.08A46.56,46.56,0,0,1,232.54,245.78Z"/><path class="cls-6" d="M232.54,243.76A44.53,44.53,0,0,0,270.71,222"/><path class="cls-6" d="M232.54,242.33a43.13,43.13,0,0,0,37-21"/><path class="cls-6" d="M248,243.12l-1.34-3.77"/><path class="cls-6" d="M261.72,235.41l-2.51-3.12"/><path class="cls-6" d="M272.44,223.09,269,221a93.06,93.06,0,0,0,5.5-13.47l3.9.88A48.66,48.66,0,0,1,272.44,223.09Z"/><path class="cls-6" d="M270.71,222A62,62,0,0,0,276.45,208"/><path class="cls-6" d="M269.49,221.29a80.55,80.55,0,0,0,5.56-13.63"/><path class="cls-6" d="M275,218.42l-3.91-1.72"/><path class="cls-6" d="M277,213.53,273,212"/></g><path class="cls-6" d="M216.26,242.54c.28-.08.45-.12.84-.76a20.37,20.37,0,0,0,1.05-2.33h0c.15,0,2,.66,4.68,1.69-5.27-2-4.85-1.85-4.42-1.71,4.32,1.12,9.46,2.36,14.12,2.36A42.58,42.58,0,0,0,269,221a93.06,93.06,0,0,0,5.5-13.47l3.9.88a48.66,48.66,0,0,1-6,14.67,46.56,46.56,0,0,1-39.9,22.69,47.9,47.9,0,0,1-15.39-2.56c-.51-.17-1-.36-1.5-.55Z"/></g></g><g class="cls-4"><g class="cls-47"><g class="cls-4"><path class="cls-6" d="M215.65,242.67l7.19-1.54c-5.27-2-4.85-1.85-4.42-1.71l-1.27,3.8C216.64,243.05,216.14,242.86,215.65,242.67Z"/><path class="cls-6" d="M219.28,241.89a15.54,15.54,0,1,1-1.49-.59"/><path class="cls-6" d="M221.86,241.34c-4.49-1.72-4.05-1.55-3.61-1.4"/><path class="cls-6" d="M216.14,242.86l3.11-3.1"/><path class="cls-6" d="M216.64,243l1.56-3.69"/></g><path class="cls-6" d="M222.84,241.13l-6.58,1.41c.22-.06.43-.11.76-.65a13,13,0,0,0,1-2.26l.08-.18h0a25.57,25.57,0,0,1,3.94,1.41A3.31,3.31,0,0,0,222.84,241.13Z"/></g></g><g class="cls-4"><g class="cls-48"><g class="cls-4"><path class="cls-6" d="M274.52,207.54h0c1.07-4.75,1.92-11-.16-14.3h0C276.44,196.5,275.59,202.79,274.52,207.54Z"/></g><path class="cls-6" d="M274.52,207.53h0Z"/></g></g><g class="cls-4"><g class="cls-49"><g class="cls-4"><path class="cls-6" d="M274.52,207.54h0c1.07-4.75,1.92-11-.16-14.3h0C276.44,196.5,275.59,202.79,274.52,207.54Z"/><line class="cls-6" x1="275.42" y1="202.44" x2="275.42" y2="202.44"/><line class="cls-6" x1="275.56" y1="197.34" x2="275.56" y2="197.34"/></g><path class="cls-6" d="M274.52,207.53c1.07-4.75,1.92-11-.16-14.29h0c2.08,3.25,1.23,9.54.16,14.29Z"/></g></g><g class="cls-4"><g class="cls-50"><g class="cls-4"><path class="cls-6" d="M274.36,193.24h0c-2.36-4-9.64-6.35-15-7.36h0C264.72,186.89,272,189.28,274.36,193.24Z"/></g><path class="cls-6" d="M274.35,193.23h0Z"/></g></g><g class="cls-4"><g class="cls-51"><g class="cls-4"><path class="cls-6" d="M274.36,193.24h0c-2.36-4-9.64-6.35-15-7.36h0C264.72,186.89,272,189.28,274.36,193.24Z"/><line class="cls-6" x1="270.61" y1="189.79" x2="270.61" y2="189.79"/><line class="cls-6" x1="265.11" y1="187.35" x2="265.11" y2="187.35"/></g><path class="cls-6" d="M274.35,193.23c-2.37-4-9.64-6.34-15-7.35h0c5.35,1,12.62,3.39,15,7.35Z"/></g></g><g class="cls-4"><g class="cls-52"><g class="cls-4"><path class="cls-6" d="M259.36,185.88h0a35,35,0,0,0-6.63-.62h0A35,35,0,0,1,259.36,185.88Z"/></g><polygon class="cls-6" points="259.36 185.87 259.37 185.88 259.37 185.88 259.36 185.87"/></g></g><g class="cls-4"><g class="cls-53"><g class="cls-4"><path class="cls-6" d="M259.36,185.88h0a35,35,0,0,0-6.63-.62h0A35,35,0,0,1,259.36,185.88Z"/><line class="cls-6" x1="257.17" y1="185.53" x2="257.17" y2="185.53"/><line class="cls-6" x1="254.96" y1="185.33" x2="254.96" y2="185.33"/></g><path class="cls-6" d="M259.36,185.87a35.87,35.87,0,0,0-6.63-.61h0a35.87,35.87,0,0,1,6.63.61Z"/></g></g><g class="cls-4"><g class="cls-54"><g class="cls-4"><path class="cls-6" d="M252.73,185.26h0a37,37,0,0,0-8.26.94h0A37,37,0,0,1,252.73,185.26Z"/></g><polygon class="cls-6" points="252.72 185.26 252.73 185.26 252.73 185.26 252.72 185.26"/></g></g><g class="cls-4"><g class="cls-55"><g class="cls-4"><path class="cls-6" d="M252.73,185.26h0a37,37,0,0,0-8.26.94h0A37,37,0,0,1,252.73,185.26Z"/><line class="cls-6" x1="249.95" y1="185.37" x2="249.95" y2="185.37"/><line class="cls-6" x1="247.19" y1="185.68" x2="247.19" y2="185.68"/></g><path class="cls-6" d="M252.72,185.26a36.82,36.82,0,0,0-8.25.94h0a36.82,36.82,0,0,1,8.25-.94Z"/></g></g><g class="cls-4"><g class="cls-56"><g class="cls-4"><path class="cls-6" d="M244.47,186.2h0A36.65,36.65,0,0,0,221.05,204h0A36.65,36.65,0,0,1,244.47,186.2Z"/></g><path class="cls-6" d="M244.44,186.21h0Z"/></g></g><g class="cls-4"><g class="cls-57"><g class="cls-4"><path class="cls-6" d="M244.47,186.2h0A36.65,36.65,0,0,0,221.05,204h0A36.65,36.65,0,0,1,244.47,186.2Z"/><line class="cls-6" x1="235.11" y1="189.86" x2="235.11" y2="189.86"/><line class="cls-6" x1="227.18" y1="195.94" x2="227.18" y2="195.94"/></g><path class="cls-6" d="M244.44,186.21A36.64,36.64,0,0,0,221.05,204h0a36.64,36.64,0,0,1,23.39-17.8Z"/></g></g><g class="cls-4"><g class="cls-58"><g class="cls-4"><path class="cls-6" d="M221.05,204h0c-4.86,8.54-7.82,21.52-1.77,28.86h0C213.23,225.53,216.19,212.55,221.05,204Z"/></g><path class="cls-6" d="M221,204v0h0Z"/></g></g><g class="cls-4"><g class="cls-59"><g class="cls-4"><path class="cls-6" d="M221.05,204h0c-4.86,8.54-7.82,21.52-1.77,28.86h0C213.23,225.53,216.19,212.55,221.05,204Z"/><line class="cls-6" x1="217.09" y1="213.66" x2="217.09" y2="213.66"/><line class="cls-6" x1="215.97" y1="224.02" x2="215.97" y2="224.02"/></g><path class="cls-6" d="M221,204c-4.85,8.55-7.81,21.51-1.76,28.84h0c-6.05-7.33-3.09-20.29,1.76-28.84Z"/></g></g><g class="cls-4"><g class="cls-60"><g class="cls-4"><path class="cls-6" d="M219.28,232.87h0c3.52,4.37,2.17,9.67,3.56,8.26h0C221.45,242.54,222.8,237.24,219.28,232.87Z"/></g><path class="cls-6" d="M219.29,232.88h0Z"/></g></g><g class="cls-4"><g class="cls-61"><g class="cls-4"><path class="cls-6" d="M219.28,232.87h0c3.52,4.37,2.17,9.67,3.56,8.26h0C221.45,242.54,222.8,237.24,219.28,232.87Z"/><line class="cls-6" x1="221.46" y1="237.27" x2="221.46" y2="237.27"/><line class="cls-6" x1="222.08" y1="240.59" x2="222.08" y2="240.59"/></g><path class="cls-6" d="M219.29,232.88c3.51,4.37,2.16,9.66,3.55,8.25h0c-1.39,1.41,0-3.88-3.55-8.25Z"/></g></g><g class="cls-4"><g class="cls-62"><g class="cls-4"><path class="cls-6" d="M222.84,241.13h0c-5.27-2-4.85-1.85-4.42-1.71h0C218,239.28,217.57,239.11,222.84,241.13Z"/></g><path class="cls-6" d="M222.82,241.13h0Z"/></g></g><g class="cls-4"><g class="cls-63"><g class="cls-4"><path class="cls-6" d="M222.84,241.13h0c-5.27-2-4.85-1.85-4.42-1.71h0C218,239.28,217.57,239.11,222.84,241.13Z"/><line class="cls-6" x1="219.25" y1="239.76" x2="219.25" y2="239.76"/><line class="cls-6" x1="218.2" y1="239.35" x2="218.2" y2="239.35"/></g><path class="cls-6" d="M222.82,241.13h0c-5.25-2-4.83-1.85-4.4-1.71h0C218,239.28,217.57,239.11,222.82,241.13Z"/></g></g><g class="cls-4"><g class="cls-64"><g class="cls-4"><path class="cls-6" d="M218.42,239.42h0c4.32,1.12,9.46,2.36,14.12,2.36h0C227.88,241.78,222.74,240.54,218.42,239.42Z"/></g><path class="cls-6" d="M218.44,239.43h0Z"/></g></g><g class="cls-4"><g class="cls-65"><g class="cls-4"><path class="cls-6" d="M218.42,239.42h0c4.32,1.12,9.46,2.36,14.12,2.36h0C227.88,241.78,222.74,240.54,218.42,239.42Z"/><line class="cls-6" x1="222.96" y1="240.53" x2="222.96" y2="240.53"/><line class="cls-6" x1="227.77" y1="241.42" x2="227.77" y2="241.42"/></g><path class="cls-6" d="M218.44,239.43c4.31,1.11,9.44,2.35,14.1,2.35h0c-4.66,0-9.79-1.24-14.1-2.35Z"/></g></g><g class="cls-4"><g class="cls-66"><g class="cls-4"><path class="cls-6" d="M232.54,241.78h0A42.58,42.58,0,0,0,269,221h0A42.58,42.58,0,0,1,232.54,241.78Z"/></g><path class="cls-6" d="M232.58,241.78h0Z"/></g></g><g class="cls-4"><g class="cls-67"><g class="cls-4"><path class="cls-6" d="M232.54,241.78h0A42.58,42.58,0,0,0,269,221h0A42.58,42.58,0,0,1,232.54,241.78Z"/><line class="cls-6" x1="246.69" y1="239.35" x2="246.69" y2="239.35"/><line class="cls-6" x1="259.21" y1="232.29" x2="259.21" y2="232.29"/></g><path class="cls-6" d="M232.58,241.78A42.56,42.56,0,0,0,269,221h0a42.56,42.56,0,0,1-36.44,20.77Z"/></g></g><g class="cls-4"><g class="cls-68"><g class="cls-4"><path class="cls-6" d="M269,221h0a93.06,93.06,0,0,0,5.5-13.47h0A93.06,93.06,0,0,1,269,221Z"/></g><path class="cls-6" d="M269,221h0Z"/></g></g><g class="cls-4"><g class="cls-69"><g class="cls-4"><path class="cls-6" d="M269,221h0a93.06,93.06,0,0,0,5.5-13.47h0A93.06,93.06,0,0,1,269,221Z"/><line class="cls-6" x1="271.05" y1="216.7" x2="271.05" y2="216.7"/><line class="cls-6" x1="272.97" y1="212.02" x2="272.97" y2="212.02"/></g><path class="cls-6" d="M269,221a93.36,93.36,0,0,0,5.49-13.46h0A93.36,93.36,0,0,1,269,221Z"/></g></g><g class="cls-4"><g class="cls-70"><g class="cls-4"><path class="cls-6" d="M219.28,232.87l-3.11,2.51a5.38,5.38,0,0,1-.52,7.29l7.19-1.54C221.45,242.54,222.8,237.24,219.28,232.87Z"/><path class="cls-6" d="M218.86,233.21c3.31,4.12,2,9.1,3,8.13"/></g><path class="cls-6" d="M222.84,241.13c-.21.18-.23.2-.43.24s-.26,0-.39,0c-1.15.14-2,.31-2.37.39Z"/></g></g><g class="cls-4"><g class="cls-71"><g class="cls-4"><path class="cls-6" d="M274.52,207.54l3.9.88c1.16-5.13,2.27-12.53-.66-17.28l-3.4,2.1C276.44,196.5,275.59,202.79,274.52,207.54Z"/><path class="cls-6" d="M275.05,207.66c1.08-4.8,2-11.25-.23-14.71"/><path class="cls-6" d="M276.45,208c1.12-4.94,2.1-11.78-.41-15.78"/><path class="cls-6" d="M275.42,202.44l4,.28"/><path class="cls-6" d="M275.56,197.34l3.93-.75"/><path class="cls-6" d="M274.36,193.24l3.4-2.1c-3.34-5.42-11.81-8.1-17.65-9.2l-.75,3.94C264.72,186.89,272,189.28,274.36,193.24Z"/><path class="cls-6" d="M274.82,193c-2.49-4.16-9.93-6.59-15.35-7.61"/><path class="cls-6" d="M276,192.2c-2.85-4.69-10.71-7.22-16.31-8.27"/><path class="cls-6" d="M270.61,189.79l2.39-3.2"/><path class="cls-6" d="M265.11,187.35l1.43-3.74"/><path class="cls-6" d="M259.36,185.88l.75-3.94a40.53,40.53,0,0,0-7.38-.68v4A35,35,0,0,1,259.36,185.88Z"/><path class="cls-6" d="M259.47,185.34a36.2,36.2,0,0,0-6.74-.63"/><path class="cls-6" d="M259.73,183.93a37.29,37.29,0,0,0-7-.65"/><path class="cls-6" d="M257.17,185.53l.5-4"/><path class="cls-6" d="M255,185.33l.24-4"/><path class="cls-6" d="M252.73,185.26v-4a40.85,40.85,0,0,0-9.16,1l.9,3.9A37,37,0,0,1,252.73,185.26Z"/><path class="cls-6" d="M252.73,184.71a37.4,37.4,0,0,0-8.38,1"/><path class="cls-6" d="M252.73,183.28a38.5,38.5,0,0,0-8.7,1"/><path class="cls-6" d="M250,185.37l-.3-4"/><path class="cls-6" d="M247.19,185.68l-.6-4"/><path class="cls-6" d="M244.47,186.2l-.9-3.9a40.7,40.7,0,0,0-26,19.72l3.47,2A36.65,36.65,0,0,1,244.47,186.2Z"/><path class="cls-6" d="M244.35,185.67a37.17,37.17,0,0,0-23.77,18.07"/><path class="cls-6" d="M244,184.27A38.63,38.63,0,0,0,219.33,203"/><path class="cls-6" d="M235.11,189.86l-2-3.49"/><path class="cls-6" d="M227.18,195.94l-2.83-2.84"/><path class="cls-6" d="M221.05,204l-3.47-2c-5.35,9.37-8.87,24.12-1.41,33.36l3.11-2.51C213.23,225.53,216.19,212.55,221.05,204Z"/><path class="cls-6" d="M220.58,203.74c-4.93,8.65-8,21.87-1.72,29.47"/><path class="cls-6" d="M219.33,203c-5.1,9-8.34,22.81-1.59,31.09"/><path class="cls-6" d="M217.09,213.66l-3.91-.88"/><path class="cls-6" d="M216,224l-3.94.69"/><path class="cls-6" d="M219.28,232.87l-3.11,2.51a5.38,5.38,0,0,1-.52,7.29l7.19-1.54C221.45,242.54,222.8,237.24,219.28,232.87Z"/><path class="cls-6" d="M218.86,233.21c3.31,4.12,2,9.1,3,8.13"/><path class="cls-6" d="M217.74,234.11a8.67,8.67,0,0,1,1.54,7.78"/><path class="cls-6" d="M221.46,237.27l-4.14.71"/><path class="cls-6" d="M222.08,240.59l-5.07-.05"/></g><path class="cls-6" d="M219.65,241.81l-4,.86a5.38,5.38,0,0,0,.52-7.29c-7.46-9.24-3.94-24,1.41-33.36a40.17,40.17,0,0,1,42.53-20.08c5.84,1.1,14.31,3.78,17.65,9.2,2.93,4.75,1.82,12.15.66,17.28l-3.9-.88c1.07-4.75,1.92-11-.16-14.3-2.36-4-9.64-6.35-15-7.36a35,35,0,0,0-6.63-.62A36,36,0,0,0,221.05,204c-4.86,8.54-7.82,21.52-1.77,28.86,3.52,4.37,2.17,9.67,3.56,8.26a.7.7,0,0,1-.43.24h-.09C221,241.53,220.16,241.71,219.65,241.81Z"/></g></g><g class="cls-4"><g class="cls-72"><g class="cls-4"><path class="cls-6" d="M222.84,241.13l-7.19,1.54c.49.19,1,.38,1.5.55l1.27-3.8C218,239.28,217.57,239.11,222.84,241.13Z"/><path class="cls-6" d="M221.86,241.34c-4.49-1.72-4.05-1.55-3.61-1.4"/><path class="cls-6" d="M219.28,241.89a15.54,15.54,0,1,1-1.49-.59"/><path class="cls-6" d="M219.25,239.76l-3.11,3.1"/><path class="cls-6" d="M218.2,239.35,216.64,243"/><path class="cls-6" d="M218.42,239.42l-1.27,3.8a47.9,47.9,0,0,0,15.39,2.56v-4C227.88,241.78,222.74,240.54,218.42,239.42Z"/><path class="cls-6" d="M218.25,239.94a57,57,0,0,0,14.29,2.39"/><path class="cls-6" d="M217.79,241.3a52.44,52.44,0,0,0,14.75,2.46"/><path class="cls-6" d="M223,240.53l-.68,4.12"/><path class="cls-6" d="M227.77,241.42l-.35,4.08"/><path class="cls-6" d="M232.54,241.78v4a46.56,46.56,0,0,0,39.9-22.69L269,221A42.58,42.58,0,0,1,232.54,241.78Z"/><path class="cls-6" d="M232.54,242.33a43.13,43.13,0,0,0,37-21"/><path class="cls-6" d="M232.54,243.76A44.53,44.53,0,0,0,270.71,222"/><path class="cls-6" d="M246.69,239.35l1.34,3.77"/><path class="cls-6" d="M259.21,232.29l2.51,3.12"/><path class="cls-6" d="M269,221l3.42,2.08a48.66,48.66,0,0,0,6-14.67l-3.9-.88A93.06,93.06,0,0,1,269,221Z"/><path class="cls-6" d="M269.49,221.29a80.55,80.55,0,0,0,5.56-13.63"/><path class="cls-6" d="M270.71,222A62,62,0,0,0,276.45,208"/><path class="cls-6" d="M271.05,216.7l3.91,1.72"/><path class="cls-6" d="M273,212l4,1.51"/></g><path class="cls-6" d="M222.84,241.13c-5.27-2-4.85-1.85-4.42-1.71,4.32,1.12,9.46,2.36,14.12,2.36A42.58,42.58,0,0,0,269,221a93.06,93.06,0,0,0,5.5-13.47l3.9.88a48.66,48.66,0,0,1-6,14.67,46.56,46.56,0,0,1-39.9,22.69,47.9,47.9,0,0,1-15.39-2.56c-.51-.17-1-.36-1.5-.55l.61-.13a1,1,0,0,0,.66-.46,14.78,14.78,0,0,0,1.25-2.69C218.24,239.37,220,240,222.84,241.13Z"/></g></g><g class="cls-4"><g class="cls-73"><g class="cls-4"><path class="cls-6" d="M222.84,241.13l-7.19,1.54c.49.19,1,.38,1.5.55l1.27-3.8C218,239.28,217.57,239.11,222.84,241.13Z"/><path class="cls-6" d="M221.86,241.34c-4.49-1.72-4.05-1.55-3.61-1.4"/><path class="cls-6" d="M219.28,241.89a15.54,15.54,0,1,1-1.49-.59"/><path class="cls-6" d="M219.25,239.76l-3.11,3.1"/><path class="cls-6" d="M218.2,239.35,216.64,243"/></g><path class="cls-6" d="M216.26,242.54A.94.94,0,0,0,217,242a13.8,13.8,0,0,0,1.22-2.62c.08,0,.88.29,4.67,1.74Z"/></g></g></g></g></g></svg>