<svg xmlns="http://www.w3.org/2000/svg" xmlns:xlink="http://www.w3.org/1999/xlink" viewBox="0 0 357.84 438.11"><defs><style>.cls-1,.cls-7{fill:none;}.cls-2,.cls-3,.cls-4{fill:#f5db12;}.cls-2{fill-opacity:0.51;}.cls-3{fill-opacity:0.81;}.cls-4{fill-opacity:0.96;}.cls-5{isolation:isolate;}.cls-6{clip-path:url(#clip-path);}.cls-7{stroke:#000;stroke-miterlimit:10;stroke-width:0.25px;}.cls-8{clip-path:url(#clip-path-2);}.cls-9{clip-path:url(#clip-path-3);}.cls-10{clip-path:url(#clip-path-4);}.cls-11{clip-path:url(#clip-path-5);}.cls-12{clip-path:url(#clip-path-6);}.cls-13{clip-path:url(#clip-path-7);}.cls-14{clip-path:url(#clip-path-8);}.cls-15{clip-path:url(#clip-path-9);}.cls-16{clip-path:url(#clip-path-10);}.cls-17{clip-path:url(#clip-path-11);}.cls-18{clip-path:url(#clip-path-12);}.cls-19{clip-path:url(#clip-path-13);}.cls-20{clip-path:url(#clip-path-14);}.cls-21{clip-path:url(#clip-path-15);}.cls-22{clip-path:url(#clip-path-16);}.cls-23{clip-path:url(#clip-path-17);}.cls-24{clip-path:url(#clip-path-18);}.cls-25{clip-path:url(#clip-path-19);}.cls-26{clip-path:url(#clip-path-20);}.cls-27{clip-path:url(#clip-path-21);}.cls-28{clip-path:url(#clip-path-22);}.cls-29{clip-path:url(#clip-path-23);}.cls-30{clip-path:url(#clip-path-24);}.cls-31{clip-path:url(#clip-path-25);}.cls-32{clip-path:url(#clip-path-26);}.cls-33{clip-path:url(#clip-path-27);}.cls-34{clip-path:url(#clip-path-28);}.cls-35{clip-path:url(#clip-path-29);}.cls-36{clip-path:url(#clip-path-30);}.cls-37{clip-path:url(#clip-path-31);}.cls-38{clip-path:url(#clip-path-32);}.cls-39{clip-path:url(#clip-path-33);}.cls-40{clip-path:url(#clip-path-34);}.cls-41{clip-path:url(#clip-path-35);}.cls-42{clip-path:url(#clip-path-36);}.cls-43{clip-path:url(#clip-path-37);}.cls-44{clip-path:url(#clip-path-38);}.cls-45{clip-path:url(#clip-path-39);}.cls-46{clip-path:url(#clip-path-40);}.cls-47{clip-path:url(#clip-path-41);}.cls-48{clip-path:url(#clip-path-42);}.cls-49{clip-path:url(#clip-path-43);}.cls-50{clip-path:url(#clip-path-44);}.cls-51{clip-path:url(#clip-path-45);}.cls-52{clip-path:url(#clip-path-46);}.cls-53{clip-path:url(#clip-path-47);}.cls-54{clip-path:url(#clip-path-48);}.cls-55{clip-path:url(#clip-path-49);}.cls-56{clip-path:url(#clip-path-50);}.cls-57{clip-path:url(#clip-path-51);}.cls-58{clip-path:url(#clip-path-52);}.cls-59{clip-path:url(#clip-path-53);}.cls-60{clip-path:url(#clip-path-54);}.cls-61{clip-path:url(#clip-path-55);}.cls-62{clip-path:url(#clip-path-56);}.cls-63{clip-path:url(#clip-path-57);}.cls-64{clip-path:url(#clip-path-58);}.cls-65{clip-path:url(#clip-path-59);}.cls-66{clip-path:url(#clip-path-60);}.cls-67{clip-path:url(#clip-path-61);}.cls-68{clip-path:url(#clip-path-62);}.cls-69{clip-path:url(#clip-path-63);}.cls-70{clip-path:url(#clip-path-64);}.cls-71{clip-path:url(#clip-path-65);}.cls-72{clip-path:url(#clip-path-66);}.cls-73{clip-path:url(#clip-path-67);}.cls-74{clip-path:url(#clip-path-68);}.cls-75{clip-path:url(#clip-path-69);}.cls-76{clip-path:url(#clip-path-70);}.cls-77{clip-path:url(#clip-path-71);}.cls-78{clip-path:url(#clip-path-72);}.cls-79{clip-path:url(#clip-path-73);}.cls-80{clip-path:url(#clip-path-74);}.cls-81{clip-path:url(#clip-path-75);}.cls-82{clip-path:url(#clip-path-76);}.cls-83{clip-path:url(#clip-path-77);}.cls-84{clip-path:url(#clip-path-78);}.cls-85{clip-path:url(#clip-path-79);}.cls-86{clip-path:url(#clip-path-80);}.cls-87{clip-path:url(#clip-path-81);}.cls-88{clip-path:url(#clip-path-82);}.cls-89{clip-path:url(#clip-path-83);}.cls-90{clip-path:url(#clip-path-84);}.cls-91{clip-path:url(#clip-path-85);}.cls-92{clip-path:url(#clip-path-86);}.cls-93{clip-path:url(#clip-path-87);}.cls-94{clip-path:url(#clip-path-88);}.cls-95{clip-path:url(#clip-path-89);}.cls-96{clip-path:url(#clip-path-90);}.cls-97{clip-path:url(#clip-path-91);}.cls-98{clip-path:url(#clip-path-92);}.cls-99{clip-path:url(#clip-path-93);}.cls-100{clip-path:url(#clip-path-94);}</style><clipPath id="clip-path"><path class="cls-1" d="M169.94,177.39l-1.87.22a.75.75,0,0,1,.36-.14h0A12.13,12.13,0,0,0,169.94,177.39Z"/></clipPath><clipPath id="clip-path-2"><path class="cls-1" d="M168.07,177.61a.58.58,0,0,1,.34-.13h0a13.29,13.29,0,0,0,1.51-.08l6.76-.8c-4.86,3.29-9.55,6.83-13.22,11.48-19.34,24.54-5,59.3,22.45,69.84a53.53,53.53,0,0,0,18.92,3.47c9.58,0,19.14-2.69,25.81-9.22,10.81-10.61,15.56-28.56,10.29-42.9l3.76-1.38c5.81,15.88.62,35.48-11.25,47.14-7.58,7.41-18.2,10.37-28.61,10.36a57.79,57.79,0,0,1-20.35-3.73c-29.65-11.4-45.34-49.12-24.16-76C164.38,180.48,169.41,176.7,168.07,177.61Z"/></clipPath><clipPath id="clip-path-3"><path class="cls-1" d="M175.3,176.75a2.05,2.05,0,0,0-1.21.6,7.39,7.39,0,0,0-1.33,2c-.11,0-.89-.28-4.69-1.72l3.72,1.41c-7.44-2.76-15.58-5.54-22.58-10.64-15.08-11-18-28.26-10.48-44.55,8.68-18.81,27-28.68,45.61-28.67,10.32,0,20.77,3,27.34,7.58l.14,5a48.28,48.28,0,0,0-27.48-8.54c-17.18,0-34,9.07-42,26.35-6.79,14.71-4.18,29.87,9.2,39.64,6.46,4.72,14.21,7.34,21.63,10.13l3.5,1.31Z"/></clipPath><clipPath id="clip-path-4"><path class="cls-1" d="M168.07,177.61l7.23-.86a2,2,0,0,0-1.23.62,7.89,7.89,0,0,0-1.31,2h0c-.07,0-.18,0-3.85-1.4A3.3,3.3,0,0,0,168.07,177.61Z"/></clipPath><clipPath id="clip-path-5"><path class="cls-1" d="M211.76,105.56a13.9,13.9,0,0,0-.33-2.44h0c0-.13,0-.2.25-.38-1,.74.76.06,2.67.06a8.53,8.53,0,0,1,4.88,1.58c18.75,13.07,11.26,35.67,1.49,49.85A111.93,111.93,0,0,1,202,175.32c-.67.59-1.31,1.13,3.42-2.76a43.64,43.64,0,0,1-3.94,3.12l-.06-.06a12,12,0,0,0-1.77-1.56,1.58,1.58,0,0,0-1.22-.34l-.94.16c.64-.52,1.27-1,1.89-1.57a108,108,0,0,0,18-20.34c9.1-13.29,15.52-33.28-.46-44.29a4.56,4.56,0,0,0-2.61-.88,4.13,4.13,0,0,0-2.53.9Z"/></clipPath><clipPath id="clip-path-6"><path class="cls-1" d="M211.68,102.74l.08,2.82a14,14,0,0,0-.3-2.26,1.81,1.81,0,0,1,0-.23C211.42,103,211.58,102.83,211.68,102.74Z"/></clipPath><clipPath id="clip-path-7"><path class="cls-1" d="M198.46,173.72l7-1.16c-3.49,2.87-3.85,3.11-3.94,3.11a12.13,12.13,0,0,0-1.86-1.63A1.57,1.57,0,0,0,198.46,173.72Z"/></clipPath><clipPath id="clip-path-8"><path class="cls-1" d="M197.52,173.88l7.93-1.32c12.64,4.69,31.37,13.87,39.26,35.32L241,209.26C233.71,189.49,216.16,180.81,197.52,173.88Z"/></clipPath><clipPath id="clip-path-9"><path class="cls-1" d="M244.72,207.93v-.05h0Z"/></clipPath><clipPath id="clip-path-10"><path class="cls-1" d="M244.72,207.93c5.79,15.87.6,35.44-11.26,47.09h0c11.86-11.65,17-31.22,11.26-47.09Z"/></clipPath><clipPath id="clip-path-11"><path class="cls-1" d="M233.43,255l0,0h0l0,0Z"/></clipPath><clipPath id="clip-path-12"><path class="cls-1" d="M233.43,255c-7.58,7.39-18.19,10.35-28.58,10.34h0c10.39,0,21-2.95,28.58-10.34Z"/></clipPath><clipPath id="clip-path-13"><path class="cls-1" d="M204.83,265.38h0Z"/></clipPath><clipPath id="clip-path-14"><path class="cls-1" d="M204.83,265.38a57.68,57.68,0,0,1-20.33-3.73h0a57.68,57.68,0,0,0,20.33,3.73Z"/></clipPath><clipPath id="clip-path-15"><path class="cls-1" d="M184.41,261.61l.09,0h0Z"/></clipPath><clipPath id="clip-path-16"><path class="cls-1" d="M184.41,261.61c-29.59-11.43-45.23-49.11-24.07-76h0c-21.16,26.9-5.52,64.58,24.07,76Z"/></clipPath><clipPath id="clip-path-17"><path class="cls-1" d="M160.35,185.58v0h0Z"/></clipPath><clipPath id="clip-path-18"><path class="cls-1" d="M160.35,185.58c4-5.11,9.06-8.88,7.72-8h0c1.34-.91-3.68,2.86-7.72,8Z"/></clipPath><clipPath id="clip-path-19"><path class="cls-1" d="M168.08,177.62h0Z"/></clipPath><clipPath id="clip-path-20"><path class="cls-1" d="M168.08,177.62h0l3.71,1.4h0Z"/></clipPath><clipPath id="clip-path-21"><path class="cls-1" d="M171.77,179h0Z"/></clipPath><clipPath id="clip-path-22"><path class="cls-1" d="M171.77,179c-7.44-2.76-15.56-5.53-22.56-10.63h0c7,5.1,15.12,7.87,22.56,10.63Z"/></clipPath><clipPath id="clip-path-23"><path class="cls-1" d="M149.17,168.35l0,0h0Z"/></clipPath><clipPath id="clip-path-24"><path class="cls-1" d="M149.17,168.35c-15-11-18-28.24-10.44-44.52h0c-7.54,16.28-4.61,33.52,10.44,44.52Z"/></clipPath><clipPath id="clip-path-25"><path class="cls-1" d="M138.76,123.77l0,.06h0Z"/></clipPath><clipPath id="clip-path-26"><path class="cls-1" d="M138.76,123.77c8.69-18.77,27-28.62,45.58-28.61h0c-18.59,0-36.89,9.84-45.58,28.61Z"/></clipPath><clipPath id="clip-path-27"><path class="cls-1" d="M184.37,95.16h0Z"/></clipPath><clipPath id="clip-path-28"><path class="cls-1" d="M184.37,95.16c10.31,0,20.74,3,27.31,7.58h0c-6.57-4.55-17-7.58-27.31-7.58Z"/></clipPath><clipPath id="clip-path-29"><polygon class="cls-1" points="211.68 102.75 211.68 102.74 211.68 102.74 211.68 102.75"/></clipPath><clipPath id="clip-path-30"><path class="cls-1" d="M211.68,102.75c-1,.73.76,0,2.67,0h0c-1.91,0-3.62.68-2.67,0Z"/></clipPath><clipPath id="clip-path-31"><polygon class="cls-1" points="214.36 102.8 214.35 102.8 214.35 102.8 214.36 102.8"/></clipPath><clipPath id="clip-path-32"><path class="cls-1" d="M214.36,102.8a8.47,8.47,0,0,1,4.87,1.58h0a8.47,8.47,0,0,0-4.87-1.58Z"/></clipPath><clipPath id="clip-path-33"><path class="cls-1" d="M219.28,104.42l-.05,0h0Z"/></clipPath><clipPath id="clip-path-34"><path class="cls-1" d="M219.28,104.42c18.68,13.07,11.2,35.64,1.44,49.81h0c9.76-14.17,17.24-36.74-1.44-49.81Z"/></clipPath><clipPath id="clip-path-35"><path class="cls-1" d="M220.7,154.25l0,0h0Z"/></clipPath><clipPath id="clip-path-36"><path class="cls-1" d="M220.7,154.25A111.4,111.4,0,0,1,202,175.32h0a111.4,111.4,0,0,0,18.67-21.07Z"/></clipPath><clipPath id="clip-path-37"><polygon class="cls-1" points="202.03 175.32 202.03 175.32 202.03 175.32 202.03 175.32"/></clipPath><clipPath id="clip-path-38"><path class="cls-1" d="M202,175.33h0c-.67.58-1.31,1.12,3.42-2.77h0C200.72,176.45,201.36,175.91,202,175.33Z"/></clipPath><clipPath id="clip-path-39"><path class="cls-1" d="M205.49,172.58l0,0h0Z"/></clipPath><clipPath id="clip-path-40"><path class="cls-1" d="M205.49,172.58c12.64,4.69,31.33,13.88,39.22,35.3h0c-7.89-21.42-26.58-30.61-39.22-35.3Z"/></clipPath><clipPath id="clip-path-41"><path class="cls-1" d="M168.07,177.61a.66.66,0,0,1,.31-.14h.1a13.43,13.43,0,0,0,1.46-.09Z"/></clipPath><clipPath id="clip-path-42"><path class="cls-1" d="M169.94,177.39l6.76-.8c-4.86,3.29-9.55,6.83-13.22,11.48-19.34,24.54-5,59.3,22.45,69.84a53.53,53.53,0,0,0,18.92,3.47c9.58,0,19.14-2.69,25.81-9.22,10.81-10.61,15.56-28.56,10.29-42.9l3.76-1.38c5.81,15.88.62,35.48-11.25,47.14-7.58,7.41-18.2,10.37-28.61,10.36a57.79,57.79,0,0,1-20.35-3.73c-29.65-11.4-45.34-49.12-24.16-76,4-5.12,9.07-8.9,7.73-8a.7.7,0,0,1,.31-.14h0A11.13,11.13,0,0,0,169.94,177.39Z"/></clipPath><clipPath id="clip-path-43"><path class="cls-1" d="M168.07,177.61l3.72,1.41c-7.44-2.76-15.58-5.54-22.58-10.64-15.08-11-18-28.26-10.48-44.55,8.68-18.81,27-28.68,45.61-28.67,10.32,0,20.77,3,27.34,7.58l.14,5a48.28,48.28,0,0,0-27.48-8.54c-17.18,0-34,9.07-42,26.35-6.79,14.71-4.18,29.87,9.2,39.64,6.46,4.72,14.21,7.34,21.63,10.13l3.5,1.31-1.4.16a2,2,0,0,0-1.23.63,7.61,7.61,0,0,0-1.31,2h0C172.62,179.31,171.57,178.93,168.07,177.61Z"/></clipPath><clipPath id="clip-path-44"><path class="cls-1" d="M175.3,176.75a2.05,2.05,0,0,0-1.21.6,5.85,5.85,0,0,0-.63.78c-.23.35-.42.68-.51.84s-.13.24-.19.36-.89-.28-4.69-1.72Z"/></clipPath><clipPath id="clip-path-45"><path class="cls-1" d="M211.68,102.74c-1,.74.76.06,2.67.06a8.53,8.53,0,0,1,4.88,1.58c18.75,13.07,11.26,35.67,1.49,49.85A111.93,111.93,0,0,1,202,175.32c-.67.59-1.31,1.13,3.42-2.76-3.49,2.87-3.84,3.12-3.92,3.14-.61-.62-1-1-1.21-1.15a4.82,4.82,0,0,0-1.06-.72,1.26,1.26,0,0,0-.8-.11l-.94.16c.64-.52,1.27-1,1.89-1.57a108,108,0,0,0,18-20.34c9.1-13.29,15.52-33.28-.46-44.29a4.56,4.56,0,0,0-2.61-.88,4.13,4.13,0,0,0-2.53.9l-.06-2.14a14,14,0,0,0-.32-2.4.36.36,0,0,1,0-.1C211.42,103,211.57,102.84,211.68,102.74Z"/></clipPath><clipPath id="clip-path-46"><path class="cls-1" d="M211.76,105.56a13.18,13.18,0,0,0-.31-2.3,1,1,0,0,1,0-.17c0-.09,0-.16.26-.35Z"/></clipPath><clipPath id="clip-path-47"><path class="cls-1" d="M205.45,172.56c-2.88,2.37-3.8,3.1-3.92,3.14h0l-.65-.64a7.33,7.33,0,0,0-1.26-1,1.4,1.4,0,0,0-1.16-.31Z"/></clipPath><clipPath id="clip-path-48"><path class="cls-1" d="M205.45,172.56c12.64,4.69,31.37,13.87,39.26,35.32L241,209.26c-7.24-19.77-24.79-28.45-43.43-35.38Z"/></clipPath><clipPath id="clip-path-49"><path class="cls-1" d="M227.33,240.42,224,238.23c4.17-6.42,6.25-14.45,4.56-21.73-3.24-14.31-18.38-22.61-32.13-28.14-3.25-1.31-6.54-2.56-7.92-3.09L188,180.8c3.32,1.25,6.64,2.52,9.93,3.84,14.29,5.74,30.76,14.64,34.54,31C234.39,224.09,232,233.22,227.33,240.42Z"/></clipPath><clipPath id="clip-path-50"><path class="cls-1" d="M188,180.8l.52,4.47c-1.88,1.3-5.41,3.64-8.69,6.24a29.26,29.26,0,0,0-8.34,35.75c6.07,12.48,19.2,20,33,20,.52,0,1,0,1.55,0,7.72-.33,13.91-2.79,17.95-9l3.35,2.19c-4.9,7.52-12.37,10.45-21.14,10.81q-.85,0-1.71,0c-15.27,0-29.84-8.33-36.62-22.25a33.26,33.26,0,0,1,9.45-40.63C180.73,185.66,184.36,183.24,188,180.8Z"/></clipPath><clipPath id="clip-path-51"><path class="cls-1" d="M224,238.21l0,0h0Z"/></clipPath><clipPath id="clip-path-52"><path class="cls-1" d="M224,238.21c4.16-6.41,6.22-14.44,4.54-21.71h0c1.68,7.27-.38,15.3-4.54,21.71Z"/></clipPath><clipPath id="clip-path-53"><path class="cls-1" d="M228.53,216.46v0h0Z"/></clipPath><clipPath id="clip-path-54"><path class="cls-1" d="M228.53,216.46c-3.26-14.29-18.38-22.58-32.12-28.1h0c13.74,5.52,28.86,13.81,32.12,28.1Z"/></clipPath><clipPath id="clip-path-55"><polygon class="cls-1" points="196.41 188.35 196.41 188.36 196.41 188.36 196.41 188.35"/></clipPath><clipPath id="clip-path-56"><path class="cls-1" d="M196.4,188.35c-3.25-1.3-6.53-2.55-7.91-3.08h0c1.38.53,4.66,1.78,7.91,3.08Z"/></clipPath><clipPath id="clip-path-57"><polygon class="cls-1" points="188.49 185.28 188.49 185.27 188.49 185.27 188.49 185.28"/></clipPath><clipPath id="clip-path-58"><path class="cls-1" d="M188.49,185.28c-1.89,1.29-5.41,3.63-8.69,6.23h0c3.28-2.6,6.8-4.94,8.69-6.23Z"/></clipPath><clipPath id="clip-path-59"><path class="cls-1" d="M179.77,191.54l0,0h0Z"/></clipPath><clipPath id="clip-path-60"><path class="cls-1" d="M179.77,191.54a29.25,29.25,0,0,0-8.31,35.72h0a29.25,29.25,0,0,1,8.31-35.72Z"/></clipPath><clipPath id="clip-path-61"><path class="cls-1" d="M171.48,227.29l0,0h0Z"/></clipPath><clipPath id="clip-path-62"><path class="cls-1" d="M171.48,227.29c6.07,12.46,19.19,20,33,20h0c-13.81,0-26.93-7.51-33-20Z"/></clipPath><clipPath id="clip-path-63"><polygon class="cls-1" points="204.49 247.26 204.48 247.26 204.48 247.26 204.49 247.26 204.49 247.26"/></clipPath><clipPath id="clip-path-64"><path class="cls-1" d="M204.49,247.26c.51,0,1,0,1.54,0h0c-.51,0-1,0-1.54,0Z"/></clipPath><clipPath id="clip-path-65"><path class="cls-1" d="M206.05,247.23h0Z"/></clipPath><clipPath id="clip-path-66"><path class="cls-1" d="M206.05,247.23c7.72-.34,13.9-2.8,17.93-9h0c-4,6.2-10.21,8.66-17.93,9Z"/></clipPath><clipPath id="clip-path-67"><path class="cls-1" d="M224,238.23c4.17-6.42,6.25-14.45,4.56-21.73-3.24-14.31-18.38-22.61-32.13-28.14-3.25-1.31-6.54-2.56-7.92-3.09L188,180.8c3.32,1.25,6.64,2.52,9.93,3.84,14.29,5.74,30.76,14.64,34.54,31,1.95,8.49-.43,17.62-5.11,24.82Z"/></clipPath><clipPath id="clip-path-68"><path class="cls-1" d="M188.49,185.27c-1.88,1.3-5.41,3.64-8.69,6.24a29.26,29.26,0,0,0-8.34,35.75c6.07,12.48,19.2,20,33,20,.52,0,1,0,1.55,0,7.72-.33,13.91-2.79,17.95-9l3.35,2.19c-4.9,7.52-12.37,10.45-21.14,10.81q-.85,0-1.71,0c-15.27,0-29.84-8.33-36.62-22.25a33.26,33.26,0,0,1,9.45-40.63c3.42-2.72,7.05-5.14,10.66-7.58Z"/></clipPath><clipPath id="clip-path-69"><path class="cls-1" d="M161.43,159.54l1.92-3.51c7.22,4,15.8,7,22.41,9.4l.68,4.48C177.63,166.8,169,163.67,161.43,159.54Z"/></clipPath><clipPath id="clip-path-70"><path class="cls-1" d="M186.44,169.91l-.68-4.48a122.86,122.86,0,0,0,11.46-10.49c7-7.58,21.75-26.37,16.11-31.79l.84-4.93c10.3,10.89-6.73,31.58-14,39.44A99.4,99.4,0,0,1,186.44,169.91Z"/></clipPath><clipPath id="clip-path-71"><path class="cls-1" d="M213.87,120a9.68,9.68,0,0,0,0,2.42.57.57,0,0,1,0,.13,1.94,1.94,0,0,1,0,.24h0c0,.11-.16.2-.55.41,1.39-.71-.07-.32-1.6-.32a9,9,0,0,1-5.88-2.2,33.21,33.21,0,0,0-21.46-7.81,32,32,0,0,0-20.73,7.49c-5.66,4.79-10,11.57-11,18.74-1.1,7.52,3.72,13.11,10.73,17l-1.92,3.51c-8.06-4.41-14.16-11.35-12.77-21.06,1.18-8.27,6.11-15.89,12.42-21.23a36,36,0,0,1,23.31-8.43,37.23,37.23,0,0,1,24,8.76,5.06,5.06,0,0,0,3.3,1.25,5.31,5.31,0,0,0,2.44-.61Z"/></clipPath><clipPath id="clip-path-72"><path class="cls-1" d="M213.33,123.15l.54-3.2a9.07,9.07,0,0,0,0,2.11c0,.1,0,.21,0,.32a1.79,1.79,0,0,1,0,.23.29.29,0,0,1,0,.13C213.86,122.85,213.69,123,213.33,123.15Z"/></clipPath><clipPath id="clip-path-73"><path class="cls-1" d="M163.37,156.05l0,0h0Z"/></clipPath><clipPath id="clip-path-74"><path class="cls-1" d="M163.37,156.05c7.22,3.95,15.79,6.95,22.39,9.38h0c-6.6-2.43-15.17-5.43-22.39-9.38Z"/></clipPath><clipPath id="clip-path-75"><polygon class="cls-1" points="185.77 165.42 185.76 165.43 185.76 165.43 185.77 165.42"/></clipPath><clipPath id="clip-path-76"><path class="cls-1" d="M185.77,165.42a124,124,0,0,0,11.45-10.48h0a124,124,0,0,1-11.45,10.48Z"/></clipPath><clipPath id="clip-path-77"><path class="cls-1" d="M197.24,154.92l0,0h0Z"/></clipPath><clipPath id="clip-path-78"><path class="cls-1" d="M197.24,154.92c7-7.6,21.73-26.36,16.09-31.77h0c5.64,5.41-9.06,24.17-16.09,31.77Z"/></clipPath><clipPath id="clip-path-79"><polygon class="cls-1" points="213.33 123.15 213.32 123.15 213.32 123.15 213.33 123.15"/></clipPath><clipPath id="clip-path-80"><path class="cls-1" d="M213.33,123.15c1.39-.71-.07-.32-1.6-.32h0c1.53,0,3-.39,1.6.32Z"/></clipPath><clipPath id="clip-path-81"><polygon class="cls-1" points="211.72 122.83 211.73 122.83 211.73 122.83 211.72 122.83 211.72 122.83"/></clipPath><clipPath id="clip-path-82"><path class="cls-1" d="M211.72,122.83a9,9,0,0,1-5.87-2.2h0a9,9,0,0,0,5.87,2.2Z"/></clipPath><clipPath id="clip-path-83"><path class="cls-1" d="M205.83,120.62h0Z"/></clipPath><clipPath id="clip-path-84"><path class="cls-1" d="M205.83,120.62a33.22,33.22,0,0,0-21.44-7.8h0a33.22,33.22,0,0,1,21.44,7.8Z"/></clipPath><clipPath id="clip-path-85"><path class="cls-1" d="M184.37,112.82h0Z"/></clipPath><clipPath id="clip-path-86"><path class="cls-1" d="M184.37,112.82a32,32,0,0,0-20.71,7.49h0a32,32,0,0,1,20.71-7.49Z"/></clipPath><clipPath id="clip-path-87"><path class="cls-1" d="M163.64,120.32h0Z"/></clipPath><clipPath id="clip-path-88"><path class="cls-1" d="M163.64,120.32c-5.65,4.79-10,11.57-11,18.73h0c1-7.16,5.37-13.94,11-18.73Z"/></clipPath><clipPath id="clip-path-89"><path class="cls-1" d="M152.61,139.07v0h0Z"/></clipPath><clipPath id="clip-path-90"><path class="cls-1" d="M152.61,139.07c-1.08,7.51,3.73,13.1,10.74,17h0c-7-3.86-11.82-9.45-10.74-17Z"/></clipPath><clipPath id="clip-path-91"><path class="cls-1" d="M163.35,156c7.22,4,15.8,7,22.41,9.4l.68,4.48c-8.81-3.11-17.48-6.24-25-10.37Z"/></clipPath><clipPath id="clip-path-92"><path class="cls-1" d="M185.76,165.43a122.86,122.86,0,0,0,11.46-10.49c7-7.58,21.75-26.37,16.11-31.79l.84-4.93c10.3,10.89-6.73,31.58-14,39.44a99.4,99.4,0,0,1-13.71,12.25Z"/></clipPath><clipPath id="clip-path-93"><path class="cls-1" d="M213.33,123.15c1.39-.71-.07-.32-1.6-.32a9,9,0,0,1-5.88-2.2,33.21,33.21,0,0,0-21.46-7.81,32,32,0,0,0-20.73,7.49c-5.66,4.79-10,11.57-11,18.74-1.1,7.52,3.72,13.11,10.73,17l-1.92,3.51c-8.06-4.41-14.16-11.35-12.77-21.06,1.18-8.27,6.11-15.89,12.42-21.23a36,36,0,0,1,23.31-8.43,37.23,37.23,0,0,1,24,8.76,5.06,5.06,0,0,0,3.3,1.25,5.31,5.31,0,0,0,2.44-.61l-.3,1.73a11.08,11.08,0,0,0,0,2.61.92.92,0,0,1,0,.16C213.86,122.85,213.69,123,213.33,123.15Z"/></clipPath><clipPath id="clip-path-94"><path class="cls-1" d="M213.87,120a10.87,10.87,0,0,0,0,2.77h0c0,.07,0,.16-.55.43Z"/></clipPath></defs><g id="Layer_2" data-name="Layer 2"><g id="lines"><path class="cls-2" d="M352.84,275.75c-.92-.54-1.81-1.1-2.69-1.69l-4.42-4.71a3.62,3.62,0,0,0-.45-1.61,7.17,7.17,0,0,0-2.07-3.64c-3.38-3.31-7.1-6.57-10.68-10a4.14,4.14,0,0,0-.91-1.71,124,124,0,0,1-10.37-13.88,3.94,3.94,0,0,0-2.39-1.77,73.15,73.15,0,0,0-7.36-12.83c-3.55-5.07-5.54-11.22-7.93-16.88a8.92,8.92,0,0,0-5-5.14,3.94,3.94,0,0,0-.37-1.62,131.72,131.72,0,0,0-16.08-25.72,3.55,3.55,0,0,0-.09-3.77c-.34-.53-.7-1.06-1.05-1.59a3.21,3.21,0,0,0-.69-2.53l-11.4-15c-.06-.1-.12-.21-.2-.32-2.18-3.09-4.24-6.24-6.21-9.45a4.19,4.19,0,0,0-.41-2.13l-17.36-36.3a3.31,3.31,0,0,0-2-1.79c-3.22-4.4-7-8.42-9.69-13.36a7.07,7.07,0,0,0-2.9-3q-8-13.18-17.14-25.6a1,1,0,0,0-.14-.15,5.38,5.38,0,0,0-.2-.51c-.44-.89-.89-1.77-1.34-2.66a138.33,138.33,0,0,0-11-22.61,3,3,0,0,0-.31-.4,3.76,3.76,0,0,0,.2-4.16,55.68,55.68,0,0,0-3.07-5Q190,12.86,182.18,1.94c-1.66-2.31-5.37-2.85-6.91,0l-2,3.7a3.35,3.35,0,0,0-2.43,1.82,38.33,38.33,0,0,0-1.73,4c-.21.47-.4,1-.62,1.42A3.43,3.43,0,0,0,165,14.8l-1.33,2.66a4.1,4.1,0,0,0-6.6,1.73c-1.62,4-3.32,8-5.07,12a3.17,3.17,0,0,0-3.7,2q-4.05,9.42-8.08,18.83a3.75,3.75,0,0,0-3,2.8q-3.47,10.82-7.65,21.35a3.43,3.43,0,0,0-3.59,2,281,281,0,0,0-17.9,43.28,3.73,3.73,0,0,0-4.46,2.75Q99.84,137,95,149.44c-.76,1.59-1.55,3.18-2.39,4.74a4,4,0,0,0-.5,2.39c0,.09-.07.18-.11.28a3.86,3.86,0,0,0-4.65,2.68,441.4,441.4,0,0,1-23,54.87,4.26,4.26,0,0,0-.46,2.18q-2.54,4.68-5,9.38a3.14,3.14,0,0,0-2.12,1.85L53.15,236A187.06,187.06,0,0,1,42.89,255.3a3.36,3.36,0,0,0-2.09,1.2,36.84,36.84,0,0,0-6.46,10.58l-7.41,12.43c-2.36,4-5.1,9.94.3,12.84a4.06,4.06,0,0,0,5.47-1.43c1.52-2.63,3.7-3.43,6.6-3.11,2.63.29,3.88-1.67,3.8-3.73l.25-.08c-1,2.08.19,5.2,2.57,5.63a17.71,17.71,0,0,0,15.45-4.11,2.6,2.6,0,0,0,.39.05,27.12,27.12,0,0,0,7.11-.64,24.58,24.58,0,0,0,9.63,0,4,4,0,0,0,1,.26,33.77,33.77,0,0,0,9.64-.13,5.05,5.05,0,0,0,1.46.39c7.77.84,20.14,1,27.8-3.92,2.15.2,4.29.4,6.44.62A40.7,40.7,0,0,0,135,283.28q7.36.87,14.7,1.92a4.42,4.42,0,0,0,1.55-.06c.32.09.65.16,1,.24a3.89,3.89,0,0,0,3.59,2.64l23.36.12c13.9,1.69,27.74,5.14,41.79,4.2,1.45-.1,2.89-.25,4.34-.42a67.22,67.22,0,0,0,14.61.32l1,0c1.34.38,2.66.85,4,1.31a3.56,3.56,0,0,0,3.83,3.62,100.12,100.12,0,0,0,17.75-1.56c3.31,1,6.74,1.33,10,0a4.11,4.11,0,0,0,2.27.72l11.57.43a3.69,3.69,0,0,0,3.87,1.17,80.94,80.94,0,0,0,8.57-3.11c7-.25,13.84.76,20.8-1.42,3.43-1.08,6.66-2.21,9.91-3a12,12,0,0,0,10.15-1.22,27.1,27.1,0,0,1,3.41.33C355,290.72,360.68,280.35,352.84,275.75Zm-182.11-3a4,4,0,0,0,.31-.41l1.09.47C171.66,272.81,171.2,272.78,170.73,272.77Z"/><path class="cls-3" d="M134.62,29.54c-.88,2.55-5,5.17-6.8,7.26a83.29,83.29,0,0,0-7.43,10,54.17,54.17,0,0,0-2.63,4.77,5,5,0,0,0-.84.62l-6.53,6a3.84,3.84,0,0,0-2.1,1.19c-1.27,1.33-2.55,2.68-3.84,4-1.87,1.85-3.8,3.63-5.83,5.31a3.76,3.76,0,0,0-3.48,1A125.89,125.89,0,0,1,80.87,80.88a4.06,4.06,0,0,0-1.64,2.68l-4.91,4.55C67.74,90.78,63.11,96,58.16,100.94l-6.95,7c-1,.68-2,1.35-3,2a3.15,3.15,0,0,0-2.68.6L35.73,118l-4.38,2.78c-7.52,4.76-15.78,9.26-22.46,15.2a21.24,21.24,0,0,0-6.17,9.14c-.55.63-1.09,1.25-1.61,1.9a7.51,7.51,0,0,0-.47.68A4,4,0,0,0,.1,149a1.55,1.55,0,0,1,0,.21c0,.05,0,.11,0,.16a3.78,3.78,0,0,0,.84,3c-1,3.09-.73,6.21,0,9.61-.11,10-1.24,19.9,0,29.84,1.21,9.59,4.4,18.77,5.05,28.45,1.38,20.38.78,41,1.06,61.47.1,7,10.57,10.72,14,3.78Q27.09,273,33.2,260.62a4.1,4.1,0,0,0,1.49-1.87,189.1,189.1,0,0,0,7-20.3c.65-1,1.31-1.92,2-2.88a3.58,3.58,0,0,0,1.77-1,64.43,64.43,0,0,0,15.34-25.72,3.53,3.53,0,0,0,0-2.06c2.31-3.52,4.86-6.87,7-10.5,3.67-6.25,6.71-12.92,9.79-19.51a4.23,4.23,0,0,0,2.19-2.42l14.82-38.89a3.32,3.32,0,0,0,.22-1.36,4.2,4.2,0,0,0,.36-.59,108.46,108.46,0,0,0,4.8-11.3l1.41-3.32a7.7,7.7,0,0,0,2.68-3.57c3.74-9.91,9.64-19.14,14.68-28.42a7,7,0,0,0,0-7.21A6.37,6.37,0,0,0,123.29,76c3.77-7.68,6.18-15.76,10.93-22.95,4.5-6.81,12.18-11.67,14.86-19.49C152.22,24.37,137.74,20.44,134.62,29.54Z"/><path class="cls-3" d="M357,255.49a46.79,46.79,0,0,0-4.92-7.94c-.36-7.05-.92-14.08-1.72-21.09a4.12,4.12,0,0,0,.34-1.63,347.92,347.92,0,0,0-2.17-41,4.12,4.12,0,0,0-2.51-3.57,3.73,3.73,0,0,0-2-1.78,3.72,3.72,0,0,0-.79-3.36,4.8,4.8,0,0,0-.38-.54c-1-1.19-2-2.34-3.08-3.49a7.43,7.43,0,0,0-1.94-5c-1.3-1.49-2.63-2.93-4-4.34a5.67,5.67,0,0,0-.61-1.1c-3.39-4.74-7.61-7.87-12.61-10.79l-.15-.08c-3.7-4.71-7.56-9.28-11.52-13.77q-4.11-5-8.5-9.78a3.37,3.37,0,0,0,.21-2.86,55.13,55.13,0,0,0-7-13.84A4.11,4.11,0,0,0,288.9,108a73,73,0,0,0-7.79-7.06c-2.45-6-7.95-10.64-12.16-15.45-4.53-5.18-8.92-13.33-15.36-16.23a10,10,0,0,0-3-.82Q228.88,46,207.78,22.87c-3.5-3.79-9.12,1.86-5.66,5.66a109.07,109.07,0,0,1,16,22.49A3.5,3.5,0,0,0,221,53l.41.83a3.78,3.78,0,0,0,.13,1.51A28.82,28.82,0,0,0,225,63.09a3.58,3.58,0,0,0,.69,2.65l12.8,18.7a5.14,5.14,0,0,0,.67.77l3.94,6.88a3.12,3.12,0,0,0,.24,1.44A60.61,60.61,0,0,0,252.65,109a86.48,86.48,0,0,0,8.17,11.72c0,.11,0,.22.08.33a41.06,41.06,0,0,0,9.29,15.24c2.69,7,7.67,12.78,12.81,18.27a4.23,4.23,0,0,0-1.58,6.61L297.9,181a3.61,3.61,0,0,0,.14,1,125.43,125.43,0,0,0,19.77,38.88,7.46,7.46,0,0,0,.67,5.09A107.84,107.84,0,0,0,331.1,245.6c4.6,5.73,9.8,10.75,13,17.46C348.23,271.78,361.17,264.17,357,255.49Z"/><path class="cls-3" d="M344.45,294.48c-1.59,1.19-3.14,2.41-4.69,3.65a3.21,3.21,0,0,0-4.15,1c-.39.47-.79.93-1.19,1.39l-1.91.41a3.66,3.66,0,0,0-1.58-.77c0-.09.08-.17.11-.27,1-2.86-2.13-5.79-4.92-4.92q-10.22,3.22-20.62,5.72a3.82,3.82,0,0,0-2.25-.57,200.92,200.92,0,0,0-37,4.8c-5.63-2.78-11.38-5.23-17.65-6.23-7.21-1.14-14.53-1-21.81-1l-23.78,0c-5.46,0-12,.57-17-2a21.38,21.38,0,0,1-2.59-1.75,4.32,4.32,0,0,0-7,2.94q-8-1-16-1.51c-1.83-.14-3.67-.25-5.51-.35a3.79,3.79,0,0,0-3.6-2.63l-13.06.17a4.24,4.24,0,0,0-1.9-.54,150.83,150.83,0,0,0-30.9,1.94,3.4,3.4,0,0,0-1.74.81h-1c2.84-2.08.6-7.7-3.75-7l-33.67,5.1A3.2,3.2,0,0,0,63,294.11L38,298.62c-.28-.06-.54-.13-.8-.21-1.23-1.26-2.53-2.46-3.88-3.61-3.36-2.83-8.63.7-6.29,4.85a14.16,14.16,0,0,0,3.85,4.43,4,4,0,0,0,2.86,3.07,39.63,39.63,0,0,0,6.57,8.67A3.69,3.69,0,0,0,43.41,317l3,3a4.08,4.08,0,0,0,1.29.87c1.76,2.84,4.66,5.35,6.71,7.49l3.33,3.5a3.27,3.27,0,0,0,.68,1.93c.21.27.43.53.63.8h0l0,.06a96,96,0,0,0,21,20.24,75,75,0,0,0,5.56,7,99,99,0,0,0,21,20.84,308.63,308.63,0,0,0,23.74,20.37,3.82,3.82,0,0,0,.84,1l3.52,2.88a4,4,0,0,0,3.58,2.93l13.68,11.21a10.38,10.38,0,0,0,4.49,5.27,4.32,4.32,0,0,0,.65,4.75c6,7.07,17.07,8,24.31,2.66a3.78,3.78,0,0,0,3.27-.12,3.47,3.47,0,0,0,4.12.1l1.34-.9a4,4,0,0,0,4.67-.55L210.82,419a3.37,3.37,0,0,0,.65-.72A658.13,658.13,0,0,0,276,373.52c13.65-10.73,28.46-21.67,39.83-34.87,5.6-6.51,9.84-14,15.94-20.12S344.68,307,349.92,300C352.25,296.81,347.59,292.11,344.45,294.48Z"/><path class="cls-4" d="M343,291.39l-.6.63c-2.65,2.43-7.9,3.13-11.12,4.23-2.57.87-5.14,1.78-7.72,2.66a7,7,0,0,0-5.09-.34c-8.95,2.54-18.11,2-27.3,1.65-3.59-.13-7.1-.09-10.58.07-17.61-2.3-35.35-3-53.1-3.58a6.8,6.8,0,0,0-4.9,1.64q-5-.09-10,0l-4.45-.15c-16-.55-31.26-7.43-47.15-7.94a113.54,113.54,0,0,0-16.39-3.79c-12.34-1.78-24.38.07-36.74.26-13.57.2-27.08-1.36-40.53-2.91-4.07-.47-6.63,2.77-7.22,6.33l-3.32,1.29A9.43,9.43,0,0,0,53.07,294c-4.39.33-8.78.52-13.18.51a12.61,12.61,0,0,0-2-.87,22.1,22.1,0,0,0-14.19.24c-8.38,2.94-6.25,13.66,2,14.73,2.95.39,5.9.62,8.84.76.19.27.39.54.59.8a7.28,7.28,0,0,0,3,9l7.06,4.58a6.13,6.13,0,0,0,2.3,4c1.21,1,2.39,2,3.59,3q.47.6,1,1.17a5.42,5.42,0,0,0,1,2.34c1,1.38,2.12,2.71,3.21,4a7.58,7.58,0,0,0,2.15,3.61A49.21,49.21,0,0,0,64,346.68,100.2,100.2,0,0,0,78.88,358.6a143.15,143.15,0,0,0,22,20,9.08,9.08,0,0,0,1.66,3,165.83,165.83,0,0,0,25.24,24.74,8.17,8.17,0,0,0,2,2l17.81,12.86a3.65,3.65,0,0,0,1.74,4.53l18.63,11.62a3.5,3.5,0,0,0,4.3-.2l.42.1c.89.3,1.8.57,2.74.79a4.09,4.09,0,0,0,2.49-.23A30.91,30.91,0,0,0,191.33,434c7.2-3.72,13.7-9.12,20.26-13.84q10.47-7.54,20.85-15.23c27-20,53.81-40.63,79.46-62.42,14.28-12.14,27.36-25.47,40.27-39a12.39,12.39,0,0,0,1.46-1.52C359.51,294.64,349.84,284.23,343,291.39ZM156.55,397.1c-1.4-1.31-2.81-2.59-4.24-3.87l4.92,2.88C157,396.44,156.76,396.76,156.55,397.1Z"/><g class="cls-5"><g class="cls-5"><g class="cls-6"><g class="cls-5"><path class="cls-7" d="M163.48,188.07l-3.14-2.47c4-5.12,9.07-8.9,7.73-8l8.63-1C171.84,179.88,167.15,183.42,163.48,188.07Z"/><path class="cls-7" d="M160.77,185.93a59.56,59.56,0,0,1,8.48-8.46"/></g><path class="cls-7" d="M169.94,177.39l-1.87.22a.75.75,0,0,1,.36-.14h0A12.13,12.13,0,0,0,169.94,177.39Z"/></g></g><g class="cls-5"><g class="cls-8"><g class="cls-5"><path class="cls-7" d="M241,209.26l3.76-1.38c5.81,15.88.62,35.48-11.25,47.14l-2.8-2.86C241.47,241.55,246.22,223.6,241,209.26Z"/><path class="cls-7" d="M242.85,208.56c5.54,15.12.57,33.9-10.78,45"/><path class="cls-7" d="M244.19,208.07c5.74,15.67.62,35-11.12,46.56"/><path class="cls-7" d="M243,224.4l4,.17"/><path class="cls-7" d="M239.3,239.51l3.64,1.63"/><path class="cls-7" d="M230.66,252.16l2.8,2.86c-7.58,7.41-18.2,10.37-28.61,10.36v-4C214.43,261.38,224,258.69,230.66,252.16Z"/><path class="cls-7" d="M232.07,253.6c-7.13,7-17.22,9.8-27.22,9.8"/><path class="cls-7" d="M233.07,254.63c-7.45,7.29-17.93,10.21-28.22,10.2"/><path class="cls-7" d="M223.13,257.45,225,261"/><path class="cls-7" d="M214.32,260.44l.89,3.9"/><path class="cls-7" d="M204.85,261.38v4a57.79,57.79,0,0,1-20.35-3.73l1.43-3.74A53.53,53.53,0,0,0,204.85,261.38Z"/><path class="cls-7" d="M204.85,263.4a55.71,55.71,0,0,1-19.64-3.6"/><path class="cls-7" d="M204.85,264.83a57.21,57.21,0,0,1-20.16-3.69"/><path class="cls-7" d="M198.27,261l-.49,4"/><path class="cls-7" d="M191.89,259.78l-1,3.88"/><path class="cls-7" d="M185.93,257.91l-1.43,3.74c-29.65-11.4-45.34-49.12-24.16-76l3.14,2.47C144.14,212.61,158.52,247.37,185.93,257.91Z"/><path class="cls-7" d="M185.21,259.8c-28.54-11-43.58-47.23-23.32-73"/><path class="cls-7" d="M184.69,261.14c-29.34-11.28-44.85-48.6-23.92-75.21"/><path class="cls-7" d="M163.63,240.57l-3.28,2.28"/><path class="cls-7" d="M154.61,214.74h-4"/><path class="cls-7" d="M163.48,188.07l-3.14-2.47c4-5.12,9.07-8.9,7.73-8l8.63-1C171.84,179.88,167.15,183.42,163.48,188.07Z"/><path class="cls-7" d="M161.89,186.82a51.73,51.73,0,0,1,10.45-9.72"/><path class="cls-7" d="M160.77,185.93a59.56,59.56,0,0,1,8.48-8.46"/><path class="cls-7" d="M167.46,183.76l-3-2.71"/><path class="cls-7" d="M171.93,180l-4.37-1.86"/></g><path class="cls-7" d="M168.07,177.61a.58.58,0,0,1,.34-.13h0a13.29,13.29,0,0,0,1.51-.08l6.76-.8c-4.86,3.29-9.55,6.83-13.22,11.48-19.34,24.54-5,59.3,22.45,69.84a53.53,53.53,0,0,0,18.92,3.47c9.58,0,19.14-2.69,25.81-9.22,10.81-10.61,15.56-28.56,10.29-42.9l3.76-1.38c5.81,15.88.62,35.48-11.25,47.14-7.58,7.41-18.2,10.37-28.61,10.36a57.79,57.79,0,0,1-20.35-3.73c-29.65-11.4-45.34-49.12-24.16-76C164.38,180.48,169.41,176.7,168.07,177.61Z"/></g></g><g class="cls-5"><g class="cls-9"><g class="cls-5"><path class="cls-7" d="M176.7,176.59l-8.63,1,3.72,1.41,1.41-3.74Z"/><path class="cls-7" d="M172.34,177.1c2.48.94,1.32.51.15.07"/><path class="cls-7" d="M169.25,177.47c5.07,1.91,3.91,1.48,2.73,1"/><path class="cls-7" d="M175.53,176.15,172,179.09"/><path class="cls-7" d="M174.37,175.71l-1.68,3.65"/><path class="cls-7" d="M173.2,175.28,171.79,179c-7.44-2.76-15.58-5.54-22.58-10.64l2.36-3.23C158,169.87,165.78,172.49,173.2,175.28Z"/><path class="cls-7" d="M172.49,177.17c-7.43-2.78-15.38-5.48-22.11-10.39"/><path class="cls-7" d="M172,178.51c-7.44-2.77-15.52-5.52-22.44-10.57"/><path class="cls-7" d="M165.73,172.46l-1.55,3.71"/><path class="cls-7" d="M158.4,169.25l-1.88,3.54"/><path class="cls-7" d="M151.57,165.15l-2.36,3.23c-15.08-11-18-28.26-10.48-44.55l3.64,1.68C135.58,140.22,138.19,155.38,151.57,165.15Z"/><path class="cls-7" d="M150.38,166.78c-14.24-10.39-17-26.61-9.85-42.12"/><path class="cls-7" d="M149.54,167.94c-14.86-10.83-17.76-27.8-10.31-43.88"/><path class="cls-7" d="M141.73,153.8l-3.62,1.76"/><path class="cls-7" d="M138.76,140.15l-4,0"/><path class="cls-7" d="M142.37,125.51l-3.64-1.68c8.68-18.81,27-28.68,45.61-28.67v4C167.16,99.16,150.34,108.23,142.37,125.51Z"/><path class="cls-7" d="M140.53,124.66c8.33-18,25.91-27.52,43.81-27.52"/><path class="cls-7" d="M139.23,124.06c8.58-18.6,26.7-28.36,45.11-28.36"/><path class="cls-7" d="M153,111l-2.69-3"/><path class="cls-7" d="M167.6,102.15l-1.43-3.74"/><path class="cls-7" d="M184.34,99.16v-4c10.32,0,20.77,3,27.34,7.58l.14,5A48.28,48.28,0,0,0,184.34,99.16Z"/><path class="cls-7" d="M184.34,97.14c9.93,0,20,2.91,27.41,8.06"/><path class="cls-7" d="M184.34,95.7c10.21,0,20.55,3,27.36,7.72"/><path class="cls-7" d="M193.86,100.1l.69-4"/><path class="cls-7" d="M203.13,102.93l.84-4.18"/></g><path class="cls-7" d="M175.3,176.75a2.05,2.05,0,0,0-1.21.6,7.39,7.39,0,0,0-1.33,2c-.11,0-.89-.28-4.69-1.72l3.72,1.41c-7.44-2.76-15.58-5.54-22.58-10.64-15.08-11-18-28.26-10.48-44.55,8.68-18.81,27-28.68,45.61-28.67,10.32,0,20.77,3,27.34,7.58l.14,5a48.28,48.28,0,0,0-27.48-8.54c-17.18,0-34,9.07-42,26.35-6.79,14.71-4.18,29.87,9.2,39.64,6.46,4.72,14.21,7.34,21.63,10.13l3.5,1.31Z"/></g></g><g class="cls-5"><g class="cls-10"><g class="cls-5"><path class="cls-7" d="M176.7,176.59l-8.63,1,3.72,1.41,1.41-3.74Z"/><path class="cls-7" d="M172.34,177.1c2.48.94,1.32.51.15.07"/><path class="cls-7" d="M169.25,177.47c5.07,1.91,3.91,1.48,2.73,1"/><path class="cls-7" d="M175.53,176.15,172,179.09"/></g><path class="cls-7" d="M168.07,177.61l7.23-.86a2,2,0,0,0-1.23.62,7.89,7.89,0,0,0-1.31,2h0c-.07,0-.18,0-3.85-1.4A3.3,3.3,0,0,0,168.07,177.61Z"/></g></g><g class="cls-5"><g class="cls-11"><g class="cls-5"><path class="cls-7" d="M211.82,107.7l-.14-5c-1,.74.76.06,2.67.06v4A4.13,4.13,0,0,0,211.82,107.7Z"/><path class="cls-7" d="M211.75,105.2a11.82,11.82,0,0,1,2.6-.42"/><path class="cls-7" d="M211.7,103.42c-.72.56.87-.08,2.65-.08"/><path class="cls-7" d="M212.59,107.22l-1.06-4.13"/><path class="cls-7" d="M213.44,106.91l-.84-4"/><path class="cls-7" d="M214.35,106.8v-4a8.53,8.53,0,0,1,4.88,1.58l-2.27,3.3A4.56,4.56,0,0,0,214.35,106.8Z"/><path class="cls-7" d="M214.35,104.78A6.57,6.57,0,0,1,218.1,106"/><path class="cls-7" d="M214.35,103.34a8,8,0,0,1,4.57,1.49"/><path class="cls-7" d="M215.2,106.89,216,103"/><path class="cls-7" d="M216.07,107.17l1.58-3.67"/><path class="cls-7" d="M217,107.68l2.27-3.3c18.75,13.07,11.26,35.67,1.49,49.85l-3.3-2.26C226.52,138.68,232.94,118.69,217,107.68Z"/><path class="cls-7" d="M218.1,106c17.38,12,10.42,33.36,1,47.1"/><path class="cls-7" d="M218.92,104.83c18.37,12.79,11,35,1.34,49.09"/><path class="cls-7" d="M226.2,121.1l3.92-1.14"/><path class="cls-7" d="M224.9,137l3.94.88"/><path class="cls-7" d="M217.42,152l3.3,2.26A111.93,111.93,0,0,1,202,175.32l-2.62-3A108,108,0,0,0,217.42,152Z"/><path class="cls-7" d="M219.08,153.11a109.63,109.63,0,0,1-18.35,20.72"/><path class="cls-7" d="M220.26,153.92a110.47,110.47,0,0,1-18.59,21"/><path class="cls-7" d="M212,159.24l3.1,2.53"/><path class="cls-7" d="M206,166.05l2.88,2.77"/><path class="cls-7" d="M199.41,172.31l2.62,3c-.67.59-1.31,1.13,3.42-2.76l-7.93,1.32C198.16,173.36,198.79,172.85,199.41,172.31Z"/><path class="cls-7" d="M200.73,173.83c-.65.56-1.28,1.09.79-.61"/><path class="cls-7" d="M201.67,174.91c-.66.58-1.3,1.12,2.7-2.17"/><path class="cls-7" d="M198.78,172.84l2.79,2.89"/><path class="cls-7" d="M198.15,173.36l4.16,1.78"/></g><path class="cls-7" d="M211.76,105.56a13.9,13.9,0,0,0-.33-2.44h0c0-.13,0-.2.25-.38-1,.74.76.06,2.67.06a8.53,8.53,0,0,1,4.88,1.58c18.75,13.07,11.26,35.67,1.49,49.85A111.93,111.93,0,0,1,202,175.32c-.67.59-1.31,1.13,3.42-2.76a43.64,43.64,0,0,1-3.94,3.12l-.06-.06a12,12,0,0,0-1.77-1.56,1.58,1.58,0,0,0-1.22-.34l-.94.16c.64-.52,1.27-1,1.89-1.57a108,108,0,0,0,18-20.34c9.1-13.29,15.52-33.28-.46-44.29a4.56,4.56,0,0,0-2.61-.88,4.13,4.13,0,0,0-2.53.9Z"/></g></g><g class="cls-5"><g class="cls-12"><g class="cls-5"><path class="cls-7" d="M211.82,107.7l-.14-5c-1,.74.76.06,2.67.06v4A4.13,4.13,0,0,0,211.82,107.7Z"/><path class="cls-7" d="M211.75,105.2a11.82,11.82,0,0,1,2.6-.42"/><path class="cls-7" d="M211.7,103.42c-.72.56.87-.08,2.65-.08"/></g><path class="cls-7" d="M211.68,102.74l.08,2.82a14,14,0,0,0-.3-2.26,1.81,1.81,0,0,1,0-.23C211.42,103,211.58,102.83,211.68,102.74Z"/></g></g><g class="cls-5"><g class="cls-13"><g class="cls-5"><path class="cls-7" d="M199.41,172.31l2.62,3c-.67.59-1.31,1.13,3.42-2.76l-7.93,1.32C198.16,173.36,198.79,172.85,199.41,172.31Z"/><path class="cls-7" d="M200.73,173.83c-.65.56-1.28,1.09.79-.61"/><path class="cls-7" d="M201.67,174.91c-.66.58-1.3,1.12,2.7-2.17"/><path class="cls-7" d="M198.15,173.36l4.16,1.78"/></g><path class="cls-7" d="M198.46,173.72l7-1.16c-3.49,2.87-3.85,3.11-3.94,3.11a12.13,12.13,0,0,0-1.86-1.63A1.57,1.57,0,0,0,198.46,173.72Z"/></g></g><g class="cls-5"><g class="cls-14"><g class="cls-5"><path class="cls-7" d="M197.52,173.88l7.93-1.32c12.64,4.69,31.37,13.87,39.26,35.32L241,209.26C233.71,189.49,216.16,180.81,197.52,173.88Z"/><path class="cls-7" d="M201.52,173.22c15.61,5.79,33.76,14.73,41.33,35.34"/><path class="cls-7" d="M204.37,172.74c13.46,5,32,14.11,39.82,35.33"/><path class="cls-7" d="M215.45,181.74l4-2.7"/><path class="cls-7" d="M230.61,192.84l3.22-2.61"/></g><path class="cls-7" d="M197.52,173.88l7.93-1.32c12.64,4.69,31.37,13.87,39.26,35.32L241,209.26C233.71,189.49,216.16,180.81,197.52,173.88Z"/></g></g><g class="cls-5"><g class="cls-15"><g class="cls-5"><path class="cls-7" d="M244.71,207.88h0c5.81,15.88.62,35.48-11.25,47.14h0C245.33,243.36,250.52,223.76,244.71,207.88Z"/></g><path class="cls-7" d="M244.72,207.93v-.05h0Z"/></g></g><g class="cls-5"><g class="cls-16"><g class="cls-5"><path class="cls-7" d="M244.71,207.88h0c5.81,15.88.62,35.48-11.25,47.14h0C245.33,243.36,250.52,223.76,244.71,207.88Z"/><line class="cls-7" x1="247.01" y1="224.57" x2="247.01" y2="224.57"/><line class="cls-7" x1="242.94" y1="241.14" x2="242.94" y2="241.14"/></g><path class="cls-7" d="M244.72,207.93c5.79,15.87.6,35.44-11.26,47.09h0c11.86-11.65,17-31.22,11.26-47.09Z"/></g></g><g class="cls-5"><g class="cls-17"><g class="cls-5"><path class="cls-7" d="M233.46,255h0c-7.58,7.41-18.2,10.37-28.61,10.36h0C215.26,265.39,225.88,262.43,233.46,255Z"/></g><path class="cls-7" d="M233.43,255l0,0h0l0,0Z"/></g></g><g class="cls-5"><g class="cls-18"><g class="cls-5"><path class="cls-7" d="M233.46,255h0c-7.58,7.41-18.2,10.37-28.61,10.36h0C215.26,265.39,225.88,262.43,233.46,255Z"/><line class="cls-7" x1="224.98" y1="261" x2="224.98" y2="261"/><line class="cls-7" x1="215.21" y1="264.34" x2="215.21" y2="264.34"/></g><path class="cls-7" d="M233.43,255c-7.58,7.39-18.19,10.35-28.58,10.34h0c10.39,0,21-2.95,28.58-10.34Z"/></g></g><g class="cls-5"><g class="cls-19"><g class="cls-5"><path class="cls-7" d="M204.85,265.38h0a57.79,57.79,0,0,1-20.35-3.73h0A57.79,57.79,0,0,0,204.85,265.38Z"/></g><path class="cls-7" d="M204.83,265.38h0Z"/></g></g><g class="cls-5"><g class="cls-20"><g class="cls-5"><path class="cls-7" d="M204.85,265.38h0a57.79,57.79,0,0,1-20.35-3.73h0A57.79,57.79,0,0,0,204.85,265.38Z"/><line class="cls-7" x1="197.78" y1="264.93" x2="197.78" y2="264.93"/><line class="cls-7" x1="190.92" y1="263.66" x2="190.92" y2="263.66"/></g><path class="cls-7" d="M204.83,265.38a57.68,57.68,0,0,1-20.33-3.73h0a57.68,57.68,0,0,0,20.33,3.73Z"/></g></g><g class="cls-5"><g class="cls-21"><g class="cls-5"><path class="cls-7" d="M184.5,261.65h0c-29.65-11.4-45.34-49.12-24.16-76h0C139.16,212.53,154.85,250.25,184.5,261.65Z"/></g><path class="cls-7" d="M184.41,261.61l.09,0h0Z"/></g></g><g class="cls-5"><g class="cls-22"><g class="cls-5"><path class="cls-7" d="M184.5,261.65h0c-29.65-11.4-45.34-49.12-24.16-76h0C139.16,212.53,154.85,250.25,184.5,261.65Z"/><line class="cls-7" x1="160.35" y1="242.85" x2="160.35" y2="242.85"/><line class="cls-7" x1="150.6" y1="214.75" x2="150.6" y2="214.75"/></g><path class="cls-7" d="M184.41,261.61c-29.59-11.43-45.23-49.11-24.07-76h0c-21.16,26.9-5.52,64.58,24.07,76Z"/></g></g><g class="cls-5"><g class="cls-23"><g class="cls-5"><path class="cls-7" d="M160.34,185.6h0c4-5.12,9.07-8.9,7.73-8h0C169.41,176.7,164.38,180.48,160.34,185.6Z"/></g><path class="cls-7" d="M160.35,185.58v0h0Z"/></g></g><g class="cls-5"><g class="cls-24"><g class="cls-5"><path class="cls-7" d="M160.34,185.6h0c4-5.12,9.07-8.9,7.73-8h0C169.41,176.7,164.38,180.48,160.34,185.6Z"/><line class="cls-7" x1="164.44" y1="181.05" x2="164.44" y2="181.05"/><line class="cls-7" x1="167.56" y1="178.14" x2="167.56" y2="178.14"/></g><path class="cls-7" d="M160.35,185.58c4-5.11,9.06-8.88,7.72-8h0c1.34-.91-3.68,2.86-7.72,8Z"/></g></g><g class="cls-5"><g class="cls-25"><g class="cls-5"><path class="cls-7" d="M168.07,177.61h0l3.72,1.41h0Z"/></g><path class="cls-7" d="M168.08,177.62h0Z"/></g></g><g class="cls-5"><g class="cls-26"><g class="cls-5"><path class="cls-7" d="M168.07,177.61h0l3.72,1.41h0Z"/><line class="cls-7" x1="171.99" y1="179.09" x2="171.99" y2="179.09"/><line class="cls-7" x1="172.69" y1="179.36" x2="172.69" y2="179.36"/></g><path class="cls-7" d="M168.08,177.62h0l3.71,1.4h0Z"/></g></g><g class="cls-5"><g class="cls-27"><g class="cls-5"><path class="cls-7" d="M171.79,179h0c-7.44-2.76-15.58-5.54-22.58-10.64h0C156.21,173.48,164.35,176.26,171.79,179Z"/></g><path class="cls-7" d="M171.77,179h0Z"/></g></g><g class="cls-5"><g class="cls-28"><g class="cls-5"><path class="cls-7" d="M171.79,179h0c-7.44-2.76-15.58-5.54-22.58-10.64h0C156.21,173.48,164.35,176.26,171.79,179Z"/><line class="cls-7" x1="164.18" y1="176.17" x2="164.18" y2="176.17"/><line class="cls-7" x1="156.52" y1="172.79" x2="156.52" y2="172.79"/></g><path class="cls-7" d="M171.77,179c-7.44-2.76-15.56-5.53-22.56-10.63h0c7,5.1,15.12,7.87,22.56,10.63Z"/></g></g><g class="cls-5"><g class="cls-29"><g class="cls-5"><path class="cls-7" d="M149.21,168.38h0c-15.08-11-18-28.26-10.48-44.55h0C131.18,140.12,134.13,157.39,149.21,168.38Z"/></g><path class="cls-7" d="M149.17,168.35l0,0h0Z"/></g></g><g class="cls-5"><g class="cls-30"><g class="cls-5"><path class="cls-7" d="M149.21,168.38h0c-15.08-11-18-28.26-10.48-44.55h0C131.18,140.12,134.13,157.39,149.21,168.38Z"/><line class="cls-7" x1="138.11" y1="155.56" x2="138.11" y2="155.56"/><line class="cls-7" x1="134.74" y1="140.18" x2="134.74" y2="140.18"/></g><path class="cls-7" d="M149.17,168.35c-15-11-18-28.24-10.44-44.52h0c-7.54,16.28-4.61,33.52,10.44,44.52Z"/></g></g><g class="cls-5"><g class="cls-31"><g class="cls-5"><path class="cls-7" d="M138.73,123.83h0c8.68-18.81,27-28.68,45.61-28.67h0C165.73,95.15,147.41,105,138.73,123.83Z"/></g><path class="cls-7" d="M138.76,123.77l0,.06h0Z"/></g></g><g class="cls-5"><g class="cls-32"><g class="cls-5"><path class="cls-7" d="M138.73,123.83h0c8.68-18.81,27-28.68,45.61-28.67h0C165.73,95.15,147.41,105,138.73,123.83Z"/><line class="cls-7" x1="150.28" y1="108.03" x2="150.28" y2="108.03"/><line class="cls-7" x1="166.17" y1="98.41" x2="166.17" y2="98.41"/></g><path class="cls-7" d="M138.76,123.77c8.69-18.77,27-28.62,45.58-28.61h0c-18.59,0-36.89,9.84-45.58,28.61Z"/></g></g><g class="cls-5"><g class="cls-33"><g class="cls-5"><path class="cls-7" d="M184.34,95.16h0c10.32,0,20.77,3,27.34,7.58h0C205.11,98.19,194.66,95.16,184.34,95.16Z"/></g><path class="cls-7" d="M184.37,95.16h0Z"/></g></g><g class="cls-5"><g class="cls-34"><g class="cls-5"><path class="cls-7" d="M184.34,95.16h0c10.32,0,20.77,3,27.34,7.58h0C205.11,98.19,194.66,95.16,184.34,95.16Z"/><line class="cls-7" x1="194.55" y1="96.11" x2="194.55" y2="96.11"/><line class="cls-7" x1="203.97" y1="98.75" x2="203.97" y2="98.75"/></g><path class="cls-7" d="M184.37,95.16c10.31,0,20.74,3,27.31,7.58h0c-6.57-4.55-17-7.58-27.31-7.58Z"/></g></g><g class="cls-5"><g class="cls-35"><g class="cls-5"><path class="cls-7" d="M211.68,102.74h0c-1,.74.76.06,2.67.06h0C212.44,102.8,210.73,103.48,211.68,102.74Z"/></g><polygon class="cls-7" points="211.68 102.75 211.68 102.74 211.68 102.74 211.68 102.75"/></g></g><g class="cls-5"><g class="cls-36"><g class="cls-5"><path class="cls-7" d="M211.68,102.74h0c-1,.74.76.06,2.67.06h0C212.44,102.8,210.73,103.48,211.68,102.74Z"/><line class="cls-7" x1="211.53" y1="103.09" x2="211.53" y2="103.09"/><line class="cls-7" x1="212.6" y1="102.95" x2="212.6" y2="102.95"/></g><path class="cls-7" d="M211.68,102.75c-1,.73.76,0,2.67,0h0c-1.91,0-3.62.68-2.67,0Z"/></g></g><g class="cls-5"><g class="cls-37"><g class="cls-5"><path class="cls-7" d="M214.35,102.8h0a8.53,8.53,0,0,1,4.88,1.58h0A8.53,8.53,0,0,0,214.35,102.8Z"/></g><polygon class="cls-7" points="214.36 102.8 214.35 102.8 214.35 102.8 214.36 102.8"/></g></g><g class="cls-5"><g class="cls-38"><g class="cls-5"><path class="cls-7" d="M214.35,102.8h0a8.53,8.53,0,0,1,4.88,1.58h0A8.53,8.53,0,0,0,214.35,102.8Z"/><line class="cls-7" x1="216.01" y1="102.97" x2="216.01" y2="102.97"/><line class="cls-7" x1="217.65" y1="103.5" x2="217.65" y2="103.5"/></g><path class="cls-7" d="M214.36,102.8a8.47,8.47,0,0,1,4.87,1.58h0a8.47,8.47,0,0,0-4.87-1.58Z"/></g></g><g class="cls-5"><g class="cls-39"><g class="cls-5"><path class="cls-7" d="M219.23,104.38h0c18.75,13.07,11.26,35.67,1.49,49.85h0C230.49,140.05,238,117.45,219.23,104.38Z"/></g><path class="cls-7" d="M219.28,104.42l-.05,0h0Z"/></g></g><g class="cls-5"><g class="cls-40"><g class="cls-5"><path class="cls-7" d="M219.23,104.38h0c18.75,13.07,11.26,35.67,1.49,49.85h0C230.49,140.05,238,117.45,219.23,104.38Z"/><line class="cls-7" x1="230.12" y1="119.96" x2="230.12" y2="119.96"/><line class="cls-7" x1="228.84" y1="137.91" x2="228.84" y2="137.91"/></g><path class="cls-7" d="M219.28,104.42c18.68,13.07,11.2,35.64,1.44,49.81h0c9.76-14.17,17.24-36.74-1.44-49.81Z"/></g></g><g class="cls-5"><g class="cls-41"><g class="cls-5"><path class="cls-7" d="M220.72,154.23h0A111.93,111.93,0,0,1,202,175.32h0A111.93,111.93,0,0,0,220.72,154.23Z"/></g><path class="cls-7" d="M220.7,154.25l0,0h0Z"/></g></g><g class="cls-5"><g class="cls-42"><g class="cls-5"><path class="cls-7" d="M220.72,154.23h0A111.93,111.93,0,0,1,202,175.32h0A111.93,111.93,0,0,0,220.72,154.23Z"/><line class="cls-7" x1="215.09" y1="161.77" x2="215.09" y2="161.77"/><line class="cls-7" x1="208.86" y1="168.82" x2="208.86" y2="168.82"/></g><path class="cls-7" d="M220.7,154.25A111.4,111.4,0,0,1,202,175.32h0a111.4,111.4,0,0,0,18.67-21.07Z"/></g></g><g class="cls-5"><g class="cls-43"><g class="cls-5"><path class="cls-7" d="M202,175.32h0c-.67.59-1.31,1.13,3.42-2.76h0C200.72,176.45,201.36,175.91,202,175.32Z"/></g><polygon class="cls-7" points="202.03 175.32 202.03 175.32 202.03 175.32 202.03 175.32"/></g></g><g class="cls-5"><g class="cls-44"><g class="cls-5"><path class="cls-7" d="M202,175.32h0c-.67.59-1.31,1.13,3.42-2.76h0C200.72,176.45,201.36,175.91,202,175.32Z"/><line class="cls-7" x1="201.57" y1="175.73" x2="201.57" y2="175.73"/><line class="cls-7" x1="202.31" y1="175.14" x2="202.31" y2="175.14"/></g><path class="cls-7" d="M202,175.33h0c-.67.58-1.31,1.12,3.42-2.77h0C200.72,176.45,201.36,175.91,202,175.33Z"/></g></g><g class="cls-5"><g class="cls-45"><g class="cls-5"><path class="cls-7" d="M205.45,172.56h0c12.64,4.69,31.37,13.87,39.26,35.32h0C236.82,186.43,218.09,177.25,205.45,172.56Z"/></g><path class="cls-7" d="M205.49,172.58l0,0h0Z"/></g></g><g class="cls-5"><g class="cls-46"><g class="cls-5"><path class="cls-7" d="M205.45,172.56h0c12.64,4.69,31.37,13.87,39.26,35.32h0C236.82,186.43,218.09,177.25,205.45,172.56Z"/><line class="cls-7" x1="219.49" y1="179.04" x2="219.49" y2="179.04"/><line class="cls-7" x1="233.83" y1="190.23" x2="233.83" y2="190.23"/></g><path class="cls-7" d="M205.49,172.58c12.64,4.69,31.33,13.88,39.22,35.3h0c-7.89-21.42-26.58-30.61-39.22-35.3Z"/></g></g><g class="cls-5"><g class="cls-47"><g class="cls-5"><path class="cls-7" d="M160.34,185.6l3.14,2.47c3.67-4.65,8.36-8.19,13.22-11.48l-8.63,1C169.41,176.7,164.38,180.48,160.34,185.6Z"/><path class="cls-7" d="M160.77,185.93a59.56,59.56,0,0,1,8.48-8.46"/></g><path class="cls-7" d="M168.07,177.61a.66.66,0,0,1,.31-.14h.1a13.43,13.43,0,0,0,1.46-.09Z"/></g></g><g class="cls-5"><g class="cls-48"><g class="cls-5"><path class="cls-7" d="M244.71,207.88,241,209.26c5.27,14.34.52,32.29-10.29,42.9l2.8,2.86C245.33,243.36,250.52,223.76,244.71,207.88Z"/><path class="cls-7" d="M244.19,208.07c5.74,15.67.62,35-11.12,46.56"/><path class="cls-7" d="M242.85,208.56c5.54,15.12.57,33.9-10.78,45"/><path class="cls-7" d="M247,224.57l-4-.17"/><path class="cls-7" d="M242.94,241.14l-3.64-1.63"/><path class="cls-7" d="M233.46,255l-2.8-2.86c-6.67,6.53-16.23,9.22-25.81,9.22v4C215.26,265.39,225.88,262.43,233.46,255Z"/><path class="cls-7" d="M233.07,254.63c-7.45,7.29-17.93,10.21-28.22,10.2"/><path class="cls-7" d="M232.07,253.6c-7.13,7-17.22,9.8-27.22,9.8"/><path class="cls-7" d="M225,261l-1.85-3.55"/><path class="cls-7" d="M215.21,264.34l-.89-3.9"/><path class="cls-7" d="M204.85,265.38v-4a53.53,53.53,0,0,1-18.92-3.47l-1.43,3.74A57.79,57.79,0,0,0,204.85,265.38Z"/><path class="cls-7" d="M204.85,264.83a57.21,57.21,0,0,1-20.16-3.69"/><path class="cls-7" d="M204.85,263.4a55.71,55.71,0,0,1-19.64-3.6"/><path class="cls-7" d="M197.78,264.93l.49-4"/><path class="cls-7" d="M190.92,263.66l1-3.88"/><path class="cls-7" d="M184.5,261.65l1.43-3.74c-27.41-10.54-41.79-45.3-22.45-69.84l-3.14-2.47C139.16,212.53,154.85,250.25,184.5,261.65Z"/><path class="cls-7" d="M184.69,261.14c-29.34-11.28-44.85-48.6-23.92-75.21"/><path class="cls-7" d="M185.21,259.8c-28.54-11-43.58-47.23-23.32-73"/><path class="cls-7" d="M160.35,242.85l3.28-2.28"/><path class="cls-7" d="M150.6,214.75h4"/><path class="cls-7" d="M160.34,185.6l3.14,2.47c3.67-4.65,8.36-8.19,13.22-11.48l-8.63,1C169.41,176.7,164.38,180.48,160.34,185.6Z"/><path class="cls-7" d="M160.77,185.93a59.56,59.56,0,0,1,8.48-8.46"/><path class="cls-7" d="M161.89,186.82a51.73,51.73,0,0,1,10.45-9.72"/><path class="cls-7" d="M164.44,181.05l3,2.71"/><path class="cls-7" d="M167.56,178.14l4.37,1.86"/></g><path class="cls-7" d="M169.94,177.39l6.76-.8c-4.86,3.29-9.55,6.83-13.22,11.48-19.34,24.54-5,59.3,22.45,69.84a53.53,53.53,0,0,0,18.92,3.47c9.58,0,19.14-2.69,25.81-9.22,10.81-10.61,15.56-28.56,10.29-42.9l3.76-1.38c5.81,15.88.62,35.48-11.25,47.14-7.58,7.41-18.2,10.37-28.61,10.36a57.79,57.79,0,0,1-20.35-3.73c-29.65-11.4-45.34-49.12-24.16-76,4-5.12,9.07-8.9,7.73-8a.7.7,0,0,1,.31-.14h0A11.13,11.13,0,0,0,169.94,177.39Z"/></g></g><g class="cls-5"><g class="cls-49"><g class="cls-5"><path class="cls-7" d="M168.07,177.61l8.63-1-3.5-1.31L171.79,179Z"/><path class="cls-7" d="M169.25,177.47c5.07,1.91,3.91,1.48,2.73,1"/><path class="cls-7" d="M172.34,177.1c2.48.94,1.32.51.15.07"/><path class="cls-7" d="M172,179.09l3.54-2.94"/><path class="cls-7" d="M172.69,179.36l1.68-3.65"/><path class="cls-7" d="M171.79,179l1.41-3.74c-7.42-2.79-15.17-5.41-21.63-10.13l-2.36,3.23C156.21,173.48,164.35,176.26,171.79,179Z"/><path class="cls-7" d="M172,178.51c-7.44-2.77-15.52-5.52-22.44-10.57"/><path class="cls-7" d="M172.49,177.17c-7.43-2.78-15.38-5.48-22.11-10.39"/><path class="cls-7" d="M164.18,176.17l1.55-3.71"/><path class="cls-7" d="M156.52,172.79l1.88-3.54"/><path class="cls-7" d="M149.21,168.38l2.36-3.23c-13.38-9.77-16-24.93-9.2-39.64l-3.64-1.68C131.18,140.12,134.13,157.39,149.21,168.38Z"/><path class="cls-7" d="M149.54,167.94c-14.86-10.83-17.76-27.8-10.31-43.88"/><path class="cls-7" d="M150.38,166.78c-14.24-10.39-17-26.61-9.85-42.12"/><path class="cls-7" d="M138.11,155.56l3.62-1.76"/><path class="cls-7" d="M134.74,140.18l4,0"/><path class="cls-7" d="M138.73,123.83l3.64,1.68c8-17.28,24.79-26.35,42-26.35v-4C165.73,95.15,147.41,105,138.73,123.83Z"/><path class="cls-7" d="M139.23,124.06c8.58-18.6,26.7-28.36,45.11-28.36"/><path class="cls-7" d="M140.53,124.66c8.33-18,25.91-27.52,43.81-27.52"/><path class="cls-7" d="M150.28,108l2.69,3"/><path class="cls-7" d="M166.17,98.41l1.43,3.74"/><path class="cls-7" d="M184.34,95.16v4a48.28,48.28,0,0,1,27.48,8.54l-.14-5C205.11,98.19,194.66,95.16,184.34,95.16Z"/><path class="cls-7" d="M184.34,95.7c10.21,0,20.55,3,27.36,7.72"/><path class="cls-7" d="M184.34,97.14c9.93,0,20,2.91,27.41,8.06"/><path class="cls-7" d="M194.55,96.11l-.69,4"/><path class="cls-7" d="M204,98.75l-.84,4.18"/></g><path class="cls-7" d="M168.07,177.61l3.72,1.41c-7.44-2.76-15.58-5.54-22.58-10.64-15.08-11-18-28.26-10.48-44.55,8.68-18.81,27-28.68,45.61-28.67,10.32,0,20.77,3,27.34,7.58l.14,5a48.28,48.28,0,0,0-27.48-8.54c-17.18,0-34,9.07-42,26.35-6.79,14.71-4.18,29.87,9.2,39.64,6.46,4.72,14.21,7.34,21.63,10.13l3.5,1.31-1.4.16a2,2,0,0,0-1.23.63,7.61,7.61,0,0,0-1.31,2h0C172.62,179.31,171.57,178.93,168.07,177.61Z"/></g></g><g class="cls-5"><g class="cls-50"><g class="cls-5"><path class="cls-7" d="M168.07,177.61l8.63-1-3.5-1.31L171.79,179Z"/><path class="cls-7" d="M169.25,177.47c5.07,1.91,3.91,1.48,2.73,1"/><path class="cls-7" d="M172.34,177.1c2.48.94,1.32.51.15.07"/><path class="cls-7" d="M172,179.09l3.54-2.94"/></g><path class="cls-7" d="M175.3,176.75a2.05,2.05,0,0,0-1.21.6,5.85,5.85,0,0,0-.63.78c-.23.35-.42.68-.51.84s-.13.24-.19.36-.89-.28-4.69-1.72Z"/></g></g><g class="cls-5"><g class="cls-51"><g class="cls-5"><path class="cls-7" d="M211.68,102.74l.14,5a4.13,4.13,0,0,1,2.53-.9v-4C212.44,102.8,210.73,103.48,211.68,102.74Z"/><path class="cls-7" d="M211.7,103.42c-.72.56.87-.08,2.65-.08"/><path class="cls-7" d="M211.75,105.2a11.82,11.82,0,0,1,2.6-.42"/><path class="cls-7" d="M211.53,103.09l1.06,4.13"/><path class="cls-7" d="M212.6,103l.84,4"/><path class="cls-7" d="M214.35,102.8v4a4.56,4.56,0,0,1,2.61.88l2.27-3.3A8.53,8.53,0,0,0,214.35,102.8Z"/><path class="cls-7" d="M214.35,103.34a8,8,0,0,1,4.57,1.49"/><path class="cls-7" d="M214.35,104.78A6.57,6.57,0,0,1,218.1,106"/><path class="cls-7" d="M216,103l-.81,3.92"/><path class="cls-7" d="M217.65,103.5l-1.58,3.67"/><path class="cls-7" d="M219.23,104.38l-2.27,3.3c16,11,9.56,31,.46,44.29l3.3,2.26C230.49,140.05,238,117.45,219.23,104.38Z"/><path class="cls-7" d="M218.92,104.83c18.37,12.79,11,35,1.34,49.09"/><path class="cls-7" d="M218.1,106c17.38,12,10.42,33.36,1,47.1"/><path class="cls-7" d="M230.12,120l-3.92,1.14"/><path class="cls-7" d="M228.84,137.91,224.9,137"/><path class="cls-7" d="M220.72,154.23l-3.3-2.26a108,108,0,0,1-18,20.34l2.62,3A111.93,111.93,0,0,0,220.72,154.23Z"/><path class="cls-7" d="M220.26,153.92a110.47,110.47,0,0,1-18.59,21"/><path class="cls-7" d="M219.08,153.11a109.63,109.63,0,0,1-18.35,20.72"/><path class="cls-7" d="M215.09,161.77l-3.1-2.53"/><path class="cls-7" d="M208.86,168.82,206,166.05"/><path class="cls-7" d="M202,175.32l-2.62-3c-.62.54-1.25,1.05-1.89,1.57l7.93-1.32C200.72,176.45,201.36,175.91,202,175.32Z"/><path class="cls-7" d="M201.67,174.91c-.66.58-1.3,1.12,2.7-2.17"/><path class="cls-7" d="M200.73,173.83c-.65.56-1.28,1.09.79-.61"/><path class="cls-7" d="M201.57,175.73l-2.79-2.89"/><path class="cls-7" d="M202.31,175.14l-4.16-1.78"/></g><path class="cls-7" d="M211.68,102.74c-1,.74.76.06,2.67.06a8.53,8.53,0,0,1,4.88,1.58c18.75,13.07,11.26,35.67,1.49,49.85A111.93,111.93,0,0,1,202,175.32c-.67.59-1.31,1.13,3.42-2.76-3.49,2.87-3.84,3.12-3.92,3.14-.61-.62-1-1-1.21-1.15a4.82,4.82,0,0,0-1.06-.72,1.26,1.26,0,0,0-.8-.11l-.94.16c.64-.52,1.27-1,1.89-1.57a108,108,0,0,0,18-20.34c9.1-13.29,15.52-33.28-.46-44.29a4.56,4.56,0,0,0-2.61-.88,4.13,4.13,0,0,0-2.53.9l-.06-2.14a14,14,0,0,0-.32-2.4.36.36,0,0,1,0-.1C211.42,103,211.57,102.84,211.68,102.74Z"/></g></g><g class="cls-5"><g class="cls-52"><g class="cls-5"><path class="cls-7" d="M211.68,102.74l.14,5a4.13,4.13,0,0,1,2.53-.9v-4C212.44,102.8,210.73,103.48,211.68,102.74Z"/><path class="cls-7" d="M211.7,103.42c-.72.56.87-.08,2.65-.08"/><path class="cls-7" d="M211.75,105.2a11.82,11.82,0,0,1,2.6-.42"/></g><path class="cls-7" d="M211.76,105.56a13.18,13.18,0,0,0-.31-2.3,1,1,0,0,1,0-.17c0-.09,0-.16.26-.35Z"/></g></g><g class="cls-5"><g class="cls-53"><g class="cls-5"><path class="cls-7" d="M202,175.32l-2.62-3c-.62.54-1.25,1.05-1.89,1.57l7.93-1.32C200.72,176.45,201.36,175.91,202,175.32Z"/><path class="cls-7" d="M201.67,174.91c-.66.58-1.3,1.12,2.7-2.17"/><path class="cls-7" d="M200.73,173.83c-.65.56-1.28,1.09.79-.61"/><path class="cls-7" d="M202.31,175.14l-4.16-1.78"/></g><path class="cls-7" d="M205.45,172.56c-2.88,2.37-3.8,3.1-3.92,3.14h0l-.65-.64a7.33,7.33,0,0,0-1.26-1,1.4,1.4,0,0,0-1.16-.31Z"/></g></g><g class="cls-5"><g class="cls-54"><g class="cls-5"><path class="cls-7" d="M205.45,172.56l-7.93,1.32c18.64,6.93,36.19,15.61,43.43,35.38l3.76-1.38C236.82,186.43,218.09,177.25,205.45,172.56Z"/><path class="cls-7" d="M204.37,172.74c13.46,5,32,14.11,39.82,35.33"/><path class="cls-7" d="M201.52,173.22c15.61,5.79,33.76,14.73,41.33,35.34"/><path class="cls-7" d="M219.49,179l-4,2.7"/><path class="cls-7" d="M233.83,190.23l-3.22,2.61"/></g><path class="cls-7" d="M205.45,172.56c12.64,4.69,31.37,13.87,39.26,35.32L241,209.26c-7.24-19.77-24.79-28.45-43.43-35.38Z"/></g></g><g class="cls-5"><g class="cls-55"><g class="cls-5"><path class="cls-7" d="M227.33,240.42,224,238.23c4.17-6.42,6.25-14.45,4.56-21.73l3.9-.9C234.39,224.09,232,233.22,227.33,240.42Z"/><path class="cls-7" d="M225.64,239.31c4.42-6.8,6.65-15.38,4.83-23.25"/><path class="cls-7" d="M224.44,238.53c4.24-6.52,6.35-14.71,4.63-22.15"/><path class="cls-7" d="M231.17,232.67l-3.78-1.31"/><path class="cls-7" d="M233,224.21l-4-.27"/><path class="cls-7" d="M232.44,215.6l-3.9.9c-3.24-14.31-18.38-22.61-32.13-28.14l1.49-3.72C212.19,190.38,228.66,199.28,232.44,215.6Z"/><path class="cls-7" d="M230.47,216.06c-3.51-15.31-19.3-23.91-33.32-29.54"/><path class="cls-7" d="M229.07,216.38c-3.31-14.59-18.63-23-32.45-28.53"/><path class="cls-7" d="M225,201.6l-3.16,2.47"/><path class="cls-7" d="M212.37,191.59l-2.24,3.34"/><path class="cls-7" d="M197.9,184.64l-1.49,3.72c-3.25-1.31-6.54-2.56-7.92-3.09L188,180.8C191.29,182.05,194.61,183.32,197.9,184.64Z"/><path class="cls-7" d="M197.15,186.52c-3.27-1.32-6.58-2.57-8.92-3.46"/><path class="cls-7" d="M196.62,187.85c-3.26-1.31-6.56-2.56-8.2-3.19"/><path class="cls-7" d="M194.6,183.34l-1.38,3.75"/><path class="cls-7" d="M191.29,182.06l-.86,4"/></g><path class="cls-7" d="M227.33,240.42,224,238.23c4.17-6.42,6.25-14.45,4.56-21.73-3.24-14.31-18.38-22.61-32.13-28.14-3.25-1.31-6.54-2.56-7.92-3.09L188,180.8c3.32,1.25,6.64,2.52,9.93,3.84,14.29,5.74,30.76,14.64,34.54,31C234.39,224.09,232,233.22,227.33,240.42Z"/></g></g><g class="cls-5"><g class="cls-56"><g class="cls-5"><path class="cls-7" d="M188,180.8l.52,4.47c-1.88,1.3-5.41,3.64-8.69,6.24l-2.49-3.13C180.73,185.66,184.36,183.24,188,180.8Z"/><path class="cls-7" d="M188.23,183.06c-2.73,1.86-6.31,4.24-9.66,6.9"/><path class="cls-7" d="M188.42,184.66c-2.12,1.45-5.66,3.8-9,6.42"/><path class="cls-7" d="M184.36,183.25l1.77,3.64"/><path class="cls-7" d="M180.79,185.75l2.3,3.27"/><path class="cls-7" d="M177.31,188.38l2.49,3.13a29.26,29.26,0,0,0-8.34,35.75l-3.6,1.75A33.26,33.26,0,0,1,177.31,188.38Z"/><path class="cls-7" d="M178.57,190a31.23,31.23,0,0,0-8.89,38.16"/><path class="cls-7" d="M179.46,191.08A29.8,29.8,0,0,0,171,227.49"/><path class="cls-7" d="M167.9,200.07l3.61,1.75"/><path class="cls-7" d="M164.54,214.33l4,0"/><path class="cls-7" d="M167.86,229l3.6-1.75c6.07,12.48,19.2,20,33,20v4C189.21,251.26,174.64,242.93,167.86,229Z"/><path class="cls-7" d="M169.68,228.12c6.42,13.2,20.26,21.12,34.8,21.12"/><path class="cls-7" d="M171,227.49c6.16,12.68,19.49,20.31,33.51,20.32"/><path class="cls-7" d="M177,241l2.68-3"/><path class="cls-7" d="M189.71,248.59l1.42-3.74"/><path class="cls-7" d="M204.48,251.26v-4c.52,0,1,0,1.55,0l.16,4Q205.34,251.26,204.48,251.26Z"/><path class="cls-7" d="M204.48,249.24c.54,0,1.09,0,1.63,0"/><path class="cls-7" d="M204.48,247.81c.53,0,1.05,0,1.57,0"/><path class="cls-7" d="M205.05,251.26l-.05-4"/><path class="cls-7" d="M205.62,251.25l-.11-4"/><path class="cls-7" d="M206.19,251.23l-.16-4c7.72-.33,13.91-2.79,17.95-9l3.35,2.19C222.43,247.94,215,250.87,206.19,251.23Z"/><path class="cls-7" d="M206.11,249.21c8.24-.35,15.06-3,19.53-9.9"/><path class="cls-7" d="M206.05,247.78c7.87-.34,14.23-2.86,18.39-9.25"/><path class="cls-7" d="M214.48,249.94l-1.26-3.81"/><path class="cls-7" d="M221.62,246.48l-2.37-3.23"/></g><path class="cls-7" d="M188,180.8l.52,4.47c-1.88,1.3-5.41,3.64-8.69,6.24a29.26,29.26,0,0,0-8.34,35.75c6.07,12.48,19.2,20,33,20,.52,0,1,0,1.55,0,7.72-.33,13.91-2.79,17.95-9l3.35,2.19c-4.9,7.52-12.37,10.45-21.14,10.81q-.85,0-1.71,0c-15.27,0-29.84-8.33-36.62-22.25a33.26,33.26,0,0,1,9.45-40.63C180.73,185.66,184.36,183.24,188,180.8Z"/></g></g><g class="cls-5"><g class="cls-57"><g class="cls-5"><path class="cls-7" d="M224,238.23h0c4.17-6.42,6.25-14.45,4.56-21.73h0C230.23,223.78,228.15,231.81,224,238.23Z"/></g><path class="cls-7" d="M224,238.21l0,0h0Z"/></g></g><g class="cls-5"><g class="cls-58"><g class="cls-5"><path class="cls-7" d="M224,238.23h0c4.17-6.42,6.25-14.45,4.56-21.73h0C230.23,223.78,228.15,231.81,224,238.23Z"/><line class="cls-7" x1="227.39" y1="231.36" x2="227.39" y2="231.36"/><line class="cls-7" x1="229.03" y1="223.94" x2="229.03" y2="223.94"/></g><path class="cls-7" d="M224,238.21c4.16-6.41,6.22-14.44,4.54-21.71h0c1.68,7.27-.38,15.3-4.54,21.71Z"/></g></g><g class="cls-5"><g class="cls-59"><g class="cls-5"><path class="cls-7" d="M228.54,216.5h0c-3.24-14.31-18.38-22.61-32.13-28.14h0C210.16,193.89,225.3,202.19,228.54,216.5Z"/></g><path class="cls-7" d="M228.53,216.46v0h0Z"/></g></g><g class="cls-5"><g class="cls-60"><g class="cls-5"><path class="cls-7" d="M228.54,216.5h0c-3.24-14.31-18.38-22.61-32.13-28.14h0C210.16,193.89,225.3,202.19,228.54,216.5Z"/><line class="cls-7" x1="221.82" y1="204.07" x2="221.82" y2="204.07"/><line class="cls-7" x1="210.13" y1="194.93" x2="210.13" y2="194.93"/></g><path class="cls-7" d="M228.53,216.46c-3.26-14.29-18.38-22.58-32.12-28.1h0c13.74,5.52,28.86,13.81,32.12,28.1Z"/></g></g><g class="cls-5"><g class="cls-61"><g class="cls-5"><path class="cls-7" d="M196.41,188.36h0c-3.25-1.31-6.54-2.56-7.92-3.09h0C189.87,185.8,193.16,187.05,196.41,188.36Z"/></g><polygon class="cls-7" points="196.41 188.35 196.41 188.36 196.41 188.36 196.41 188.35"/></g></g><g class="cls-5"><g class="cls-62"><g class="cls-5"><path class="cls-7" d="M196.41,188.36h0c-3.25-1.31-6.54-2.56-7.92-3.09h0C189.87,185.8,193.16,187.05,196.41,188.36Z"/><line class="cls-7" x1="193.22" y1="187.09" x2="193.22" y2="187.09"/><line class="cls-7" x1="190.43" y1="186.02" x2="190.43" y2="186.02"/></g><path class="cls-7" d="M196.4,188.35c-3.25-1.3-6.53-2.55-7.91-3.08h0c1.38.53,4.66,1.78,7.91,3.08Z"/></g></g><g class="cls-5"><g class="cls-63"><g class="cls-5"><path class="cls-7" d="M188.49,185.27h0c-1.88,1.3-5.41,3.64-8.69,6.24h0C183.08,188.91,186.61,186.57,188.49,185.27Z"/></g><polygon class="cls-7" points="188.49 185.28 188.49 185.27 188.49 185.27 188.49 185.28"/></g></g><g class="cls-5"><g class="cls-64"><g class="cls-5"><path class="cls-7" d="M188.49,185.27h0c-1.88,1.3-5.41,3.64-8.69,6.24h0C183.08,188.91,186.61,186.57,188.49,185.27Z"/><line class="cls-7" x1="186.13" y1="186.89" x2="186.13" y2="186.89"/><line class="cls-7" x1="183.09" y1="189.02" x2="183.09" y2="189.02"/></g><path class="cls-7" d="M188.49,185.28c-1.89,1.29-5.41,3.63-8.69,6.23h0c3.28-2.6,6.8-4.94,8.69-6.23Z"/></g></g><g class="cls-5"><g class="cls-65"><g class="cls-5"><path class="cls-7" d="M179.8,191.51h0a29.26,29.26,0,0,0-8.34,35.75h0A29.26,29.26,0,0,1,179.8,191.51Z"/></g><path class="cls-7" d="M179.77,191.54l0,0h0Z"/></g></g><g class="cls-5"><g class="cls-66"><g class="cls-5"><path class="cls-7" d="M179.8,191.51h0a29.26,29.26,0,0,0-8.34,35.75h0A29.26,29.26,0,0,1,179.8,191.51Z"/><line class="cls-7" x1="171.51" y1="201.82" x2="171.51" y2="201.82"/><line class="cls-7" x1="168.54" y1="214.36" x2="168.54" y2="214.36"/></g><path class="cls-7" d="M179.77,191.54a29.25,29.25,0,0,0-8.31,35.72h0a29.25,29.25,0,0,1,8.31-35.72Z"/></g></g><g class="cls-5"><g class="cls-67"><g class="cls-5"><path class="cls-7" d="M171.46,227.26h0c6.07,12.48,19.2,20,33,20h0C190.66,247.26,177.53,239.74,171.46,227.26Z"/></g><path class="cls-7" d="M171.48,227.29l0,0h0Z"/></g></g><g class="cls-5"><g class="cls-68"><g class="cls-5"><path class="cls-7" d="M171.46,227.26h0c6.07,12.48,19.2,20,33,20h0C190.66,247.26,177.53,239.74,171.46,227.26Z"/><line class="cls-7" x1="179.65" y1="237.99" x2="179.65" y2="237.99"/><line class="cls-7" x1="191.13" y1="244.85" x2="191.13" y2="244.85"/></g><path class="cls-7" d="M171.48,227.29c6.07,12.46,19.19,20,33,20h0c-13.81,0-26.93-7.51-33-20Z"/></g></g><g class="cls-5"><g class="cls-69"><g class="cls-5"><path class="cls-7" d="M204.48,247.26h0c.52,0,1,0,1.55,0h0C205.52,247.25,205,247.26,204.48,247.26Z"/></g><polygon class="cls-7" points="204.49 247.26 204.48 247.26 204.48 247.26 204.49 247.26 204.49 247.26"/></g></g><g class="cls-5"><g class="cls-70"><g class="cls-5"><path class="cls-7" d="M204.48,247.26h0c.52,0,1,0,1.55,0h0C205.52,247.25,205,247.26,204.48,247.26Z"/><line class="cls-7" x1="205" y1="247.26" x2="205" y2="247.26"/><line class="cls-7" x1="205.51" y1="247.25" x2="205.51" y2="247.25"/></g><path class="cls-7" d="M204.49,247.26c.51,0,1,0,1.54,0h0c-.51,0-1,0-1.54,0Z"/></g></g><g class="cls-5"><g class="cls-71"><g class="cls-5"><path class="cls-7" d="M206,247.23h0c7.72-.33,13.91-2.79,17.95-9h0C219.94,244.44,213.75,246.9,206,247.23Z"/></g><path class="cls-7" d="M206.05,247.23h0Z"/></g></g><g class="cls-5"><g class="cls-72"><g class="cls-5"><path class="cls-7" d="M206,247.23h0c7.72-.33,13.91-2.79,17.95-9h0C219.94,244.44,213.75,246.9,206,247.23Z"/><line class="cls-7" x1="213.22" y1="246.13" x2="213.22" y2="246.13"/><line class="cls-7" x1="219.25" y1="243.25" x2="219.25" y2="243.25"/></g><path class="cls-7" d="M206.05,247.23c7.72-.34,13.9-2.8,17.93-9h0c-4,6.2-10.21,8.66-17.93,9Z"/></g></g><g class="cls-5"><g class="cls-73"><g class="cls-5"><path class="cls-7" d="M224,238.23l3.35,2.19c4.68-7.2,7.06-16.33,5.11-24.82l-3.9.9C230.23,223.78,228.15,231.81,224,238.23Z"/><path class="cls-7" d="M224.44,238.53c4.24-6.52,6.35-14.71,4.63-22.15"/><path class="cls-7" d="M225.64,239.31c4.42-6.8,6.65-15.38,4.83-23.25"/><path class="cls-7" d="M227.39,231.36l3.78,1.31"/><path class="cls-7" d="M229,223.94l4,.27"/><path class="cls-7" d="M228.54,216.5l3.9-.9c-3.78-16.32-20.25-25.22-34.54-31l-1.49,3.72C210.16,193.89,225.3,202.19,228.54,216.5Z"/><path class="cls-7" d="M229.07,216.38c-3.31-14.59-18.63-23-32.45-28.53"/><path class="cls-7" d="M230.47,216.06c-3.51-15.31-19.3-23.91-33.32-29.54"/><path class="cls-7" d="M221.82,204.07,225,201.6"/><path class="cls-7" d="M210.13,194.93l2.24-3.34"/><path class="cls-7" d="M196.41,188.36l1.49-3.72c-3.29-1.32-6.61-2.59-9.93-3.84l.52,4.47C189.87,185.8,193.16,187.05,196.41,188.36Z"/><path class="cls-7" d="M196.62,187.85c-3.26-1.31-6.56-2.56-8.2-3.19"/><path class="cls-7" d="M197.15,186.52c-3.27-1.32-6.58-2.57-8.92-3.46"/><path class="cls-7" d="M193.22,187.09l1.38-3.75"/><path class="cls-7" d="M190.43,186l.86-4"/></g><path class="cls-7" d="M224,238.23c4.17-6.42,6.25-14.45,4.56-21.73-3.24-14.31-18.38-22.61-32.13-28.14-3.25-1.31-6.54-2.56-7.92-3.09L188,180.8c3.32,1.25,6.64,2.52,9.93,3.84,14.29,5.74,30.76,14.64,34.54,31,1.95,8.49-.43,17.62-5.11,24.82Z"/></g></g><g class="cls-5"><g class="cls-74"><g class="cls-5"><path class="cls-7" d="M188.49,185.27,188,180.8c-3.61,2.44-7.24,4.86-10.66,7.58l2.49,3.13C183.08,188.91,186.61,186.57,188.49,185.27Z"/><path class="cls-7" d="M188.42,184.66c-2.12,1.45-5.66,3.8-9,6.42"/><path class="cls-7" d="M188.23,183.06c-2.73,1.86-6.31,4.24-9.66,6.9"/><path class="cls-7" d="M186.13,186.89l-1.77-3.64"/><path class="cls-7" d="M183.09,189l-2.3-3.27"/><path class="cls-7" d="M179.8,191.51l-2.49-3.13A33.26,33.26,0,0,0,167.86,229l3.6-1.75A29.26,29.26,0,0,1,179.8,191.51Z"/><path class="cls-7" d="M179.46,191.08A29.8,29.8,0,0,0,171,227.49"/><path class="cls-7" d="M178.57,190a31.23,31.23,0,0,0-8.89,38.16"/><path class="cls-7" d="M171.51,201.82l-3.61-1.75"/><path class="cls-7" d="M168.54,214.36l-4,0"/><path class="cls-7" d="M171.46,227.26l-3.6,1.75c6.78,13.92,21.35,22.25,36.62,22.25v-4C190.66,247.26,177.53,239.74,171.46,227.26Z"/><path class="cls-7" d="M171,227.49c6.16,12.68,19.49,20.31,33.51,20.32"/><path class="cls-7" d="M169.68,228.12c6.42,13.2,20.26,21.12,34.8,21.12"/><path class="cls-7" d="M179.65,238,177,241"/><path class="cls-7" d="M191.13,244.85l-1.42,3.74"/><path class="cls-7" d="M204.48,247.26v4q.86,0,1.71,0l-.16-4C205.52,247.25,205,247.26,204.48,247.26Z"/><path class="cls-7" d="M204.48,247.81c.53,0,1.05,0,1.57,0"/><path class="cls-7" d="M204.48,249.24c.54,0,1.09,0,1.63,0"/><path class="cls-7" d="M205,247.26l.05,4"/><path class="cls-7" d="M205.51,247.25l.11,4"/><path class="cls-7" d="M206,247.23l.16,4c8.77-.36,16.24-3.29,21.14-10.81L224,238.23C219.94,244.44,213.75,246.9,206,247.23Z"/><path class="cls-7" d="M206.05,247.78c7.87-.34,14.23-2.86,18.39-9.25"/><path class="cls-7" d="M206.11,249.21c8.24-.35,15.06-3,19.53-9.9"/><path class="cls-7" d="M213.22,246.13l1.26,3.81"/><path class="cls-7" d="M219.25,243.25l2.37,3.23"/></g><path class="cls-7" d="M188.49,185.27c-1.88,1.3-5.41,3.64-8.69,6.24a29.26,29.26,0,0,0-8.34,35.75c6.07,12.48,19.2,20,33,20,.52,0,1,0,1.55,0,7.72-.33,13.91-2.79,17.95-9l3.35,2.19c-4.9,7.52-12.37,10.45-21.14,10.81q-.85,0-1.71,0c-15.27,0-29.84-8.33-36.62-22.25a33.26,33.26,0,0,1,9.45-40.63c3.42-2.72,7.05-5.14,10.66-7.58Z"/></g></g><g class="cls-5"><g class="cls-75"><g class="cls-5"><path class="cls-7" d="M161.43,159.54l1.92-3.51c7.22,4,15.8,7,22.41,9.4l.68,4.48C177.63,166.8,169,163.67,161.43,159.54Z"/><path class="cls-7" d="M162.4,157.77c7.37,4,16,7.11,23.7,9.88"/><path class="cls-7" d="M163.09,156.51c7.26,4,15.85,7,22.76,9.53"/><path class="cls-7" d="M169.3,163.37l1.6-3.68"/><path class="cls-7" d="M177.71,166.76l.91-4"/></g><path class="cls-7" d="M161.43,159.54l1.92-3.51c7.22,4,15.8,7,22.41,9.4l.68,4.48C177.63,166.8,169,163.67,161.43,159.54Z"/></g></g><g class="cls-5"><g class="cls-76"><g class="cls-5"><path class="cls-7" d="M186.44,169.91l-.68-4.48a122.86,122.86,0,0,0,11.46-10.49l2.93,2.72A99.4,99.4,0,0,1,186.44,169.91Z"/><path class="cls-7" d="M186.1,167.65a107.22,107.22,0,0,0,12.57-11.36"/><path class="cls-7" d="M185.85,166a116.84,116.84,0,0,0,11.77-10.73"/><path class="cls-7" d="M191.25,166.12l-2.06-3.52"/><path class="cls-7" d="M195.82,162l-2.67-3.1"/><path class="cls-7" d="M200.15,157.66l-2.93-2.72c7-7.58,21.75-26.37,16.11-31.79l.84-4.93C224.47,129.11,207.44,149.8,200.15,157.66Z"/><path class="cls-7" d="M198.67,156.29c7.16-7.72,23-27.46,15.07-35.58"/><path class="cls-7" d="M197.62,155.31c7.06-7.62,22.1-26.67,15.82-32.83"/><path class="cls-7" d="M209.32,146.36l-3.55-1.83"/><path class="cls-7" d="M216.73,131.54l-3.51.58"/></g><path class="cls-7" d="M186.44,169.91l-.68-4.48a122.86,122.86,0,0,0,11.46-10.49c7-7.58,21.75-26.37,16.11-31.79l.84-4.93c10.3,10.89-6.73,31.58-14,39.44A99.4,99.4,0,0,1,186.44,169.91Z"/></g></g><g class="cls-5"><g class="cls-77"><g class="cls-5"><path class="cls-7" d="M214.17,118.22l-.84,4.93c1.39-.71-.07-.32-1.6-.32v-4A5.31,5.31,0,0,0,214.17,118.22Z"/><path class="cls-7" d="M213.74,120.71c.33-.17-.81.14-2,.14"/><path class="cls-7" d="M213.44,122.48c1.1-.56-.27-.19-1.71-.19"/><path class="cls-7" d="M213.39,118.55l.48,4.2"/><path class="cls-7" d="M212.57,118.76l.56,4"/><path class="cls-7" d="M211.73,118.83v4a9,9,0,0,1-5.88-2.2l2.58-3A5.06,5.06,0,0,0,211.73,118.83Z"/><path class="cls-7" d="M211.73,120.85a7.05,7.05,0,0,1-4.6-1.73"/><path class="cls-7" d="M211.73,122.29a8.44,8.44,0,0,1-5.53-2.08"/><path class="cls-7" d="M210.62,118.7l-.92,3.9"/><path class="cls-7" d="M209.51,118.29l-1.79,3.59"/><path class="cls-7" d="M208.43,117.58l-2.58,3a33.21,33.21,0,0,0-21.46-7.81v-4A37.23,37.23,0,0,1,208.43,117.58Z"/><path class="cls-7" d="M207.13,119.12a35.22,35.22,0,0,0-22.74-8.28"/><path class="cls-7" d="M206.2,120.21a33.78,33.78,0,0,0-21.81-7.93"/><path class="cls-7" d="M201.07,112.73l-1.79,3.58"/><path class="cls-7" d="M192.92,109.8l-.91,3.9"/><path class="cls-7" d="M184.39,108.82v4a32,32,0,0,0-20.73,7.49l-2.58-3.06A36,36,0,0,1,184.39,108.82Z"/><path class="cls-7" d="M184.39,110.84a34,34,0,0,0-22,8"/><path class="cls-7" d="M184.39,112.28a32.51,32.51,0,0,0-21.08,7.61"/><path class="cls-7" d="M176.13,109.75l.9,3.9"/><path class="cls-7" d="M168.24,112.56l1.78,3.58"/><path class="cls-7" d="M161.08,117.25l2.58,3.06c-5.66,4.79-10,11.57-11,18.74l-4-.57C149.84,130.21,154.77,122.59,161.08,117.25Z"/><path class="cls-7" d="M162.38,118.79c-6,5.07-10.62,12.26-11.72,20"/><path class="cls-7" d="M163.31,119.89c-5.75,4.87-10.19,11.76-11.23,19.08"/><path class="cls-7" d="M155.32,123.29l3.19,2.41"/><path class="cls-7" d="M151,130.49l3.68,1.58"/><path class="cls-7" d="M148.66,138.48l4,.57c-1.1,7.52,3.72,13.11,10.73,17l-1.92,3.51C153.37,155.13,147.27,148.19,148.66,138.48Z"/><path class="cls-7" d="M150.66,138.77c-1.24,8.6,4.21,14.86,11.74,19"/><path class="cls-7" d="M152.08,139c-1.14,7.82,3.85,13.6,11,17.54"/><path class="cls-7" d="M149.56,147.28l3.8-1.34"/><path class="cls-7" d="M154.23,154.28l3-2.7"/></g><path class="cls-7" d="M213.87,120a9.68,9.68,0,0,0,0,2.42.57.57,0,0,1,0,.13,1.94,1.94,0,0,1,0,.24h0c0,.11-.16.2-.55.41,1.39-.71-.07-.32-1.6-.32a9,9,0,0,1-5.88-2.2,33.21,33.21,0,0,0-21.46-7.81,32,32,0,0,0-20.73,7.49c-5.66,4.79-10,11.57-11,18.74-1.1,7.52,3.72,13.11,10.73,17l-1.92,3.51c-8.06-4.41-14.16-11.35-12.77-21.06,1.18-8.27,6.11-15.89,12.42-21.23a36,36,0,0,1,23.31-8.43,37.23,37.23,0,0,1,24,8.76,5.06,5.06,0,0,0,3.3,1.25,5.31,5.31,0,0,0,2.44-.61Z"/></g></g><g class="cls-5"><g class="cls-78"><g class="cls-5"><path class="cls-7" d="M214.17,118.22l-.84,4.93c1.39-.71-.07-.32-1.6-.32v-4A5.31,5.31,0,0,0,214.17,118.22Z"/><path class="cls-7" d="M213.74,120.71c.33-.17-.81.14-2,.14"/><path class="cls-7" d="M213.44,122.48c1.1-.56-.27-.19-1.71-.19"/></g><path class="cls-7" d="M213.33,123.15l.54-3.2a9.07,9.07,0,0,0,0,2.11c0,.1,0,.21,0,.32a1.79,1.79,0,0,1,0,.23.29.29,0,0,1,0,.13C213.86,122.85,213.69,123,213.33,123.15Z"/></g></g><g class="cls-5"><g class="cls-79"><g class="cls-5"><path class="cls-7" d="M163.35,156h0c7.22,4,15.8,7,22.41,9.4h0C179.15,163,170.57,160,163.35,156Z"/></g><path class="cls-7" d="M163.37,156.05l0,0h0Z"/></g></g><g class="cls-5"><g class="cls-80"><g class="cls-5"><path class="cls-7" d="M163.35,156h0c7.22,4,15.8,7,22.41,9.4h0C179.15,163,170.57,160,163.35,156Z"/><line class="cls-7" x1="170.9" y1="159.69" x2="170.9" y2="159.69"/><line class="cls-7" x1="178.62" y1="162.79" x2="178.62" y2="162.79"/></g><path class="cls-7" d="M163.37,156.05c7.22,3.95,15.79,6.95,22.39,9.38h0c-6.6-2.43-15.17-5.43-22.39-9.38Z"/></g></g><g class="cls-5"><g class="cls-81"><g class="cls-5"><path class="cls-7" d="M185.76,165.43h0a122.86,122.86,0,0,0,11.46-10.49h0A122.86,122.86,0,0,1,185.76,165.43Z"/></g><polygon class="cls-7" points="185.77 165.42 185.76 165.43 185.76 165.43 185.77 165.42"/></g></g><g class="cls-5"><g class="cls-82"><g class="cls-5"><path class="cls-7" d="M185.76,165.43h0a122.86,122.86,0,0,0,11.46-10.49h0A122.86,122.86,0,0,1,185.76,165.43Z"/><line class="cls-7" x1="189.19" y1="162.6" x2="189.19" y2="162.6"/><line class="cls-7" x1="193.15" y1="158.94" x2="193.15" y2="158.94"/></g><path class="cls-7" d="M185.77,165.42a124,124,0,0,0,11.45-10.48h0a124,124,0,0,1-11.45,10.48Z"/></g></g><g class="cls-5"><g class="cls-83"><g class="cls-5"><path class="cls-7" d="M197.22,154.94h0c7-7.58,21.75-26.37,16.11-31.79h0C219,128.57,204.24,147.36,197.22,154.94Z"/></g><path class="cls-7" d="M197.24,154.92l0,0h0Z"/></g></g><g class="cls-5"><g class="cls-84"><g class="cls-5"><path class="cls-7" d="M197.22,154.94h0c7-7.58,21.75-26.37,16.11-31.79h0C219,128.57,204.24,147.36,197.22,154.94Z"/><line class="cls-7" x1="205.77" y1="144.53" x2="205.77" y2="144.53"/><line class="cls-7" x1="213.22" y1="132.12" x2="213.22" y2="132.12"/></g><path class="cls-7" d="M197.24,154.92c7-7.6,21.73-26.36,16.09-31.77h0c5.64,5.41-9.06,24.17-16.09,31.77Z"/></g></g><g class="cls-5"><g class="cls-85"><g class="cls-5"><path class="cls-7" d="M213.33,123.15h0c1.39-.71-.07-.32-1.6-.32h0C213.26,122.83,214.72,122.44,213.33,123.15Z"/></g><polygon class="cls-7" points="213.33 123.15 213.32 123.15 213.32 123.15 213.33 123.15"/></g></g><g class="cls-5"><g class="cls-86"><g class="cls-5"><path class="cls-7" d="M213.33,123.15h0c1.39-.71-.07-.32-1.6-.32h0C213.26,122.83,214.72,122.44,213.33,123.15Z"/><line class="cls-7" x1="213.87" y1="122.75" x2="213.87" y2="122.75"/><line class="cls-7" x1="213.13" y1="122.76" x2="213.13" y2="122.76"/></g><path class="cls-7" d="M213.33,123.15c1.39-.71-.07-.32-1.6-.32h0c1.53,0,3-.39,1.6.32Z"/></g></g><g class="cls-5"><g class="cls-87"><g class="cls-5"><path class="cls-7" d="M211.73,122.83h0a9,9,0,0,1-5.88-2.2h0A9,9,0,0,0,211.73,122.83Z"/></g><polygon class="cls-7" points="211.72 122.83 211.73 122.83 211.73 122.83 211.72 122.83 211.72 122.83"/></g></g><g class="cls-5"><g class="cls-88"><g class="cls-5"><path class="cls-7" d="M211.73,122.83h0a9,9,0,0,1-5.88-2.2h0A9,9,0,0,0,211.73,122.83Z"/><line class="cls-7" x1="209.7" y1="122.6" x2="209.7" y2="122.6"/><line class="cls-7" x1="207.72" y1="121.88" x2="207.72" y2="121.88"/></g><path class="cls-7" d="M211.72,122.83a9,9,0,0,1-5.87-2.2h0a9,9,0,0,0,5.87,2.2Z"/></g></g><g class="cls-5"><g class="cls-89"><g class="cls-5"><path class="cls-7" d="M205.85,120.63h0a33.21,33.21,0,0,0-21.46-7.81h0A33.21,33.21,0,0,1,205.85,120.63Z"/></g><path class="cls-7" d="M205.83,120.62h0Z"/></g></g><g class="cls-5"><g class="cls-90"><g class="cls-5"><path class="cls-7" d="M205.85,120.63h0a33.21,33.21,0,0,0-21.46-7.81h0A33.21,33.21,0,0,1,205.85,120.63Z"/><line class="cls-7" x1="199.28" y1="116.31" x2="199.28" y2="116.31"/><line class="cls-7" x1="192.01" y1="113.7" x2="192.01" y2="113.7"/></g><path class="cls-7" d="M205.83,120.62a33.22,33.22,0,0,0-21.44-7.8h0a33.22,33.22,0,0,1,21.44,7.8Z"/></g></g><g class="cls-5"><g class="cls-91"><g class="cls-5"><path class="cls-7" d="M184.39,112.82h0a32,32,0,0,0-20.73,7.49h0A32,32,0,0,1,184.39,112.82Z"/></g><path class="cls-7" d="M184.37,112.82h0Z"/></g></g><g class="cls-5"><g class="cls-92"><g class="cls-5"><path class="cls-7" d="M184.39,112.82h0a32,32,0,0,0-20.73,7.49h0A32,32,0,0,1,184.39,112.82Z"/><line class="cls-7" x1="177.03" y1="113.65" x2="177.03" y2="113.65"/><line class="cls-7" x1="170.02" y1="116.14" x2="170.02" y2="116.14"/></g><path class="cls-7" d="M184.37,112.82a32,32,0,0,0-20.71,7.49h0a32,32,0,0,1,20.71-7.49Z"/></g></g><g class="cls-5"><g class="cls-93"><g class="cls-5"><path class="cls-7" d="M163.66,120.31h0c-5.66,4.79-10,11.57-11,18.74h0C153.64,131.88,158,125.1,163.66,120.31Z"/></g><path class="cls-7" d="M163.64,120.32h0Z"/></g></g><g class="cls-5"><g class="cls-94"><g class="cls-5"><path class="cls-7" d="M163.66,120.31h0c-5.66,4.79-10,11.57-11,18.74h0C153.64,131.88,158,125.1,163.66,120.31Z"/><line class="cls-7" x1="158.51" y1="125.7" x2="158.51" y2="125.7"/><line class="cls-7" x1="154.68" y1="132.07" x2="154.68" y2="132.07"/></g><path class="cls-7" d="M163.64,120.32c-5.65,4.79-10,11.57-11,18.73h0c1-7.16,5.37-13.94,11-18.73Z"/></g></g><g class="cls-5"><g class="cls-95"><g class="cls-5"><path class="cls-7" d="M152.62,139.05h0c-1.1,7.52,3.72,13.11,10.73,17h0C156.34,152.16,151.52,146.57,152.62,139.05Z"/></g><path class="cls-7" d="M152.61,139.07v0h0Z"/></g></g><g class="cls-5"><g class="cls-96"><g class="cls-5"><path class="cls-7" d="M152.62,139.05h0c-1.1,7.52,3.72,13.11,10.73,17h0C156.34,152.16,151.52,146.57,152.62,139.05Z"/><line class="cls-7" x1="153.36" y1="145.94" x2="153.36" y2="145.94"/><line class="cls-7" x1="157.21" y1="151.58" x2="157.21" y2="151.58"/></g><path class="cls-7" d="M152.61,139.07c-1.08,7.51,3.73,13.1,10.74,17h0c-7-3.86-11.82-9.45-10.74-17Z"/></g></g><g class="cls-5"><g class="cls-97"><g class="cls-5"><path class="cls-7" d="M163.35,156l-1.92,3.51c7.53,4.13,16.2,7.26,25,10.37l-.68-4.48C179.15,163,170.57,160,163.35,156Z"/><path class="cls-7" d="M163.09,156.51c7.26,4,15.85,7,22.76,9.53"/><path class="cls-7" d="M162.4,157.77c7.37,4,16,7.11,23.7,9.88"/><path class="cls-7" d="M170.9,159.69l-1.6,3.68"/><path class="cls-7" d="M178.62,162.79l-.91,4"/></g><path class="cls-7" d="M163.35,156c7.22,4,15.8,7,22.41,9.4l.68,4.48c-8.81-3.11-17.48-6.24-25-10.37Z"/></g></g><g class="cls-5"><g class="cls-98"><g class="cls-5"><path class="cls-7" d="M185.76,165.43l.68,4.48a99.4,99.4,0,0,0,13.71-12.25l-2.93-2.72A122.86,122.86,0,0,1,185.76,165.43Z"/><path class="cls-7" d="M185.85,166a116.84,116.84,0,0,0,11.77-10.73"/><path class="cls-7" d="M186.1,167.65a107.22,107.22,0,0,0,12.57-11.36"/><path class="cls-7" d="M189.19,162.6l2.06,3.52"/><path class="cls-7" d="M193.15,158.94l2.67,3.1"/><path class="cls-7" d="M197.22,154.94l2.93,2.72c7.29-7.86,24.32-28.55,14-39.44l-.84,4.93C219,128.57,204.24,147.36,197.22,154.94Z"/><path class="cls-7" d="M197.62,155.31c7.06-7.62,22.1-26.67,15.82-32.83"/><path class="cls-7" d="M198.67,156.29c7.16-7.72,23-27.46,15.07-35.58"/><path class="cls-7" d="M205.77,144.53l3.55,1.83"/><path class="cls-7" d="M213.22,132.12l3.51-.58"/></g><path class="cls-7" d="M185.76,165.43a122.86,122.86,0,0,0,11.46-10.49c7-7.58,21.75-26.37,16.11-31.79l.84-4.93c10.3,10.89-6.73,31.58-14,39.44a99.4,99.4,0,0,1-13.71,12.25Z"/></g></g><g class="cls-5"><g class="cls-99"><g class="cls-5"><path class="cls-7" d="M213.33,123.15l.84-4.93a5.31,5.31,0,0,1-2.44.61v4C213.26,122.83,214.72,122.44,213.33,123.15Z"/><path class="cls-7" d="M213.44,122.48c1.1-.56-.27-.19-1.71-.19"/><path class="cls-7" d="M213.74,120.71c.33-.17-.81.14-2,.14"/><path class="cls-7" d="M213.87,122.75l-.48-4.2"/><path class="cls-7" d="M213.13,122.76l-.56-4"/><path class="cls-7" d="M211.73,122.83v-4a5.06,5.06,0,0,1-3.3-1.25l-2.58,3A9,9,0,0,0,211.73,122.83Z"/><path class="cls-7" d="M211.73,122.29a8.44,8.44,0,0,1-5.53-2.08"/><path class="cls-7" d="M211.73,120.85a7.05,7.05,0,0,1-4.6-1.73"/><path class="cls-7" d="M209.7,122.6l.92-3.9"/><path class="cls-7" d="M207.72,121.88l1.79-3.59"/><path class="cls-7" d="M205.85,120.63l2.58-3a37.23,37.23,0,0,0-24-8.76v4A33.21,33.21,0,0,1,205.85,120.63Z"/><path class="cls-7" d="M206.2,120.21a33.78,33.78,0,0,0-21.81-7.93"/><path class="cls-7" d="M207.13,119.12a35.22,35.22,0,0,0-22.74-8.28"/><path class="cls-7" d="M199.28,116.31l1.79-3.58"/><path class="cls-7" d="M192,113.7l.91-3.9"/><path class="cls-7" d="M184.39,112.82v-4a36,36,0,0,0-23.31,8.43l2.58,3.06A32,32,0,0,1,184.39,112.82Z"/><path class="cls-7" d="M184.39,112.28a32.51,32.51,0,0,0-21.08,7.61"/><path class="cls-7" d="M184.39,110.84a34,34,0,0,0-22,8"/><path class="cls-7" d="M177,113.65l-.9-3.9"/><path class="cls-7" d="M170,116.14l-1.78-3.58"/><path class="cls-7" d="M163.66,120.31l-2.58-3.06c-6.31,5.34-11.24,13-12.42,21.23l4,.57C153.64,131.88,158,125.1,163.66,120.31Z"/><path class="cls-7" d="M163.31,119.89c-5.75,4.87-10.19,11.76-11.23,19.08"/><path class="cls-7" d="M162.38,118.79c-6,5.07-10.62,12.26-11.72,20"/><path class="cls-7" d="M158.51,125.7l-3.19-2.41"/><path class="cls-7" d="M154.68,132.07,151,130.49"/><path class="cls-7" d="M152.62,139.05l-4-.57c-1.39,9.71,4.71,16.65,12.77,21.06l1.92-3.51C156.34,152.16,151.52,146.57,152.62,139.05Z"/><path class="cls-7" d="M152.08,139c-1.14,7.82,3.85,13.6,11,17.54"/><path class="cls-7" d="M150.66,138.77c-1.24,8.6,4.21,14.86,11.74,19"/><path class="cls-7" d="M153.36,145.94l-3.8,1.34"/><path class="cls-7" d="M157.21,151.58l-3,2.7"/></g><path class="cls-7" d="M213.33,123.15c1.39-.71-.07-.32-1.6-.32a9,9,0,0,1-5.88-2.2,33.21,33.21,0,0,0-21.46-7.81,32,32,0,0,0-20.73,7.49c-5.66,4.79-10,11.57-11,18.74-1.1,7.52,3.72,13.11,10.73,17l-1.92,3.51c-8.06-4.41-14.16-11.35-12.77-21.06,1.18-8.27,6.11-15.89,12.42-21.23a36,36,0,0,1,23.31-8.43,37.23,37.23,0,0,1,24,8.76,5.06,5.06,0,0,0,3.3,1.25,5.31,5.31,0,0,0,2.44-.61l-.3,1.73a11.08,11.08,0,0,0,0,2.61.92.92,0,0,1,0,.16C213.86,122.85,213.69,123,213.33,123.15Z"/></g></g><g class="cls-5"><g class="cls-100"><g class="cls-5"><path class="cls-7" d="M213.33,123.15l.84-4.93a5.31,5.31,0,0,1-2.44.61v4C213.26,122.83,214.72,122.44,213.33,123.15Z"/><path class="cls-7" d="M213.44,122.48c1.1-.56-.27-.19-1.71-.19"/><path class="cls-7" d="M213.74,120.71c.33-.17-.81.14-2,.14"/></g><path class="cls-7" d="M213.87,120a10.87,10.87,0,0,0,0,2.77h0c0,.07,0,.16-.55.43Z"/></g></g></g></g></g></svg>