<svg xmlns="http://www.w3.org/2000/svg" viewBox="0 0 380.32 452.65"><defs><style>.cls-1,.cls-2,.cls-3{fill:#f5db12;}.cls-1{fill-opacity:0.51;}.cls-2{fill-opacity:0.81;}.cls-3{fill-opacity:0.96;}</style></defs><g id="Layer_2" data-name="Layer 2"><g id="lines"><path class="cls-1" d="M375,284.91c-1-.56-1.93-1.15-2.86-1.75l-4.7-4.87a3.52,3.52,0,0,0-.48-1.66,7.2,7.2,0,0,0-2.2-3.76c-3.59-3.42-7.54-6.79-11.35-10.3a4.14,4.14,0,0,0-1-1.77,128.24,128.24,0,0,1-11-14.34,4.11,4.11,0,0,0-2.53-1.82,75.25,75.25,0,0,0-7.83-13.27c-3.77-5.23-5.89-11.59-8.42-17.44a9.4,9.4,0,0,0-5.33-5.31,4.25,4.25,0,0,0-.4-1.67,136.23,136.23,0,0,0-17.09-26.57,3.59,3.59,0,0,0-.09-3.9c-.37-.55-.75-1.09-1.13-1.64a3.22,3.22,0,0,0-.72-2.62l-12.12-15.51-.22-.33q-3.46-4.8-6.6-9.77a4.25,4.25,0,0,0-.43-2.2l-18.45-37.5a3.47,3.47,0,0,0-2.16-1.86c-3.42-4.54-7.47-8.7-10.29-13.8a7.4,7.4,0,0,0-3.09-3.09Q236,74.52,226.31,61.71c-.05-.07-.1-.11-.15-.17a3.74,3.74,0,0,0-.22-.51c-.46-.93-.95-1.84-1.42-2.75a141.09,141.09,0,0,0-11.67-23.36,4.87,4.87,0,0,0-.33-.43,3.77,3.77,0,0,0,.21-4.29,58,58,0,0,0-3.26-5.14Q201.93,13.3,193.62,2c-1.76-2.38-5.7-2.94-7.34,0l-2.13,3.82a3.55,3.55,0,0,0-2.57,1.89,36.52,36.52,0,0,0-1.85,4.11c-.22.49-.43,1-.66,1.47a3.67,3.67,0,0,0-3.71,2L174,18a4.41,4.41,0,0,0-7,1.79q-2.58,6.23-5.38,12.35a3.4,3.4,0,0,0-3.94,2q-4.29,9.72-8.59,19.45a4,4,0,0,0-3.17,2.89q-3.69,11.19-8.14,22.07a3.64,3.64,0,0,0-3.8,2,286.76,286.76,0,0,0-19,44.72,4,4,0,0,0-4.73,2.84q-4,13.31-9.22,26.2c-.82,1.65-1.65,3.28-2.55,4.9a4,4,0,0,0-.52,2.46c0,.1-.09.2-.13.29a4.12,4.12,0,0,0-4.93,2.78,451.64,451.64,0,0,1-24.45,56.69,4.25,4.25,0,0,0-.49,2.25c-1.79,3.22-3.57,6.45-5.31,9.69a3.33,3.33,0,0,0-2.26,1.91l-3.79,8.5a192.07,192.07,0,0,1-10.91,19.9A3.63,3.63,0,0,0,43.36,265,37.5,37.5,0,0,0,36.5,276q-3.93,6.42-7.88,12.84c-2.51,4.1-5.42,10.27.32,13.27a4.41,4.41,0,0,0,5.82-1.48c1.61-2.72,3.93-3.55,7-3.22a3.46,3.46,0,0,0,4-3.85,2.14,2.14,0,0,0,.27-.09c-1.07,2.16.2,5.38,2.74,5.83A19.2,19.2,0,0,0,65.22,295l.42.06a29.55,29.55,0,0,0,7.55-.67,26.93,26.93,0,0,0,10.24,0,4,4,0,0,0,1,.27,37.36,37.36,0,0,0,10.25-.13,5.2,5.2,0,0,0,1.54.4c8.27.87,21.42,1,29.56-4.05q3.42.3,6.84.64a45.34,45.34,0,0,0,10.86,1.15q7.83.88,15.62,2a5,5,0,0,0,1.65-.06c.34.09.69.16,1,.24a4.09,4.09,0,0,0,3.8,2.73l24.84.13c14.77,1.74,29.48,5.31,44.41,4.34,1.54-.1,3.08-.27,4.61-.44a72.54,72.54,0,0,0,15.53.33l1.07,0c1.42.4,2.82.88,4.23,1.36a3.74,3.74,0,0,0,4.08,3.73,108.81,108.81,0,0,0,18.86-1.61c3.52,1,7.16,1.38,10.63,0a4.43,4.43,0,0,0,2.4.74l12.31.44a4,4,0,0,0,4.11,1.21,88.5,88.5,0,0,0,9.11-3.21c7.44-.26,14.71.79,22.11-1.47,3.64-1.12,7.07-2.28,10.53-3.13a13,13,0,0,0,10.79-1.27,33,33,0,0,1,3.62.35C377.3,300.38,383.34,289.66,375,284.91Zm-193.55-3.08c.12-.14.23-.28.34-.43l1.15.49C182.45,281.87,182,281.84,181.45,281.83Z"/><path class="cls-2" d="M143.07,30.52c-.93,2.64-5.29,5.34-7.22,7.51A85.38,85.38,0,0,0,128,48.35c-1,1.61-1.95,3.26-2.81,4.93a5.43,5.43,0,0,0-.88.64l-7,6.21a4.18,4.18,0,0,0-2.23,1.23c-1.35,1.38-2.71,2.77-4.09,4.15-2,1.91-4,3.75-6.18,5.48a4.11,4.11,0,0,0-3.7,1.08A134.06,134.06,0,0,1,86,83.57a4.11,4.11,0,0,0-1.74,2.77L79,91c-7,2.76-11.92,8.12-17.18,13.26l-7.38,7.21c-1.07.7-2.14,1.4-3.22,2.09a3.41,3.41,0,0,0-2.86.62L38,121.87l-4.66,2.87c-8,4.92-16.77,9.56-23.88,15.7a22.09,22.09,0,0,0-6.55,9.45c-.58.65-1.16,1.29-1.71,2a6.44,6.44,0,0,0-.5.7,4,4,0,0,0-.57,1.38,1.43,1.43,0,0,0,0,.22.78.78,0,0,0,0,.16,3.82,3.82,0,0,0,.88,3.08c-1.1,3.19-.77,6.41,0,9.93-.11,10.29-1.31,20.56,0,30.83,1.28,9.91,4.67,19.39,5.36,29.39,1.47,21.06.83,42.4,1.13,63.51.1,7.28,11.23,11.07,14.85,3.91l13-25.69a4.33,4.33,0,0,0,1.59-1.93,194.13,194.13,0,0,0,7.4-21c.69-1,1.39-2,2.11-3a3.91,3.91,0,0,0,1.88-1,66.1,66.1,0,0,0,16.3-26.58,3.49,3.49,0,0,0,0-2.12C67,210,69.74,206.54,72,202.78c3.89-6.45,7.13-13.34,10.4-20.15a4.36,4.36,0,0,0,2.32-2.5Q92.62,160,100.49,140a3.42,3.42,0,0,0,.23-1.41,4.56,4.56,0,0,0,.39-.61,111.43,111.43,0,0,0,5.1-11.67l1.49-3.43a8,8,0,0,0,2.85-3.7c4-10.23,10.24-19.77,15.61-29.35a7.12,7.12,0,0,0,0-7.46A6.71,6.71,0,0,0,131,78.48c4-7.93,6.57-16.28,11.62-23.71,4.78-7,12.94-12.06,15.79-20.13C161.78,25.18,146.39,21.12,143.07,30.52Z"/><path class="cls-2" d="M379.47,264a47.76,47.76,0,0,0-5.24-8.2c-.38-7.28-1-14.55-1.82-21.8a4,4,0,0,0,.35-1.67A348,348,0,0,0,370.47,190a4.29,4.29,0,0,0-2.68-3.68,3.9,3.9,0,0,0-2.15-1.85,3.71,3.71,0,0,0-.83-3.46,6.75,6.75,0,0,0-.41-.57c-1.06-1.22-2.16-2.41-3.27-3.6a7.58,7.58,0,0,0-2.06-5.17q-2.07-2.29-4.23-4.48a5.66,5.66,0,0,0-.65-1.14c-3.6-4.89-8.08-8.13-13.4-11.14l-.16-.08c-3.93-4.87-8-9.6-12.24-14.23q-4.38-5.18-9-10.11a3.4,3.4,0,0,0,.21-3,56.06,56.06,0,0,0-7.45-14.31,4.46,4.46,0,0,0-5.08-1.67,76.55,76.55,0,0,0-8.27-7.29c-2.61-6.24-8.45-11-12.92-16-4.82-5.35-9.49-13.78-16.34-16.77a10.78,10.78,0,0,0-3.14-.85q-23.12-23.19-45.54-47c-3.72-3.92-9.7,1.92-6,5.84a113.12,113.12,0,0,1,17,23.24,3.73,3.73,0,0,0,3.08,2l.43.86a3.87,3.87,0,0,0,.15,1.56,28.78,28.78,0,0,0,3.7,8,3.6,3.6,0,0,0,.72,2.74l13.61,19.32a5.06,5.06,0,0,0,.71.8l4.19,7.1a3.13,3.13,0,0,0,.25,1.5,62.49,62.49,0,0,0,9.88,16,89.69,89.69,0,0,0,8.68,12.11,3.37,3.37,0,0,0,.09.34,42.37,42.37,0,0,0,9.87,15.75C290,148,295.31,154,300.78,159.7a4.31,4.31,0,0,0-1.68,6.83q8.76,10.25,17.51,20.48a3.46,3.46,0,0,0,.15,1,128.29,128.29,0,0,0,21,40.18,7.43,7.43,0,0,0,.71,5.25,111.45,111.45,0,0,0,13.41,20.32c4.89,5.91,10.41,11.1,13.8,18C370.1,280.8,383.85,272.94,379.47,264Z"/><path class="cls-2" d="M366.08,304.26c-1.68,1.23-3.34,2.49-5,3.76a3.48,3.48,0,0,0-4.41,1l-1.26,1.44-2,.42a3.85,3.85,0,0,0-1.68-.79c0-.1.09-.18.12-.28,1.08-3-2.26-6-5.23-5.08q-10.85,3.31-21.91,5.9a4.2,4.2,0,0,0-2.39-.59A219,219,0,0,0,283,315c-6-2.88-12.1-5.41-18.76-6.44-7.67-1.18-15.45-1-23.18-1l-25.28,0c-5.79,0-12.76.59-18.11-2.1a22.56,22.56,0,0,1-2.75-1.82c-3.17-2.46-7.37.1-7.41,3q-8.47-1.06-17-1.55-2.92-.22-5.86-.37a4,4,0,0,0-3.82-2.72l-13.89.18a4.43,4.43,0,0,0-2-.55,164,164,0,0,0-32.84,2,3.69,3.69,0,0,0-1.86.84h-1.11c3-2.16.64-8-4-7.28l-35.78,5.27A3.41,3.41,0,0,0,67,303.87l-26.64,4.66a7,7,0,0,1-.85-.22q-2-1.94-4.13-3.72c-3.57-2.93-9.17.72-6.68,5a14.55,14.55,0,0,0,4.09,4.57,4.21,4.21,0,0,0,3,3.17,41.26,41.26,0,0,0,7,9,4,4,0,0,0,3.32,1.16l3.24,3.13a4.53,4.53,0,0,0,1.37.89c1.87,2.94,4.95,5.52,7.13,7.75l3.54,3.61a3.25,3.25,0,0,0,.73,2c.21.28.44.55.67.83h0l.06.06a100.32,100.32,0,0,0,22.36,20.91,78.46,78.46,0,0,0,5.9,7.25,103.82,103.82,0,0,0,22.27,21.52,327.93,327.93,0,0,0,25.23,21.06,3.81,3.81,0,0,0,.9,1l3.73,3a4.3,4.3,0,0,0,3.81,3l14.54,11.58c.68,2.21,2.57,4,4.77,5.44a4.37,4.37,0,0,0,.69,4.91c6.35,7.31,18.14,8.23,25.84,2.75a4.08,4.08,0,0,0,3.47-.12,3.77,3.77,0,0,0,4.38.1l1.42-.92a4.36,4.36,0,0,0,5-.57l16.92-13.78a4,4,0,0,0,.69-.74,701.43,701.43,0,0,0,68.54-46.23c14.51-11.09,30.25-22.38,42.33-36,6-6.72,10.46-14.49,16.95-20.79s13.76-11.88,19.33-19.19C374.37,306.66,369.42,301.81,366.08,304.26Z"/><path class="cls-3" d="M364.57,301.07l-.65.65c-2.81,2.51-8.39,3.23-11.81,4.36-2.74.91-5.47,1.84-8.21,2.76a7.58,7.58,0,0,0-5.4-.36c-9.52,2.63-19.25,2.07-29,1.71-3.81-.14-7.53-.1-11.24.07-18.71-2.38-37.57-3.11-56.43-3.7a7.34,7.34,0,0,0-5.21,1.7c-3.55-.07-7.11-.07-10.66,0l-4.73-.15c-17-.58-33.22-7.69-50.11-8.21A121.27,121.27,0,0,0,153.67,296c-13.12-1.84-25.91.07-39,.27-14.42.21-28.77-1.4-43.08-3-4.32-.48-7,2.86-7.66,6.55l-3.54,1.33a10,10,0,0,0-3.94,2.59c-4.66.34-9.33.54-14,.53a13.2,13.2,0,0,0-2.13-.9,24.15,24.15,0,0,0-15.08.25c-8.91,3-6.64,14.1,2.12,15.22,3.13.4,6.26.64,9.39.78.2.28.41.55.62.83a7.43,7.43,0,0,0,3.16,9.32l7.5,4.72a6.38,6.38,0,0,0,2.45,4.15c1.29,1,2.54,2.09,3.81,3.13.34.41.67.82,1,1.21a5.4,5.4,0,0,0,1,2.42c1.11,1.42,2.25,2.8,3.41,4.16A7.86,7.86,0,0,0,62,353.27a53.1,53.1,0,0,0,6,4.92,106.66,106.66,0,0,0,15.84,12.32,152,152,0,0,0,23.36,20.65,9.64,9.64,0,0,0,1.77,3,174,174,0,0,0,26.83,25.56,8.61,8.61,0,0,0,2.12,2.09l18.93,13.29a3.73,3.73,0,0,0,1.85,4.69l19.8,12a3.8,3.8,0,0,0,4.57-.21l.45.11c1,.31,1.91.59,2.9.81a4.37,4.37,0,0,0,2.65-.24,33.43,33.43,0,0,0,14.29-3.87c7.64-3.84,14.56-9.43,21.53-14.3Q236,426.36,247,418.41c28.73-20.71,57.18-42,84.45-64.5,15.18-12.54,29.07-26.31,42.8-40.31a13.63,13.63,0,0,0,1.55-1.58C382.09,304.43,371.81,293.67,364.57,301.07ZM166.39,410.28q-2.23-2-4.51-4l5.22,3C166.85,409.6,166.61,409.94,166.39,410.28Z"/></g></g></svg>