<?xml version="1.0" encoding="utf-8"?>
<!-- Generator: Adobe Illustrator 24.2.1, SVG Export Plug-In . SVG Version: 6.00 Build 0)  -->
<svg version="1.1" id="Layer_2" xmlns="http://www.w3.org/2000/svg" xmlns:xlink="http://www.w3.org/1999/xlink" x="0px" y="0px"
	 viewBox="0 0 1366 768" style="enable-background:new 0 0 1366 768;" xml:space="preserve">
<style type="text/css">
	.st0{fill:#C82605;}
	.st1{fill:#FFDAED;}
	.st2{opacity:0.2;}
	.st3{fill:#4F3922;}
	.st4{fill:none;}
	.st5{fill:#056CB6;}
	.st6{fill:#FF7783;}
	.st7{fill:#FFF7F7;}
	.st8{fill:#634528;}
	.st9{fill:#4D2700;}
	.st10{fill:#A17D52;}
	.st11{fill:#CCB48B;}
	.st12{fill:#26180B;fill-opacity:0.24;}
</style>
<rect x="236.9" y="-2.4" class="st0" width="798.4" height="762.4"/>
<image style="display:none;overflow:visible;opacity:0.69;" width="1365" height="1365" xlink:href="../PhpstormProjects/web/public/images/malerie-square.jpg"  transform="matrix(0.4881 0 0 0.4949 321.6198 43.4564)">
</image>
<path d="M640.7,516.3c-5.5-2.7-17.5,1.9-41.5,11.1c-25.1,9.6-43.5,16.7-59.7,31.2c-10.1,9-14.5,16.7-33.3,56.4
	c-26.9,57.1-17.8,70.7-32.8,83.5c-9,7.7-18.3,11-17.3,15.2c1.1,5,15.7,5.5,41.9,5.9c79.5,1.3,91.9-0.5,93.4-6.4
	c1-4-3.6-7.6-6.4-11.1C553.5,663.3,662.8,527,640.7,516.3z"/>
<path class="st1" d="M628.4,544.9c-8.8,14.2-42.6,50.1-43.1,50.7c0,0-32.7,37.2-44.5,80l0,0c-3,8.2-12.3,33.3-4.6,43.1
	c3.9,5,9.4,2.4,38.5,2.8c28.4,0.4,29.3,3,38,0.2c12.8-4.1,19.7-13.7,35.2-28.4c18.2-17.1,19.5-22.7,34.8-34
	c15.1-11.1,17.8-8.6,30.1-19.1c13.8-11.7,14.8-18.5,26.9-30.7c6.6-6.6,6.6-4.5,36.6-24.7c20.6-13.8,20.1-14.2,25.5-16.7
	c20.6-9.4,34.8-6.6,36.2-12.6c1.1-4.7-7.3-9.7-19.9-19.5c-12.6-9.9-23.5-21.7-35.3-32.5c-33.3-30.3-35.6-38.8-43-45
	c0,0-2.8-2.1-6-3.9c-11.7-6.4-82.5-17.5-103,16.7C615.4,496.6,645.4,517.5,628.4,544.9z"/>
<path class="st2" d="M715.9,507.4c19.6,23.3,20.4,63.6,10.6,92.8c-22.1,65.7-100.8,84-96.1,102.3c2.8,10.9,32.7,10.2,44.3,10
	c165.9-2.1,230.4,35.2,248.5,3.1c17.8-31.6-29.3-95.4-45.6-117.4c-19-25.7-41.9-47.8-41.9-47.8c-27.6-26.5-40.2-30.5-56.1-53.7
	c-17.4-25.5-11.7-34.7-23.4-45.3C717.4,416,604.1,472.9,607,487C609.2,497.6,682.1,467.2,715.9,507.4z"/>
<path class="st3" d="M617,506.5c-21.3,17.8-68.8,8.6-86.6-13.3c-18.4-22.7-2.4-55.4-24.9-73.1c-13.8-10.8-24.2-1.9-41-13.3
	c-17.4-11.8-29.9-37.3-27-60.4c4.5-35.3,41.9-38.9,56.2-84.6c6.5-20.8-1.9-17.7,4-46.1c0.7-3.2,17.9-80.4,82.6-113.7
	c1.3-0.7,2.4-1.2,3-1.5l2.4,2.1c0,0,0,0,0,0c-1.6,12.3-4.1,32.8-5.2,58.2C571.9,358.4,658.6,471.8,617,506.5z"/>
<path class="st4" d="M616.4,162C0,766.8,0,766.8,0,766.8c0,0,0,0,0,0"/>
<path class="st1" d="M620.6,149.8c-9.4,1.5-57.9,9.1-79,45.5c-4.9,8.5-22.1,38.3-15.2,63.7c1.4,5,5.9,18.2,0.3,31.5
	c-1.8,4.2-3.8,6.6-5.2,8.5c-5.4,7.7-8.8,20.6-3,50c6.3,32,19.8,55.5,46.8,102.5c2.2,3.9,6,10.3,13.4,15.8
	c14.3,10.6,31.5,9.6,40.4,9.1c45.7-2.6,113.9-47.2,120-51.3c26.4-106.3,41.4-154.7,50.4-175.6c0.1-0.2,0.8-1.9,1.2-4.2
	C797.4,207.3,704.6,136.7,620.6,149.8z"/>
<path class="st5" d="M729.7,271.4c-16.5-4.5-37.8-7.9-62-5.2c-27.8,3.2-32.7,11.4-57.1,11.2c-25.7-0.2-32-9.5-61.7-12.4
	c-21.2-2.1-38.8,0.6-49.8,3c0.1,6.1,0.8,14.1,3.3,23.1c4,13.9,10.7,24,15.5,30c5.9,3,15.6,7,28.3,8.2c15.2,1.4,27.4-1.9,34-4.2
	c3.7-3.8,7.9-8.8,11.8-15.2c5.5-8.8,8.5-17,10.3-23.4c3.5-1.3,9-2.7,14.6-0.9c13.2,4.2,12.6,21.4,23.4,33.1
	c15.2,16.4,52.8,21.5,74.1,1.8C733.9,302.7,730.1,274.5,729.7,271.4z"/>
<path class="st6" d="M680.8,382.2c-3.5-1.1-7.3-2.2-11.2-3c-20.6-4.6-39.2-3.7-53.8-1.2c-7.2-1.3-16.3-2.4-26.7-2.1
	c-9.7,0.2-18.1,1.5-24.9,3c0.4,4.9,2.2,18.4,12.8,30.6c13.3,15.5,31,18,35.2,18.5c7-0.2,24.3-1.8,41.6-13.6
	C670.2,403,677.8,388.6,680.8,382.2z"/>
<path class="st7" d="M572.6,384c33.3,1.2,66.6,2.4,99.9,3.6c-3.3,3.5-8.5,8.3-15.8,12.4c-16.3,9.2-31.7,9-37.7,8.8
	c-8-0.2-18.5-0.5-29.5-7.3C580.4,395.9,575.2,388.4,572.6,384z"/>
<path class="st8" d="M593.3,259.9c-3.5-3.7-9.8-9.5-19.4-13.6c-7.6-3.3-14.5-4.3-19.1-4.5c-1.7-0.2-9.4-0.8-16.4,4.5
	c-5.8,4.4-7.7,10.2-8.2,12.1c1.2-1.2,3.4-3.2,6.4-4.9c12.1-6.7,26.9-2.8,43.1,1.8C583.2,256.4,587.9,257.8,593.3,259.9z"/>
<path class="st8" d="M638.2,263.2c4.2-3.7,11.8-9.5,23.3-13.6c9.1-3.3,17.4-4.3,22.9-4.5c2.1-0.2,11.3-0.8,19.6,4.5
	c6.9,4.4,9.2,10.2,9.8,12.1c-1.5-1.2-4-3.2-7.6-4.9c-14.5-6.7-32.2-2.8-51.6,1.8C650.3,259.7,644.7,261.1,638.2,263.2z"/>
<path class="st9" d="M616.5,357.2c1.7-3.7,4.9-6.1,8.5-6.3c3.6-0.2,6.1,2.1,6.7,2.6c-2,0-4.6,0.2-7.5,0.8
	C621.1,355.2,618.5,356.3,616.5,357.2z"/>
<path class="st3" d="M653.4,60c96.4-8.2,159.7,82.1,166.8,92.8c25.6,38.4,31.3,74.5,38.3,118.3c7.5,47.4,12.7,80.3-6.4,107.4
	c-9.7,13.8-22.3,21.3-21,34.6c1.9,19.5,30.9,21.9,33.7,39.1c3.5,21.6-35.6,57.7-73.8,54.6c-35.7-2.9-61-39.3-70.2-68.2
	c-22.5-70.8,47.5-108.2,34.6-169.2C735.8,176,551.7,165,555,112.8C556.8,84,614.4,63.4,653.4,60z"/>
<path class="st8" d="M565.5,91.9c-4.6,19.7,50.5,31.2,104.6,92.3c0,0,55.5,63.7,58.9,131.5c0.1,1.9,0.1,3.5,0,4.9
	c-0.1,3.8-0.4,6.8-0.8,9.5c-1.9,12.4-5.8,23.4-5.8,23.4c-22.9,62.9-35.3,90.6-24,108.7c3.4,5.5,9.3,10.5,19.7,19.3
	c4.2,3.6,11.2,9.5,20.9,15.4c3.4,2.1,16.6,10.1,29.6,13.6c29.5,7.8,64.8-5.9,64.7-15.4c-0.1-6.8-18.6-5.7-30.8-15.4
	c-43.2-33.9,33.4-145.9,3.6-253.1C780.5,134,679.7,66,607.4,72.8C604.2,73.1,569,76.7,565.5,91.9z"/>
<path class="st10" d="M572.3,133.7c8.6,11.7,15.5,13.2,27.6,25.2c11.4,11.3,18.3,22.9,22.4,31c0,0,0.6,0.7,1,1.3
	c95.3,117,254.3,143.2,255.7,138.1c0.6-2.3-31.6-8.2-79.2-41.9c-38.4-27.2-75.1-66.4-88.8-81.8c-50.6-57-57.1-82.8-98.4-102.1
	c-3.3-1.5-42.1-19.3-51.3-7.9C555,103.4,564.3,122.9,572.3,133.7z"/>
<path class="st11" d="M558.2,101.9c-8,4.7,0.9,39.2,15.6,65c6.8,11.9,14.1,20.7,19.5,26.5c0,0,0.5,0.6,0.9,1.1
	c83.1,99.7,222.5,121.4,223.7,117c0.6-2-27.7-6.9-69.3-35.5c-33.5-23.1-65.6-56.5-77.5-69.7c-17.6-19.4-45-49.3-85.8-87
	C572.4,107.4,562.9,99.2,558.2,101.9z"/>
<path d="M718.6,618.3C641.8,691.9,606,706.1,612,721.5c4.9,12.6,31.4,10.4,88.4,10c166.1-1,244,15.7,252.5-10.5
	c0.6-2,1.1-4.8-9.6-26.4c-29.6-60.2-46.8-67.3-74.7-111.5c-5-7.8-15.4-24.9-35.7-33.1c0,0-2.3-0.9-4.4-1.6
	C799.4,539.8,736.9,600.8,718.6,618.3z"/>
<path class="st12" d="M610.1,287c-1.4-0.5-29.4,52.1-14.1,66.5c5.3,5,15.9,5.3,15.8,5.7c-0.1,0.3-7.1,0.5-11.2-2.5
	C585,345.3,611.6,287.5,610.1,287z"/>
<path class="st12" d="M635.6,352.5c0.5-0.9,1.7-3.3,0.9-6c-1-3.7-5-6.5-9.9-6.5c0.7,0.1,5.2,1.1,7.6,5.3
	C636.1,348.4,635.8,351.5,635.6,352.5z"/>
<rect x="389.1" y="682.9" class="st0" width="619.7" height="70.5"/>
</svg>
